<svg width="530" height="644" viewBox="0 0 530 644" fill="none" xmlns="http://www.w3.org/2000/svg">
    <g filter="url(#filter0_b_100_474)">
        <path fill-rule="evenodd" clip-rule="evenodd" d="M528.292 264.058C528.292 336.71 494.241 419.186 444.584 489.78C398.257 555.639 338.076 611.546 278.605 639.657C278.605 639.657 272.616 642.82 264.792 642.82C256.968 642.82 250.979 639.657 250.979 639.657C191.508 611.546 131.327 555.639 85.0001 489.78C35.3434 419.186 1.29199 336.71 1.29199 264.058C1.29199 118.768 119.272 1 264.792 1C410.312 1 528.292 118.768 528.292 264.058ZM494 271.703C494 334.868 464.342 406.572 421.093 467.946C380.744 525.205 328.328 573.81 276.531 598.25C276.531 598.25 271.314 601 264.5 601C257.686 601 252.469 598.25 252.469 598.25C200.672 573.81 148.256 525.205 107.907 467.946C64.6577 406.572 35 334.868 35 271.703C35 145.388 137.756 43 264.5 43C391.244 43 494 145.388 494 271.703Z" fill="#00E0FF" fill-opacity="0.3"/>
        <path d="M276.317 597.798L276.307 597.802L276.297 597.808L276.295 597.809L276.286 597.813L276.245 597.834C276.229 597.842 276.209 597.852 276.186 597.864C276.156 597.879 276.119 597.897 276.076 597.918C275.926 597.99 275.702 598.095 275.41 598.221C274.828 598.473 273.979 598.81 272.919 599.149C270.797 599.825 267.842 600.5 264.5 600.5C261.158 600.5 258.203 599.825 256.081 599.149C255.021 598.81 254.172 598.473 253.59 598.221C253.298 598.095 253.074 597.99 252.924 597.918C252.849 597.881 252.792 597.853 252.755 597.834L252.714 597.813L252.705 597.809L252.703 597.808L252.693 597.802L252.683 597.798C200.986 573.405 148.631 524.87 108.316 467.658C65.1 406.331 35.5 334.727 35.5 271.703C35.5 145.666 138.031 43.5 264.5 43.5C390.969 43.5 493.5 145.666 493.5 271.703C493.5 334.727 463.9 406.331 420.684 467.658C380.369 524.87 328.014 573.405 276.317 597.798ZM444.993 490.067C494.683 419.426 528.792 336.851 528.792 264.058C528.792 118.491 410.588 0.5 264.792 0.5C118.996 0.5 0.791992 118.491 0.791992 264.058C0.791992 336.851 34.9009 419.426 84.5911 490.067C130.949 555.971 191.187 611.945 250.756 640.104C250.759 640.106 250.762 640.107 250.765 640.109L250.767 640.11C250.78 640.117 250.798 640.126 250.822 640.138C250.871 640.163 250.942 640.198 251.034 640.243C251.219 640.332 251.49 640.459 251.838 640.61C252.535 640.912 253.544 641.314 254.799 641.715C257.309 642.516 260.815 643.32 264.792 643.32C268.769 643.32 272.275 642.516 274.785 641.715C276.04 641.314 277.049 640.912 277.746 640.61C278.094 640.459 278.365 640.332 278.55 640.243C278.642 640.198 278.713 640.163 278.762 640.138C278.786 640.126 278.804 640.117 278.817 640.11L278.819 640.109C278.822 640.107 278.824 640.106 278.827 640.105C338.396 611.945 398.635 555.971 444.993 490.067Z" stroke="white"/>
    </g>
    <path d="M251.167 624C251.167 631.364 257.136 637.333 264.5 637.333C271.864 637.333 277.833 631.364 277.833 624C277.833 616.636 271.864 610.667 264.5 610.667C257.136 610.667 251.167 616.636 251.167 624ZM507.5 267.852C507.5 269.233 508.619 270.352 510 270.352C511.381 270.352 512.5 269.233 512.5 267.852H507.5ZM265.438 621.683C206.8 597.95 145.77 543.118 99.3724 477.219C52.9726 411.316 21.5 334.765 21.5 267.852H16.5C16.5 336.167 48.5484 413.718 95.2841 480.097C142.022 546.479 203.742 602.107 263.562 626.317L265.438 621.683ZM21.5 267.852C21.5 134.011 130.289 25.5 264.5 25.5V20.5C127.54 20.5 16.5 131.237 16.5 267.852H21.5ZM264.5 25.5C398.711 25.5 507.5 134.011 507.5 267.852H512.5C512.5 131.237 401.46 20.5 264.5 20.5V25.5Z" fill="white"/>
    <path d="M440 466.474C459.075 437.717 475.267 407.199 487.258 376.5" stroke="white" stroke-width="5" stroke-linecap="round"/>
    <defs>
        <filter id="filter0_b_100_474" x="-9.70801" y="-10" width="549" height="663.82" filterUnits="userSpaceOnUse" color-interpolation-filters="sRGB">
            <feFlood flood-opacity="0" result="BackgroundImageFix"/>
            <feGaussianBlur in="BackgroundImageFix" stdDeviation="5"/>
            <feComposite in2="SourceAlpha" operator="in" result="effect1_backgroundBlur_100_474"/>
            <feBlend mode="normal" in="SourceGraphic" in2="effect1_backgroundBlur_100_474" result="shape"/>
        </filter>
    </defs>
</svg>
