<svg width="177" height="33" viewBox="0 0 177 33" fill="none" xmlns="http://www.w3.org/2000/svg">
    <path d="M11.0763 32.8299L0.00017772 19.5841L0 12.65L11.1269 0H19.4118L5.20447 16.5L19.4118 33L11.0763 32.8299Z" fill="white"/>
    <path d="M28.0746 33H21.344L36.2095 0L51.0673 33H44.3368L36.2077 14.9451L28.0746 33Z" fill="white"/>
    <path fill-rule="evenodd" clip-rule="evenodd" d="M72.1619 0.023538L53.3358 0L53.3824 6.40866L76.131 33H84.1396L73.0549 20.0572C74.9255 20.0572 76.9295 19.1239 79.0667 17.2412C81.2039 15.3665 82.2994 12.9113 82.3466 9.8757C82.3156 7.05967 81.3055 4.71424 79.3171 2.83957C77.3287 0.956845 74.9488 0.023538 72.1619 0.023538ZM67.4184 13.484L61.5237 6.59681H71.6139C72.6084 6.62051 73.4224 6.94972 74.0565 7.56961C74.6907 8.18918 75.0038 9.01285 74.9961 10.0405C74.9883 11.0679 74.6674 11.8916 74.0332 12.5113C73.3991 13.1311 72.5851 13.4604 71.5906 13.484H67.4184Z" fill="white"/>
    <path d="M97.8994 13.0995H86.6114V19.3983H97.8994C98.7839 19.414 99.5435 19.7277 100.169 20.3395C100.796 20.9515 101.109 21.7673 101.109 22.7949C101.093 23.948 100.765 24.8344 100.13 25.4539C99.4963 26.0737 98.6816 26.3953 97.6878 26.4267H86.4076V33H98.2436C101.023 33 103.41 32.0588 105.399 30.184C107.387 28.3091 108.397 25.9089 108.444 22.9831C108.475 20.3162 107.614 18.0726 105.852 16.245C107.614 14.4253 108.475 12.2445 108.444 9.71884C108.412 7.05177 107.411 4.78485 105.422 2.91019C103.434 1.02746 101.046 0.0941521 98.2675 0.0941521H86.4309V6.66742H97.7117C98.7056 6.69112 99.5196 7.02034 100.154 7.64022C100.788 8.25979 101.109 9.01285 101.109 9.90698C101.109 10.7934 100.796 11.5464 100.169 12.1583C99.5435 12.7701 98.7839 13.0838 97.8994 13.0995Z" fill="white"/>
    <path d="M151.106 0H176.647V29.8871L151.106 0Z" fill="white"/>
    <path d="M171.385 33H145.844V3.11271L171.385 33Z" fill="white"/>
    <path fill-rule="evenodd" clip-rule="evenodd" d="M143.492 16.4229C143.492 25.4931 136.14 32.846 127.069 32.846C118 32.846 110.646 25.4931 110.646 16.4229C110.646 7.35277 118 0 127.069 0C136.14 0 143.492 7.35277 143.492 16.4229ZM116.132 16.8812C116.251 16.7785 116.404 16.7244 116.589 16.7187H118.324C118.843 16.7187 119.288 16.5449 119.658 16.1972C120.029 15.8467 120.218 15.3893 120.227 14.8251C120.221 14.3292 120.033 13.9075 119.663 13.5598C119.292 13.2093 118.847 13.034 118.329 13.034H114.584V14.2566H118.226C118.411 14.2623 118.563 14.3164 118.679 14.419C118.799 14.5187 118.858 14.6712 118.854 14.8764C118.854 15.0816 118.795 15.2354 118.675 15.3381C118.558 15.4378 118.407 15.4905 118.222 15.4962H116.486C115.968 15.4962 115.523 15.6714 115.153 16.0219C114.782 16.3696 114.593 16.8113 114.584 17.3471L114.58 19.1809H120.184V17.9583H115.952V17.3471C115.955 17.1362 116.015 16.9809 116.132 16.8812ZM122.825 17.954C122.658 17.9484 122.517 17.9042 122.402 17.8215L125.352 15.6073V17.0393L125.356 17.3342C125.356 17.5394 125.297 17.6933 125.177 17.7959C125.06 17.8957 124.909 17.9484 124.724 17.954H122.825ZM124.724 14.2566C124.891 14.2623 125.033 14.3064 125.147 14.3891L122.197 16.6033V14.8764C122.195 14.6712 122.251 14.5187 122.369 14.419C122.488 14.3164 122.64 14.2623 122.825 14.2566H124.724ZM120.825 14.8251C120.825 14.845 120.827 15.2739 120.829 16.1117C120.827 16.941 120.825 17.3656 120.825 17.3855C120.831 17.8814 121.019 18.3046 121.39 18.6551C121.76 19.0028 122.204 19.1766 122.723 19.1766H124.826C125.345 19.1766 125.79 19.0028 126.16 18.6551C126.53 18.3046 126.718 17.8814 126.724 17.3855C126.724 17.3656 126.723 16.941 126.72 16.1117C126.723 15.2739 126.724 14.845 126.724 14.8251C126.718 14.3292 126.53 13.9075 126.16 13.5598C125.79 13.2093 125.345 13.034 124.826 13.034H122.723C122.204 13.034 121.76 13.2093 121.39 13.5598C121.019 13.9075 120.831 14.3292 120.825 14.8251ZM128.87 16.8812C128.99 16.7785 129.142 16.7244 129.327 16.7187H131.063C131.581 16.7187 132.026 16.5449 132.397 16.1972C132.767 15.8467 132.956 15.3893 132.965 14.8251C132.959 14.3292 132.771 13.9075 132.401 13.5598C132.03 13.2093 131.586 13.034 131.067 13.034H127.322V14.2566H130.965C131.15 14.2623 131.301 14.3164 131.418 14.419C131.537 14.5187 131.596 14.6712 131.593 14.8764C131.593 15.0816 131.533 15.2354 131.413 15.3381C131.297 15.4378 131.145 15.4905 130.96 15.4962H129.225C128.706 15.4962 128.261 15.6714 127.891 16.0219C127.52 16.3696 127.331 16.8113 127.322 17.3471L127.319 19.1809H132.922V17.9583H128.69V17.3471C128.694 17.1362 128.753 16.9809 128.87 16.8812ZM138.278 13.0255V15.4919H134.79V13.0255H133.576V16.7016L138.278 16.7059V19.1681H139.492V13.0255H138.278Z" fill="url(#paint0_linear_502_1035)"/>
    <path d="M11.0763 32.8299L0.00017772 19.5841L0 12.65L11.1269 0H19.4118L5.20447 16.5L19.4118 33L11.0763 32.8299Z" fill="white"/>
    <path d="M28.0746 33H21.344L36.2095 0L51.0673 33H44.3368L36.2077 14.9451L28.0746 33Z" fill="white"/>
    <path fill-rule="evenodd" clip-rule="evenodd" d="M72.1619 0.023538L53.3358 0L53.3824 6.40866L76.131 33H84.1396L73.0549 20.0572C74.9255 20.0572 76.9295 19.1239 79.0667 17.2412C81.2039 15.3665 82.2994 12.9113 82.3466 9.8757C82.3156 7.05967 81.3055 4.71424 79.3171 2.83957C77.3287 0.956845 74.9488 0.023538 72.1619 0.023538ZM67.4184 13.484L61.5237 6.59681H71.6139C72.6084 6.62051 73.4224 6.94972 74.0565 7.56961C74.6907 8.18918 75.0038 9.01285 74.9961 10.0405C74.9883 11.0679 74.6674 11.8916 74.0332 12.5113C73.3991 13.1311 72.5851 13.4604 71.5906 13.484H67.4184Z" fill="white"/>
    <path d="M97.8994 13.0995H86.6114V19.3983H97.8994C98.7839 19.414 99.5435 19.7277 100.169 20.3395C100.796 20.9515 101.109 21.7673 101.109 22.7949C101.093 23.948 100.765 24.8344 100.13 25.4539C99.4963 26.0737 98.6816 26.3953 97.6878 26.4267H86.4076V33H98.2436C101.023 33 103.41 32.0588 105.399 30.184C107.387 28.3091 108.397 25.9089 108.444 22.9831C108.475 20.3162 107.614 18.0726 105.852 16.245C107.614 14.4253 108.475 12.2445 108.444 9.71884C108.412 7.05177 107.411 4.78485 105.422 2.91019C103.434 1.02746 101.046 0.0941521 98.2675 0.0941521H86.4309V6.66742H97.7117C98.7056 6.69112 99.5196 7.02034 100.154 7.64022C100.788 8.25979 101.109 9.01285 101.109 9.90698C101.109 10.7934 100.796 11.5464 100.169 12.1583C99.5435 12.7701 98.7839 13.0838 97.8994 13.0995Z" fill="white"/>
    <path d="M151.106 0H176.647V29.8871L151.106 0Z" fill="white"/>
    <path d="M171.385 33H145.844V3.11271L171.385 33Z" fill="white"/>
    <path fill-rule="evenodd" clip-rule="evenodd" d="M143.492 16.4229C143.492 25.4931 136.14 32.846 127.069 32.846C118 32.846 110.646 25.4931 110.646 16.4229C110.646 7.35277 118 0 127.069 0C136.14 0 143.492 7.35277 143.492 16.4229ZM116.132 16.8812C116.251 16.7785 116.404 16.7244 116.589 16.7187H118.324C118.843 16.7187 119.288 16.5449 119.658 16.1972C120.029 15.8467 120.218 15.3893 120.227 14.8251C120.221 14.3292 120.033 13.9075 119.663 13.5598C119.292 13.2093 118.847 13.034 118.329 13.034H114.584V14.2566H118.226C118.411 14.2623 118.563 14.3164 118.679 14.419C118.799 14.5187 118.858 14.6712 118.854 14.8764C118.854 15.0816 118.795 15.2354 118.675 15.3381C118.558 15.4378 118.407 15.4905 118.222 15.4962H116.486C115.968 15.4962 115.523 15.6714 115.153 16.0219C114.782 16.3696 114.593 16.8113 114.584 17.3471L114.58 19.1809H120.184V17.9583H115.952V17.3471C115.955 17.1362 116.015 16.9809 116.132 16.8812ZM122.825 17.954C122.658 17.9484 122.517 17.9042 122.402 17.8215L125.352 15.6073V17.0393L125.356 17.3342C125.356 17.5394 125.297 17.6933 125.177 17.7959C125.06 17.8957 124.909 17.9484 124.724 17.954H122.825ZM124.724 14.2566C124.891 14.2623 125.033 14.3064 125.147 14.3891L122.197 16.6033V14.8764C122.195 14.6712 122.251 14.5187 122.369 14.419C122.488 14.3164 122.64 14.2623 122.825 14.2566H124.724ZM120.825 14.8251C120.825 14.845 120.827 15.2739 120.829 16.1117C120.827 16.941 120.825 17.3656 120.825 17.3855C120.831 17.8814 121.019 18.3046 121.39 18.6551C121.76 19.0028 122.204 19.1766 122.723 19.1766H124.826C125.345 19.1766 125.79 19.0028 126.16 18.6551C126.53 18.3046 126.718 17.8814 126.724 17.3855C126.724 17.3656 126.723 16.941 126.72 16.1117C126.723 15.2739 126.724 14.845 126.724 14.8251C126.718 14.3292 126.53 13.9075 126.16 13.5598C125.79 13.2093 125.345 13.034 124.826 13.034H122.723C122.204 13.034 121.76 13.2093 121.39 13.5598C121.019 13.9075 120.831 14.3292 120.825 14.8251ZM128.87 16.8812C128.99 16.7785 129.142 16.7244 129.327 16.7187H131.063C131.581 16.7187 132.026 16.5449 132.397 16.1972C132.767 15.8467 132.956 15.3893 132.965 14.8251C132.959 14.3292 132.771 13.9075 132.401 13.5598C132.03 13.2093 131.586 13.034 131.067 13.034H127.322V14.2566H130.965C131.15 14.2623 131.301 14.3164 131.418 14.419C131.537 14.5187 131.596 14.6712 131.593 14.8764C131.593 15.0816 131.533 15.2354 131.413 15.3381C131.297 15.4378 131.145 15.4905 130.96 15.4962H129.225C128.706 15.4962 128.261 15.6714 127.891 16.0219C127.52 16.3696 127.331 16.8113 127.322 17.3471L127.319 19.1809H132.922V17.9583H128.69V17.3471C128.694 17.1362 128.753 16.9809 128.87 16.8812ZM138.278 13.0255V15.4919H134.79V13.0255H133.576V16.7016L138.278 16.7059V19.1681H139.492V13.0255H138.278Z" fill="url(#paint1_linear_502_1035)"/>
    <defs>
        <linearGradient id="paint0_linear_502_1035" x1="126.938" y1="33.2168" x2="126.938" y2="-4.54839e-07" gradientUnits="userSpaceOnUse">
            <stop stop-color="#00E0FF"/>
            <stop offset="1" stop-color="#00FA9C"/>
        </linearGradient>
        <linearGradient id="paint1_linear_502_1035" x1="126.938" y1="33.2168" x2="126.938" y2="-4.54839e-07" gradientUnits="userSpaceOnUse">
            <stop stop-color="#00E0FF"/>
            <stop offset="1" stop-color="#00FA9C"/>
        </linearGradient>
    </defs>
</svg>
