<svg width="190" height="34" viewBox="0 0 190 34" fill="none" xmlns="http://www.w3.org/2000/svg">
    <g clip-path="url(#clip0_200_1140)">
        <path fill-rule="evenodd" clip-rule="evenodd" d="M156.729 16.9074C156.729 26.053 149.377 33.4671 140.306 33.4671C131.236 33.4671 123.883 26.053 123.883 16.9074C123.883 7.76172 131.236 0.347656 140.306 0.347656C149.377 0.347656 156.729 7.76172 156.729 16.9074ZM129.376 17.1083C129.496 17.0049 129.648 16.9503 129.833 16.9445H131.569C132.088 16.9445 132.532 16.7693 132.902 16.4187C133.273 16.0652 133.463 15.6041 133.471 15.0351C133.465 14.5351 133.277 14.1098 132.907 13.7593C132.537 13.4059 132.092 13.2291 131.573 13.2291H127.829V14.4619H131.47C131.656 14.4676 131.807 14.5222 131.924 14.6257C132.043 14.7262 132.102 14.8799 132.099 15.0868C132.099 15.2938 132.039 15.4489 131.919 15.5524C131.803 15.6529 131.651 15.7061 131.467 15.7118H129.731C129.212 15.7118 128.768 15.8886 128.397 16.242C128.027 16.5926 127.837 17.038 127.829 17.5782L127.824 19.4273H133.428V18.1945H129.196V17.5782C129.2 17.3655 129.259 17.2089 129.376 17.1083ZM136.07 18.1902C135.902 18.1845 135.761 18.1399 135.647 18.0566L138.596 15.8239V17.2678L138.601 17.5652C138.601 17.7721 138.541 17.9273 138.421 18.0307C138.305 18.1313 138.154 18.1845 137.968 18.1902H136.07ZM137.968 14.4619C138.136 14.4676 138.277 14.5122 138.392 14.5955L135.442 16.8281V15.0868C135.439 14.8799 135.496 14.7262 135.613 14.6257C135.732 14.5222 135.885 14.4676 136.07 14.4619H137.968ZM134.07 15.0351C134.07 15.0552 134.071 15.4877 134.074 16.3325C134.071 17.1687 134.07 17.5968 134.07 17.6169C134.075 18.1169 134.263 18.5436 134.634 18.8971C135.005 19.2476 135.449 19.4229 135.968 19.4229H138.071C138.589 19.4229 139.034 19.2476 139.404 18.8971C139.775 18.5436 139.963 18.1169 139.969 17.6169C139.969 17.5968 139.967 17.1687 139.965 16.3325C139.967 15.4877 139.969 15.0552 139.969 15.0351C139.963 14.5351 139.775 14.1098 139.404 13.7593C139.034 13.4059 138.589 13.2291 138.071 13.2291H135.968C135.449 13.2291 135.005 13.4059 134.634 13.7593C134.263 14.1098 134.075 14.5351 134.07 15.0351ZM142.114 17.1083C142.234 17.0049 142.387 16.9503 142.572 16.9445H144.307C144.826 16.9445 145.271 16.7693 145.641 16.4187C146.012 16.0652 146.201 15.6041 146.21 15.0351C146.204 14.5351 146.016 14.1098 145.646 13.7593C145.275 13.4059 144.831 13.2291 144.312 13.2291H140.567V14.4619H144.21C144.394 14.4676 144.545 14.5222 144.662 14.6257C144.782 14.7262 144.841 14.8799 144.838 15.0868C144.838 15.2938 144.778 15.4489 144.658 15.5524C144.542 15.6529 144.39 15.7061 144.205 15.7118H142.47C141.951 15.7118 141.506 15.8886 141.136 16.242C140.766 16.5926 140.576 17.038 140.567 17.5782L140.563 19.4273H146.167V18.1945H141.935V17.5782C141.938 17.3655 141.998 17.2089 142.114 17.1083ZM151.524 13.2206V15.7075H148.036V13.2206H146.821V16.9273L151.524 16.9317V19.4143H152.738V13.2206H151.524Z" fill="url(#paint0_linear_200_1140)"/>
        <path fill-rule="evenodd" clip-rule="evenodd" d="M34.3596 33.3462H41.1048L49.2556 15.1019L57.4024 33.3462H64.1474L49.2575 0L34.3596 33.3462ZM32.0863 16.7007C32.0863 21.2981 30.5172 25.2216 27.3871 28.4715C24.2491 31.7212 20.4677 33.3462 16.0431 33.3462C11.6106 33.3462 7.82936 31.7212 4.69922 28.4715C1.56908 25.2216 0 21.2981 0 16.7007C0 12.1035 1.56908 8.17203 4.69922 4.9222C7.82936 1.67245 11.6106 0.0475079 16.0431 0.0475079H16.2707V6.03986H15.8549C13.4072 6.03986 11.3127 7.03061 9.5867 9.01216C7.85284 10.9938 6.98999 13.3876 6.98999 16.1856C6.98999 18.9916 7.85284 21.3773 9.5867 23.359C11.3127 25.3405 13.4072 26.3314 15.8549 26.3314C18.3104 26.3314 20.405 25.3405 22.1309 23.359C23.8646 21.3773 24.7276 18.9916 24.7276 16.1856V15.9795H32.0629C32.0785 16.2094 32.0863 16.4472 32.0863 16.7007ZM66.4209 0L85.2879 0.0237315C88.0809 0.0237315 90.4659 0.96696 92.4587 2.86936C94.4514 4.76371 95.4636 7.13372 95.4948 9.97926C95.4474 13.0467 94.3496 15.5277 92.2077 17.4221C90.0658 19.3245 88.0575 20.2677 86.1828 20.2677L97.2917 33.3462H89.2656L66.4676 6.47582L66.4209 0ZM74.6265 6.66596L80.5341 13.6254H84.7154C85.712 13.6016 86.5278 13.2688 87.1633 12.6425C87.7988 12.0164 88.1204 11.1841 88.1282 10.1458C88.136 9.10736 87.8222 8.27508 87.1867 7.64895C86.5512 7.0227 85.7354 6.68989 84.7387 6.66596H74.6265ZM99.7688 13.2369H111.081C111.968 13.2211 112.729 12.9041 113.356 12.2858C113.984 11.6676 114.298 10.9066 114.298 10.011C114.298 9.10736 113.976 8.34641 113.341 7.72029C112.705 7.09403 111.889 6.76123 110.893 6.7373H99.5879V0.0950607H111.45C114.235 0.0950607 116.628 1.03829 118.62 2.94069C120.613 4.83504 121.617 7.12568 121.649 9.82077C121.68 12.3729 120.817 14.5766 119.052 16.4155C120.817 18.2623 121.68 20.5292 121.649 23.2242C121.601 26.1807 120.589 28.6062 118.597 30.5005C116.604 32.395 114.211 33.3462 111.426 33.3462H99.5645V26.7039H110.869C111.865 26.6722 112.682 26.3472 113.317 25.7209C113.953 25.0948 114.282 24.1992 114.298 23.034C114.298 21.9956 113.984 21.1713 113.356 20.5529C112.729 19.9347 111.968 19.6177 111.081 19.6018H99.7688V13.2369ZM190 0H164.403L190 30.2007V0ZM159.13 33.3462H184.727L159.13 3.14543V33.3462Z" fill="white"/>
    </g>
    <defs>
        <linearGradient id="paint0_linear_200_1140" x1="140.174" y1="33.841" x2="140.174" y2="0.347656" gradientUnits="userSpaceOnUse">
            <stop stop-color="#00E0FF"/>
            <stop offset="1" stop-color="#00FA9C"/>
        </linearGradient>
        <clipPath id="clip0_200_1140">
            <rect width="190" height="34" fill="white"/>
        </clipPath>
    </defs>
</svg>
