<svg width="191" height="37" viewBox="0 0 191 37" fill="none" xmlns="http://www.w3.org/2000/svg">
    <path fill-rule="evenodd" clip-rule="evenodd" d="M164.44 18.2934C164.44 28.3966 156.25 36.5869 146.147 36.5869C136.044 36.5869 127.854 28.3966 127.854 18.2934C127.854 8.19021 136.044 0 146.147 0C156.25 0 164.44 8.19021 164.44 18.2934ZM133.63 18.8038C133.763 18.6895 133.933 18.6292 134.14 18.6229H136.073C136.65 18.6229 137.146 18.4292 137.558 18.042C137.971 17.6515 138.182 17.1421 138.192 16.5136C138.185 15.9612 137.976 15.4914 137.563 15.1042C137.15 14.7137 136.655 14.5185 136.077 14.5185H131.906V15.8803H135.963C136.17 15.8866 136.338 15.9469 136.468 16.0612C136.601 16.1723 136.666 16.3421 136.663 16.5707C136.663 16.7992 136.596 16.9707 136.463 17.0849C136.333 17.196 136.165 17.2548 135.958 17.2611H134.025C133.448 17.2611 132.952 17.4563 132.54 17.8468C132.127 18.234 131.916 18.726 131.906 19.3228L131.902 21.3655H138.144V20.0037H133.43V19.3228C133.433 19.0879 133.5 18.9149 133.63 18.8038ZM141.087 19.9989C140.899 19.9926 140.742 19.9434 140.615 19.8513L143.901 17.3849V18.98L143.905 19.3085C143.905 19.5371 143.839 19.7085 143.705 19.8228C143.575 19.9339 143.407 19.9926 143.201 19.9989H141.087ZM143.201 15.8803C143.388 15.8866 143.545 15.9358 143.672 16.0279L140.387 18.4943V16.5707C140.383 16.3421 140.447 16.1723 140.577 16.0612C140.71 15.9469 140.88 15.8866 141.087 15.8803H143.201ZM138.858 16.5136C138.858 16.5358 138.86 17.0135 138.863 17.9467C138.86 18.8705 138.858 19.3434 138.858 19.3657C138.865 19.918 139.074 20.3894 139.487 20.7798C139.899 21.1671 140.395 21.3607 140.972 21.3607H143.315C143.893 21.3607 144.388 21.1671 144.8 20.7798C145.213 20.3894 145.423 19.918 145.429 19.3657C145.429 19.3434 145.427 18.8705 145.424 17.9467C145.427 17.0135 145.429 16.5358 145.429 16.5136C145.423 15.9612 145.213 15.4914 144.8 15.1042C144.388 14.7137 143.893 14.5185 143.315 14.5185H140.972C140.395 14.5185 139.899 14.7137 139.487 15.1042C139.074 15.4914 138.865 15.9612 138.858 16.5136ZM147.819 18.8038C147.953 18.6895 148.122 18.6292 148.329 18.6229H150.262C150.84 18.6229 151.335 18.4292 151.747 18.042C152.16 17.6515 152.371 17.1421 152.381 16.5136C152.374 15.9612 152.165 15.4914 151.752 15.1042C151.339 14.7137 150.844 14.5185 150.267 14.5185H146.096V15.8803H150.152C150.359 15.8866 150.527 15.9469 150.657 16.0612C150.79 16.1723 150.855 16.3421 150.852 16.5707C150.852 16.7992 150.786 16.9707 150.652 17.0849C150.522 17.196 150.354 17.2548 150.148 17.2611H148.214C147.637 17.2611 147.141 17.4563 146.729 17.8468C146.316 18.234 146.105 18.726 146.096 19.3228L146.091 21.3655H152.333V20.0037H147.619V19.3228C147.622 19.0879 147.689 18.9149 147.819 18.8038ZM158.299 14.509V17.2563H154.414V14.509H153.062V18.6038L158.299 18.6086V21.3512H159.651V14.509H158.299Z" fill="url(#paint0_linear_68_60)"/>
    <path fill-rule="evenodd" clip-rule="evenodd" d="M25.337 35.5672H32.6573H50.3442H57.6645L41.5051 0.308838L25.337 35.5672ZM84.8226 11.0113C84.831 9.91332 84.4903 9.03335 83.8007 8.37123C83.1112 7.70911 82.2255 7.35721 81.1443 7.33201H60.5755V0.308838H81.7488C84.7714 0.308838 87.3679 1.30612 89.5306 3.31769C91.693 5.32056 92.7831 7.82654 92.8171 10.8353C92.7661 14.0786 91.6675 16.7019 89.5049 18.7048C87.3424 20.7163 84.7455 21.7136 81.7232 21.7136H60.5499V14.6904H81.1187C82.2 14.6652 83.0854 14.3133 83.7751 13.6512C84.4648 12.9891 84.814 12.1091 84.8226 11.0113ZM97.4625 7.33201H119.258V0.308838H110.65H97.4625V7.33201ZM97.6631 14.2043H110.24C115.008 14.2043 116.135 15.1782 119.102 17.5651C121.065 19.5178 122.024 21.9147 121.989 24.7642C121.937 27.8903 120.812 30.4548 118.596 32.4578C116.381 34.461 113.721 35.4666 110.624 35.4666H97.4361V28.4435H110.005C111.112 28.41 112.02 28.0663 112.726 27.4042C113.433 26.7422 113.799 25.795 113.817 24.563C113.817 23.4652 113.468 22.5935 112.77 21.9399C112.072 21.2862 111.226 20.9509 110.24 20.9342H97.6631V14.2043ZM170.643 21.4538H191V35.6258H170.643V21.4538ZM170.643 0.308838H191V14.4809H170.643V0.308838ZM11.6918 35.3854L0 21.2332V13.8245L11.7454 0.308838H20.4907L5.49379 17.9379L20.4907 35.5672L11.6918 35.3854Z" fill="white"/>
    <defs>
        <linearGradient id="paint0_linear_68_60" x1="146" y1="37" x2="146" y2="-5.06642e-07" gradientUnits="userSpaceOnUse">
            <stop stop-color="#00E0FF"/>
            <stop offset="1" stop-color="#00FA9C"/>
        </linearGradient>
    </defs>
</svg>
