<svg width="181" height="39" viewBox="0 0 119 26" fill="none" xmlns="http://www.w3.org/2000/svg">
    <path d="M0.909942 2.64859L0.5 2.692C0.505984 2.9506 0.566018 3.18199 0.682032 3.38659C0.795987 3.59199 0.954018 3.74499 1.156 3.84679C1.35798 3.94859 1.60802 3.99999 1.906 3.99999C2.14202 3.99999 2.35198 3.94959 2.54199 3.84859C2.73 3.74779 2.87401 3.60639 2.974 3.42439C3.07399 3.24239 3.12399 3.04959 3.12399 2.84319C3.12399 2.636 3.07998 2.4532 2.98796 2.2946C2.89595 2.1352 2.754 2.0046 2.562 1.901C2.43003 1.8306 2.18597 1.7486 1.83194 1.654C1.47598 1.5604 1.25798 1.4676 1.17202 1.3784C1.08798 1.2884 1.04404 1.1738 1.04404 1.0352C1.04404 0.8748 1.106 0.737796 1.226 0.624396C1.34601 0.510796 1.54001 0.454001 1.80401 0.454001C2.05798 0.454001 2.24999 0.516202 2.38003 0.641402C2.51001 0.765802 2.58593 0.950401 2.60794 1.1946L3.02798 1.1568C3.02001 0.929797 2.96602 0.726197 2.86603 0.546797C2.76404 0.366598 2.62203 0.230601 2.43402 0.138801C2.248 0.0460014 2.03199 0 1.786 0C1.56401 0 1.36203 0.0442005 1.18199 0.1324C0.99803 0.2208 0.862005 0.349598 0.766002 0.519797C0.671994 0.689197 0.623993 0.872002 0.623993 1.0686C0.623993 1.246 0.664015 1.4072 0.740007 1.5504C0.817993 1.6938 0.934007 1.81439 1.09197 1.91179C1.21397 1.98739 1.42599 2.06759 1.72995 2.15319C2.03398 2.23879 2.22998 2.3018 2.318 2.3414C2.45596 2.4036 2.55601 2.47919 2.61605 2.56939C2.67402 2.66039 2.706 2.76579 2.706 2.88639C2.706 3.00539 2.67402 3.1162 2.61199 3.218C2.54797 3.3198 2.45396 3.4 2.32598 3.4586C2.19999 3.5172 2.052 3.54599 1.88599 3.54599C1.69797 3.54599 1.52797 3.5072 1.37799 3.4306C1.228 3.3532 1.11803 3.25219 1.04603 3.12799C0.976024 3.00279 0.929953 2.84319 0.909942 2.64859Z" fill="white"/>
    <path d="M6.51001 2.70719L6.07202 2.5774C6.01198 2.90359 5.89803 3.14859 5.72803 3.31439C5.56002 3.47939 5.35399 3.5622 5.10999 3.5622C4.90795 3.5622 4.72199 3.5018 4.55 3.3802C4.37801 3.2586 4.25195 3.0756 4.16998 2.8298C4.088 2.5848 4.04798 2.29739 4.04798 1.9684C4.04798 1.7136 4.08195 1.46579 4.15196 1.22519C4.21997 0.985595 4.33998 0.793796 4.50998 0.651396C4.67998 0.508997 4.89199 0.437797 5.14397 0.437797C5.36596 0.437797 5.54799 0.501799 5.69399 0.630599C5.83793 0.758598 5.95002 0.964001 6.02601 1.245L6.45596 1.1262C6.36601 0.769396 6.20997 0.4928 5.98399 0.2956C5.76001 0.0982007 5.48197 0 5.15195 0C4.86194 0 4.59401 0.0775983 4.35201 0.233398C4.11001 0.389198 3.92399 0.617198 3.79202 0.916998C3.65998 1.2172 3.59602 1.5684 3.59602 1.97119C3.59602 2.34059 3.654 2.6856 3.77001 3.0082C3.88602 3.32979 4.05602 3.5758 4.27801 3.745C4.5 3.91539 4.79001 3.99999 5.14596 3.99999C5.48796 3.99999 5.78002 3.88919 6.01797 3.66859C6.25398 3.44779 6.41999 3.12799 6.51001 2.70719Z" fill="white"/>
    <path d="M7.12599 0.0647964V3.9352H7.56398V0.0647964H7.12599Z" fill="white"/>
    <path d="M8.34198 0.0647964V3.9352H10.806V3.48119H8.78004V2.1622H10.602V1.7082H8.78004V0.518996H10.726V0.0647964H8.34198Z" fill="white"/>
    <path d="M11.406 0.0647964V3.9352H11.8239V0.897398L13.558 3.9352H14.0059V0.0647964H13.588V3.10279L11.854 0.0647964H11.406Z" fill="white"/>
    <path d="M15.58 0.518996V3.9352H16.0179V0.518996H17.1079V0.0647964H14.492V0.518996H15.58Z" fill="white"/>
    <path d="M17.632 0.0647964V3.9352H18.07V0.0647964H17.632Z" fill="white"/>
    <path d="M18.864 0.0647964V3.9352H19.302V2.17839H20.8519V1.7244H19.302V0.518996H21.0919V0.0647964H18.864Z" fill="white"/>
    <path d="M21.732 0.0647964V3.9352H22.17V0.0647964H21.732Z" fill="white"/>
    <path d="M25.7299 2.70719L25.2919 2.5774C25.2319 2.90359 25.1179 3.14859 24.9479 3.31439C24.7799 3.47939 24.574 3.5622 24.33 3.5622C24.128 3.5622 23.942 3.5018 23.77 3.3802C23.598 3.2586 23.472 3.0756 23.3899 2.8298C23.308 2.5848 23.2679 2.29739 23.2679 1.9684C23.2679 1.7136 23.302 1.46579 23.372 1.22519C23.4399 0.985595 23.5599 0.793796 23.7299 0.651396C23.8999 0.508997 24.112 0.437797 24.3639 0.437797C24.586 0.437797 24.768 0.501799 24.914 0.630599C25.058 0.758598 25.1699 0.964001 25.2459 1.245L25.676 1.1262C25.586 0.769396 25.4299 0.4928 25.204 0.2956C24.9799 0.0982007 24.7019 0 24.372 0C24.082 0 23.814 0.0775983 23.572 0.233398C23.33 0.389198 23.144 0.617198 23.012 0.916998C22.8799 1.2172 22.8159 1.5684 22.8159 1.97119C22.8159 2.34059 22.874 2.6856 22.9899 3.0082C23.1059 3.32979 23.2759 3.5758 23.4979 3.745C23.7199 3.91539 24.01 3.99999 24.366 3.99999C24.708 3.99999 24.9999 3.88919 25.2379 3.66859C25.4739 3.44779 25.64 3.12799 25.7299 2.70719Z" fill="white"/>
    <path fill-rule="evenodd" clip-rule="evenodd" d="M28.2039 0.0647964L26.9359 3.9352H27.4L27.7579 2.76219H29.148L29.5319 3.9352H30.028L28.684 0.0647964H28.2039ZM29.012 2.346H27.8859L28.2479 1.2098C28.3239 0.964799 28.3859 0.717196 28.43 0.464797C28.4859 0.677397 28.564 0.946801 28.668 1.273L29.012 2.346Z" fill="white"/>
    <path d="M30.37 0.0647964V3.9352H30.7899V0.897398L32.5239 3.9352H32.9719V0.0647964H32.552V3.10279L30.8199 0.0647964H30.37Z" fill="white"/>
    <path fill-rule="evenodd" clip-rule="evenodd" d="M33.7059 0.0647964V3.9352H34.8979C35.098 3.9352 35.2759 3.91359 35.4299 3.86939C35.5839 3.82519 35.7139 3.76039 35.8239 3.67479C35.9319 3.59019 36.0319 3.47299 36.1239 3.32439C36.216 3.1756 36.2919 2.98739 36.3499 2.76039C36.4079 2.53339 36.4379 2.273 36.4379 1.9792C36.4379 1.6342 36.3939 1.327 36.3079 1.0586C36.2219 0.7902 36.092 0.570199 35.9159 0.397399C35.7839 0.263999 35.6219 0.171196 35.4319 0.119796C35.2979 0.0827966 35.1019 0.0647964 34.8439 0.0647964H33.7059ZM34.8499 3.48119H34.1439V0.518996H34.8379C35.098 0.518996 35.2859 0.544997 35.4019 0.598197C35.5639 0.672197 35.7019 0.818001 35.8159 1.036C35.9279 1.254 35.9859 1.5658 35.9859 1.97119C35.9859 2.26399 35.9559 2.5126 35.898 2.718C35.8399 2.9234 35.7599 3.08739 35.658 3.20899C35.584 3.29559 35.4839 3.3622 35.3619 3.41C35.2379 3.4576 35.0659 3.48119 34.8499 3.48119Z" fill="white"/>
    <path d="M39.0759 0.518996V3.9352H39.5139V0.518996H40.6039V0.0647964H37.9879V0.518996H39.0759Z" fill="white"/>
    <path d="M41.064 0.0647964V3.9352H43.5259V3.48119H41.502V2.1622H43.3239V1.7082H41.502V0.518996H43.4479V0.0647964H41.064Z" fill="white"/>
    <path d="M46.9219 2.70719L46.4839 2.5774C46.4239 2.90359 46.3099 3.14859 46.1399 3.31439C45.9719 3.47939 45.7639 3.5622 45.5199 3.5622C45.3199 3.5622 45.1339 3.5018 44.9619 3.3802C44.7899 3.2586 44.6619 3.0756 44.5799 2.8298C44.4999 2.5848 44.4579 2.29739 44.4579 1.9684C44.4579 1.7136 44.4939 1.46579 44.5619 1.22519C44.6299 0.985595 44.7499 0.793796 44.9199 0.651396C45.0899 0.508997 45.3019 0.437797 45.5559 0.437797C45.7759 0.437797 45.9599 0.501799 46.1039 0.630599C46.2499 0.758598 46.3619 0.964001 46.4379 1.245L46.8659 1.1262C46.7779 0.769396 46.6219 0.4928 46.3959 0.2956C46.1719 0.0982007 45.8939 0 45.5639 0C45.2719 0 45.0059 0.0775983 44.7639 0.233398C44.5219 0.389198 44.3339 0.617198 44.2039 0.916998C44.0719 1.2172 44.0059 1.5684 44.0059 1.97119C44.0059 2.34059 44.0659 2.6856 44.1819 3.0082C44.2979 3.32979 44.4659 3.5758 44.6899 3.745C44.9119 3.91539 45.2019 3.99999 45.5559 3.99999C45.8999 3.99999 46.1899 3.88919 46.4279 3.66859C46.6659 3.44779 46.8299 3.12799 46.9219 2.70719Z" fill="white"/>
    <path d="M47.4799 0.0647964V3.9352H47.9199V2.1136H49.6259V3.9352H50.064V0.0647964H49.6259V1.6594H47.9199V0.0647964H47.4799Z" fill="white"/>
    <path d="M50.7899 0.0647964V3.9352H51.2099V0.897398L52.9419 3.9352H53.3899V0.0647964H52.9719V3.10279L51.2379 0.0647964H50.7899Z" fill="white"/>
    <path d="M54.1999 0.0647964V3.9352H54.6379V0.0647964H54.1999Z" fill="white"/>
    <path d="M58.1979 2.70719L57.7599 2.5774C57.6999 2.90359 57.5839 3.14859 57.4159 3.31439C57.2459 3.47939 57.0399 3.5622 56.7959 3.5622C56.5959 3.5622 56.4098 3.5018 56.2379 3.3802C56.0659 3.2586 55.9379 3.0756 55.8559 2.8298C55.7759 2.5848 55.7339 2.29739 55.7339 1.9684C55.7339 1.7136 55.7679 1.46579 55.8379 1.22519C55.9059 0.985595 56.0259 0.793796 56.1959 0.651396C56.3659 0.508997 56.5779 0.437797 56.8319 0.437797C57.0519 0.437797 57.2359 0.501799 57.3799 0.630599C57.5259 0.758598 57.6379 0.964001 57.7139 1.245L58.1419 1.1262C58.0539 0.769396 57.8979 0.4928 57.6719 0.2956C57.4479 0.0982007 57.1699 0 56.8399 0C56.5479 0 56.2819 0.0775983 56.0399 0.233398C55.7979 0.389198 55.6098 0.617198 55.4799 0.916998C55.3479 1.2172 55.2819 1.5684 55.2819 1.97119C55.2819 2.34059 55.3399 2.6856 55.4559 3.0082C55.5719 3.32979 55.7419 3.5758 55.9659 3.745C56.1879 3.91539 56.4779 3.99999 56.8319 3.99999C57.1759 3.99999 57.4659 3.88919 57.7039 3.66859C57.9418 3.44779 58.1059 3.12799 58.1979 2.70719Z" fill="white"/>
    <path fill-rule="evenodd" clip-rule="evenodd" d="M59.6439 0.0647964L58.3758 3.9352H58.8399L59.1978 2.76219H60.5879L60.9698 3.9352H61.4679L60.1239 0.0647964H59.6439ZM60.4519 2.346H59.3259L59.6878 1.2098C59.7639 0.964799 59.8259 0.717196 59.8699 0.464797C59.9258 0.677397 60.0038 0.946801 60.1079 1.273L60.4519 2.346Z" fill="white"/>
    <path d="M61.7959 0.0647964V3.9352H63.8578V3.48119H62.2339V0.0647964H61.7959Z" fill="white"/>
    <path d="M65.6619 2.773L65.2699 2.83599C65.2639 3.22159 65.3378 3.51179 65.4899 3.70719C65.6439 3.90279 65.8659 3.99999 66.1559 3.99999C66.3499 3.99999 66.5199 3.95319 66.6639 3.86039C66.8099 3.76659 66.9158 3.63159 66.9818 3.454C67.0499 3.2758 67.0818 3.02519 67.0818 2.70179V0.0647964H66.6438V2.73239C66.6438 2.95399 66.6298 3.11619 66.5998 3.21719C66.5698 3.31799 66.5139 3.3982 66.4339 3.4576C66.3559 3.5162 66.2618 3.54599 66.1519 3.54599C66.0039 3.54599 65.8859 3.491 65.8019 3.382C65.7198 3.2722 65.6719 3.0694 65.6619 2.773Z" fill="white"/>
    <path fill-rule="evenodd" clip-rule="evenodd" d="M68.1059 0.544196C67.8119 0.907195 67.6638 1.41 67.6638 2.0514C67.6638 2.39099 67.7259 2.71259 67.8519 3.01619C67.9778 3.32079 68.1638 3.56039 68.4099 3.73599C68.6539 3.91179 68.9319 3.99999 69.2439 3.99999C69.5298 3.99999 69.7979 3.92079 70.0459 3.76119C70.2939 3.60259 70.4858 3.36839 70.6199 3.05859C70.7559 2.7496 70.8238 2.3982 70.8238 2.0064C70.8238 1.6198 70.7579 1.274 70.6299 0.969397C70.5018 0.663997 70.3159 0.426197 70.0699 0.255798C69.8258 0.0855981 69.5518 0 69.2458 0C68.7798 0 68.3999 0.180997 68.1059 0.544196ZM68.4359 3.16039C68.2218 2.89279 68.1159 2.5262 68.1159 2.0604C68.1159 1.4794 68.2279 1.0648 68.4499 0.816199C68.6739 0.567599 68.9399 0.443198 69.2478 0.443198C69.4658 0.443198 69.6619 0.508 69.8379 0.637C70.0119 0.7658 70.1439 0.947797 70.2359 1.182C70.3259 1.4162 70.3719 1.691 70.3719 2.0054C70.3719 2.5028 70.2659 2.88639 70.0539 3.15679C69.8399 3.42699 69.5699 3.5622 69.2418 3.5622C68.9179 3.5622 68.6499 3.42799 68.4359 3.16039Z" fill="white"/>
    <path d="M73.9878 0.0647964H73.5499V2.2992C73.5499 2.7856 73.4818 3.11359 73.3459 3.28459C73.2099 3.45499 72.9798 3.5406 72.6618 3.5406C72.4738 3.5406 72.3158 3.49739 72.1858 3.41079C72.0558 3.32519 71.9658 3.20179 71.9118 3.04239C71.8598 2.88379 71.8318 2.6352 71.8318 2.2992V0.0647964H71.3939V2.3C71.3939 2.71 71.4379 3.03339 71.5198 3.27039C71.6039 3.50719 71.7439 3.68739 71.9419 3.81259C72.1379 3.93779 72.3898 3.99999 72.6979 3.99999C73.0159 3.99999 73.2718 3.92799 73.4698 3.78479C73.6638 3.64139 73.7998 3.45499 73.8758 3.22699C73.9498 2.99819 73.9878 2.6892 73.9878 2.3V0.0647964Z" fill="white"/>
    <path fill-rule="evenodd" clip-rule="evenodd" d="M74.7258 0.0647964V3.9352H75.1638V2.2162H75.6698C75.7839 2.2162 75.8638 2.22259 75.9138 2.23419C75.9799 2.25399 76.0479 2.28819 76.1118 2.33699C76.1778 2.38659 76.2518 2.47219 76.3338 2.59539C76.4158 2.71899 76.5218 2.89639 76.6479 3.12979L77.0858 3.9352H77.6318L77.0598 2.8812C76.9479 2.6748 76.8259 2.50279 76.6978 2.36579C76.6378 2.30279 76.5518 2.23779 76.4358 2.17299C76.7518 2.12159 76.9858 2.0028 77.1379 1.8144C77.2878 1.6262 77.3638 1.39459 77.3638 1.11979C77.3638 0.907195 77.3199 0.712601 77.2279 0.537001C77.1359 0.361202 77.0139 0.238803 76.8618 0.169403C76.7078 0.100003 76.4839 0.0647964 76.1899 0.0647964H74.7258ZM76.1018 1.773H75.1638V0.491798H76.2078C76.4519 0.491798 76.6299 0.550402 76.7439 0.668402C76.8558 0.786402 76.9118 0.937794 76.9118 1.12079C76.9118 1.24599 76.8838 1.36119 76.8259 1.46759C76.7678 1.57479 76.6819 1.65219 76.5698 1.69999C76.4579 1.74859 76.3018 1.773 76.1018 1.773Z" fill="white"/>
    <path d="M78.0438 0.0647964V3.9352H78.4638V0.897398L80.1958 3.9352H80.6458V0.0647964H80.2258V3.10279L78.4919 0.0647964H78.0438Z" fill="white"/>
    <path fill-rule="evenodd" clip-rule="evenodd" d="M82.2839 0.0647964L81.0179 3.9352H81.4819L81.8399 2.76219H83.2298L83.6118 3.9352H84.1098L82.7658 0.0647964H82.2839ZM83.0938 2.346H81.9678L82.3299 1.2098C82.4058 0.964799 82.4659 0.717196 82.5118 0.464797C82.5659 0.677397 82.6458 0.946801 82.7478 1.273L83.0938 2.346Z" fill="white"/>
    <path d="M84.4378 0.0647964V3.9352H86.4998V3.48119H84.8758V0.0647964H84.4378Z" fill="white"/>
    <path d="M52.3557 14.8425L55.9096 14.8745C55.9254 14.8762 55.9397 14.8773 55.9525 14.8784C55.9946 14.8817 56.0218 14.8839 56.0393 14.8982C56.0714 14.9245 56.07 14.9918 56.0659 15.1834V15.1839C56.0642 15.2636 56.0621 15.3648 56.0617 15.4933C56.0617 15.6836 56.0671 15.8504 56.0718 15.9953C56.0886 16.5154 56.0964 16.753 55.8117 16.7761L52.3957 16.7725V23.9825H55.3496C55.7038 23.9825 55.9399 23.9582 56.0975 23.942C56.2594 23.9253 56.3383 23.9172 56.3771 23.9528C56.414 23.9866 56.4146 24.06 56.4159 24.2031C56.4162 24.241 56.4166 24.2838 56.4177 24.3321C56.4189 24.3742 56.4237 24.4327 56.4304 24.5026C56.4347 24.548 56.4399 24.5983 56.4454 24.652L56.4456 24.6544C56.4874 25.0611 56.5493 25.663 56.4356 25.8615C56.3305 26.0446 55.7378 26.0032 55.3337 25.9749C55.215 25.9667 55.1127 25.9595 55.0437 25.9595L50.6757 25.9471L50.5117 25.7851C50.5117 25.6618 50.511 25.208 50.5099 24.5159V24.4873C50.503 20.0869 50.4815 6.28411 50.5297 6.15214C50.595 5.97689 50.8756 5.99407 51.1094 6.00839C51.1694 6.01206 51.2263 6.01555 51.2757 6.01555H55.8076C55.8774 6.01537 55.9413 6.01185 55.9993 6.00866C56.2708 5.99371 56.4134 5.98585 56.4217 6.36055C56.4243 6.46947 56.4268 6.57089 56.4292 6.66532C56.4604 7.90008 56.4614 7.93983 56.0137 7.93574C55.7205 7.93317 55.4067 7.9263 55.0836 7.91923C54.1766 7.89939 53.1965 7.87795 52.3957 7.94534C52.2951 8.04156 52.3297 9.88382 52.3477 10.8459V10.8485C52.3523 11.091 52.3557 11.2772 52.3557 11.3649V14.8425Z" fill="white"/>
    <path d="M0.5 7.57217V24.3431C0.5 24.8877 0.723985 25.2047 1.10999 25.5233C1.32999 25.7043 1.46196 25.7705 1.76599 25.8515C2.46728 26.0392 5.48152 26.0037 7.25069 25.9829C7.67639 25.9779 8.03003 25.9737 8.262 25.9737C9.55597 25.9737 10.5 25.3423 10.5 24.4595V15.9578C10.5 15.8214 10.384 15.7248 10.2199 15.7248H5.67398C5.32188 15.7248 5.34685 16.2288 5.37722 16.8417V16.8449C5.38636 17.0283 5.39601 17.2214 5.39601 17.4135C5.39601 17.5497 5.51202 17.6464 5.67398 17.6464H7.91196V23.9937H3.08802V7.92157H7.91196V12.1144C7.91196 12.2508 8.02797 12.3474 8.19199 12.3474H10.2199C10.384 12.3474 10.5 12.2508 10.5 12.1144V7.57217C10.5 7.12717 10.296 6.75257 10.03 6.50857C9.76799 6.26817 9.33797 5.99997 8.82199 5.99997H2.318C1.29202 5.99997 0.5 6.70477 0.5 7.57217Z" fill="white"/>
    <path fill-rule="evenodd" clip-rule="evenodd" d="M24.4996 24.4255V7.51597C24.4996 6.67257 25.1776 5.99997 25.7876 5.99997H31.1036C31.9216 5.99997 32.4996 6.75337 32.4996 7.63257V24.2507C32.4996 25.4289 31.8177 25.9999 30.7276 25.9999H26.2176C25.4736 25.9999 24.9336 25.7391 24.6416 25.0881C24.5497 24.8865 24.4996 24.7039 24.4996 24.4255ZM30.5136 7.94197L26.4856 7.89857C26.457 7.925 26.4381 7.93221 26.4259 7.94553C26.4026 7.97077 26.4033 8.01796 26.4067 8.25959L26.4077 8.33217C26.4192 9.1946 26.412 11.4362 26.4037 13.9661V13.9748C26.3893 18.4324 26.3719 23.7807 26.4497 24.0579H30.5136C30.5496 22.4123 30.6416 8.20677 30.5136 7.94197Z" fill="white"/>
    <path d="M36.4997 6.23298V25.7977C36.5258 25.8174 36.5481 25.8349 36.5675 25.8504L36.5964 25.8736C36.6859 25.9458 36.7109 25.966 36.8337 25.9723C37.3397 25.9989 38.5417 26.0537 38.9697 25.8559V7.92157H43.6437V14.6762H40.1717C39.5391 14.6762 39.6616 14.9807 39.9 15.574C39.936 15.6635 39.9746 15.7596 40.0137 15.8622L43.2337 23.9417C43.4057 24.3921 43.9177 25.7223 44.1097 25.9723H46.2477C46.7312 25.9723 46.4072 25.2539 46.1906 24.7736L46.1891 24.77L46.1489 24.6806C46.1333 24.6457 46.1188 24.6127 46.1057 24.5819L44.2357 20.0401C44.0477 19.6007 42.8637 16.8316 42.8417 16.5976C42.9199 16.5976 42.9996 16.5979 43.0804 16.5983C44.4404 16.6047 46.1137 16.6127 46.1137 14.8508V7.74677C46.1137 6.77958 45.4637 5.99997 44.3777 5.99997H36.7677C36.6097 5.99997 36.4997 6.09658 36.4997 6.23298Z" fill="white"/>
    <path d="M91.6209 7.95513L91.6211 7.95422L91.6212 7.95647L91.622 7.96973L91.6236 7.98947L91.6263 8.01775L91.6287 8.04022C91.631 8.06034 91.6339 8.08483 91.6377 8.11452L91.6337 14.7493L88.1837 14.7759C87.9737 14.8471 87.7717 15.1539 87.7837 15.3287C87.7878 15.3714 87.8928 15.6219 87.9742 15.8161C88.0119 15.906 88.0445 15.9838 88.0597 16.0233L90.0337 20.9837C90.0516 21.0315 90.0689 21.0786 90.0859 21.1252L90.1161 21.2083L90.1168 21.2104C90.1794 21.3828 90.2402 21.5503 90.3156 21.7257L92.0337 25.9803H94.2897L94.4997 25.7565L93.5857 23.4553C93.5689 23.4184 93.5539 23.3828 93.5398 23.3482C93.5166 23.2908 93.4963 23.2362 93.4764 23.1827L93.4756 23.1804L93.4752 23.1796L93.4749 23.1788L93.4745 23.178L93.4741 23.1772L93.4737 23.1763C93.4388 23.0826 93.4051 22.9922 93.3597 22.8965C93.0868 22.319 92.7672 21.4935 92.4451 20.6613C92.1178 19.816 91.7879 18.9639 91.5017 18.3581C91.4201 18.1847 91.3168 17.9191 91.2082 17.6398C91.0587 17.2554 90.8991 16.8448 90.7717 16.6125C90.8224 16.6125 90.8727 16.6126 90.9225 16.6129C90.998 16.6132 91.0726 16.6138 91.1462 16.6143C92.0191 16.6208 92.755 16.6262 93.3217 16.2881C94.0319 15.8642 94.0294 15.4297 94.0246 14.5309C94.0241 14.4526 94.0237 14.3707 94.0237 14.2851V9.10671C94.0237 8.92473 94.0314 8.73868 94.0391 8.55241V8.55054C94.0801 7.56239 94.1213 6.56868 93.0197 6.14652C92.666 6.01113 92.3518 6.01511 91.9214 6.02057C91.8311 6.02171 91.7357 6.02292 91.6337 6.02292C90.9489 6.02292 90.1954 6.01749 89.422 6.01191C87.8736 6.00073 86.2449 5.98898 84.9257 6.01912C84.4706 6.02951 84.4819 6.26074 84.5128 6.88983C84.5223 7.08463 84.5337 7.31757 84.5337 7.59392V25.8639C84.8845 26.0269 85.7221 26.005 86.3483 25.9886C86.5147 25.9842 86.6662 25.9803 86.7897 25.9803L86.9737 25.7933L86.9877 7.94292H91.5677C91.6151 8.00803 91.6202 7.96233 91.6209 7.95513Z" fill="white"/>
    <path d="M72.4999 24.3427V6.23298C72.4999 6.09658 72.59 5.99997 72.7179 5.99997H74.2959C74.424 5.99997 74.5139 6.09658 74.5139 6.23298V23.9933H78.486V6.17457C78.486 6.04057 78.524 5.99997 78.65 5.99997H80.2819C80.4099 5.99997 80.5 6.09658 80.5 6.23298V24.0515C80.5 25.3359 79.9039 25.9733 78.7039 25.9733C78.5205 25.9733 78.2383 25.9775 77.8974 25.9826C76.4759 26.0036 74.0341 26.0398 73.484 25.8509C73.248 25.7697 73.148 25.7041 72.976 25.5229C72.706 25.2395 72.4999 24.8913 72.4999 24.3427Z" fill="white"/>
    <path d="M60.4999 7.74917V11.4228C60.4999 11.984 60.6299 12.4654 60.8559 12.8114L61.2338 13.3036C61.2768 13.3553 61.2982 13.388 61.3185 13.4189C61.3446 13.4586 61.3687 13.4954 61.4339 13.566L62.7339 15.1652C62.7577 15.1953 62.773 15.2107 62.7891 15.2269C62.8041 15.242 62.8198 15.2579 62.8438 15.287C62.8872 15.3392 62.9091 15.3721 62.9295 15.4026C62.9562 15.4426 62.9801 15.4785 63.0459 15.5486C63.1233 15.6306 63.1458 15.6622 63.1784 15.708C63.1962 15.7331 63.2172 15.7625 63.2519 15.807L66.0398 19.2203C66.0503 19.233 66.0593 19.2431 66.0673 19.2518L66.0789 19.2639L66.094 19.279L66.105 19.29L66.1122 19.2974L66.1213 19.3073L66.131 19.3183C66.1367 19.3252 66.1429 19.3329 66.1499 19.3419C66.1836 19.3849 66.1907 19.3982 66.1977 19.4111C66.2048 19.4241 66.2116 19.4368 66.2458 19.4797C66.273 19.514 66.3007 19.5395 66.3261 19.5627C66.3829 19.6148 66.4278 19.656 66.4278 19.7609V24.0175H62.6299V19.4693C62.6299 19.3329 62.5339 19.2361 62.3999 19.2361H60.7298C60.5959 19.2361 60.4999 19.3329 60.4999 19.4693V24.2507C60.4999 25.4315 61.2479 25.9999 62.3999 25.9999H66.6579C67.6378 25.9999 68.4999 25.4777 68.4999 24.6005V19.5859C68.4999 18.9265 68.0719 18.3313 67.6499 17.8807L65.3238 15.049C65.2896 15.0054 65.2722 14.9787 65.2567 14.9549C65.2332 14.9189 65.2142 14.8896 65.1479 14.8188L63.9679 13.3902C63.9259 13.3397 63.9045 13.3074 63.8844 13.2771L63.884 13.2765C63.8574 13.2362 63.833 13.1994 63.7658 13.1278C63.6811 13.0361 63.6777 13.0313 63.6337 12.9698L63.6095 12.9361L63.5858 12.9036L62.9859 12.1698C62.9629 12.14 62.9284 12.103 62.8898 12.0616C62.7773 11.941 62.6299 11.783 62.6299 11.656V7.92417H66.4278V12.1224C66.4278 12.259 66.5239 12.3558 66.6579 12.3558H68.2698C68.4039 12.3558 68.4999 12.259 68.4999 12.1224V7.45777C68.4999 6.80833 68.156 6.51433 67.9661 6.35194C67.9461 6.33485 67.9278 6.31921 67.9118 6.30478C67.7079 6.12118 67.4238 5.99997 67.1178 5.99997H61.9958C61.0599 5.99997 60.4999 6.78057 60.4999 7.74917Z" fill="white"/>
    <path d="M104.46 19.9468C104.467 19.7673 104.471 19.6742 104.347 19.556C104.321 19.5432 104.304 19.537 104.292 19.533L104.287 19.5313C104.28 19.5288 104.275 19.5271 104.27 19.5245C104.26 19.5185 104.252 19.5081 104.226 19.4739L104.197 19.4372C104.176 19.4102 104.166 19.3922 104.155 19.3742C104.139 19.348 104.123 19.3219 104.075 19.2682L98.8535 12.7844C98.6975 12.5396 98.6275 12.3072 98.5735 11.964C98.5035 11.5064 98.4835 8.11021 98.5214 7.53841C98.5654 6.90581 98.9335 6.39381 99.3955 6.16061C99.7982 5.95778 101.834 5.99604 103.007 6.01809C103.284 6.02331 103.513 6.02761 103.661 6.02761C103.827 6.02761 103.99 6.02254 104.15 6.01757C105.008 5.9909 105.772 5.96713 106.267 6.74601C106.516 7.1372 106.487 8.45698 106.468 9.34168L106.468 9.3512C106.463 9.54998 106.459 9.7264 106.459 9.8648C106.459 10.4249 106.471 10.8606 106.48 11.1994C106.499 11.9075 106.507 12.1918 106.372 12.3029C106.282 12.3774 106.127 12.374 105.869 12.3684C105.79 12.3667 105.702 12.3648 105.603 12.3648C105.241 12.3648 104.879 12.3648 104.531 12.3522L104.347 12.1904V7.94621H100.635C100.635 8.00233 100.635 8.14041 100.633 8.33244C100.626 9.29616 100.609 11.6186 100.659 11.7592L101.933 13.3682C101.939 13.3748 101.945 13.3809 101.95 13.3866C101.961 13.3976 101.97 13.4071 101.98 13.4158L101.994 13.4298C102.02 13.4541 102.043 13.476 102.073 13.5166L103.787 15.6096C103.816 15.6476 103.831 15.6707 103.845 15.692C103.865 15.7222 103.882 15.7488 103.933 15.8092L103.971 15.8524C104.007 15.8939 104.014 15.9028 104.061 15.9694L105.203 17.3646C105.39 17.6255 105.564 17.8269 105.72 18.0071C106.164 18.5203 106.461 18.8626 106.459 19.9228V22.4228C106.459 22.6777 106.47 22.9331 106.48 23.1837C106.535 24.5508 106.585 25.773 104.913 25.9654C104.464 26.0172 103.776 25.9992 103.16 25.9832C102.885 25.976 102.624 25.9692 102.405 25.9692C102.227 25.9692 102.022 25.9758 101.804 25.983C100.826 26.0149 99.5677 26.0559 99.0495 25.5492C98.8195 25.3234 98.6575 25.1112 98.5835 24.7452C98.479 24.2227 98.4959 23.5548 98.512 22.9164V22.915C98.5178 22.6863 98.5236 22.4614 98.5236 22.2484C98.5236 21.6505 98.5173 21.169 98.5121 20.7815V20.7695C98.4981 19.7083 98.4935 19.3577 98.6526 19.2509C98.731 19.1983 98.8493 19.2049 99.0259 19.2148C99.1109 19.2196 99.2094 19.2251 99.3234 19.2252H100.521C100.557 19.2687 100.553 19.2764 100.546 19.2904C100.542 19.2999 100.535 19.3124 100.54 19.3414C100.67 19.6833 100.633 21.9374 100.612 23.2405L100.612 23.2493C100.606 23.5933 100.602 23.8701 100.602 24.0266C100.727 24.0266 100.959 24.0297 101.249 24.0335C102.315 24.0477 104.166 24.0723 104.417 23.9926C104.487 23.7097 104.473 22.2594 104.462 21.1562C104.457 20.7157 104.453 20.3306 104.456 20.0972C104.456 20.0407 104.458 19.9911 104.46 19.9468Z" fill="white"/>
    <path d="M14.4999 6.23298V25.8007C14.5295 25.8301 14.5525 25.8546 14.5717 25.875C14.6408 25.9485 14.66 25.9689 14.754 25.9753C15.3365 26.0153 17.4138 25.9976 18.9392 25.9847C19.5297 25.9797 20.0375 25.9753 20.3439 25.9753C20.5166 25.7486 20.5133 25.724 20.4866 25.5221C20.4702 25.399 20.4451 25.21 20.4459 24.8689C20.4462 24.7982 20.4472 24.7345 20.4481 24.6761L20.4483 24.6688C20.4533 24.3609 20.4559 24.2016 20.3439 23.9369C20.219 23.9369 20.1503 23.9508 20.0799 23.9651C20.006 23.98 19.9303 23.9953 19.7859 23.9953H16.3799V16.7738H19.8879C20.0039 16.7738 20.0399 16.7333 20.0399 16.5991V15.0268C20.0399 14.8904 19.9559 14.7938 19.8359 14.7938H16.3799V7.92177H20.2439C20.3599 7.92177 20.3959 7.88137 20.3959 7.74717V6.17477C20.3959 6.04057 20.3599 5.99997 20.2439 5.99997H14.7039C14.5839 5.99997 14.4999 6.09658 14.4999 6.23298Z" fill="white"/>
    <path d="M113.586 15.0896L113.491 15.2112L113.42 15.0314C113.444 14.8498 113.166 13.9521 112.972 13.3244L112.971 13.3209C112.895 13.0778 112.833 12.8755 112.805 12.7718C112.69 12.3408 112.551 11.8899 112.415 11.4443L112.413 11.4398C112.319 11.1331 112.226 10.8289 112.141 10.5356C112.095 10.3747 112.05 10.2167 112.006 10.0605L111.994 10.0176L111.992 10.013C111.828 9.43743 111.671 8.88442 111.482 8.2964L110.817 6.003C110.634 6.003 110.45 6.00338 110.265 6.00377C109.887 6.00456 109.507 6.00536 109.128 6.0028C108.428 5.9982 108.373 6.0218 108.667 6.83999C109.204 8.33259 109.89 10.5385 110.463 12.3827C110.677 13.0699 110.875 13.7069 111.043 14.238C111.182 14.6741 111.354 15.138 111.528 15.6061C111.813 16.3708 112.101 17.1468 112.251 17.8312C112.365 18.3557 112.336 22.7642 112.323 24.8499C112.32 25.2947 112.318 25.6338 112.318 25.8072L112.517 25.9696C112.644 25.9724 112.781 25.9768 112.923 25.9813C113.39 25.996 113.912 26.0126 114.322 25.9856C114.682 25.9619 114.669 25.6558 114.646 25.0837C114.639 24.9195 114.631 24.7334 114.631 24.5258L114.629 18.4658C114.633 18.1332 115.092 16.711 115.202 16.3786C115.255 16.2162 115.307 16.0526 115.359 15.8884C115.448 15.6059 115.538 15.3217 115.64 15.0388L118.462 6.4226C118.549 6.1022 118.511 6.0012 118.073 6.0002C117.72 5.99952 117.365 6.0005 117.011 6.00149C116.738 6.00224 116.466 6.003 116.193 6.003L114.869 10.5356C114.854 10.5884 114.806 10.7444 114.738 10.9687C114.4 12.0691 113.559 14.8145 113.586 15.0896Z" fill="white"/>
</svg>
