<svg width="113" height="54" viewBox="0 0 54 24" fill="none" xmlns="http://www.w3.org/2000/svg">
    <path fill-rule="evenodd" clip-rule="evenodd" d="M49.7759 19.242V19.9229H50.4926V22.8422H51.3309V19.9229H52.0015V19.242H49.7759ZM39.6939 19.242V22.8422H40.6063V21.3128H41.688V20.6304H40.6063V19.9229H41.8156V19.242H39.6939ZM29.5317 19.242V22.8422H31.6505V22.1598H30.4442V21.3128H31.5229V20.6304H30.4442V19.9229H31.6505V19.242H29.5317ZM18.9659 19.242V22.8422H19.8354V21.9892C19.8354 21.6036 19.7256 21.0309 19.6826 20.6512H19.6885L20.4749 22.8422H21.3547V19.242H20.4853V20.1394C20.4853 20.5355 20.601 21.1022 20.6277 21.5027H20.6232L19.8473 19.242H18.9659ZM17.451 18.3475H53.5164V23.8672H17.451V18.3475ZM12.0294 9.16377C11.8662 9.39963 11.3113 10.5344 11.3216 11.8576C11.3602 13.2253 11.7623 14.1109 12.0205 14.5767C12.2891 14.102 12.746 13.0606 12.7089 11.7389C12.6526 10.3875 12.1733 9.39963 12.0294 9.16377ZM38.676 8.33751V11.862H39.1152C39.2947 11.862 39.4253 11.7093 39.4253 11.4497V8.74992C39.4253 8.4918 39.2947 8.33751 39.1152 8.33751H38.676ZM33.7499 8.33751V11.862H34.1891C34.3702 11.862 34.4992 11.7093 34.4992 11.4497V8.74992C34.4992 8.4918 34.3702 8.33751 34.1891 8.33751H33.7499ZM24.3682 8.33751L24.0804 12.4777H24.7496L24.4617 8.33751H24.3682ZM44.0071 8.33452C43.8172 8.33452 43.6599 8.46209 43.6391 8.62823L43.6376 8.6505V8.67567V14.2237V14.237C43.6376 14.418 43.8038 14.5648 44.0071 14.5648C44.2104 14.5648 44.378 14.418 44.378 14.237C44.378 14.231 44.3765 14.2281 44.3765 14.2237V8.67567V8.6505L44.3736 8.62823C44.3558 8.46209 44.1985 8.33452 44.0071 8.33452ZM8.79038 7.35253V13.562C7.54107 13.562 6.29323 14.013 5.33918 14.9178C5.11365 15.1329 4.91483 15.3643 4.74123 15.6091C3.46225 17.4114 3.66255 19.8798 5.33918 21.4774C6.29323 22.3808 7.54107 22.8362 8.79038 22.8362C10.0338 22.8362 11.2771 22.3853 12.2282 21.4878C12.2327 21.4834 12.2371 21.4805 12.2416 21.4745C12.246 21.4716 12.2505 21.4671 12.2549 21.4641C13.209 20.5592 13.209 19.0862 12.2549 18.1799C11.3009 17.2735 9.75482 17.2735 8.80078 18.1799C8.79781 18.1843 8.79335 18.1873 8.79038 18.1917V15.5884H15.1304V21.2534C13.5458 22.8614 11.2935 23.8672 8.79038 23.8672C3.99195 23.8672 0.101562 20.1706 0.101562 15.6091C0.101562 11.0506 3.99195 7.35253 8.79038 7.35253ZM18.6899 7.31097H20.0743C21.2435 7.31097 21.3147 8.20992 21.3147 8.78993V9.94105H19.7523V8.67567V8.6505L19.7508 8.62823C19.73 8.46209 19.5742 8.33452 19.3828 8.33452C19.1914 8.33452 19.0342 8.46209 19.0149 8.62823L19.0134 8.6505V8.67567V14.2237C19.0134 14.2281 19.0134 14.231 19.0134 14.237C19.0134 14.418 19.1781 14.5648 19.3828 14.5648C19.5876 14.5648 19.7523 14.418 19.7523 14.237C19.7523 14.231 19.7523 14.2281 19.7523 14.2237V12.4406H19.3161V11.506H21.3147V14.108C21.3147 14.688 21.2435 15.5884 20.0743 15.5884H18.6899C17.5193 15.5884 17.451 14.688 17.451 14.108V8.78993C17.451 8.20992 17.5193 7.31097 18.6899 7.31097ZM46.9998 7.31097H49.172L50.2566 13.1289L51.3442 7.31097H53.5164V15.5884H51.8442V10.3965H51.7864L50.9258 15.5884H49.5904L48.7313 10.3965H48.672V15.5884H46.9998V7.31097ZM27.3313 7.31097H31.0421V8.34339L29.091 14.5233H31.1401V15.5884H27.3016V14.5425L29.2542 8.34638H27.3313V7.31097ZM43.3142 7.30952H44.6985C45.8677 7.30952 45.9389 8.20996 45.9389 8.78849V14.108C45.9389 14.688 45.8677 15.5884 44.6985 15.5884H43.3142C42.1435 15.5884 42.0738 14.688 42.0738 14.108V8.78849C42.0738 8.20996 42.1435 7.30952 43.3142 7.30952ZM37.0053 7.30952H39.6301C40.7992 7.30952 40.9847 8.20996 40.9847 8.78849V11.2939C40.9847 11.6885 40.8986 12.2299 40.4758 12.537L41.2829 15.5884H39.4965L38.9505 12.7729H38.676V15.5884H37.0053V7.30952ZM32.0793 7.30952H34.7055C35.8732 7.30952 36.0602 8.20996 36.0602 8.78849V11.2939C36.0602 11.8739 35.8732 12.7743 34.7055 12.7743H33.7499V15.5884H32.0793V7.30952ZM23.1026 7.30952H25.7273L26.5983 15.5884H24.9647L24.8089 13.3884H24.021L23.8652 15.5884H22.2316L23.1026 7.30952ZM12.0101 1.31064C11.887 1.4931 11.2267 2.64129 10.6436 4.44213C10.4893 4.98061 10.2103 6.15095 10.1643 7.29169C10.1079 8.67273 10.3053 10.0478 10.3839 10.4335C10.3839 9.97661 10.3928 8.45171 10.691 7.19082C10.9863 5.93142 11.5516 4.47922 12.0101 3.739C12.5086 4.51779 13.1303 6.19395 13.3499 7.1997C13.571 8.20544 13.6853 9.49308 13.6378 10.4039C13.7713 9.8758 13.8752 8.98875 13.8959 8.15063C13.9138 7.31103 13.8292 5.88544 13.3989 4.39759C12.9671 2.90825 12.1347 1.4931 12.0101 1.31064ZM12.0205 0.132812C12.2015 0.426526 13.522 2.21406 14.0488 4.41542C14.574 6.61531 14.5651 7.96816 14.3351 9.5109C13.9241 12.2863 12.6036 14.412 12.0294 15.1225C11.6377 14.639 11.0353 13.654 10.6332 12.7328C10.6332 12.7328 9.87649 10.9809 9.67618 9.27351C9.47587 7.56463 9.56192 5.83202 10.145 3.8769C10.6807 2.12352 11.7341 0.543714 12.0205 0.132812Z" fill="white"/>
</svg>
