<svg width="315" height="55" viewBox="0 0 98 20" fill="none" xmlns="http://www.w3.org/2000/svg">
    <path fill-rule="evenodd" clip-rule="evenodd" d="M33.0423 4.4039H32.6444V7.64365H31.1295V0.0588379H32.6444V3.41789L32.9983 3.26617L35.1323 0.0588379H36.8574L34.6016 3.24445L34.0045 3.65617L34.6237 4.0789L37.2 7.64365H35.3314L33.0423 4.4039ZM24.1291 0.0588379V19.3069H23.6901V0.0588379H24.1291ZM0.219315 0.0588379H16.7145H16.9124H16.9339V0.0800979V0.273871V12.9811V13.0393L16.9341 13.0412L16.9343 13.0547L16.9339 13.0952V13.1751V13.1962H16.9317C16.9052 13.9638 16.6648 14.7546 16.2508 15.5125C15.826 16.2891 15.2189 17.0313 14.4725 17.6781C13.6887 18.357 12.7502 18.9322 11.7081 19.3328C10.7433 19.7035 9.68943 19.9247 8.58688 19.9397L8.46713 19.9412C7.37283 19.9412 6.32611 19.7479 5.36563 19.4082C4.33986 19.0456 3.41196 18.5158 2.62799 17.8766C1.83743 17.2318 1.19233 16.4748 0.739163 15.6634C0.298693 14.8746 0.0394588 14.0341 0.00428233 13.1962H0V13.1751V13.0004V12.9811V0.273871V0.0800979V0.0588379H0.0215634H0.219315ZM6.10679 17.5674H6.34859V16.8938L6.37474 16.7778L6.29123 16.8784L6.1363 16.9824L6.04056 16.8545L6.43744 16.5408H6.56438V17.5674H6.80114V17.755H6.10679V17.5674ZM7.37039 17.4634C7.37039 17.4236 7.37558 17.3881 7.38614 17.3568C7.39654 17.3254 7.41122 17.2971 7.43049 17.2714C7.44976 17.2459 7.4724 17.223 7.4984 17.2025C7.52455 17.182 7.55269 17.1632 7.58282 17.1462C7.52593 17.1109 7.48127 17.0703 7.44869 17.0243C7.41627 16.9783 7.40006 16.9211 7.40006 16.8528C7.40006 16.8085 7.40847 16.767 7.42529 16.7284C7.44211 16.6897 7.46644 16.6562 7.4984 16.6277C7.53036 16.5993 7.56875 16.5771 7.61417 16.5612C7.65929 16.5453 7.71038 16.5373 7.76727 16.5373C7.81958 16.5373 7.86699 16.5442 7.90997 16.5578C7.95279 16.5714 7.9898 16.5907 8.02038 16.6158C8.05128 16.6409 8.07498 16.6712 8.09181 16.7069C8.10863 16.7427 8.1172 16.7823 8.1172 16.8256C8.1172 16.8926 8.10175 16.9495 8.07101 16.9962C8.04011 17.0426 7.9953 17.0853 7.93611 17.124C8.0057 17.1638 8.05816 17.2075 8.09364 17.2554C8.12897 17.303 8.14671 17.3644 8.14671 17.4395C8.14671 17.4906 8.13708 17.537 8.11796 17.5786C8.09884 17.62 8.07193 17.6556 8.03706 17.6852C8.00219 17.7147 7.96043 17.7376 7.91165 17.7541C7.86301 17.7706 7.80948 17.7789 7.75151 17.7789C7.69355 17.7789 7.64109 17.7711 7.59414 17.7558C7.54719 17.7405 7.50711 17.7193 7.47393 17.692C7.44104 17.6645 7.41535 17.6316 7.39746 17.5929C7.37941 17.5544 7.37039 17.5111 7.37039 17.4634ZM7.93092 17.4412C7.93092 17.4151 7.92449 17.3912 7.91165 17.3696C7.89895 17.3479 7.88243 17.3283 7.86209 17.3109C7.84175 17.2932 7.81927 17.2768 7.79418 17.2621C7.76926 17.2474 7.74402 17.2332 7.71863 17.2194C7.66403 17.2502 7.62656 17.2834 7.60622 17.3193C7.58588 17.3551 7.57579 17.3907 7.57579 17.4258C7.57579 17.4713 7.59169 17.5102 7.62366 17.5426C7.65562 17.575 7.69998 17.5912 7.75672 17.5912C7.80902 17.5912 7.85108 17.5787 7.88305 17.5538C7.91501 17.5287 7.93092 17.4912 7.93092 17.4412ZM7.61586 16.8562C7.61586 16.8836 7.62106 16.9074 7.63146 16.9279C7.64201 16.9484 7.65623 16.9662 7.67413 16.9816C7.69202 16.9969 7.71236 17.0111 7.735 17.0243C7.75778 17.0373 7.78119 17.0495 7.8055 17.0608C7.87509 17.0029 7.90997 16.9393 7.90997 16.8698C7.90997 16.8223 7.89574 16.786 7.86729 16.7617C7.839 16.7372 7.80444 16.725 7.76375 16.725C7.71267 16.725 7.67535 16.738 7.65164 16.7641C7.62763 16.7903 7.61586 16.821 7.61586 16.8562ZM8.66733 17.1564C8.66733 16.9472 8.70388 16.7917 8.77683 16.69C8.85009 16.5883 8.95501 16.5373 9.09189 16.5373C9.23795 16.5373 9.34531 16.5876 9.41399 16.6883C9.48235 16.7889 9.51661 16.9449 9.51661 17.1564C9.51661 17.3667 9.47975 17.523 9.40603 17.6254C9.33232 17.7277 9.22709 17.7789 9.09006 17.7789C8.94522 17.7789 8.83831 17.7251 8.76995 17.6177C8.70143 17.5102 8.66733 17.3565 8.66733 17.1564ZM8.89353 17.1564C8.89353 17.2952 8.90882 17.4022 8.93956 17.4778C8.9703 17.5535 9.02123 17.5912 9.09189 17.5912C9.16041 17.5912 9.21057 17.5565 9.24238 17.4872C9.27435 17.418 9.29026 17.3077 9.29026 17.1564C9.29026 17.0188 9.27527 16.9125 9.24499 16.8376C9.21486 16.7625 9.16332 16.725 9.09006 16.725C9.02047 16.725 8.9703 16.7602 8.93956 16.8307C8.90882 16.9012 8.89353 17.0098 8.89353 17.1564ZM10.8934 17.4224H10.7019V17.755H10.4913V17.4224H9.96396V17.2962L10.5158 16.5526H10.7019V17.2451H10.8934V17.4224ZM10.4913 16.9841L10.5071 16.8409H10.5L10.441 16.9637L10.2599 17.1939L10.1729 17.2588L10.2844 17.2451H10.4913V16.9841ZM5.91607 4.95555C5.40234 4.67231 5.18272 5.08494 4.67801 5.18757C4.11901 5.3012 3.97035 4.87389 3.73237 4.49276C4.12589 4.57366 4.14884 4.75505 4.66211 4.41063C5.03926 4.15751 5.51674 4.3233 5.79571 4.63469L5.48539 3.81614C6.4116 3.8088 7.45496 3.69027 8.36894 3.81614L8.48456 3.83511C9.46216 4.0243 10.1998 4.84436 10.1998 5.88222C10.1998 6.64188 9.75612 7.48596 9.10719 7.935V8.03028C9.97559 7.83498 10.968 7.12289 11.057 6.72264C10.9301 6.674 10.625 6.5024 10.6288 6.48191C10.289 6.24301 10.1431 5.76691 10.2232 5.40612C10.3033 5.04548 10.4748 4.87113 10.7193 4.72583C10.8879 4.64218 11.0404 4.59155 11.223 4.57366L15.7921 3.94217C15.8137 4.09343 15.8285 4.24744 15.836 4.40084C15.9684 7.13925 13.8091 9.46533 11.0145 9.59502C10.0588 9.63938 8.82608 9.12106 8.39219 8.23584C8.36955 8.23951 8.34676 8.24333 8.32382 8.24623C8.15773 8.26413 8.00341 8.29196 7.85964 8.32821C7.71374 8.92361 8.95715 9.38626 10.3982 9.61338L10.1674 9.94082C10.4401 9.85655 10.7302 9.81098 11.0312 9.81098C12.6155 9.81098 13.9002 11.0698 13.9002 12.6223C13.9002 14.1747 12.6155 15.4336 11.0312 15.4336C9.44717 15.4336 8.16231 14.1747 8.16231 12.6223C8.16231 12.4628 8.17608 12.3065 8.20223 12.1543L8.30027 12.1684L10.0372 12.284C9.95096 12.4223 9.90095 12.5846 9.90095 12.7585C9.90095 13.2615 10.3174 13.6695 10.8308 13.6695C11.3443 13.6695 11.7604 13.2615 11.7604 12.7585C11.7604 12.2634 11.3573 11.8604 10.8553 11.8477L10.8522 11.8388L10.738 11.8521C10.7268 11.853 10.7155 11.8544 10.7044 11.8558L9.20828 12.028C8.55492 12.1332 7.98934 12.1756 7.50666 12.1603L5.43706 14.9267L5.17828 14.255C3.7154 14.1346 4.22164 14.7979 4.54939 15.0692C4.58151 15.0957 4.58181 15.2066 4.55137 15.2309C4.01394 15.1905 3.54456 14.7681 3.54456 14.218C3.54456 13.668 4.01088 13.1979 4.58579 13.1979C4.96952 13.1979 5.30461 13.4013 5.48523 13.7039L6.42506 10.7999H6.27624L5.70761 11.6008C5.37236 11.2576 5.11114 10.8447 4.94917 10.3862L3.36104 8.45928C3.29374 8.60855 3.1905 8.73871 3.06264 8.84011L2.74575 8.01759C2.0436 7.98333 1.61016 8.14942 1.97401 8.67248L2.12634 8.67416L2.10661 8.41585H2.54724L2.47764 9.31973L2.47826 9.32631L2.47612 9.34252H2.17436L2.17314 9.28211L2.15081 8.99167C1.74903 8.85096 1.36882 8.54096 1.36882 8.04665C1.36882 7.66613 1.63188 7.28179 2.00644 7.11416L1.80287 4.46569L1.31055 3.85377H2.14316C2.11181 3.5147 2.21871 3.14764 2.42213 2.85154C2.23768 2.88213 2.06715 2.97894 1.90259 3.24751C1.79369 2.66587 2.29152 1.91784 2.97012 2.02964C3.65132 2.14205 3.588 1.94873 3.94619 1.68705C3.92049 1.90377 3.91637 2.12171 3.86758 2.30983C4.56942 2.38446 4.53761 2.13318 4.98894 1.80313C4.90819 2.48601 4.98251 3.1767 4.12757 3.37231C3.34803 3.55079 2.76563 3.1042 2.23156 3.85377H2.32639H3.34222L2.85113 4.46416L2.65184 7.05467C2.81977 7.09398 2.97226 7.17335 3.09752 7.28179L4.36494 8.02753L4.64284 9.03633H4.77314C4.9062 7.34755 6.32427 6.01161 8.07009 5.96527L8.00234 5.79856L6.24734 5.80652L5.91607 4.95555ZM5.8373 4.68408C5.89267 4.75398 5.93809 4.82999 5.97082 4.90937C6.7184 5.04074 8.10511 5.88574 7.64231 4.68408H5.8373ZM7.0567 2.23856H7.50865V2.345H7.65134V2.68912C7.55988 2.72613 7.49549 2.81438 7.49549 2.91746C7.49549 3.02666 7.56799 3.11919 7.66832 3.15162L7.67367 3.15345L7.67688 3.15436L7.67964 3.15513L7.68132 3.15544L7.6856 3.15666L7.68728 3.15697L7.69018 3.15773L7.69325 3.15834L7.69738 3.15926L7.69921 3.15957L7.70074 3.16002L7.70227 3.16018L7.70671 3.16094L7.70823 3.16125L7.71099 3.16156L7.71282 3.16171L7.71435 3.16186L7.71588 3.16232L7.71741 3.16247L7.71909 3.16263L7.72169 3.16293H7.72368L7.72521 3.16324L7.7298 3.16354L7.73148 3.1637L7.73423 3.16385L7.74081 3.164H7.74372L7.7457 3.16415C7.88473 3.16415 7.99913 3.05373 7.99913 2.91746L7.99897 2.91287V2.91104L7.99882 2.9066L7.99852 2.90217C7.99836 2.89926 7.99821 2.89651 7.9979 2.89375L7.99744 2.89024L7.99699 2.88595C7.99622 2.8806 7.9953 2.87494 7.99439 2.86974L7.99393 2.8676L7.99286 2.86332L7.99072 2.8546L7.98964 2.85032L7.98796 2.84482L7.98689 2.84191C7.97465 2.80398 7.95324 2.77033 7.92526 2.74296L7.92174 2.73959L7.91868 2.73668L7.91654 2.73485L7.91532 2.73378L7.91211 2.73087L7.90874 2.72797L7.90736 2.72689L7.90277 2.72338C7.90002 2.72139 7.89635 2.71849 7.89344 2.7165L7.89115 2.71481L7.88809 2.71282L7.88381 2.71007L7.88213 2.709C7.87907 2.70701 7.87586 2.70502 7.87249 2.70334C7.86897 2.70151 7.86546 2.69952 7.86179 2.69768L7.85689 2.69509L7.85292 2.6934V2.62932C7.85292 2.42606 8.03522 2.15933 8.24246 2.15383L8.6271 2.14373L8.07728 3.55354L6.5052 3.5589L5.95675 2.14893L6.32197 2.15383C6.52936 2.15673 6.71167 2.42606 6.71167 2.62932V2.69371C6.66089 2.71696 6.61929 2.75626 6.59375 2.80505L6.59161 2.80948L6.5887 2.8156L6.58794 2.81744L6.58595 2.82142L6.58427 2.82539L6.58366 2.82692L6.58167 2.83242L6.57968 2.83778C6.57632 2.84726 6.57341 2.85751 6.57142 2.86776C6.56974 2.87556 6.56836 2.88351 6.5676 2.89161C6.56714 2.89513 6.56683 2.89987 6.56653 2.90354V2.90599L6.56637 2.91104V2.91287L6.56622 2.91746C6.56622 3.05373 6.67894 3.16415 6.81796 3.16415H6.81964L6.82163 3.164H6.82439L6.83066 3.16385L6.83387 3.1637L6.8354 3.16354L6.83845 3.16324H6.84014L6.84167 3.16293H6.84351L6.84625 3.16263L6.84794 3.16247L6.85023 3.16216L6.85253 3.16171L6.85558 3.1614L6.85712 3.16125L6.85865 3.16094L6.86262 3.16018L6.86461 3.16002L6.86614 3.15957L6.86767 3.15942L6.87057 3.15865L6.87211 3.15834L6.87485 3.15773L6.88403 3.15544L6.88557 3.15513C6.99171 3.12623 7.06986 3.03079 7.06986 2.91746C7.06986 2.81438 7.00547 2.72613 6.91386 2.68912V2.345H7.0567V2.23856ZM13.3686 10.7439C14.5814 10.262 15.7077 9.45661 15.9646 7.44972C15.7254 8.44063 15.2002 8.98876 14.5416 9.29266C13.8372 9.6175 12.9804 9.66308 12.1582 9.67119C12.7137 9.90611 13.089 10.2438 13.3686 10.7439ZM16.495 0.489061H0.438939V12.766L0.440316 12.7874L0.438939 12.925V12.9795V13.0004C0.438939 13.8081 0.670343 14.6246 1.08757 15.3939C1.51519 16.1817 2.13812 16.9197 2.90756 17.5472C3.65331 18.1554 4.53638 18.6594 5.51307 19.0043C6.4272 19.3273 7.42376 19.5111 8.46697 19.5111H8.58168C9.62994 19.4969 10.6326 19.2863 11.5507 18.9333C12.5425 18.5517 13.4362 18.0037 14.1825 17.3571C14.903 16.7328 15.4857 16.0173 15.886 15.2727C16.2784 14.5424 16.4955 13.7838 16.4955 13.055C16.4955 13.0247 16.4956 13.0166 16.4958 13.0128V13.0027L16.495 12.9811V12.9487L16.4927 12.7874L16.4924 12.766H16.495V0.489061ZM35.0157 12.6769H35.774V17.0142C35.774 17.4042 35.7218 17.7417 35.6175 18.0265C35.5134 18.3113 35.3647 18.545 35.1722 18.7278C34.9795 18.9104 34.7472 19.045 34.4755 19.1317C34.2038 19.2182 33.9037 19.2617 33.5752 19.2617C32.7915 19.2617 32.2008 19.0884 31.8027 18.7415C31.4046 18.3948 31.2057 17.8685 31.2057 17.1627V12.6769H31.9924V16.8005C31.9924 17.1286 32.0254 17.4057 32.0918 17.6316C32.1582 17.8577 32.2576 18.0404 32.3903 18.1798C32.5231 18.3189 32.6889 18.4196 32.8879 18.4815C33.087 18.5435 33.3193 18.5744 33.5845 18.5744C34.0964 18.5744 34.4628 18.4367 34.684 18.1611C34.9051 17.8855 35.0157 17.432 35.0157 16.8005V12.6769ZM40.5687 14.9244L40.0568 13.9864H40.0189L40.1137 14.9244V19.1782H39.3744V12.5746H39.7915L42.9665 16.9119L43.4594 17.8035H43.5069L43.4026 16.9119V12.6769H44.1419V19.2802H43.7248L40.5687 14.9244ZM47.9224 12.6769H48.7091V19.1782H47.9224V12.6769ZM54.2147 17.144L54.4422 18.1285H54.4516L54.698 17.1255L56.2998 12.6769H57.0865L54.5749 19.2802H54.2242L51.665 12.6769H52.5276L54.2147 17.144ZM59.8624 12.6769H63.4735V13.3641H60.6491V15.4909H63.2366V16.1782H60.6491V18.4908H63.5209V19.1782H59.8624V12.6769ZM66.9318 12.7418C67.172 12.6985 67.4484 12.6644 67.7612 12.6396C68.0739 12.615 68.36 12.6026 68.6189 12.6026C68.9096 12.6026 69.186 12.6335 69.4481 12.6954C69.7106 12.7572 69.9411 12.8596 70.1402 13.0019C70.3392 13.1443 70.4987 13.3302 70.6187 13.5591C70.7388 13.7882 70.7989 14.0667 70.7989 14.3951C70.7989 14.9027 70.6567 15.3144 70.3723 15.6302C70.088 15.9461 69.7278 16.1565 69.2918 16.2617L69.7468 16.6055L71.396 19.1782H70.4767L68.6473 16.3734L67.7185 16.2339V19.1782H66.9318V12.7418ZM68.6378 13.2713C68.5557 13.2713 68.4704 13.2713 68.382 13.2713C68.2936 13.2713 68.2082 13.2743 68.1261 13.2806C68.044 13.2867 67.9666 13.293 67.8939 13.2991C67.8211 13.3054 67.7627 13.3146 67.7185 13.3269V15.7231H68.4577C68.8939 15.7231 69.2539 15.6178 69.5384 15.4074C69.8227 15.197 69.9648 14.8687 69.9648 14.4229C69.9648 14.0886 69.8479 13.813 69.6141 13.5964C69.3804 13.3796 69.0549 13.2713 68.6378 13.2713ZM77.5555 17.525C77.5555 17.2649 77.4766 17.0529 77.3186 16.8886C77.1606 16.7247 76.9632 16.5792 76.7261 16.4521C76.4892 16.3254 76.2318 16.2061 75.9538 16.0947C75.6757 15.9831 75.4182 15.8485 75.1813 15.6906C74.9444 15.5327 74.7469 15.3377 74.5889 15.1055C74.4309 14.8733 74.3519 14.5777 74.3519 14.2186C74.3519 13.7108 74.532 13.3084 74.8922 13.0111C75.2524 12.714 75.7641 12.5654 76.4277 12.5654C76.813 12.5654 77.1638 12.5933 77.4797 12.649C77.7956 12.7046 78.042 12.7759 78.219 12.8626L77.9821 13.5406C77.8368 13.4724 77.6234 13.4075 77.3423 13.3456C77.0611 13.2837 76.7437 13.2526 76.3898 13.2526C75.9726 13.2526 75.66 13.3441 75.4514 13.5267C75.2429 13.7093 75.1386 13.9245 75.1386 14.1721C75.1386 14.4136 75.2177 14.6149 75.3755 14.7759C75.5336 14.9368 75.7311 15.0807 75.968 15.2078C76.2049 15.3346 76.4625 15.46 76.7404 15.5839C77.0184 15.7076 77.276 15.8517 77.5129 16.0156C77.7498 16.1798 77.9474 16.3764 78.1052 16.6055C78.2632 16.8345 78.3423 17.1193 78.3423 17.4599C78.3423 17.7385 78.2916 17.9893 78.1905 18.2122C78.0895 18.4352 77.9409 18.6271 77.745 18.788C77.5493 18.9489 77.3123 19.0728 77.0343 19.1595C76.7563 19.2462 76.4403 19.2895 76.0864 19.2895C75.6126 19.2895 75.2207 19.2539 74.9112 19.1828C74.6015 19.1116 74.3615 19.0326 74.1908 18.946L74.4562 18.2493C74.6015 18.3298 74.8164 18.4089 75.1008 18.4863C75.3851 18.5635 75.7042 18.6023 76.0579 18.6023C76.2665 18.6023 76.4625 18.5821 76.6457 18.5419C76.8289 18.5017 76.9869 18.4367 77.1195 18.3468C77.2523 18.257 77.3581 18.1441 77.4372 18.0079C77.5161 17.8716 77.5555 17.7107 77.5555 17.525ZM81.7626 12.6769H82.5492V19.1782H81.7626V12.6769ZM90.6139 13.3641H88.5477V19.1782H87.761V13.3641H85.6949V12.6769H90.6139V13.3641ZM94.9244 16.5962L92.7359 12.6769H93.6552L95.2089 15.5187L95.371 16.0854H95.3802L95.5515 15.5002L97.0381 12.6769H97.8823L95.7121 16.5869V19.1782H94.9244V16.5962ZM37.6977 2.54015C37.9926 2.41015 38.3426 2.30723 38.7481 2.23137C39.1537 2.15551 39.5775 2.11758 40.0198 2.11758C40.4032 2.11758 40.7238 2.1627 40.9818 2.25308C41.2398 2.34332 41.4444 2.47164 41.5954 2.63773C41.7467 2.80382 41.8536 3.0025 41.9161 3.23359C41.9788 3.46484 42.0102 3.72483 42.0102 4.01389C42.0102 4.33155 41.999 4.65136 41.977 4.97284C41.9548 5.29417 41.942 5.6103 41.9383 5.92092C41.9345 6.23139 41.944 6.53299 41.9658 6.82557C41.988 7.1183 42.0434 7.39451 42.1318 7.65451H40.9596L40.7275 6.90693H40.6722C40.5248 7.13084 40.3202 7.324 40.0585 7.48658C39.7968 7.649 39.4596 7.73036 39.0466 7.73036C38.7886 7.73036 38.5565 7.69244 38.3501 7.61673C38.1437 7.54072 37.9667 7.43244 37.8193 7.29158C37.6718 7.15072 37.5576 6.98447 37.4764 6.79314C37.3955 6.60166 37.355 6.38678 37.355 6.1485C37.355 5.81616 37.4304 5.53627 37.5816 5.30869C37.7327 5.08112 37.9502 4.89683 38.2341 4.75612C38.5178 4.61511 38.8568 4.51769 39.2513 4.46354C39.6456 4.40925 40.086 4.39303 40.5727 4.41475C40.6242 4.01022 40.5949 3.71949 40.4843 3.54253C40.3737 3.36558 40.1267 3.27702 39.7434 3.27702C39.4558 3.27702 39.1517 3.30593 38.8311 3.36374C38.5104 3.4214 38.2469 3.49726 38.0404 3.59117L37.6977 2.54015ZM39.5221 6.57092C39.8097 6.57092 40.0382 6.50775 40.2078 6.38142C40.3772 6.25494 40.5026 6.11959 40.5838 5.97506V5.27076C40.3552 5.24905 40.1359 5.24553 39.9257 5.25991C39.7156 5.27428 39.5296 5.30686 39.3674 5.35733C39.2052 5.40796 39.0762 5.48029 38.9804 5.57405C38.8845 5.6681 38.8365 5.7871 38.8365 5.93178C38.8365 6.13397 38.8974 6.29104 39.0191 6.40314C39.1407 6.51494 39.3083 6.57092 39.5221 6.57092ZM42.928 6.45178L45.1063 3.88374L45.6702 3.41789H42.928V2.22601H47.2625V3.41789L45.1063 6.0292L44.5534 6.45178H47.2625V7.64365H42.928V6.45178ZM48.2467 2.54015C48.5415 2.41015 48.8918 2.30723 49.2971 2.23137C49.7027 2.15551 50.1265 2.11758 50.5688 2.11758C50.952 2.11758 51.2728 2.1627 51.5308 2.25308C51.7888 2.34332 51.9934 2.47164 52.1444 2.63773C52.2955 2.80382 52.4025 3.0025 52.4651 3.23359C52.5278 3.46484 52.5591 3.72483 52.5591 4.01389C52.5591 4.33155 52.5481 4.65136 52.526 4.97284C52.5038 5.29417 52.4909 5.6103 52.4873 5.92092C52.4834 6.23139 52.4928 6.53299 52.5148 6.82557C52.537 7.1183 52.5923 7.39451 52.6807 7.65451H51.5086L51.2764 6.90693H51.2212C51.0738 7.13084 50.8691 7.324 50.6075 7.48658C50.3458 7.649 50.0085 7.73036 49.5956 7.73036C49.3376 7.73036 49.1054 7.69244 48.8989 7.61673C48.6926 7.54072 48.5157 7.43244 48.3682 7.29158C48.2208 7.15072 48.1066 6.98447 48.0253 6.79314C47.9444 6.60166 47.9039 6.38678 47.9039 6.1485C47.9039 5.81616 47.9793 5.53627 48.1306 5.30869C48.2817 5.08112 48.4992 4.89683 48.7829 4.75612C49.0667 4.61511 49.4058 4.51769 49.8002 4.46354C50.1945 4.40925 50.635 4.39303 51.1216 4.41475C51.1732 4.01022 51.1438 3.71949 51.0332 3.54253C50.9227 3.36558 50.6755 3.27702 50.2922 3.27702C50.0047 3.27702 49.7007 3.30593 49.3801 3.36374C49.0594 3.4214 48.7957 3.49726 48.5894 3.59117L48.2467 2.54015ZM50.0711 6.57092C50.3586 6.57092 50.5871 6.50775 50.7567 6.38142C50.9262 6.25494 51.0516 6.11959 51.1327 5.97506V5.27076C50.904 5.24905 50.6848 5.24553 50.4747 5.25991C50.2646 5.27428 50.0784 5.30686 49.9163 5.35733C49.7541 5.40796 49.6251 5.48029 49.5292 5.57405C49.4335 5.6681 49.3855 5.7871 49.3855 5.93178C49.3855 6.13397 49.4463 6.29104 49.5681 6.40314C49.6897 6.51494 49.8573 6.57092 50.0711 6.57092ZM57.148 7.64365V4.56647C57.148 4.12585 57.0836 3.80804 56.9545 3.61288C56.8256 3.41788 56.6063 3.32031 56.2966 3.32031C56.0239 3.32031 55.7934 3.398 55.6054 3.55339C55.4176 3.70863 55.2829 3.90179 55.2018 4.13288V7.64365H53.7643V2.22601H54.9033L55.0691 2.94117H55.1134C55.2829 2.71007 55.5078 2.50758 55.7879 2.3343C56.0681 2.16101 56.4292 2.07429 56.8716 2.07429C57.1443 2.07429 57.3876 2.11039 57.6013 2.18258C57.8153 2.25492 57.9957 2.37406 58.1432 2.54015C58.2906 2.70625 58.4012 2.93214 58.4749 3.21738C58.5486 3.50277 58.5855 3.85499 58.5855 4.2739V7.64365H57.148ZM62.6216 0.0588379H67.2106V1.38071H64.1365V3.25531H66.9673V4.57733H64.1365V7.64365H62.6216V0.0588379ZM72.6287 7.17779C72.4075 7.35107 72.1072 7.49744 71.7276 7.61673C71.348 7.73587 70.9442 7.79536 70.5167 7.79536C69.6248 7.79536 68.9723 7.54072 68.5595 7.03142C68.1467 6.52213 67.9403 5.82335 67.9403 4.93491C67.9403 3.98132 68.1724 3.26617 68.6369 2.7893C69.1012 2.31258 69.7537 2.07429 70.5941 2.07429C70.8743 2.07429 71.147 2.11039 71.4123 2.18258C71.6779 2.25492 71.9137 2.37406 72.12 2.54015C72.3265 2.70625 72.4923 2.93031 72.6177 3.21202C72.7429 3.49374 72.8056 3.84413 72.8056 4.26304C72.8056 4.41476 72.7965 4.57733 72.778 4.75061C72.7594 4.92405 72.7319 5.10452 72.6951 5.29249H69.3778C69.3999 5.74749 69.5197 6.09069 69.7372 6.32178C69.9545 6.55287 70.3066 6.6685 70.7931 6.6685C71.0955 6.6685 71.3663 6.62338 71.6058 6.53299C71.8455 6.44276 72.0279 6.35069 72.1532 6.25678L72.6287 7.17779ZM70.5719 3.20117C70.196 3.20117 69.9178 3.31128 69.7372 3.53167C69.5566 3.75191 69.4478 4.04632 69.411 4.41475H71.4677C71.4972 4.0246 71.4363 3.72483 71.2852 3.51531C71.1341 3.30593 70.8963 3.20117 70.5719 3.20117ZM78.5224 5.73662C78.5224 6.04006 78.5261 6.34349 78.5336 6.64693C78.5408 6.95021 78.5741 7.28607 78.633 7.65451H77.6046L77.4056 6.95021H77.3614C77.214 7.20303 77.002 7.40705 76.7257 7.56244C76.449 7.71767 76.1229 7.79536 75.747 7.79536C75.054 7.79536 74.516 7.57146 74.1326 7.12365C73.7491 6.67584 73.5576 5.97506 73.5576 5.02162C73.5576 4.09694 73.7713 3.37812 74.1988 2.86531C74.6266 2.35234 75.253 2.09586 76.0786 2.09586C76.3072 2.09586 76.4952 2.10856 76.6426 2.13379C76.7901 2.15918 76.9375 2.20078 77.0849 2.25844V0.0588379H78.5224V5.73662ZM76.0786 6.6035C76.3588 6.6035 76.5799 6.53666 76.7422 6.40314C76.9043 6.26932 77.0186 6.07615 77.0849 5.82334V3.52617C76.9817 3.44664 76.8674 3.38714 76.7422 3.34738C76.6169 3.30777 76.4547 3.28789 76.2557 3.28789C75.8501 3.28789 75.546 3.4214 75.3434 3.68875C75.1406 3.95593 75.0392 4.41476 75.0392 5.06491C75.0392 5.5271 75.1222 5.8992 75.288 6.18092C75.454 6.46264 75.7175 6.6035 76.0786 6.6035ZM84.2062 7.17779C83.985 7.35107 83.6846 7.49744 83.3049 7.61673C82.9253 7.73587 82.5217 7.79536 82.0941 7.79536C81.2021 7.79536 80.5497 7.54072 80.1369 7.03142C79.7241 6.52213 79.5178 5.82335 79.5178 4.93491C79.5178 3.98132 79.7498 3.26617 80.2143 2.7893C80.6786 2.31258 81.331 2.07429 82.1714 2.07429C82.4516 2.07429 82.7243 2.11039 82.9898 2.18258C83.2552 2.25492 83.491 2.37406 83.6975 2.54015C83.9038 2.70625 84.0697 2.93031 84.195 3.21202C84.3204 3.49374 84.3831 3.84413 84.3831 4.26304C84.3831 4.41476 84.3738 4.57733 84.3554 4.75061C84.3369 4.92405 84.3093 5.10452 84.2724 5.29249H80.9551C80.9773 5.74749 81.0972 6.09069 81.3145 6.32178C81.532 6.55287 81.8841 6.6685 82.3706 6.6685C82.6728 6.6685 82.9436 6.62338 83.1833 6.53299C83.4228 6.44276 83.6054 6.35069 83.7305 6.25678L84.2062 7.17779ZM82.1493 3.20117C81.7735 3.20117 81.4951 3.31128 81.3145 3.53167C81.1339 3.75191 81.0252 4.04632 80.9883 4.41475H83.045C83.0746 4.0246 83.0137 3.72483 82.8626 3.51531C82.7115 3.30593 82.4738 3.20117 82.1493 3.20117ZM88.4523 3.54788C88.2238 3.46851 88.0173 3.42874 87.833 3.42874C87.575 3.42874 87.3594 3.49543 87.1861 3.6291C87.013 3.76277 86.8967 3.93436 86.8378 4.14374V7.64365H85.4003V2.22601H86.5171L86.6831 2.94117H86.7273C86.8525 2.67383 87.0221 2.46797 87.2359 2.32344C87.4496 2.17906 87.7003 2.10672 87.9878 2.10672C88.1794 2.10672 88.3969 2.14648 88.6402 2.22601L88.4523 3.54788ZM89.2483 2.54015C89.5432 2.41015 89.8934 2.30723 90.2989 2.23137C90.7043 2.15551 91.1281 2.11758 91.5704 2.11758C91.9539 2.11758 92.2746 2.1627 92.5326 2.25308C92.7906 2.34332 92.9952 2.47164 93.1462 2.63773C93.2973 2.80382 93.4044 3.0025 93.4669 3.23359C93.5296 3.46484 93.561 3.72483 93.561 4.01389C93.561 4.33155 93.5498 4.65136 93.5276 4.97284C93.5056 5.29417 93.4928 5.6103 93.4891 5.92092C93.4853 6.23139 93.4946 6.53299 93.5166 6.82557C93.5388 7.1183 93.5942 7.39451 93.6826 7.65451H92.5104L92.2781 6.90693H92.223C92.0756 7.13084 91.871 7.324 91.6093 7.48658C91.3475 7.649 91.0102 7.73036 90.5974 7.73036C90.3394 7.73036 90.1071 7.69244 89.9008 7.61673C89.6945 7.54072 89.5175 7.43244 89.3701 7.29158C89.2227 7.15072 89.1084 6.98447 89.0272 6.79314C88.9463 6.60166 88.9056 6.38678 88.9056 6.1485C88.9056 5.81616 88.9811 5.53627 89.1324 5.30869C89.2834 5.08112 89.501 4.89683 89.7847 4.75612C90.0686 4.61511 90.4076 4.51769 90.8021 4.46354C91.1963 4.40925 91.6368 4.39303 92.1235 4.41475C92.175 4.01022 92.1456 3.71949 92.0349 3.54253C91.9243 3.36558 91.6773 3.27702 91.2941 3.27702C91.0065 3.27702 90.7025 3.30593 90.3818 3.36374C90.0611 3.4214 89.7976 3.49726 89.5912 3.59117L89.2483 2.54015ZM91.0729 6.57092C91.3605 6.57092 91.589 6.50775 91.7584 6.38142C91.928 6.25494 92.0534 6.11959 92.1345 5.97506V5.27076C91.9058 5.24905 91.6867 5.24553 91.4765 5.25991C91.2664 5.27428 91.0803 5.30686 90.918 5.35733C90.7559 5.40796 90.6269 5.48029 90.5311 5.57405C90.4353 5.6681 90.3873 5.7871 90.3873 5.93178C90.3873 6.13397 90.4482 6.29104 90.5699 6.40314C90.6915 6.51494 90.8591 6.57092 91.0729 6.57092ZM96.2474 5.82334C96.2474 6.07615 96.281 6.2603 96.3468 6.37592C96.4141 6.49154 96.5212 6.54936 96.668 6.54936C96.7567 6.54936 96.8439 6.54201 96.928 6.52764C97.0121 6.51311 97.1176 6.48068 97.243 6.43006L97.3975 7.53537C97.2797 7.59318 97.0993 7.65084 96.8561 7.70865C96.6129 7.76646 96.3621 7.79536 96.1036 7.79536C95.6846 7.79536 95.3634 7.69962 95.1416 7.5083C94.9214 7.31681 94.8105 7.00084 94.8105 6.56021V0.0588379H96.2474V5.82334Z" fill="#FEFEFE"/>
</svg>
