<svg width="317" height="55" viewBox="0 0 157 26" fill="none" xmlns="http://www.w3.org/2000/svg">
    <path fill-rule="evenodd" clip-rule="evenodd" d="M2.70154 9.61433C4.2646 8.74196 4.78609 8.6352 6.24362 9.11666C8.15845 9.74922 9.12964 8.357 7.40599 8.31678C6.87834 8.30439 6.53575 7.69247 8.42764 7.62946C9.75211 7.58511 11.1194 6.4951 11.6103 7.47438C12.4928 9.23917 14.299 7.32755 15.778 7.32557C17.1376 7.32342 16.2139 5.75104 18.6242 6.47368C18.7802 6.52033 20.0787 6.10571 21.2441 6.11794C22.1663 7.20168 22.8898 8.46773 23.3532 9.85598C23.1956 9.85277 23.0198 9.84344 22.8209 9.82677C22.1082 9.76758 21.0621 13.3878 20.0955 14.4063C19.187 15.3642 19.7789 14.5375 17.9926 15.4123C16.5396 16.1235 19.7391 19.2256 16.2567 18.7546C14.6523 16.7235 15.7306 16.8925 11.0108 17.7262C9.23822 18.0395 13.3294 19.3544 8.46283 19.0955C7.21789 19.0291 7.89848 16.7496 6.87531 15.6249C6.39354 15.0957 8.62341 14.0034 7.20258 13.8207C6.64741 13.7494 7.25766 12.7963 6.2559 13.1174C5.30002 13.4241 5.52636 14.3402 4.81825 12.8191C4.67754 12.5187 2.26717 10.9656 2.21212 11.5928C2.12647 12.5531 3.28271 12.6689 2.21366 13.1768C2.04083 13.9403 4.40988 12.7749 4.38082 14.3635C4.37776 14.5786 6.27118 14.6984 6.45165 16.7938C6.58165 18.2985 7.44271 20.0787 9.00271 20.4409C9.52576 20.5622 9.54411 22.2011 7.88776 22.1947C7.36011 22.1927 7.12612 22.5155 6.99918 22.9412C3.95718 20.9427 1.94141 17.4546 1.94141 13.4853C1.94141 12.1296 2.17693 10.8299 2.6067 9.62657C2.66176 9.61831 2.70154 9.61433 2.70154 9.61433Z" fill="#FEFEFE"/>
    <path fill-rule="evenodd" clip-rule="evenodd" d="M2.62966 16.8235H15.0179C15.3971 16.8235 15.7061 17.1676 15.7061 17.5882C15.7061 18.0088 15.3971 18.3529 15.0179 18.3529H2.62966C2.2519 18.3529 1.94141 18.0088 1.94141 17.5882C1.94141 17.1676 2.2519 16.8235 2.62966 16.8235Z" fill="#EBECEC" fill-opacity="0.4"/>
    <path fill-rule="evenodd" clip-rule="evenodd" d="M2.70611 13.7648H16.4708C16.8914 13.7648 17.2355 14.1089 17.2355 14.5295C17.2355 14.9501 16.8914 15.2942 16.4708 15.2942H2.70611C2.28552 15.2942 1.94141 14.9501 1.94141 14.5295C1.94141 14.1089 2.28552 13.7648 2.70611 13.7648Z" fill="#EBECEC" fill-opacity="0.4"/>
    <path fill-rule="evenodd" clip-rule="evenodd" d="M10.2781 10.7059H22.6663C23.0456 10.7059 23.3545 11.0501 23.3545 11.4706C23.3545 11.8912 23.0456 12.2353 22.6663 12.2353H10.2781C9.90033 12.2353 9.58984 11.8912 9.58984 11.4706C9.58984 11.0501 9.90033 10.7059 10.2781 10.7059Z" fill="#EBECEC" fill-opacity="0.4"/>
    <path fill-rule="evenodd" clip-rule="evenodd" d="M4.15896 7.64697H16.5472C16.9264 7.64697 17.2354 7.99109 17.2354 8.41168C17.2354 8.83227 16.9264 9.17638 16.5472 9.17638H4.15896C3.78119 9.17638 3.4707 8.83227 3.4707 8.41168C3.4707 7.99109 3.78119 7.64697 4.15896 7.64697Z" fill="#EBECEC" fill-opacity="0.4"/>
    <path fill-rule="evenodd" clip-rule="evenodd" d="M13.1181 23.5004C16.1922 23.5004 18.9742 22.3344 20.9854 20.4493C22.9966 18.5644 24.2415 15.9601 24.2415 13.083C24.2415 10.206 22.9966 7.6016 20.9854 5.71676C18.9742 3.83176 16.1922 2.66558 13.1181 2.66558C10.044 2.66558 7.26197 3.83176 5.25079 5.71676C3.23962 7.6016 1.99468 10.206 1.99468 13.083C1.99468 15.96 3.23962 18.5644 5.25079 20.4493C7.26197 22.3344 10.044 23.5004 13.1181 23.5004ZM21.7669 21.1939C19.5523 23.2697 16.4935 24.5536 13.1181 24.5536C9.74269 24.5536 6.68387 23.2697 4.46928 21.1939C2.25317 19.1181 0.882812 16.2501 0.882812 13.083C0.882812 9.91591 2.25317 7.04811 4.46928 4.97209C6.68387 2.89652 9.74269 1.61243 13.1181 1.61243C16.4935 1.61243 19.5523 2.89637 21.7669 4.97209C23.983 7.04811 25.3534 9.91591 25.3534 13.083C25.3534 16.2501 23.983 19.1179 21.7669 21.1939Z" fill="#FEFEFE"/>
    <path fill-rule="evenodd" clip-rule="evenodd" d="M19.5287 4.58826L22.8659 12.2635C23.4318 13.7574 23.6566 15.3177 22.687 16.7255C22.0416 17.6641 20.9021 18.2782 19.5272 18.353C18.1523 18.2782 17.0159 17.6641 16.3705 16.7255C15.4009 15.3177 15.6257 13.7574 16.1916 12.2635L19.5287 4.58826Z" fill="#FEFEFE"/>
    <path fill-rule="evenodd" clip-rule="evenodd" d="M19.8132 3.8627L22.8904 12.5618C23.158 13.4334 23.3462 14.33 23.3523 15.2238C23.3584 16.1329 23.1749 17.03 22.6977 17.8822C22.3704 18.4648 21.9177 18.9464 21.3702 19.2926C20.8395 19.6291 20.22 19.836 19.5456 19.8811L19.5272 19.8824L19.5089 19.8811C18.8344 19.836 18.2165 19.6292 17.6858 19.2931C17.1398 18.9468 16.6871 18.4651 16.3598 17.8822C15.8827 17.03 15.6991 16.133 15.7052 15.2238C15.7113 14.33 15.8995 13.4334 16.1671 12.5618C17.2484 9.38846 18.4092 6.22059 19.5288 3.05884L19.8132 3.8627ZM22.3138 12.7704L19.5288 4.89933L16.7437 12.7704C16.4929 13.5876 16.317 14.4182 16.3124 15.2265C16.3078 16.0209 16.4669 16.8035 16.8814 17.5442C17.1567 18.0356 17.5359 18.4406 17.9932 18.7299C18.4383 19.0118 18.9567 19.1863 19.5272 19.2275C20.0962 19.1863 20.6177 19.0115 21.0627 18.7293C21.52 18.44 21.9009 18.0353 22.1761 17.5442C22.5906 16.8035 22.7497 16.0209 22.7451 15.2265C22.7405 14.4184 22.5647 13.5878 22.3138 12.7704Z" fill="#C5C6C6"/>
    <path fill-rule="evenodd" clip-rule="evenodd" d="M19.5301 6.11768L21.5321 11.2345C21.8717 12.2303 22.0063 13.2706 21.4251 14.2092C21.0382 14.8349 20.3545 15.2441 19.5286 15.2941C18.7043 15.2441 18.0221 14.8349 17.6352 14.2092C17.054 13.2706 17.1886 12.2303 17.5282 11.2345L19.5301 6.11768Z" fill="#EBECEC" fill-opacity="0.4"/>
    <path fill-rule="evenodd" clip-rule="evenodd" d="M29.1527 3.04827L29.2444 3.78346H29.2491L29.3454 3.03557L30.1606 0.0760143H30.3869L31.2082 3.04827L31.3061 3.78346H31.3137L31.4178 3.03557L32.0861 0.0760143H32.5388L31.4346 4.58196H31.1746L30.3701 1.60971L30.2692 0.937837H30.2401L30.1392 1.61613L29.3347 4.58196H29.0732L27.9414 0.0760143H28.44L29.1527 3.04827ZM32.6245 2.92775C32.6245 2.39139 32.7315 1.98043 32.9441 1.6952C33.1582 1.41012 33.4641 1.26742 33.8648 1.26742C34.0759 1.26742 34.2594 1.30658 34.4169 1.38473C34.5729 1.46288 34.7029 1.57483 34.8039 1.72059C34.9063 1.86634 34.9813 2.04161 35.0302 2.24655C35.0807 2.45149 35.1052 2.67861 35.1052 2.92775C35.1052 3.46442 34.9981 3.87537 34.784 4.16046C34.5714 4.44569 34.264 4.58823 33.8648 4.58823C33.6537 4.58823 33.4687 4.54924 33.3127 4.47093C33.1552 4.39293 33.0267 4.28098 32.9242 4.13522C32.8233 3.98947 32.7468 3.81404 32.6979 3.6091C32.6489 3.40431 32.6245 3.1772 32.6245 2.92775ZM33.094 2.92775C33.094 3.08834 33.1078 3.24266 33.1368 3.39055C33.1659 3.53845 33.2087 3.66722 33.2699 3.77719C33.3295 3.887 33.4091 3.97571 33.5069 4.04315C33.6064 4.11091 33.7241 4.1447 33.8648 4.1447C34.3771 4.14883 34.6341 3.74323 34.6341 2.92775C34.6341 2.76303 34.6203 2.60688 34.5928 2.45899C34.5638 2.31094 34.5194 2.18216 34.4597 2.0722C34.3986 1.96254 34.319 1.87475 34.2211 1.80929C34.1233 1.74383 34.004 1.71111 33.8648 1.71111C33.3509 1.70682 33.094 2.11242 33.094 2.92775ZM37.1546 1.83147C37.0414 1.78926 36.9343 1.76815 36.8319 1.76815C36.6697 1.76815 36.5413 1.81771 36.4465 1.91712C36.3516 2.01638 36.2935 2.14194 36.2706 2.29412V4.51222H35.8179V1.34359H36.1345L36.2201 1.73007H36.2431C36.3149 1.58646 36.4006 1.47558 36.5 1.39742C36.6009 1.31927 36.7279 1.28012 36.8824 1.28012C36.9925 1.28012 37.1148 1.30123 37.2509 1.34359L37.1546 1.83147ZM38.2481 3.73268C38.2481 3.88058 38.2695 3.98626 38.3154 4.04958C38.3613 4.11289 38.424 4.1447 38.5081 4.1447C38.557 4.1447 38.6091 4.14042 38.6672 4.13201C38.7238 4.12344 38.7865 4.10463 38.8583 4.07496L38.9103 4.47414C38.8492 4.50794 38.765 4.53547 38.658 4.55658C38.5509 4.57768 38.4561 4.58823 38.3781 4.58823C38.2084 4.58823 38.0676 4.5344 37.959 4.42673C37.8489 4.31891 37.7939 4.13614 37.7939 3.87843V0.0760143H38.2481V3.73268ZM41.5715 3.42221C41.5715 3.6377 41.573 3.83301 41.5776 4.00843C41.5807 4.1837 41.5975 4.35592 41.6281 4.52492H41.3222L41.209 4.07496H41.1861C41.1112 4.22286 41.0011 4.34537 40.8573 4.44248C40.7151 4.5396 40.5468 4.58823 40.3541 4.58823C39.9763 4.58823 39.6965 4.45517 39.5129 4.1889C39.3294 3.92294 39.2376 3.50663 39.2376 2.9406C39.2376 2.3998 39.3523 1.98885 39.5802 1.70789C39.8096 1.42709 40.1232 1.28654 40.5239 1.28654C40.663 1.28654 40.7732 1.29495 40.8542 1.31193C40.9368 1.32875 41.024 1.35613 41.1188 1.39421V0.0760143H41.5715V3.42221ZM40.4275 4.1447C40.6202 4.1447 40.7732 4.08873 40.8863 3.97662C40.9995 3.86467 41.0775 3.6946 41.1188 3.46657V1.89494C41.05 1.83575 40.9735 1.79339 40.8863 1.76815C40.7992 1.74277 40.6845 1.73007 40.5407 1.73007C40.2807 1.73007 40.0758 1.82627 39.929 2.01852C39.7821 2.21077 39.7087 2.51802 39.7087 2.9406C39.7087 3.11373 39.7209 3.27431 39.7454 3.42221C39.7699 3.56995 39.8096 3.69674 39.8662 3.80242C39.9228 3.9081 39.9978 3.99146 40.0911 4.05263C40.1828 4.11396 40.296 4.1447 40.4275 4.1447ZM42.3408 2.45256H43.7112V2.92148H42.3408V2.45256ZM47.0636 4.32839C46.9504 4.42551 46.8067 4.49326 46.6338 4.53119C46.4595 4.56927 46.2745 4.58823 46.0787 4.58823C45.8417 4.58823 45.6183 4.54281 45.4103 4.45196C45.2023 4.36112 45.0219 4.22286 44.8674 4.03688C44.7114 3.85106 44.589 3.61339 44.4988 3.32387C44.4086 3.03466 44.3627 2.69131 44.3627 2.29412C44.3627 1.88011 44.4132 1.52834 44.5126 1.23898C44.6135 0.949612 44.745 0.713013 44.9087 0.529177C45.0739 0.345495 45.2574 0.211213 45.4608 0.12679C45.6657 0.0422133 45.8722 0 46.0848 0C46.3112 0 46.4962 0.0137654 46.64 0.0412948C46.7822 0.0686712 46.9061 0.105682 47.0071 0.152023L46.8939 0.621096C46.7134 0.519543 46.4549 0.469073 46.1185 0.469073C45.964 0.469073 45.811 0.500578 45.6596 0.564049C45.5082 0.627366 45.3736 0.730906 45.2544 0.874518C45.1366 1.01828 45.0402 1.20625 44.9683 1.43857C44.8965 1.67104 44.8613 1.95612 44.8613 2.29412C44.8613 2.59832 44.8949 2.86459 44.9638 3.09262C45.0311 3.32081 45.1243 3.51092 45.2436 3.66294C45.3629 3.81512 45.5021 3.92921 45.6627 4.00522C45.8233 4.08124 45.9976 4.11932 46.1857 4.11932C46.3555 4.11932 46.5039 4.10035 46.6308 4.06227C46.7578 4.02419 46.8633 3.9757 46.9504 3.91651L47.0636 4.32839ZM48.2183 3.73268C48.2183 3.88058 48.2413 3.98626 48.2872 4.04958C48.3331 4.11289 48.3957 4.1447 48.4798 4.1447C48.5288 4.1447 48.5808 4.14042 48.6374 4.13201C48.6955 4.12344 48.7582 4.10463 48.8301 4.07496L48.8821 4.47414C48.8209 4.50794 48.7368 4.53547 48.6298 4.55658C48.5227 4.57768 48.4279 4.58823 48.3499 4.58823C48.1801 4.58823 48.0394 4.5344 47.9308 4.42673C47.8207 4.31891 47.7656 4.13614 47.7656 3.87843V0.0760143H48.2183V3.73268ZM49.3226 1.57805C49.4664 1.48078 49.6331 1.40905 49.8242 1.36255C50.0154 1.31606 50.2142 1.29281 50.4222 1.29281C50.618 1.29281 50.7755 1.32233 50.8948 1.38152C51.0141 1.44071 51.1043 1.51779 51.1671 1.61292C51.2282 1.70789 51.271 1.81251 51.2909 1.92645C51.3123 2.0407 51.3215 2.15479 51.3215 2.26873C51.3215 2.5223 51.3169 2.76946 51.3047 3.01034C51.294 3.25107 51.2879 3.4791 51.2879 3.6946C51.2879 3.85106 51.294 3.99895 51.3047 4.13843C51.3169 4.27776 51.3368 4.40654 51.3674 4.52492H51.034L50.9147 4.08123H50.8857C50.852 4.14042 50.8092 4.19854 50.7587 4.25559C50.7082 4.31264 50.6471 4.36326 50.5752 4.40776C50.5033 4.45196 50.4191 4.48897 50.3258 4.51849C50.231 4.54816 50.124 4.563 50.0031 4.563C49.8823 4.563 49.7692 4.54174 49.6652 4.49953C49.5627 4.45732 49.4724 4.39706 49.3975 4.3189C49.321 4.24075 49.2614 4.14669 49.2186 4.03688C49.1757 3.92707 49.1528 3.80242 49.1528 3.66294C49.1528 3.47712 49.188 3.32173 49.2553 3.19723C49.3226 3.07259 49.4189 2.97333 49.5413 2.8993C49.6636 2.82543 49.8104 2.77251 49.9833 2.74101C50.1546 2.7092 50.3442 2.69345 50.5522 2.69345C50.6042 2.69345 50.6562 2.69345 50.7082 2.69345C50.7587 2.69345 50.8107 2.69757 50.8642 2.70599C50.8749 2.57935 50.881 2.46526 50.881 2.36371C50.881 2.13154 50.8382 1.96881 50.7556 1.87598C50.673 1.78299 50.5216 1.73649 50.3029 1.73649C50.2387 1.73649 50.1699 1.7417 50.0964 1.7524C50.023 1.76403 49.9466 1.77871 49.8701 1.79874C49.7921 1.81771 49.7187 1.84202 49.6483 1.87062C49.5795 1.89815 49.5183 1.92966 49.4648 1.96453L49.3226 1.57805ZM50.1271 4.11932C50.2326 4.11932 50.3274 4.10341 50.41 4.07175C50.4941 4.04009 50.566 3.99987 50.6256 3.95139C50.6853 3.90275 50.7357 3.84892 50.7755 3.78973C50.8153 3.73054 50.8444 3.6735 50.8642 3.61859V3.09262C50.8107 3.08834 50.7571 3.08528 50.7021 3.08314C50.647 3.081 50.5935 3.07993 50.5415 3.07993C50.4238 3.07993 50.309 3.08742 50.1974 3.10211C50.0873 3.11694 49.9878 3.14432 49.9037 3.18454C49.8181 3.22461 49.7508 3.27952 49.7003 3.34926C49.6483 3.419 49.6239 3.50663 49.6239 3.61232C49.6239 3.76021 49.6713 3.88165 49.7646 3.97662C49.8594 4.07175 49.9802 4.11932 50.1271 4.11932ZM53.4229 3.6504C53.4229 3.52361 53.3893 3.4242 53.3204 3.35247C53.2532 3.28059 53.169 3.22048 53.0696 3.17184C52.9687 3.12321 52.8601 3.07687 52.7408 3.03252C52.6215 2.98801 52.5129 2.93112 52.412 2.86137C52.3126 2.79163 52.2284 2.70186 52.1596 2.59205C52.0923 2.48224 52.0587 2.33434 52.0587 2.14837C52.0587 1.84417 52.1351 1.62133 52.2911 1.47986C52.4456 1.33824 52.6597 1.26742 52.9366 1.26742C53.14 1.26742 53.3113 1.28761 53.4489 1.32768C53.5866 1.3679 53.7059 1.41532 53.8083 1.47037L53.6998 1.88851C53.6141 1.84202 53.5086 1.80088 53.3862 1.76494C53.2639 1.729 53.1323 1.71111 52.9932 1.71111C52.8265 1.71111 52.7041 1.74276 52.6276 1.80623C52.5496 1.86955 52.5114 1.97936 52.5114 2.13567C52.5114 2.24548 52.545 2.33113 52.6139 2.39231C52.6811 2.45364 52.7653 2.50854 52.8647 2.55718C52.9656 2.60566 53.0742 2.65323 53.1935 2.69972C53.3128 2.74621 53.4214 2.80754 53.5224 2.88355C53.6218 2.95956 53.7059 3.05576 53.7747 3.17184C53.842 3.28808 53.8756 3.44117 53.8756 3.63128C53.8756 3.76648 53.8558 3.89327 53.816 4.01165C53.7762 4.12987 53.7151 4.23127 53.6325 4.31569C53.5499 4.40027 53.4459 4.4668 53.3235 4.51543C53.2012 4.56392 53.0574 4.58823 52.8907 4.58823C52.675 4.58823 52.4931 4.56499 52.3417 4.51849C52.1902 4.47215 52.0633 4.41724 51.9623 4.35377L52.0985 3.92294C52.1841 3.97769 52.2988 4.02847 52.438 4.07496C52.5772 4.12146 52.7194 4.1447 52.8632 4.1447C53.0253 4.1447 53.1583 4.10876 53.2639 4.03688C53.3694 3.96515 53.4229 3.83622 53.4229 3.6504ZM55.8073 3.6504C55.8073 3.52361 55.7737 3.4242 55.7048 3.35247C55.6375 3.28059 55.5534 3.22048 55.4525 3.17184C55.3531 3.12321 55.2429 3.07687 55.1251 3.03252C55.0058 2.98801 54.8957 2.93112 54.7963 2.86137C54.6969 2.79163 54.6128 2.70186 54.544 2.59205C54.4767 2.48224 54.4431 2.33434 54.4431 2.14837C54.4431 1.84417 54.5195 1.62133 54.674 1.47986C54.83 1.33824 55.0441 1.26742 55.3194 1.26742C55.5243 1.26742 55.6941 1.28761 55.8317 1.32768C55.9709 1.3679 56.0902 1.41532 56.1927 1.47037L56.0841 1.88851C55.9969 1.84202 55.893 1.80088 55.7706 1.76494C55.6482 1.729 55.5167 1.71111 55.376 1.71111C55.2108 1.71111 55.0885 1.74276 55.012 1.80623C54.934 1.86955 54.8957 1.97936 54.8957 2.13567C54.8957 2.24548 54.9294 2.33113 54.9967 2.39231C55.0655 2.45364 55.1497 2.50854 55.2491 2.55718C55.35 2.60566 55.4586 2.65323 55.5779 2.69972C55.6972 2.74621 55.8058 2.80754 55.9067 2.88355C56.0061 2.95956 56.0902 3.05576 56.1575 3.17184C56.2263 3.28808 56.26 3.44117 56.26 3.63128C56.26 3.76648 56.2401 3.89327 56.2003 4.01165C56.1606 4.12987 56.0994 4.23127 56.0168 4.31569C55.9327 4.40027 55.8302 4.4668 55.7079 4.51543C55.5855 4.56392 55.4402 4.58823 55.2751 4.58823C55.0594 4.58823 54.8759 4.56499 54.726 4.51849C54.5746 4.47215 54.4477 4.41724 54.3467 4.35377L54.4813 3.92294C54.5685 3.97769 54.6816 4.02847 54.8223 4.07496C54.9615 4.12146 55.1022 4.1447 55.246 4.1447C55.4081 4.1447 55.5427 4.10876 55.6482 4.03688C55.7537 3.96515 55.8073 3.83622 55.8073 3.6504ZM58.5021 0.120366C58.6459 0.0908486 58.811 0.0675989 58.9976 0.0507754C59.1842 0.0337989 59.3555 0.0253906 59.51 0.0253906C59.6843 0.0253906 59.8495 0.0464921 60.0055 0.0887038C60.163 0.130916 60.3007 0.200656 60.42 0.297774C60.5377 0.395044 60.6341 0.521837 60.706 0.678143C60.7763 0.834449 60.8131 1.02455 60.8131 1.24846C60.8131 1.59487 60.7274 1.87598 60.5576 2.09132C60.3879 2.30681 60.1722 2.45042 59.9122 2.52231L60.1845 2.75677L61.1694 4.51222H60.6203L59.5268 2.59831L58.9732 2.50319V4.51222H58.5021V0.120366ZM59.5222 0.481611C59.4733 0.481611 59.4213 0.481611 59.3693 0.481611C59.3158 0.481611 59.2653 0.483752 59.2163 0.488034C59.1674 0.492164 59.12 0.496449 59.0772 0.500578C59.0343 0.50486 58.9992 0.51128 58.9732 0.519539V2.15479H59.4136C59.6752 2.15479 59.8893 2.0829 60.059 1.93914C60.2288 1.79553 60.3144 1.57162 60.3144 1.26742C60.3144 1.03939 60.2441 0.85127 60.1049 0.703376C59.9657 0.555635 59.7715 0.481611 59.5222 0.481611ZM63.6211 4.25865C63.5079 4.3602 63.3656 4.44034 63.1943 4.49953C63.0215 4.55872 62.8395 4.58823 62.6468 4.58823C62.4327 4.58823 62.2461 4.54924 62.087 4.47093C61.928 4.39293 61.798 4.28098 61.6955 4.13522C61.5946 3.98947 61.5181 3.81512 61.4692 3.61232C61.4202 3.40952 61.3957 3.18133 61.3957 2.92775C61.3957 2.3871 61.5043 1.97508 61.7184 1.69214C61.9341 1.40905 62.2415 1.26742 62.6422 1.26742C62.7707 1.26742 62.8992 1.28333 63.0261 1.31499C63.1546 1.34664 63.2708 1.40691 63.3717 1.49561C63.4742 1.58432 63.5568 1.71003 63.6211 1.87276C63.6853 2.03534 63.7174 2.24976 63.7174 2.51603C63.7174 2.65536 63.7067 2.80953 63.6837 2.97853H61.8653C61.8653 3.1645 61.8836 3.32922 61.9173 3.47283C61.9509 3.6166 62.0044 3.73803 62.0748 3.83729C62.1467 3.93655 62.24 4.01256 62.3562 4.06548C62.4709 4.11825 62.6117 4.1447 62.7784 4.1447C62.9068 4.1447 63.0337 4.11932 63.1622 4.0687C63.2907 4.01792 63.387 3.95873 63.4513 3.89113L63.6211 4.25865ZM62.6468 1.71111C62.425 1.71111 62.2461 1.77656 62.113 1.90763C61.9784 2.03855 61.8974 2.26246 61.8714 2.57935H63.2754C63.2754 2.25818 63.2219 2.0332 63.1118 1.90442C63.0016 1.7755 62.8471 1.71111 62.6468 1.71111ZM65.6766 3.6504C65.6766 3.52361 65.6429 3.4242 65.5756 3.35247C65.5068 3.28059 65.4227 3.22048 65.3233 3.17184C65.2223 3.12321 65.1137 3.07687 64.9944 3.03252C64.8751 2.98801 64.7666 2.93112 64.6656 2.86137C64.5662 2.79163 64.4821 2.70186 64.4148 2.59205C64.346 2.48224 64.3123 2.33434 64.3123 2.14837C64.3123 1.84417 64.3904 1.62133 64.5448 1.47986C64.6993 1.33824 64.9149 1.26742 65.1902 1.26742C65.3936 1.26742 65.5649 1.28761 65.7026 1.32768C65.8402 1.3679 65.9595 1.41532 66.062 1.47037L65.9549 1.88851C65.8678 1.84202 65.7622 1.80088 65.6398 1.76494C65.5175 1.729 65.386 1.71111 65.2468 1.71111C65.0801 1.71111 64.9593 1.74276 64.8813 1.80623C64.8048 1.86955 64.765 1.97936 64.765 2.13567C64.765 2.24548 64.7987 2.33113 64.8675 2.39231C64.9348 2.45364 65.0189 2.50854 65.1199 2.55718C65.2193 2.60566 65.3294 2.65323 65.4472 2.69972C65.5665 2.74621 65.6766 2.80754 65.776 2.88355C65.8754 2.95956 65.9595 3.05576 66.0284 3.17184C66.0957 3.28808 66.1293 3.44117 66.1293 3.63128C66.1293 3.76648 66.1094 3.89327 66.0712 4.01165C66.0314 4.12987 65.9702 4.23127 65.8861 4.31569C65.8035 4.40027 65.701 4.4668 65.5772 4.51543C65.4548 4.56392 65.3111 4.58823 65.1444 4.58823C64.9302 4.58823 64.7467 4.56499 64.5953 4.51849C64.4439 4.47215 64.3184 4.41724 64.216 4.35377L64.3521 3.92294C64.4393 3.97769 64.5524 4.02847 64.6916 4.07496C64.8308 4.12146 64.9731 4.1447 65.1168 4.1447C65.2789 4.1447 65.412 4.10876 65.5191 4.03688C65.6246 3.96515 65.6766 3.83622 65.6766 3.6504ZM68.8822 4.25865C68.7691 4.3602 68.6268 4.44034 68.454 4.49953C68.2827 4.55872 68.1007 4.58823 67.908 4.58823C67.6923 4.58823 67.5058 4.54924 67.3467 4.47093C67.1892 4.39293 67.0592 4.28098 66.9567 4.13522C66.8542 3.98947 66.7793 3.81512 66.7303 3.61232C66.6814 3.40952 66.6569 3.18133 66.6569 2.92775C66.6569 2.3871 66.764 1.97508 66.9796 1.69214C67.1953 1.40905 67.5027 1.26742 67.9019 1.26742C68.0303 1.26742 68.1588 1.28333 68.2873 1.31499C68.4158 1.34664 68.5304 1.40691 68.6329 1.49561C68.7354 1.58432 68.818 1.71003 68.8822 1.87276C68.9465 2.03534 68.9786 2.24976 68.9786 2.51603C68.9786 2.65536 68.9663 2.80953 68.9449 2.97853H67.1265C67.1265 3.1645 67.1433 3.32922 67.1769 3.47283C67.2121 3.6166 67.2641 3.73803 67.336 3.83729C67.4079 3.93655 67.5012 4.01256 67.6159 4.06548C67.7321 4.11825 67.8728 4.1447 68.038 4.1447C68.1665 4.1447 68.2949 4.11932 68.4234 4.0687C68.5519 4.01792 68.6482 3.95873 68.7124 3.89113L68.8822 4.25865ZM67.908 1.71111C67.6847 1.71111 67.5073 1.77656 67.3727 1.90763C67.2381 2.03855 67.1586 2.26246 67.1326 2.57935H68.5366C68.5366 2.25818 68.4815 2.0332 68.3729 1.90442C68.2628 1.7755 68.1083 1.71111 67.908 1.71111ZM69.6469 1.57805C69.7892 1.48078 69.9574 1.40905 70.1471 1.36255C70.3382 1.31606 70.537 1.29281 70.745 1.29281C70.9408 1.29281 71.0983 1.32233 71.2176 1.38152C71.3369 1.44071 71.4272 1.51779 71.4899 1.61292C71.5526 1.70789 71.5939 1.81251 71.6137 1.92645C71.6351 2.0407 71.6458 2.15479 71.6458 2.26873C71.6458 2.5223 71.6398 2.76946 71.629 3.01034C71.6168 3.25107 71.6107 3.4791 71.6107 3.6946C71.6107 3.85106 71.6168 3.99895 71.629 4.13843C71.6398 4.27776 71.6612 4.40654 71.6902 4.52492H71.3568L71.2375 4.08123H71.21C71.1748 4.14042 71.1335 4.19854 71.0815 4.25559C71.031 4.31264 70.9699 4.36326 70.898 4.40776C70.8261 4.45196 70.7435 4.48897 70.6487 4.51849C70.5539 4.54816 70.4468 4.563 70.326 4.563C70.2052 4.563 70.0935 4.54174 69.9895 4.49953C69.8855 4.45732 69.7953 4.39706 69.7203 4.3189C69.6438 4.24075 69.5858 4.14669 69.5414 4.03688C69.4986 3.92707 69.4771 3.80242 69.4771 3.66294C69.4771 3.47712 69.5108 3.32173 69.5781 3.19723C69.6469 3.07259 69.7418 2.97333 69.8641 2.8993C69.9865 2.82543 70.1348 2.77251 70.3061 2.74101C70.4774 2.7092 70.667 2.69345 70.875 2.69345C70.9286 2.69345 70.9806 2.69345 71.0311 2.69345C71.0815 2.69345 71.1335 2.69757 71.187 2.70599C71.1977 2.57935 71.2038 2.46526 71.2038 2.36371C71.2038 2.13154 71.1625 1.96881 71.0784 1.87598C70.9958 1.78299 70.8444 1.73649 70.6257 1.73649C70.5615 1.73649 70.4927 1.7417 70.4193 1.7524C70.3458 1.76403 70.2709 1.77871 70.1929 1.79874C70.1149 1.81771 70.0415 1.84202 69.9727 1.87062C69.9023 1.89815 69.8411 1.92966 69.7876 1.96453L69.6469 1.57805ZM70.4499 4.11932C70.5569 4.11932 70.6502 4.10341 70.7344 4.07175C70.8169 4.04009 70.8888 3.99987 70.9484 3.95139C71.0096 3.90275 71.0601 3.84892 71.0983 3.78973C71.1381 3.73054 71.1672 3.6735 71.187 3.61859V3.09262C71.1335 3.08834 71.08 3.08528 71.0249 3.08314C70.9699 3.081 70.9163 3.07993 70.8643 3.07993C70.7466 3.07993 70.6334 3.08742 70.5218 3.10211C70.4101 3.11694 70.3122 3.14432 70.2266 3.18454C70.1425 3.22461 70.0737 3.27952 70.0232 3.34926C69.9727 3.419 69.9467 3.50663 69.9467 3.61232C69.9467 3.76021 69.9941 3.88165 70.0874 3.97662C70.1822 4.07175 70.3031 4.11932 70.4499 4.11932ZM73.8375 1.83147C73.7243 1.78926 73.6158 1.76815 73.5148 1.76815C73.3512 1.76815 73.2227 1.81771 73.1294 1.91712C73.0346 2.01638 72.9765 2.14194 72.9535 2.29412V4.51222H72.5008V1.34359H72.8174L72.9031 1.73007H72.9244C72.9963 1.58646 73.0835 1.47558 73.1829 1.39742C73.2823 1.31927 73.4108 1.28012 73.5653 1.28012C73.6739 1.28012 73.7977 1.30123 73.9338 1.34359L73.8375 1.83147ZM76.3565 4.30315C76.2433 4.39614 76.1102 4.4668 75.9542 4.51543C75.7998 4.56392 75.6376 4.58823 75.4679 4.58823C75.2492 4.58823 75.0641 4.54924 74.9127 4.47093C74.7613 4.39293 74.6389 4.28098 74.5426 4.13522C74.4462 3.98947 74.3759 3.81404 74.333 3.6091C74.2887 3.40431 74.2673 3.1772 74.2673 2.92775C74.2673 2.39139 74.3728 1.98043 74.5839 1.6952C74.7965 1.41012 75.0993 1.26742 75.4954 1.26742C75.6774 1.26742 75.8303 1.28333 75.9573 1.31499C76.0842 1.34664 76.1989 1.39207 76.2998 1.45126L76.1699 1.88851C76.0827 1.83361 75.9863 1.79033 75.8808 1.75867C75.7753 1.72686 75.6621 1.71111 75.5413 1.71111C75.006 1.71111 74.7368 2.1167 74.7368 2.92775C74.7368 3.08834 74.7521 3.24159 74.7796 3.38734C74.8087 3.5331 74.8545 3.66203 74.9218 3.77398C74.9876 3.88578 75.0748 3.97571 75.1819 4.04315C75.2889 4.11091 75.422 4.1447 75.581 4.1447C75.7171 4.1447 75.838 4.12146 75.9466 4.07496C76.0536 4.02847 76.1423 3.9757 76.2096 3.91651L76.3565 4.30315ZM78.7974 4.51222V2.70599C78.7974 2.54127 78.7882 2.39659 78.7714 2.27194C78.7545 2.14729 78.724 2.04391 78.6781 1.96147C78.6338 1.87904 78.5725 1.81679 78.4945 1.77442C78.4165 1.73221 78.3156 1.71111 78.1917 1.71111C78.0143 1.71111 77.8537 1.7755 77.71 1.90442C77.5662 2.0332 77.4744 2.19899 77.4331 2.40179V4.51222H76.9804V0.0760143H77.4331V1.69841H77.4546C77.554 1.56749 77.6717 1.46288 77.8094 1.38473C77.947 1.30658 78.1183 1.26742 78.3218 1.26742C78.4808 1.26742 78.6184 1.28761 78.7347 1.32768C78.8524 1.3679 78.9488 1.43857 79.0268 1.53997C79.1048 1.64137 79.1614 1.77764 79.1966 1.94878C79.2317 2.11992 79.2501 2.33633 79.2501 2.59831V4.51222H78.7974ZM84.1717 4.32839C84.0586 4.42551 83.9148 4.49326 83.7405 4.53119C83.5676 4.56927 83.3826 4.58823 83.1853 4.58823C82.9482 4.58823 82.7249 4.54281 82.5184 4.45196C82.3104 4.36112 82.1285 4.22286 81.974 4.03688C81.8195 3.85106 81.6972 3.61339 81.6054 3.32387C81.5152 3.03466 81.4708 2.69131 81.4708 2.29412C81.4708 1.88011 81.5197 1.52834 81.6207 1.23898C81.7201 0.949612 81.8516 0.713013 82.0168 0.529177C82.1804 0.345495 82.3655 0.211213 82.5689 0.12679C82.7723 0.0422133 82.9803 0 83.1914 0C83.4177 0 83.6028 0.0137654 83.7466 0.0412948C83.8903 0.0686712 84.0127 0.105682 84.1152 0.152023L84.002 0.621096C83.82 0.519543 83.5615 0.469073 83.225 0.469073C83.0706 0.469073 82.9176 0.500578 82.7662 0.564049C82.6163 0.627366 82.4802 0.730906 82.3625 0.874518C82.2432 1.01828 82.1483 1.20625 82.0764 1.43857C82.0046 1.67104 81.9679 1.95612 81.9679 2.29412C81.9679 2.59832 82.003 2.86459 82.0703 3.09262C82.1376 3.32081 82.2325 3.51092 82.3502 3.66294C82.4695 3.81512 82.6087 3.92921 82.7693 4.00522C82.9299 4.08124 83.1042 4.11932 83.2938 4.11932C83.4636 4.11932 83.612 4.10035 83.7374 4.06227C83.8643 4.02419 83.9714 3.9757 84.0585 3.91651L84.1717 4.32839ZM86.6907 4.25865C86.5775 4.3602 86.4353 4.44034 86.264 4.49953C86.0912 4.55872 85.9092 4.58823 85.7164 4.58823C85.5023 4.58823 85.3157 4.54924 85.1567 4.47093C84.9976 4.39293 84.8676 4.28098 84.7651 4.13522C84.6642 3.98947 84.5878 3.81512 84.5388 3.61232C84.4899 3.40952 84.4654 3.18133 84.4654 2.92775C84.4654 2.3871 84.5725 1.97508 84.7881 1.69214C85.0038 1.40905 85.3112 1.26742 85.7119 1.26742C85.8403 1.26742 85.9688 1.28333 86.0957 1.31499C86.2242 1.34664 86.3404 1.40691 86.4414 1.49561C86.5439 1.58432 86.6264 1.71003 86.6907 1.87276C86.7549 2.03534 86.7871 2.24976 86.7871 2.51603C86.7871 2.65536 86.7763 2.80953 86.7534 2.97853H84.9349C84.9349 3.1645 84.9533 3.32922 84.9869 3.47283C85.0206 3.6166 85.0741 3.73803 85.1445 3.83729C85.2163 3.93655 85.3096 4.01256 85.4259 4.06548C85.5406 4.11825 85.6813 4.1447 85.848 4.1447C85.9749 4.1447 86.1034 4.11932 86.2319 4.0687C86.3603 4.01792 86.4567 3.95873 86.5209 3.89113L86.6907 4.25865ZM85.7164 1.71111C85.4947 1.71111 85.3157 1.77656 85.1827 1.90763C85.0481 2.03855 84.9671 2.26246 84.9411 2.57935H86.3451C86.3451 2.25818 86.2915 2.0332 86.1814 1.90442C86.0713 1.7755 85.9168 1.71111 85.7164 1.71111ZM89.3182 4.51222V2.70599C89.3182 2.37655 89.2754 2.12833 89.1913 1.96147C89.1056 1.79461 88.9512 1.71111 88.7233 1.71111C88.5245 1.71111 88.3593 1.77121 88.2277 1.89173C88.0977 2.01209 88.006 2.1632 87.954 2.34474V4.51222H87.5013V1.34359H87.8178L87.9035 1.73007H87.9249C88.0167 1.59487 88.1375 1.48399 88.2905 1.39742C88.4434 1.31071 88.6254 1.26742 88.8365 1.26742C88.9925 1.26742 89.1286 1.28761 89.2448 1.32768C89.3626 1.3679 89.4589 1.43857 89.5369 1.53997C89.6134 1.64137 89.673 1.77764 89.7128 1.94878C89.751 2.11992 89.7709 2.33633 89.7709 2.59831V4.51222H89.3182ZM90.2252 1.34359H90.6656V0.716071L91.1198 0.570315V1.34359H91.8892V1.78712H91.1198V3.54257C91.1198 3.76235 91.1443 3.91759 91.1933 4.00843C91.2422 4.09928 91.3248 4.1447 91.4425 4.1447C91.5404 4.1447 91.6231 4.13308 91.6919 4.10983C91.7592 4.08659 91.8341 4.056 91.9182 4.01792L92.0192 4.4044C91.9182 4.45946 91.8065 4.50381 91.6857 4.53761C91.5649 4.57141 91.4349 4.58823 91.2942 4.58823C91.0648 4.58823 90.9027 4.51544 90.8079 4.36968C90.7131 4.22393 90.6656 3.97984 90.6656 3.63771V1.78712H90.2252V1.34359ZM94.5228 4.25865C94.4096 4.3602 94.2674 4.44034 94.0946 4.49953C93.9233 4.55872 93.7413 4.58823 93.5486 4.58823C93.3329 4.58823 93.1463 4.54924 92.9873 4.47093C92.8297 4.39293 92.6997 4.28098 92.5973 4.13522C92.4948 3.98947 92.4199 3.81512 92.3709 3.61232C92.322 3.40952 92.2975 3.18133 92.2975 2.92775C92.2975 2.3871 92.4046 1.97508 92.6202 1.69214C92.8343 1.40905 93.1433 1.26742 93.5425 1.26742C93.6709 1.26742 93.7994 1.28333 93.9278 1.31499C94.0563 1.34664 94.171 1.40691 94.2735 1.49561C94.376 1.58432 94.4586 1.71003 94.5228 1.87276C94.587 2.03534 94.6191 2.24976 94.6191 2.51603C94.6191 2.65536 94.6069 2.80953 94.5855 2.97853H92.767C92.767 3.1645 92.7839 3.32922 92.8175 3.47283C92.8527 3.6166 92.9047 3.73803 92.9766 3.83729C93.0485 3.93655 93.1417 4.01256 93.2564 4.06548C93.3727 4.11825 93.5134 4.1447 93.6786 4.1447C93.807 4.1447 93.9355 4.11932 94.064 4.0687C94.1925 4.01792 94.2888 3.95873 94.353 3.89113L94.5228 4.25865ZM93.5486 1.71111C93.3253 1.71111 93.1479 1.77656 93.0133 1.90763C92.8787 2.03855 92.7992 2.26246 92.7732 2.57935H94.1772C94.1772 2.25818 94.1221 2.0332 94.0135 1.90442C93.9034 1.7755 93.7489 1.71111 93.5486 1.71111ZM96.6686 1.83147C96.5554 1.78926 96.4483 1.76815 96.3459 1.76815C96.1838 1.76815 96.0553 1.81771 95.9604 1.91712C95.8671 2.01638 95.8075 2.14194 95.7846 2.29412V4.51222H95.3318V1.34359H95.65L95.7341 1.73007H95.757C95.8289 1.58646 95.9146 1.47558 96.014 1.39742C96.1149 1.31927 96.2419 1.28012 96.3963 1.28012C96.5064 1.28012 96.6288 1.30123 96.7649 1.34359L96.6686 1.83147Z" fill="#FEFEFE"/>
    <path fill-rule="evenodd" clip-rule="evenodd" d="M27.9414 7.75632H31.5003V8.9693H29.116V10.5897H31.2847V11.8027H29.116V13.5028H31.5432V14.7158H27.9414V7.75632ZM31.9974 9.74471H32.5893V9.46636C32.5893 8.8367 32.7025 8.38094 32.9319 8.09922C33.1598 7.81766 33.4916 7.6768 33.926 7.6768C34.3833 7.6768 34.7641 7.73966 35.0669 7.86568L34.8528 8.89971C34.7213 8.84664 34.605 8.81193 34.5056 8.79526C34.4047 8.77859 34.3007 8.77033 34.1921 8.77033C34.0774 8.77033 33.9872 8.79021 33.9214 8.83013C33.8556 8.86974 33.8082 8.93106 33.7761 9.01396C33.7455 9.09685 33.7241 9.19963 33.7165 9.32214C33.7073 9.44479 33.7027 9.58566 33.7027 9.74471H34.6464V10.8384H33.7027V14.7158H32.5893V10.8384H31.9974V9.74471ZM38.8737 9.74471V14.7158H37.7587V10.8384H36.4648V14.7158H35.3499V10.8384H34.758V9.74471H35.3499V9.46636C35.3499 8.8367 35.489 8.37772 35.7704 8.08943C36.0503 7.80098 36.4557 7.65691 36.9879 7.65691C37.3825 7.65691 37.7327 7.69163 38.0386 7.76122C38.3429 7.83081 38.5907 7.92854 38.7788 8.05456L38.4882 9.05862C38.3399 8.96594 38.1594 8.8913 37.9483 8.83502C37.7358 8.77858 37.5018 8.75044 37.2448 8.75044C37.0797 8.75044 36.9451 8.77201 36.8411 8.81514C36.7386 8.85812 36.659 8.92112 36.6009 9.00402C36.5443 9.08691 36.5076 9.19137 36.4908 9.31724C36.4725 9.44311 36.4648 9.58566 36.4648 9.74471H38.8737ZM42.9205 14.4076C42.7492 14.5533 42.5427 14.6644 42.2995 14.7405C42.0563 14.8169 41.8055 14.8549 41.5486 14.8549C41.206 14.8549 40.9154 14.7919 40.6784 14.6661C40.4413 14.5402 40.2486 14.3628 40.1002 14.1341C39.9519 13.9055 39.8448 13.6288 39.779 13.304C39.7133 12.9793 39.6796 12.6212 39.6796 12.2303C39.6796 11.3885 39.8433 10.7405 40.169 10.2866C40.4948 9.83265 40.9689 9.60554 41.5914 9.60554C41.9064 9.60554 42.1588 9.63536 42.35 9.69501C42.5427 9.75465 42.7155 9.83097 42.87 9.92366L42.6039 10.9774C42.4724 10.9046 42.3423 10.8483 42.2139 10.8084C42.0854 10.7688 41.937 10.7488 41.7719 10.7488C41.4629 10.7488 41.2289 10.8665 41.0684 11.1018C40.9093 11.3371 40.8282 11.7132 40.8282 12.2303C40.8282 12.4423 40.8481 12.6377 40.8894 12.8168C40.9292 12.9958 40.9888 13.1515 41.0684 13.2841C41.1494 13.4167 41.2534 13.5211 41.3819 13.5973C41.5103 13.6735 41.6602 13.7116 41.8315 13.7116C42.0212 13.7116 42.1802 13.6834 42.3118 13.6271C42.4433 13.5707 42.5611 13.5028 42.6635 13.4233L42.9205 14.4076ZM43.6928 9.74471H44.8078V14.7158H43.6928V9.74471ZM43.5291 8.34286C43.5291 8.15076 43.5919 7.9865 43.7142 7.85069C43.8366 7.71488 44.0063 7.64697 44.2235 7.64697C44.4407 7.64697 44.6166 7.71488 44.7512 7.85069C44.8858 7.9865 44.953 8.15076 44.953 8.34286C44.953 8.5351 44.8858 8.69585 44.7512 8.82508C44.6166 8.95432 44.4407 9.01885 44.2235 9.01885C44.0063 9.01885 43.8366 8.95432 43.7142 8.82508C43.5919 8.69585 43.5291 8.5351 43.5291 8.34286ZM49.3348 14.2883C49.1635 14.4473 48.9295 14.5815 48.6359 14.6908C48.3407 14.8002 48.0287 14.8549 47.6968 14.8549C47.0055 14.8549 46.4993 14.6214 46.1796 14.154C45.8584 13.6868 45.6994 13.0455 45.6994 12.2303C45.6994 11.3553 45.8783 10.6992 46.2393 10.2617C46.5987 9.82424 47.1049 9.60554 47.7565 9.60554C47.9736 9.60554 48.1862 9.63857 48.3912 9.70495C48.5976 9.77133 48.7797 9.88053 48.9402 10.033C49.1008 10.1855 49.2293 10.3909 49.3256 10.6495C49.4235 10.908 49.4725 11.2295 49.4725 11.6138C49.4725 11.753 49.4648 11.9021 49.4495 12.0612C49.4357 12.2204 49.4143 12.386 49.3853 12.5584H46.822C46.8388 12.9759 46.9321 13.2907 47.0988 13.5028C47.2686 13.7149 47.5393 13.8211 47.9155 13.8211C48.1495 13.8211 48.3591 13.7796 48.5441 13.6967C48.7292 13.6138 48.8699 13.5294 48.9677 13.4431L49.3348 14.2883ZM47.7442 10.6396C47.4536 10.6396 47.238 10.7405 47.0988 10.9427C46.9612 11.1449 46.8771 11.415 46.848 11.753H48.434C48.4569 11.3951 48.4095 11.12 48.2948 10.9279C48.1771 10.7356 47.9935 10.6396 47.7442 10.6396ZM52.8846 14.7158V11.8922C52.8846 11.4879 52.8341 11.1963 52.7347 11.0173C52.6338 10.8384 52.464 10.7488 52.2239 10.7488C52.0128 10.7488 51.8339 10.82 51.6886 10.9626C51.5418 11.1051 51.4377 11.2824 51.375 11.4945V14.7158H50.2601V9.74471H51.1441L51.2726 10.401H51.3062C51.4378 10.1889 51.6121 10.0032 51.8293 9.84412C52.0464 9.68507 52.3264 9.60554 52.6705 9.60554C52.8815 9.60554 53.0696 9.63857 53.2363 9.70495C53.4015 9.77133 53.5422 9.88053 53.6554 10.033C53.7701 10.1855 53.8557 10.3926 53.9139 10.6544C53.9705 10.9162 53.9995 11.2394 53.9995 11.6237V14.7158H52.8846ZM54.4874 9.74471H55.0793V8.81024L56.1942 8.44242V9.74471H57.2404V10.8384H56.1942V12.7473C56.1942 13.092 56.2248 13.3388 56.2845 13.4879C56.3441 13.6371 56.4573 13.7116 56.6224 13.7116C56.7372 13.7116 56.835 13.6984 56.9192 13.6719C57.0017 13.6453 57.095 13.6056 57.1975 13.5525L57.3948 14.5468C57.2403 14.6329 57.0599 14.7058 56.8549 14.7655C56.6485 14.8251 56.4405 14.8549 56.2279 14.8549C55.8333 14.8549 55.5442 14.7373 55.3576 14.5019C55.1726 14.2667 55.0793 13.8805 55.0793 13.3437V10.8384H54.4874V9.74471ZM63.7404 12.966C63.7404 13.2443 63.7419 13.5228 63.748 13.801C63.7541 14.0794 63.7801 14.3875 63.826 14.7257H63.0277L62.8732 14.0794H62.8395C62.7248 14.3114 62.5612 14.4987 62.3471 14.6411C62.1314 14.7837 61.879 14.8549 61.5869 14.8549C61.0501 14.8549 60.6326 14.6494 60.3359 14.2384C60.0392 13.8276 59.8893 13.1847 59.8893 12.3098C59.8893 11.4613 60.056 10.8018 60.3863 10.3314C60.7182 9.86064 61.2046 9.62542 61.8454 9.62542C62.0213 9.62542 62.1681 9.63704 62.2828 9.66014C62.396 9.68338 62.5107 9.72147 62.6254 9.77454V7.75632H63.7404V12.966ZM61.8454 13.7613C62.0626 13.7613 62.2339 13.6999 62.3593 13.5774C62.4847 13.4548 62.5734 13.2775 62.6254 13.0455V10.9378C62.5444 10.8649 62.4572 10.8101 62.3593 10.7737C62.2614 10.7373 62.136 10.7191 61.9815 10.7191C61.668 10.7191 61.4325 10.8416 61.275 11.0869C61.1174 11.3321 61.0394 11.753 61.0394 12.3495C61.0394 12.7737 61.1036 13.1151 61.2321 13.3737C61.3606 13.632 61.564 13.7613 61.8454 13.7613ZM68.1466 14.2883C67.9753 14.4473 67.7428 14.5815 67.4476 14.6908C67.154 14.8002 66.8405 14.8549 66.5086 14.8549C65.8173 14.8549 65.3111 14.6214 64.9914 14.154C64.6718 13.6868 64.5112 13.0455 64.5112 12.2303C64.5112 11.3553 64.6916 10.6992 65.0511 10.2617C65.412 9.82424 65.9182 9.60554 66.5697 9.60554C66.7869 9.60554 66.998 9.63857 67.2045 9.70495C67.4094 9.77133 67.5929 9.88053 67.752 10.033C67.9126 10.1855 68.041 10.3909 68.1389 10.6495C68.2353 10.908 68.2842 11.2295 68.2842 11.6138C68.2842 11.753 68.2766 11.9021 68.2628 12.0612C68.2491 12.2204 68.2276 12.386 68.1986 12.5584H65.6353C65.6521 12.9759 65.7439 13.2907 65.9121 13.5028C66.0803 13.7149 66.3526 13.8211 66.7273 13.8211C66.9628 13.8211 67.1708 13.7796 67.3559 13.6967C67.5409 13.6138 67.6832 13.5294 67.7795 13.4431L68.1466 14.2883ZM66.556 10.6396C66.2669 10.6396 66.0497 10.7405 65.9121 10.9427C65.7729 11.1449 65.6888 11.415 65.6597 11.753H67.2473C67.2702 11.3951 67.2228 11.12 67.1066 10.9279C66.9888 10.7356 66.8068 10.6396 66.556 10.6396ZM70.4361 12.3495L70.5814 13.1151H70.6257L70.745 12.3296L71.4731 9.74471H72.6736L70.8827 14.7655H70.2052L68.3439 9.74471H69.6393L70.4361 12.3495ZM76.413 14.2883C76.2417 14.4473 76.0077 14.5815 75.7141 14.6908C75.4189 14.8002 75.1069 14.8549 74.7751 14.8549C74.0838 14.8549 73.5775 14.6214 73.2579 14.154C72.9367 13.6868 72.7776 13.0455 72.7776 12.2303C72.7776 11.3553 72.9566 10.6992 73.3175 10.2617C73.6769 9.82424 74.1832 9.60554 74.8347 9.60554C75.0519 9.60554 75.2629 9.63857 75.4694 9.70495C75.6759 9.77133 75.8579 9.88053 76.0185 10.033C76.179 10.1855 76.3075 10.3909 76.4039 10.6495C76.5018 10.908 76.5492 11.2295 76.5492 11.6138C76.5492 11.753 76.5431 11.9021 76.5278 12.0612C76.514 12.2204 76.4926 12.386 76.4635 12.5584H73.9002C73.917 12.9759 74.0103 13.2907 74.177 13.5028C74.3468 13.7149 74.6175 13.8211 74.9938 13.8211C75.2278 13.8211 75.4373 13.7796 75.6223 13.6967C75.8074 13.6138 75.9481 13.5294 76.046 13.4431L76.413 14.2883ZM74.8225 10.6396C74.5319 10.6396 74.3162 10.7405 74.177 10.9427C74.0394 11.1449 73.9553 11.415 73.9262 11.753H75.5122C75.5352 11.3951 75.4878 11.12 75.373 10.9279C75.2553 10.7356 75.0718 10.6396 74.8225 10.6396ZM78.4869 13.0455C78.4869 13.2775 78.5129 13.4465 78.5649 13.5525C78.6169 13.6585 78.6995 13.7116 78.8142 13.7116C78.8815 13.7116 78.9488 13.705 79.0146 13.6917C79.0804 13.6785 79.1629 13.6485 79.2593 13.6022L79.3801 14.6163C79.2883 14.6693 79.1476 14.7223 78.9595 14.7754C78.7714 14.8285 78.5756 14.8549 78.3768 14.8549C78.051 14.8549 77.8018 14.7671 77.6305 14.5914C77.4592 14.4158 77.3735 14.1259 77.3735 13.7215V7.75632H78.4869V13.0455ZM79.6539 12.2303C79.6539 11.3885 79.8313 10.7405 80.1861 10.2866C80.5394 9.83265 81.0365 9.60554 81.6773 9.60554C82.0199 9.60554 82.3181 9.66839 82.5689 9.79442C82.8213 9.92044 83.0293 10.0975 83.1945 10.3263C83.3612 10.555 83.4851 10.8317 83.5676 11.1565C83.6502 11.4812 83.6915 11.8392 83.6915 12.2303C83.6915 13.0719 83.5172 13.7198 83.1654 14.1739C82.8136 14.628 82.3181 14.8549 81.6773 14.8549C81.3347 14.8549 81.0365 14.7919 80.7856 14.6661C80.5348 14.5402 80.3238 14.3628 80.1555 14.1341C79.9873 13.9055 79.8603 13.6288 79.7778 13.304C79.6952 12.9793 79.6539 12.6212 79.6539 12.2303ZM80.8024 12.2303C80.8024 12.449 80.8193 12.6512 80.8544 12.8367C80.8881 13.0222 80.9401 13.1847 81.0089 13.3238C81.0777 13.463 81.168 13.5707 81.2781 13.647C81.3897 13.7232 81.5228 13.7613 81.6773 13.7613C81.9694 13.7613 82.1866 13.6386 82.3288 13.3934C82.4726 13.1483 82.5429 12.7604 82.5429 12.2303C82.5429 11.7729 82.4771 11.4034 82.3456 11.1216C82.2141 10.8401 81.9924 10.6992 81.6773 10.6992C81.4035 10.6992 81.1879 10.8184 81.0349 11.0571C80.8805 11.2957 80.8024 11.6868 80.8024 12.2303ZM84.4639 9.74471H85.279L85.4075 10.3413H85.4412C85.5895 10.0893 85.7654 9.90377 85.9688 9.78448C86.1722 9.66518 86.4184 9.60554 86.7106 9.60554C87.2474 9.60554 87.6512 9.80268 87.9188 10.1971C88.188 10.5914 88.3226 11.2261 88.3226 12.1011C88.3226 12.5252 88.2797 12.908 88.1941 13.2494C88.1085 13.5906 87.9815 13.8805 87.8117 14.1193C87.6435 14.3579 87.4386 14.5402 87.1954 14.6661C86.9522 14.7919 86.6739 14.8549 86.3588 14.8549C86.1814 14.8549 86.0361 14.8401 85.9214 14.8101C85.8067 14.7805 85.6935 14.7323 85.5788 14.6661V16.7041H84.4639V9.74471ZM86.3756 10.6992C86.1585 10.6992 85.9887 10.7622 85.8663 10.8879C85.7424 11.014 85.6476 11.203 85.5788 11.4547V13.5228C85.6583 13.5956 85.7455 13.6536 85.8403 13.6967C85.9352 13.7398 86.0591 13.7613 86.2135 13.7613C86.5332 13.7613 86.7733 13.6305 86.9339 13.3687C87.0929 13.1068 87.174 12.6743 87.174 12.0713C87.174 11.6338 87.1113 11.2957 86.9844 11.0571C86.8589 10.8184 86.6555 10.6992 86.3756 10.6992ZM91.5297 14.7158V12.0115C91.5297 11.5542 91.4915 11.2295 91.4181 11.0372C91.3432 10.845 91.1887 10.7488 90.9547 10.7488C90.7604 10.7488 90.6029 10.8101 90.4836 10.9328C90.3628 11.0554 90.2726 11.2128 90.2084 11.405V14.7158H89.0949V9.74471H89.9606L90.0891 10.401H90.1227C90.2542 10.1889 90.4224 10.0032 90.6243 9.84412C90.8277 9.68507 91.0893 9.60554 91.4089 9.60554C91.6842 9.60554 91.9075 9.67008 92.0818 9.79931C92.2562 9.9287 92.3923 10.1457 92.4902 10.4505C92.6217 10.1922 92.79 9.98667 92.9949 9.83418C93.2014 9.6817 93.4507 9.60554 93.7413 9.60554C93.9814 9.60554 94.1864 9.63857 94.3546 9.70495C94.5228 9.77133 94.6604 9.88542 94.766 10.048C94.8715 10.2103 94.951 10.4274 95.0015 10.6992C95.0535 10.9708 95.0795 11.3156 95.0795 11.7331V14.7158H93.9646V11.9221C93.9646 11.5309 93.9294 11.2377 93.8575 11.0421C93.7856 10.8467 93.6266 10.7488 93.3819 10.7488C93.1815 10.7488 93.0224 10.8118 92.9062 10.9378C92.7884 11.0637 92.7013 11.236 92.6447 11.4547V14.7158H91.5297ZM99.4261 14.2883C99.2548 14.4473 99.0223 14.5815 98.7271 14.6908C98.4335 14.8002 98.12 14.8549 97.7881 14.8549C97.0968 14.8549 96.5906 14.6214 96.2709 14.154C95.9513 13.6868 95.7907 13.0455 95.7907 12.2303C95.7907 11.3553 95.9712 10.6992 96.3306 10.2617C96.6915 9.82424 97.1978 9.60554 97.8493 9.60554C98.0665 9.60554 98.2775 9.63857 98.484 9.70495C98.6889 9.77133 98.8724 9.88053 99.0315 10.033C99.1921 10.1855 99.3205 10.3909 99.4184 10.6495C99.5148 10.908 99.5637 11.2295 99.5637 11.6138C99.5637 11.753 99.5561 11.9021 99.5424 12.0612C99.5286 12.2204 99.5071 12.386 99.4781 12.5584H96.9148C96.9316 12.9759 97.0234 13.2907 97.1916 13.5028C97.3599 13.7149 97.6321 13.8211 98.0068 13.8211C98.2424 13.8211 98.4503 13.7796 98.6354 13.6967C98.8204 13.6138 98.9627 13.5294 99.059 13.4431L99.4261 14.2883ZM97.8355 10.6396C97.5465 10.6396 97.3293 10.7405 97.1916 10.9427C97.0524 11.1449 96.9684 11.415 96.9393 11.753H98.5268C98.5498 11.3951 98.5023 11.12 98.3861 10.9279C98.2683 10.7356 98.0864 10.6396 97.8355 10.6396ZM102.976 14.7158V11.8922C102.976 11.4879 102.927 11.1963 102.826 11.0173C102.727 10.8384 102.555 10.7488 102.317 10.7488C102.104 10.7488 101.925 10.82 101.78 10.9626C101.635 11.1051 101.531 11.2824 101.468 11.4945V14.7158H100.353V9.74471H101.235L101.364 10.401H101.399C101.531 10.1889 101.705 10.0032 101.922 9.84412C102.139 9.68507 102.419 9.60554 102.762 9.60554C102.973 9.60554 103.162 9.63857 103.328 9.70495C103.493 9.77133 103.634 9.88053 103.748 10.033C103.863 10.1855 103.949 10.3926 104.005 10.6544C104.062 10.9162 104.091 11.2394 104.091 11.6237V14.7158H102.976ZM104.58 9.74471H105.171V8.81024L106.286 8.44242V9.74471H107.332V10.8384H106.286V12.7473C106.286 13.092 106.316 13.3388 106.376 13.4879C106.435 13.6371 106.549 13.7116 106.715 13.7116C106.828 13.7116 106.928 13.6984 107.01 13.6719C107.093 13.6453 107.186 13.6056 107.289 13.5525L107.486 14.5468C107.332 14.6329 107.153 14.7058 106.946 14.7655C106.74 14.8251 106.532 14.8549 106.321 14.8549C105.926 14.8549 105.635 14.7373 105.45 14.5019C105.264 14.2667 105.171 13.8805 105.171 13.3437V10.8384H104.58V9.74471ZM109.982 12.2303C109.982 11.3885 110.16 10.7405 110.513 10.2866C110.868 9.83265 111.365 9.60554 112.006 9.60554C112.348 9.60554 112.645 9.66839 112.897 9.79442C113.148 9.92044 113.358 10.0975 113.523 10.3263C113.688 10.555 113.813 10.8317 113.896 11.1565C113.978 11.4812 114.02 11.8392 114.02 12.2303C114.02 13.0719 113.844 13.7198 113.494 14.1739C113.142 14.628 112.645 14.8549 112.006 14.8549C111.661 14.8549 111.365 14.7919 111.114 14.6661C110.861 14.5402 110.652 14.3628 110.484 14.1341C110.314 13.9055 110.189 13.6288 110.106 13.304C110.023 12.9793 109.982 12.6212 109.982 12.2303ZM111.131 12.2303C111.131 12.449 111.148 12.6512 111.183 12.8367C111.216 13.0222 111.268 13.1847 111.336 13.3238C111.404 13.463 111.495 13.5707 111.606 13.647C111.718 13.7232 111.851 13.7613 112.006 13.7613C112.296 13.7613 112.513 13.6386 112.657 13.3934C112.799 13.1483 112.871 12.7604 112.871 12.2303C112.871 11.7729 112.805 11.4034 112.674 11.1216C112.542 10.8401 112.319 10.6992 112.006 10.6992C111.73 10.6992 111.516 10.8184 111.362 11.0571C111.207 11.2957 111.131 11.6868 111.131 12.2303ZM114.295 9.74471H114.887V9.46636C114.887 8.8367 115 8.38094 115.23 8.09922C115.457 7.81766 115.789 7.6768 116.224 7.6768C116.681 7.6768 117.062 7.73966 117.365 7.86568L117.15 8.89971C117.019 8.84664 116.903 8.81193 116.803 8.79526C116.702 8.77859 116.598 8.77033 116.49 8.77033C116.375 8.77033 116.285 8.79021 116.219 8.83013C116.153 8.86974 116.106 8.93106 116.074 9.01396C116.042 9.09685 116.022 9.19963 116.014 9.32214C116.005 9.44479 116 9.58566 116 9.74471H116.944V10.8384H116V14.7158H114.887V10.8384H114.295V9.74471ZM119.165 9.74471H119.757V8.81024L120.871 8.44242V9.74471H121.918V10.8384H120.871V12.7473C120.871 13.092 120.901 13.3388 120.962 13.4879C121.021 13.6371 121.135 13.7116 121.3 13.7116C121.414 13.7116 121.512 13.6984 121.595 13.6719C121.679 13.6453 121.771 13.6056 121.875 13.5525L122.072 14.5468C121.918 14.6329 121.737 14.7058 121.531 14.7655C121.326 14.8251 121.116 14.8549 120.905 14.8549C120.511 14.8549 120.222 14.7373 120.035 14.5019C119.85 14.2667 119.757 13.8805 119.757 13.3437V10.8384H119.165V9.74471ZM125.227 14.7158V11.8922C125.227 11.4879 125.178 11.1963 125.08 11.0173C124.984 10.8384 124.807 10.7488 124.55 10.7488C124.362 10.7488 124.187 10.8234 124.031 10.9725C123.874 11.1216 123.77 11.3122 123.718 11.5442V14.7158H122.603V7.75632H123.718V10.3014H123.751C123.889 10.0893 124.057 9.92044 124.258 9.79442C124.458 9.66839 124.712 9.60554 125.021 9.60554C125.238 9.60554 125.429 9.63857 125.596 9.70495C125.761 9.77133 125.9 9.88053 126.012 10.033C126.123 10.1855 126.206 10.3926 126.26 10.6544C126.315 10.9162 126.342 11.2394 126.342 11.6237V14.7158H125.227ZM130.706 14.2883C130.534 14.4473 130.302 14.5815 130.007 14.6908C129.713 14.8002 129.4 14.8549 129.068 14.8549C128.376 14.8549 127.87 14.6214 127.55 14.154C127.231 13.6868 127.07 13.0455 127.07 12.2303C127.07 11.3553 127.251 10.6992 127.61 10.2617C127.971 9.82424 128.477 9.60554 129.129 9.60554C129.346 9.60554 129.557 9.63857 129.763 9.70495C129.968 9.77133 130.152 9.88053 130.311 10.033C130.472 10.1855 130.6 10.3909 130.698 10.6495C130.794 10.908 130.843 11.2295 130.843 11.6138C130.843 11.753 130.836 11.9021 130.822 12.0612C130.808 12.2204 130.787 12.386 130.758 12.5584H128.194C128.211 12.9759 128.304 13.2907 128.471 13.5028C128.639 13.7149 128.912 13.8211 129.286 13.8211C129.522 13.8211 129.73 13.7796 129.916 13.6967C130.1 13.6138 130.242 13.5294 130.339 13.4431L130.706 14.2883ZM129.115 10.6396C128.826 10.6396 128.609 10.7405 128.471 10.9427C128.332 11.1449 128.248 11.415 128.219 11.753H129.806C129.829 11.3951 129.782 11.12 129.666 10.9279C129.548 10.7356 129.366 10.6396 129.115 10.6396ZM137.429 14.7158C137.429 15.4383 137.259 15.97 136.923 16.3114C136.585 16.6528 136.114 16.8234 135.508 16.8234C135.097 16.8234 134.772 16.7904 134.535 16.724C134.297 16.6578 134.119 16.5882 133.998 16.5153L134.231 15.4913C134.361 15.551 134.514 15.6105 134.688 15.6701C134.863 15.7299 135.08 15.7596 135.337 15.7596C135.725 15.7596 135.99 15.6619 136.129 15.4664C136.27 15.2709 136.34 14.9975 136.34 14.6462V14.3281H136.305C136.104 14.6394 135.751 14.7953 135.242 14.7953C134.688 14.7953 134.274 14.5965 134.003 14.1988C133.731 13.801 133.596 13.1781 133.596 12.3296C133.596 11.4414 133.778 10.7688 134.144 10.3114C134.511 9.85407 135.042 9.62542 135.739 9.62542C136.104 9.62542 136.432 9.65524 136.721 9.71489C137.01 9.77454 137.245 9.84413 137.429 9.92366V14.7158ZM135.542 13.7613C135.759 13.7613 135.927 13.705 136.043 13.5923C136.161 13.4795 136.251 13.3107 136.314 13.0853V10.8483C136.137 10.7622 135.916 10.7191 135.653 10.7191C135.367 10.7191 135.145 10.8433 134.985 11.0918C134.824 11.3403 134.745 11.7365 134.745 12.2799C134.745 12.7638 134.814 13.1316 134.95 13.3835C135.087 13.6354 135.285 13.7613 135.542 13.7613ZM139.546 13.0455C139.546 13.2775 139.572 13.4465 139.624 13.5525C139.674 13.6585 139.758 13.7116 139.871 13.7116C139.94 13.7116 140.007 13.705 140.073 13.6917C140.139 13.6785 140.22 13.6485 140.318 13.6022L140.437 14.6163C140.347 14.6693 140.206 14.7223 140.018 14.7754C139.829 14.8285 139.634 14.8549 139.434 14.8549C139.108 14.8549 138.86 14.7671 138.689 14.5914C138.518 14.4158 138.432 14.1259 138.432 13.7215V7.75632H139.546V13.0455ZM140.713 12.2303C140.713 11.3885 140.89 10.7405 141.243 10.2866C141.598 9.83265 142.095 9.60554 142.736 9.60554C143.079 9.60554 143.377 9.66839 143.628 9.79442C143.878 9.92044 144.088 10.0975 144.253 10.3263C144.42 10.555 144.544 10.8317 144.626 11.1565C144.709 11.4812 144.75 11.8392 144.75 12.2303C144.75 13.0719 144.574 13.7198 144.224 14.1739C143.872 14.628 143.377 14.8549 142.736 14.8549C142.393 14.8549 142.095 14.7919 141.844 14.6661C141.592 14.5402 141.382 14.3628 141.214 14.1341C141.046 13.9055 140.919 13.6288 140.836 13.304C140.754 12.9793 140.713 12.6212 140.713 12.2303ZM141.861 12.2303C141.861 12.449 141.878 12.6512 141.913 12.8367C141.947 13.0222 141.999 13.1847 142.068 13.3238C142.135 13.463 142.225 13.5707 142.337 13.647C142.448 13.7232 142.582 13.7613 142.736 13.7613C143.028 13.7613 143.245 13.6386 143.388 13.3934C143.53 13.1483 143.602 12.7604 143.602 12.2303C143.602 11.7729 143.536 11.4034 143.404 11.1216C143.273 10.8401 143.05 10.6992 142.736 10.6992C142.461 10.6992 142.247 10.8184 142.092 11.0571C141.939 11.2957 141.861 11.6868 141.861 12.2303ZM145.523 7.75632H146.638V10.1424H146.671C146.792 9.9833 146.946 9.85743 147.135 9.7646C147.323 9.67176 147.532 9.62542 147.76 9.62542C148.275 9.62542 148.669 9.82929 148.939 10.2369C149.212 10.6445 149.346 11.2657 149.346 12.1011C149.346 12.9958 149.156 13.6751 148.777 14.1392C148.396 14.603 147.875 14.8351 147.211 14.8351C146.846 14.8351 146.512 14.8002 146.209 14.7306C145.905 14.661 145.677 14.5832 145.523 14.4971V7.75632ZM147.434 10.7191C147.229 10.7191 147.061 10.7804 146.933 10.9029C146.804 11.0256 146.706 11.203 146.638 11.4349V13.6022C146.729 13.6553 146.827 13.6917 146.933 13.7116C147.038 13.7314 147.151 13.7414 147.272 13.7414C147.575 13.7414 147.804 13.6138 147.962 13.3587C148.12 13.1035 148.198 12.6975 148.198 12.1408C148.198 11.1929 147.944 10.7191 147.434 10.7191ZM150.092 10.033C150.322 9.91371 150.593 9.81935 150.908 9.74976C151.221 9.68017 151.55 9.6453 151.894 9.6453C152.191 9.6453 152.439 9.68675 152.639 9.76964C152.839 9.85239 152.998 9.97015 153.115 10.1225C153.232 10.275 153.315 10.4573 153.364 10.6692C153.413 10.8814 153.437 11.12 153.437 11.3852C153.437 11.6768 153.428 11.97 153.411 12.265C153.394 12.5599 153.384 12.8499 153.381 13.135C153.378 13.42 153.385 13.6967 153.402 13.9651C153.419 14.2335 153.462 14.4871 153.531 14.7257H152.622L152.442 14.0398H152.399C152.286 14.2452 152.127 14.4224 151.923 14.5715C151.72 14.7207 151.458 14.7953 151.139 14.7953C150.938 14.7953 150.759 14.7606 150.599 14.6908C150.438 14.6214 150.302 14.5218 150.187 14.3928C150.073 14.2634 149.984 14.1109 149.921 13.9353C149.858 13.7597 149.826 13.5624 149.826 13.3437C149.826 13.0389 149.886 12.782 150.002 12.5732C150.12 12.3644 150.288 12.1954 150.508 12.0662C150.729 11.937 150.992 11.8473 151.298 11.7978C151.604 11.7481 151.945 11.7331 152.322 11.753C152.362 11.3818 152.339 11.1151 152.254 10.9526C152.168 10.7902 151.977 10.7092 151.678 10.7092C151.457 10.7092 151.22 10.7356 150.972 10.7887C150.723 10.8416 150.519 10.9113 150.359 10.9975L150.092 10.033ZM151.507 13.7314C151.73 13.7314 151.908 13.6735 152.039 13.5575C152.171 13.4415 152.267 13.3173 152.33 13.1847V12.5385C152.154 12.5186 151.983 12.5152 151.821 12.5285C151.657 12.5417 151.513 12.5715 151.388 12.618C151.262 12.6644 151.162 12.7307 151.087 12.8168C151.013 12.9029 150.976 13.0123 150.976 13.1449C150.976 13.3304 151.022 13.4746 151.117 13.5774C151.212 13.6802 151.342 13.7314 151.507 13.7314ZM155.52 13.0455C155.52 13.2775 155.546 13.4465 155.597 13.5525C155.649 13.6585 155.731 13.7116 155.846 13.7116C155.915 13.7116 155.982 13.705 156.048 13.6917C156.114 13.6785 156.195 13.6485 156.293 13.6022L156.412 14.6163C156.32 14.6693 156.181 14.7223 155.991 14.7754C155.803 14.8285 155.609 14.8549 155.409 14.8549C155.083 14.8549 154.835 14.7671 154.662 14.5914C154.491 14.4158 154.405 14.1259 154.405 13.7215V7.75632H155.52V13.0455Z" fill="#FEFEFE"/>
    <path fill-rule="evenodd" clip-rule="evenodd" d="M29.0579 22.8861C29.0579 23.0808 29.0839 23.2229 29.1359 23.3117C29.1864 23.4007 29.2705 23.4454 29.3852 23.4454C29.454 23.4454 29.5213 23.4397 29.587 23.4287C29.6528 23.4176 29.7339 23.3925 29.8317 23.3536L29.951 24.205C29.8593 24.2496 29.7201 24.2941 29.5305 24.3387C29.3423 24.3832 29.1466 24.4054 28.9462 24.4054C28.6205 24.4054 28.3712 24.3317 28.1983 24.1842C28.0271 24.0367 27.9414 23.7932 27.9414 23.4536V18.4447H29.0579V22.8861ZM30.5277 20.1145H31.6441V24.2886H30.5277V20.1145ZM30.364 18.9373C30.364 18.7759 30.4251 18.6381 30.549 18.524C30.6714 18.41 30.8427 18.3529 31.0599 18.3529C31.2771 18.3529 31.4529 18.41 31.5875 18.524C31.7221 18.6381 31.7894 18.7759 31.7894 18.9373C31.7894 19.0986 31.7221 19.2335 31.5875 19.3421C31.4529 19.4507 31.2771 19.5049 31.0599 19.5049C30.8427 19.5049 30.6714 19.4507 30.549 19.3421C30.4251 19.2335 30.364 19.0986 30.364 18.9373ZM36.3776 25.9582H35.2612V23.9296H35.226C35.1296 24.0743 34.9966 24.1897 34.8314 24.276C34.6647 24.3623 34.4506 24.4054 34.1875 24.4054C33.6538 24.4054 33.2469 24.2301 32.9624 23.8794C32.6795 23.5289 32.5373 22.9974 32.5373 22.2849C32.5373 21.5391 32.7315 20.9743 33.1169 20.5903C33.5039 20.2062 34.0575 20.0143 34.7794 20.0143C34.9339 20.0143 35.0883 20.0212 35.2443 20.0351C35.3988 20.049 35.5456 20.0684 35.6863 20.0935C35.827 20.1186 35.9571 20.1464 36.0763 20.177C36.1972 20.2076 36.2966 20.2368 36.3776 20.2647V25.9582ZM34.4873 23.4871C34.7045 23.4871 34.8727 23.4397 34.9905 23.3452C35.1082 23.2505 35.1985 23.1086 35.2612 22.9194V21.0412C35.1755 20.9965 35.0776 20.9673 34.9691 20.9534C34.8605 20.9394 34.7366 20.9326 34.5989 20.9326C34.2961 20.9326 34.0682 21.0439 33.9168 21.2664C33.7639 21.4891 33.6889 21.8147 33.6889 22.2431C33.6889 22.6495 33.7578 22.9583 33.8954 23.1699C34.0315 23.3813 34.2303 23.4871 34.4873 23.4871ZM38.4225 20.1145V22.4852C38.4225 22.8248 38.4637 23.0696 38.5463 23.22C38.6289 23.3703 38.7911 23.4454 39.0327 23.4454C39.2438 23.4454 39.4196 23.3842 39.5603 23.2617C39.701 23.1392 39.8051 22.989 39.8739 22.8108V20.1145H40.9904V23.0196C40.9904 23.2478 41.0026 23.4718 41.0255 23.6916C41.0485 23.9116 41.0821 24.1105 41.128 24.2886H40.2868L40.0895 23.6708H40.0544C39.9228 23.8822 39.7393 24.0576 39.5038 24.1966C39.2698 24.3358 38.9914 24.4054 38.6717 24.4054C38.453 24.4054 38.2588 24.3776 38.0875 24.322C37.9147 24.2664 37.7725 24.1745 37.6578 24.0464C37.543 23.9184 37.4559 23.7459 37.3962 23.5289C37.3351 23.3117 37.306 23.039 37.306 22.7107V20.1145H38.4225ZM42.064 20.1145H43.182V24.2886H42.064V20.1145ZM41.9019 18.9373C41.9019 18.7759 41.963 18.6381 42.0854 18.524C42.2093 18.41 42.3791 18.3529 42.5978 18.3529C42.8149 18.3529 42.9908 18.41 43.1254 18.524C43.26 18.6381 43.3273 18.7759 43.3273 18.9373C43.3273 19.0986 43.26 19.2335 43.1254 19.3421C42.9908 19.4507 42.8149 19.5049 42.5978 19.5049C42.3791 19.5049 42.2093 19.4507 42.0854 19.3421C41.963 19.2335 41.9019 19.0986 41.9019 18.9373ZM47.9324 22.8192C47.9324 23.0529 47.9354 23.2868 47.94 23.5205C47.9461 23.7542 47.9721 24.0129 48.018 24.2968H47.2197L47.0636 23.7542H47.03C46.9153 23.949 46.7501 24.1062 46.536 24.226C46.3219 24.3456 46.068 24.4054 45.7759 24.4054C45.2375 24.4054 44.82 24.2329 44.5218 23.8878C44.2235 23.5428 44.0752 23.0029 44.0752 22.2682C44.0752 21.556 44.2403 21.0022 44.5738 20.607C44.9056 20.2118 45.392 20.0143 46.0328 20.0143C46.2118 20.0143 46.357 20.0239 46.4718 20.0434C46.5865 20.0629 46.7012 20.0949 46.8159 20.1394V18.4447H47.9324V22.8192ZM46.0328 23.4871C46.2515 23.4871 46.4228 23.4356 46.5482 23.3327C46.6751 23.2297 46.7639 23.0808 46.8159 22.8861V21.1162C46.7348 21.0549 46.6461 21.009 46.5482 20.9784C46.4519 20.9479 46.3249 20.9326 46.1705 20.9326C45.8554 20.9326 45.6199 21.0355 45.4623 21.2415C45.3048 21.4474 45.2253 21.8008 45.2253 22.3015C45.2253 22.6577 45.2911 22.9445 45.4195 23.1615C45.548 23.3786 45.7529 23.4871 46.0328 23.4871ZM53.7135 24.2886V21.9177C53.7135 21.5783 53.6646 21.3333 53.5682 21.1829C53.4704 21.0327 53.2929 20.9575 53.0345 20.9575C52.8464 20.9575 52.672 21.0202 52.516 21.1455C52.3584 21.2706 52.2529 21.4307 52.2025 21.6255V24.2886H51.0844V18.4447H52.2025V20.5819H52.2361C52.3738 20.4038 52.542 20.2619 52.7423 20.1561C52.9427 20.0504 53.1981 19.9976 53.5071 19.9976C53.7258 19.9976 53.9169 20.0253 54.0836 20.081C54.2488 20.1367 54.388 20.2284 54.4996 20.3564C54.6113 20.4846 54.6939 20.6583 54.749 20.8783C54.804 21.0982 54.83 21.3695 54.83 21.6922V24.2886H53.7135ZM57.3306 22.4603L57.485 23.1115H57.5371L57.6487 22.4519L58.3018 20.1145H59.4519L58.1473 23.8794C58.0372 24.1911 57.9332 24.4764 57.8322 24.7351C57.7328 24.9941 57.6227 25.218 57.5019 25.4072C57.3826 25.5965 57.2495 25.7426 57.1027 25.8456C56.9574 25.9484 56.783 26 56.5827 26C56.2844 26 56.0474 25.9527 55.87 25.858L56.0765 24.9898C56.1621 25.0231 56.2477 25.0399 56.3334 25.0399C56.4649 25.0399 56.5934 24.9857 56.7157 24.8772C56.8396 24.7686 56.9329 24.5724 56.9956 24.2886L55.2001 20.1145H56.5399L57.3306 22.4603ZM63.5247 22.8192C63.5247 23.0529 63.5277 23.2868 63.5323 23.5205C63.5385 23.7542 63.5644 24.0129 63.6103 24.2968H62.8105L62.656 23.7542H62.6223C62.5076 23.949 62.3425 24.1062 62.1283 24.226C61.9127 24.3456 61.6603 24.4054 61.3682 24.4054C60.8298 24.4054 60.4108 24.2329 60.1141 23.8878C59.8159 23.5428 59.6675 23.0029 59.6675 22.2682C59.6675 21.556 59.8327 21.0022 60.1646 20.607C60.498 20.2118 60.9843 20.0143 61.6251 20.0143C61.8026 20.0143 61.9494 20.0239 62.0641 20.0434C62.1788 20.0629 62.2935 20.0949 62.4067 20.1394V18.4447H63.5247V22.8192ZM61.6251 23.4871C61.8438 23.4871 62.0152 23.4356 62.1406 23.3327C62.2675 23.2297 62.3562 23.0808 62.4067 22.8861V21.1162C62.3272 21.0549 62.2384 21.009 62.1406 20.9784C62.0442 20.9479 61.9173 20.9326 61.7628 20.9326C61.4478 20.9326 61.2122 21.0355 61.0547 21.2415C60.8972 21.4474 60.8176 21.8008 60.8176 22.3015C60.8176 22.6577 60.8818 22.9445 61.0118 23.1615C61.1403 23.3786 61.3453 23.4871 61.6251 23.4871ZM66.8741 21.1329C66.6967 21.0717 66.5361 21.0412 66.3939 21.0412C66.1935 21.0412 66.0253 21.0925 65.8907 21.1955C65.7561 21.2986 65.6658 21.4307 65.62 21.592V24.2886H64.5035V20.1145H65.3707L65.5007 20.6654H65.5343C65.6322 20.4595 65.7637 20.3009 65.9304 20.1896C66.0956 20.0782 66.2899 20.0226 66.5132 20.0226C66.663 20.0226 66.8313 20.0531 67.0209 20.1145L66.8741 21.1329ZM67.3131 22.2015C67.3131 21.4946 67.4905 20.9506 67.8453 20.5695C68.2001 20.1882 68.6987 19.9976 69.3395 19.9976C69.6836 19.9976 69.9819 20.0504 70.2342 20.1561C70.4851 20.2619 70.6946 20.4107 70.8613 20.6028C71.0264 20.7948 71.1519 21.0271 71.2345 21.2999C71.3171 21.5726 71.3583 21.8732 71.3583 22.2015C71.3583 22.9083 71.1825 23.4523 70.8307 23.8336C70.4789 24.2148 69.9819 24.4054 69.3395 24.4054C68.9969 24.4054 68.6987 24.3526 68.4464 24.2468C68.1955 24.1411 67.9845 23.9921 67.8147 23.8002C67.6465 23.6081 67.5211 23.3758 67.4369 23.1031C67.3543 22.8304 67.3131 22.5297 67.3131 22.2015ZM68.4647 22.2015C68.4647 22.3852 68.4815 22.5548 68.5151 22.7107C68.5503 22.8665 68.6008 23.0029 68.6696 23.1198C68.7385 23.2366 68.8287 23.327 68.9403 23.3911C69.052 23.455 69.185 23.4871 69.3395 23.4871C69.6316 23.4871 69.8503 23.3842 69.9926 23.1782C70.1363 22.9722 70.2082 22.6467 70.2082 22.2015C70.2082 21.8175 70.1424 21.5072 70.0109 21.2706C69.8778 21.0341 69.6546 20.9159 69.3395 20.9159C69.0657 20.9159 68.8501 21.0161 68.6956 21.2164C68.5412 21.4168 68.4647 21.7451 68.4647 22.2015ZM75.1727 24.0298C75.0014 24.1521 74.7934 24.2454 74.5502 24.3094C74.3071 24.3734 74.0562 24.4054 73.7993 24.4054C73.4552 24.4054 73.1646 24.3526 72.9275 24.2468C72.6889 24.1411 72.4962 23.9921 72.3463 23.8002C72.198 23.6081 72.0909 23.3758 72.0252 23.1031C71.9594 22.8304 71.9258 22.5297 71.9258 22.2015C71.9258 21.4946 72.0894 20.9506 72.4152 20.5695C72.7425 20.1882 73.2181 19.9976 73.8421 19.9976C74.1572 19.9976 74.4095 20.0226 74.6022 20.0727C74.7934 20.1227 74.9677 20.1868 75.1222 20.2647L74.8561 21.1496C74.723 21.0884 74.5931 21.0412 74.4646 21.0077C74.3361 20.9743 74.1878 20.9575 74.0226 20.9575C73.7136 20.9575 73.4781 21.0564 73.3175 21.2539C73.1569 21.4515 73.0774 21.7675 73.0774 22.2015C73.0774 22.3795 73.0973 22.5436 73.137 22.694C73.1768 22.8442 73.238 22.9751 73.3175 23.0863C73.3986 23.1976 73.5026 23.2854 73.631 23.3493C73.7595 23.4134 73.9109 23.4454 74.0822 23.4454C74.2719 23.4454 74.4309 23.4217 74.564 23.3744C74.6955 23.327 74.8133 23.27 74.9157 23.2033L75.1727 24.0298ZM75.8257 20.3564C76.0551 20.2564 76.3274 20.177 76.6424 20.1186C76.9575 20.0602 77.2864 20.031 77.6305 20.031C77.9287 20.031 78.1764 20.0657 78.3783 20.1353C78.5787 20.2049 78.7362 20.3037 78.854 20.4317C78.9718 20.5597 79.0543 20.7126 79.1033 20.8908C79.1522 21.0688 79.1767 21.2692 79.1767 21.4919C79.1767 21.7367 79.1675 21.983 79.1507 22.2306C79.1339 22.4783 79.1232 22.7218 79.1201 22.9612C79.1186 23.2005 79.1247 23.4328 79.1415 23.6583C79.1599 23.8836 79.2027 24.0966 79.2715 24.2968H78.36L78.1795 23.7208H78.1367C78.022 23.8934 77.8629 24.0423 77.661 24.1676C77.4576 24.2927 77.1946 24.3554 76.8749 24.3554C76.6746 24.3554 76.4941 24.3262 76.3335 24.2678C76.1729 24.2093 76.0353 24.1257 75.9206 24.0172C75.8059 23.9088 75.7171 23.7808 75.6544 23.6332C75.5917 23.4858 75.5596 23.3201 75.5596 23.1364C75.5596 22.8804 75.6193 22.6648 75.7355 22.4894C75.8533 22.3142 76.023 22.1722 76.2433 22.0637C76.4635 21.9553 76.7266 21.88 77.034 21.8384C77.3399 21.7967 77.6824 21.7841 78.0602 21.8008C78.1 21.4891 78.0771 21.2651 77.9914 21.1288C77.9058 20.9924 77.713 20.9241 77.4148 20.9241C77.1915 20.9241 76.956 20.9465 76.7067 20.991C76.4574 21.0355 76.2525 21.0941 76.0919 21.1663L75.8257 20.3564ZM77.2435 23.4621C77.4668 23.4621 77.6442 23.4134 77.7758 23.316C77.9073 23.2186 78.0051 23.1143 78.0679 23.0029V22.4603C77.8904 22.4436 77.7207 22.4407 77.5571 22.4519C77.3934 22.463 77.2496 22.488 77.1227 22.527C76.9973 22.566 76.8979 22.6216 76.8229 22.694C76.748 22.7663 76.7113 22.8582 76.7113 22.9694C76.7113 23.1253 76.7587 23.2464 76.8535 23.3327C76.9468 23.4189 77.0783 23.4621 77.2435 23.4621ZM82.4833 21.1329C82.3058 21.0717 82.1453 21.0412 82.003 21.0412C81.8027 21.0412 81.6345 21.0925 81.4999 21.1955C81.3653 21.2986 81.2751 21.4307 81.2292 21.592V24.2886H80.1127V20.1145H80.9814L81.1099 20.6654H81.1435C81.2414 20.4595 81.3729 20.3009 81.5396 20.1896C81.7048 20.0782 81.899 20.0226 82.1239 20.0226C82.2722 20.0226 82.4404 20.0531 82.6301 20.1145L82.4833 21.1329ZM83.1287 18.4447H84.2452V20.4483H84.2788C84.3996 20.3148 84.5541 20.209 84.7438 20.1312C84.9319 20.0532 85.1414 20.0143 85.3708 20.0143C85.8862 20.0143 86.2793 20.1854 86.5515 20.5276C86.8237 20.87 86.9598 21.3917 86.9598 22.0929C86.9598 22.8442 86.7687 23.4148 86.3879 23.8043C86.007 24.1939 85.4855 24.3887 84.8202 24.3887C84.4547 24.3887 84.1197 24.3595 83.8154 24.3011C83.5126 24.2427 83.2832 24.1772 83.1287 24.1049V18.4447ZM85.0435 20.9326C84.8386 20.9326 84.6703 20.9841 84.5419 21.087C84.4119 21.19 84.314 21.3389 84.2452 21.5336V23.3536C84.3369 23.398 84.4348 23.4287 84.5419 23.4454C84.6474 23.4621 84.7606 23.4705 84.8814 23.4705C85.1842 23.4705 85.4152 23.3633 85.5727 23.149C85.7302 22.9347 85.8082 22.5938 85.8082 22.1264C85.8082 21.3305 85.5543 20.9326 85.0435 20.9326ZM87.5273 22.2015C87.5273 21.4946 87.7047 20.9506 88.0595 20.5695C88.4144 20.1882 88.9129 19.9976 89.5538 19.9976C89.8979 19.9976 90.1961 20.0504 90.4469 20.1561C90.6993 20.2619 90.9088 20.4107 91.074 20.6028C91.2407 20.7948 91.3661 21.0271 91.4487 21.2999C91.5313 21.5726 91.5726 21.8732 91.5726 22.2015C91.5726 22.9083 91.3967 23.4523 91.0449 23.8336C90.6916 24.2148 90.1961 24.4054 89.5538 24.4054C89.2112 24.4054 88.9129 24.3526 88.6606 24.2468C88.4082 24.1411 88.1987 23.9921 88.0289 23.8002C87.8607 23.6081 87.7337 23.3758 87.6511 23.1031C87.5685 22.8304 87.5273 22.5297 87.5273 22.2015ZM88.6774 22.2015C88.6774 22.3852 88.6958 22.5548 88.7294 22.7107C88.763 22.8665 88.815 23.0029 88.8838 23.1198C88.9527 23.2366 89.0429 23.327 89.1545 23.3911C89.2662 23.455 89.3993 23.4871 89.5538 23.4871C89.8459 23.4871 90.0646 23.3842 90.2068 23.1782C90.3506 22.9722 90.4224 22.6467 90.4224 22.2015C90.4224 21.8175 90.3567 21.5072 90.2236 21.2706C90.0921 21.0341 89.8688 20.9159 89.5538 20.9159C89.2785 20.9159 89.0644 21.0161 88.9099 21.2164C88.7554 21.4168 88.6774 21.7451 88.6774 22.2015ZM94.9755 24.2886V21.9177C94.9755 21.5783 94.925 21.3333 94.8241 21.1829C94.7247 21.0327 94.5534 20.9575 94.3133 20.9575C94.1022 20.9575 93.9233 21.0174 93.7764 21.137C93.6311 21.2568 93.5256 21.4056 93.4629 21.5838V24.2886H92.3464V20.1145H93.2304L93.3604 20.6654H93.3941C93.5256 20.4874 93.7 20.3315 93.9187 20.1978C94.1359 20.0643 94.4173 19.9976 94.7599 19.9976C94.9724 19.9976 95.1606 20.0253 95.3273 20.081C95.494 20.1367 95.6331 20.2284 95.7478 20.3564C95.8626 20.4846 95.9482 20.6583 96.0063 20.8783C96.0629 21.0982 96.092 21.3695 96.092 21.6922V24.2886H94.9755ZM101.572 21.1329C101.394 21.0717 101.235 21.0412 101.092 21.0412C100.891 21.0412 100.723 21.0925 100.588 21.1955C100.454 21.2986 100.364 21.4307 100.318 21.592V24.2886H99.2013V20.1145H100.07L100.198 20.6654H100.232C100.33 20.4595 100.462 20.3009 100.628 20.1896C100.793 20.0782 100.989 20.0226 101.212 20.0226C101.361 20.0226 101.529 20.0531 101.719 20.1145L101.572 21.1329ZM105.654 23.9296C105.481 24.0631 105.249 24.1758 104.953 24.2678C104.658 24.3595 104.345 24.4054 104.013 24.4054C103.32 24.4054 102.812 24.2093 102.493 23.8169C102.171 23.4246 102.011 22.8861 102.011 22.2015C102.011 21.4669 102.191 20.9159 102.552 20.5485C102.913 20.1812 103.419 19.9976 104.072 19.9976C104.29 19.9976 104.502 20.0253 104.709 20.081C104.915 20.1367 105.097 20.2284 105.258 20.3564C105.418 20.4846 105.547 20.657 105.645 20.8741C105.743 21.0912 105.79 21.3611 105.79 21.6838C105.79 21.8008 105.784 21.9259 105.769 22.0594C105.755 22.1931 105.733 22.3323 105.704 22.477H103.136C103.153 22.8275 103.247 23.0919 103.413 23.27C103.583 23.4481 103.855 23.5372 104.231 23.5372C104.467 23.5372 104.675 23.5024 104.862 23.4328C105.047 23.3633 105.187 23.2923 105.285 23.22L105.654 23.9296ZM104.06 20.8657C103.77 20.8657 103.552 20.9506 103.413 21.1204C103.276 21.2901 103.19 21.5169 103.162 21.8008H104.751C104.774 21.5003 104.727 21.2692 104.611 21.1078C104.493 20.9465 104.309 20.8657 104.06 20.8657ZM108.359 23.1364C108.359 23.0251 108.31 22.9361 108.213 22.8694C108.116 22.8026 107.995 22.7414 107.853 22.6857C107.709 22.6301 107.552 22.573 107.381 22.5144C107.208 22.456 107.05 22.3754 106.908 22.2723C106.764 22.1694 106.643 22.0386 106.547 21.88C106.449 21.7214 106.4 21.5169 106.4 21.2664C106.4 20.8547 106.527 20.5401 106.778 20.3231C107.03 20.1061 107.394 19.9976 107.87 19.9976C108.196 19.9976 108.491 20.031 108.754 20.0977C109.019 20.1645 109.223 20.2397 109.373 20.3231L109.124 21.1078C108.993 21.0578 108.826 21.0049 108.626 20.9492C108.425 20.8936 108.222 20.8657 108.015 20.8657C107.683 20.8657 107.517 20.991 107.517 21.2415C107.517 21.3417 107.566 21.4223 107.664 21.4836C107.761 21.5448 107.881 21.6018 108.024 21.6548C108.168 21.7075 108.326 21.7646 108.497 21.8259C108.668 21.8871 108.826 21.9663 108.97 22.0637C109.112 22.1611 109.233 22.2876 109.331 22.4436C109.427 22.5993 109.476 22.7998 109.476 23.0447C109.476 23.4677 109.337 23.8002 109.06 24.0423C108.782 24.2844 108.366 24.4054 107.809 24.4054C107.506 24.4054 107.221 24.3678 106.955 24.2927C106.688 24.2176 106.472 24.1298 106.305 24.0298L106.616 23.22C106.747 23.2923 106.922 23.3633 107.139 23.4328C107.358 23.5024 107.581 23.5372 107.809 23.5372C107.976 23.5372 108.109 23.5066 108.21 23.4454C108.309 23.3842 108.359 23.2811 108.359 23.1364ZM113.642 23.9296C113.471 24.0631 113.238 24.1758 112.943 24.2678C112.648 24.3595 112.334 24.4054 112.002 24.4054C111.308 24.4054 110.802 24.2093 110.481 23.8169C110.161 23.4246 110 22.8861 110 22.2015C110 21.4669 110.181 20.9159 110.542 20.5485C110.903 20.1812 111.409 19.9976 112.062 19.9976C112.279 19.9976 112.492 20.0253 112.698 20.081C112.903 20.1367 113.087 20.2284 113.247 20.3564C113.408 20.4846 113.536 20.657 113.634 20.8741C113.731 21.0912 113.78 21.3611 113.78 21.6838C113.78 21.8008 113.773 21.9259 113.758 22.0594C113.744 22.1931 113.723 22.3323 113.694 22.477H111.126C111.143 22.8275 111.236 23.0919 111.403 23.27C111.573 23.4481 111.845 23.5372 112.221 23.5372C112.455 23.5372 112.665 23.5024 112.851 23.4328C113.036 23.3633 113.177 23.2923 113.275 23.22L113.642 23.9296ZM112.048 20.8657C111.758 20.8657 111.542 20.9506 111.403 21.1204C111.264 21.2901 111.18 21.5169 111.151 21.8008H112.741C112.764 21.5003 112.717 21.2692 112.6 21.1078C112.483 20.9465 112.299 20.8657 112.048 20.8657ZM116.941 21.1329C116.763 21.0717 116.603 21.0412 116.461 21.0412C116.26 21.0412 116.092 21.0925 115.958 21.1955C115.823 21.2986 115.733 21.4307 115.687 21.592V24.2886H114.57V20.1145H115.438L115.568 20.6654H115.601C115.699 20.4595 115.831 20.3009 115.996 20.1896C116.162 20.0782 116.357 20.0226 116.58 20.0226C116.73 20.0226 116.898 20.0531 117.088 20.1145L116.941 21.1329ZM119.071 22.3015L119.218 22.9445H119.261L119.382 22.2849L120.111 20.1145H121.313L119.519 24.3303H118.84L116.976 20.1145H118.273L119.071 22.3015ZM125.059 23.9296C124.888 24.0631 124.654 24.1758 124.36 24.2678C124.065 24.3595 123.751 24.4054 123.42 24.4054C122.725 24.4054 122.219 24.2093 121.898 23.8169C121.578 23.4246 121.417 22.8861 121.417 22.2015C121.417 21.4669 121.598 20.9159 121.959 20.5485C122.32 20.1812 122.826 19.9976 123.479 19.9976C123.696 19.9976 123.909 20.0253 124.115 20.081C124.32 20.1367 124.504 20.2284 124.664 20.3564C124.825 20.4846 124.953 20.657 125.051 20.8741C125.148 21.0912 125.197 21.3611 125.197 21.6838C125.197 21.8008 125.191 21.9259 125.175 22.0594C125.161 22.1931 125.14 22.3323 125.111 22.477H122.543C122.56 22.8275 122.653 23.0919 122.82 23.27C122.99 23.4481 123.262 23.5372 123.638 23.5372C123.872 23.5372 124.082 23.5024 124.268 23.4328C124.452 23.3633 124.594 23.2923 124.692 23.22L125.059 23.9296ZM123.465 20.8657C123.175 20.8657 122.959 20.9506 122.82 21.1204C122.681 21.2901 122.597 21.5169 122.568 21.8008H124.158C124.181 21.5003 124.134 21.2692 124.018 21.1078C123.9 20.9465 123.716 20.8657 123.465 20.8657ZM127.766 23.1364C127.766 23.0251 127.717 22.9361 127.619 22.8694C127.523 22.8026 127.402 22.7414 127.258 22.6857C127.116 22.6301 126.959 22.573 126.786 22.5144C126.614 22.456 126.457 22.3754 126.315 22.2723C126.171 22.1694 126.05 22.0386 125.954 21.88C125.856 21.7214 125.807 21.5169 125.807 21.2664C125.807 20.8547 125.934 20.5401 126.185 20.3231C126.437 20.1061 126.801 19.9976 127.277 19.9976C127.602 19.9976 127.898 20.031 128.161 20.0977C128.424 20.1645 128.63 20.2397 128.78 20.3231L128.531 21.1078C128.399 21.0578 128.233 21.0049 128.032 20.9492C127.832 20.8936 127.628 20.8657 127.422 20.8657C127.09 20.8657 126.923 20.991 126.923 21.2415C126.923 21.3417 126.972 21.4223 127.07 21.4836C127.168 21.5448 127.287 21.6018 127.431 21.6548C127.573 21.7075 127.731 21.7646 127.904 21.8259C128.075 21.8871 128.233 21.9663 128.376 22.0637C128.519 22.1611 128.639 22.2876 128.737 22.4436C128.834 22.5993 128.883 22.7998 128.883 23.0447C128.883 23.4677 128.743 23.8002 128.467 24.0423C128.188 24.2844 127.772 24.4054 127.216 24.4054C126.913 24.4054 126.628 24.3678 126.361 24.2927C126.094 24.2176 125.879 24.1298 125.712 24.0298L126.023 23.22C126.154 23.2923 126.328 23.3633 126.546 23.4328C126.763 23.5024 126.988 23.5372 127.216 23.5372C127.382 23.5372 127.515 23.5066 127.616 23.4454C127.716 23.3842 127.766 23.2811 127.766 23.1364Z" fill="#FEFEFE"/>
</svg>
