<svg width="152" height="55" viewBox="0 0 73 26" fill="none" xmlns="http://www.w3.org/2000/svg">
    <path fill-rule="evenodd" clip-rule="evenodd" d="M6.97035 0.11853V2.26127H4.71107V4.40872H2.43267V6.60294H0.154297V13.9115C0.154297 13.9115 4.16672 17.5756 4.74217 18.1035V25.8816H14.5907V18.145C15.1573 17.6169 19.1463 13.9034 19.1463 13.9034V6.60379H16.8819V4.42488H14.5907V2.26514H12.2962V0.11853H6.97035Z" fill="white"/>
    <path fill-rule="evenodd" clip-rule="evenodd" d="M8.3142 24.1783H6.38281V14.5544H8.3142V24.1783Z" fill="#FFD100"/>
    <path fill-rule="evenodd" clip-rule="evenodd" d="M10.6004 24.1783H8.66992V12.5677H10.6004V24.1783Z" fill="#FFD100"/>
    <path fill-rule="evenodd" clip-rule="evenodd" d="M10.957 24.1783H12.8862V14.5544H10.957V24.1783Z" fill="#FFD100"/>
    <path fill-rule="evenodd" clip-rule="evenodd" d="M3.73637 14.9323L1.80664 13.2166V8.28247H3.73637V14.9323Z" fill="#262525"/>
    <path fill-rule="evenodd" clip-rule="evenodd" d="M6.0223 17.078L4.0918 15.1832V6.10107H6.0223V17.078Z" fill="#262525"/>
    <path fill-rule="evenodd" clip-rule="evenodd" d="M8.3142 14.2524H6.38281V3.95642H8.3142V14.2524Z" fill="#262525"/>
    <path fill-rule="evenodd" clip-rule="evenodd" d="M10.6004 12.1436H8.66992V1.80933H10.6004V12.1436Z" fill="#262525"/>
    <path fill-rule="evenodd" clip-rule="evenodd" d="M15.5332 14.9323L17.4628 13.2166V8.28247H15.5332V14.9323Z" fill="#262525"/>
    <path fill-rule="evenodd" clip-rule="evenodd" d="M13.2441 17.078L15.1763 15.1832V6.10107H13.2441V17.078Z" fill="#262525"/>
    <path fill-rule="evenodd" clip-rule="evenodd" d="M10.957 14.2524H12.8862V3.95642H10.957V14.2524Z" fill="#262525"/>
    <path fill-rule="evenodd" clip-rule="evenodd" d="M40.8721 21.9976C40.6089 21.7139 40.1258 21.5665 39.4396 21.5442H39.4359L36.7007 21.543C36.4483 21.543 36.244 21.3312 36.244 21.0662C36.244 20.8011 36.4483 20.5881 36.7007 20.5881H41.0559V19.186H36.6935C35.9136 19.186 35.374 19.3309 35.0711 19.6232C34.7959 19.8919 34.6457 20.2846 34.6241 20.7998C34.5363 22.9686 35.8018 22.9537 36.488 22.9747H36.4916L39.2256 22.976C39.4792 22.976 39.6835 23.189 39.6835 23.4553C39.6835 23.7191 39.4792 23.9335 39.2256 23.9335H34.8572V25.3355H39.234C40.0116 25.3355 40.5536 25.1906 40.8552 24.897C41.1304 24.6283 41.2783 24.2369 41.3023 23.7216C41.3035 23.6758 41.3936 22.5587 40.8721 21.9976ZM26.0206 25.3479L24.0473 23.2213C24.7239 23.1965 25.1938 23.0491 25.4558 22.7717C25.7442 22.4682 25.8896 22.0297 25.8896 21.4587V20.972C25.8896 20.401 25.7442 19.9626 25.4558 19.6591C25.1673 19.3545 24.6326 19.2046 23.8466 19.2046H19.209V25.3442H20.9588V23.225H22.0584L24.0245 25.3479H26.0206ZM20.9588 20.6017H23.5534C23.8778 20.6017 24.141 20.8754 24.141 21.2148C24.141 21.5554 23.8778 21.8304 23.5534 21.8304H20.9588M67.77 20.5794H65.328V19.1736H72.0868V20.5794H69.5414V25.3504H67.77M59.5247 22.9426V25.3504H57.7521L57.7425 20.9534C57.7425 20.3552 57.8963 19.9106 58.2004 19.6145C58.5068 19.321 59.0524 19.1736 59.8408 19.1736H64.512V20.5794H60.6243C60.1893 20.5794 59.8984 20.6648 59.7518 20.8357C59.6076 21.0067 59.5307 21.2396 59.5247 21.5368H64.512V22.9426M33.2324 24.8921C32.9404 25.1968 32.3996 25.3504 31.6052 25.3504H28.9986C28.2114 25.3504 27.6646 25.2042 27.3606 24.9082C27.0565 24.6134 26.9027 24.1688 26.9027 23.5718V20.9534C26.9027 20.3552 27.0565 19.9105 27.3606 19.6158C27.6646 19.3222 28.2114 19.1736 28.9986 19.1736H31.6052C32.3996 19.1736 32.9404 19.3284 33.2324 19.6306C33.5257 19.9378 33.6698 20.3763 33.6698 20.9534V23.5718C33.6698 24.1477 33.5257 24.5874 33.2324 24.8921ZM31.89 21.5591C31.89 21.2197 31.8215 20.9708 31.6857 20.8147C31.5499 20.6574 31.2483 20.5794 30.7808 20.5794H29.7834C29.3483 20.5794 29.0575 20.6648 28.9133 20.8357C28.7679 21.0067 28.6933 21.2482 28.6933 21.5591V22.9636C28.6933 23.277 28.7679 23.5185 28.9133 23.6882C29.0575 23.8592 29.3483 23.9446 29.7834 23.9446H30.7808C31.2483 23.9446 31.5463 23.8666 31.6761 23.7105C31.8059 23.5532 31.8756 23.3104 31.89 22.9747M51.8262 22.9525C51.8334 23.2745 51.9091 23.5222 52.0533 23.6931C52.1975 23.8628 52.4823 23.9483 52.915 23.9483H56.757V25.3442H52.1398C51.3623 25.3442 50.8191 25.1993 50.5187 24.9045C50.217 24.611 50.0668 24.1688 50.0668 23.5767V20.972C50.0668 20.3788 50.217 19.9378 50.5187 19.643C50.8191 19.3507 51.3623 19.2046 52.1398 19.2046H56.757V20.6029H52.915C52.4823 20.6029 52.1975 20.6884 52.0533 20.8543C51.9091 21.0228 51.8334 21.2556 51.8262 21.5541H56.757V22.9525M49.0525 25.3665H47.2691V21.5851C47.2691 21.242 47.2017 20.9968 47.0647 20.8407C46.9326 20.6822 46.6285 20.6042 46.1598 20.6042H45.1635C44.7309 20.6042 44.4389 20.6908 44.2935 20.8617C44.1469 21.0302 44.0736 21.273 44.0736 21.5851V25.3665H42.2829V20.9782C42.2829 20.3812 42.4355 19.9353 42.7396 19.6418C43.046 19.347 43.5917 19.1996 44.38 19.1996H46.9855C47.7798 19.1996 48.323 19.3519 48.6138 19.6579C48.9059 19.9625 49.0525 20.4022 49.0525 20.9782" fill="white"/>
</svg>
