<svg width="198" height="54" viewBox="0 0 95 26" fill="none" xmlns="http://www.w3.org/2000/svg">
    <path fill-rule="evenodd" clip-rule="evenodd" d="M49.9784 17.07H53.128L58.768 21.324V17.07H61.3586V25.4569H58.6371L52.5129 20.8378V25.4569H49.9784V17.07ZM2.49994 20.4001C-4.56175 10.3694 10.002 9.33672 7.06343 0.296265C14.2283 10.8723 0.836281 9.95428 2.49994 20.4001ZM67.1127 20.4533H72.0001V22.0567H67.1127V23.8366H73.7028V25.44H67.1127V25.4569H63.2278V17.07H73.7028V18.6734H67.1127V20.4533ZM79.2618 20.6071H83.4087V22.2105H79.2618V25.4569H75.3769V17.07H94.4639V18.6734H91.2572V25.4569H87.3722V18.6734H79.2618V20.6071Z" fill="white"/>
    <path fill-rule="evenodd" clip-rule="evenodd" d="M16.8073 17.0701H27.1059V18.6734H23.8992V25.457H20.0142V18.6734H16.8073V17.0701ZM6.4215 25.7036C-0.640184 15.6729 13.9235 14.6403 10.985 5.59983C18.1499 16.1758 4.75785 15.2578 6.4215 25.7036ZM45.2755 18.6734V25.457H41.3905V18.6734H38.1836V17.0701H48.4822V18.6734H45.2755ZM29.9524 22.4969H33.658L31.8084 19.0344L29.9524 22.4969ZM34.5145 24.1003H29.0929L28.3656 25.457H26.0119L30.5077 17.0701H34.644L39.124 25.457H35.239L34.5145 24.1003Z" fill="white"/>
</svg>
