<svg width="113" height="54" viewBox="0 0 113 54" fill="none" xmlns="http://www.w3.org/2000/svg">
    <path fill-rule="evenodd" clip-rule="evenodd" d="M76.1153 45.3449H75.8254V49.1079H76.1153C76.5356 49.1079 76.6883 48.9902 76.6883 48.5149V45.9169C76.6883 45.4409 76.5356 45.3449 76.1153 45.3449ZM106.338 47.8601H105.921V49.971H106.338C106.763 49.971 106.891 49.8625 106.891 49.4002L106.891 48.4282C106.891 47.966 106.762 47.8601 106.338 47.8601ZM73.1198 45.939V48.5274C73.1198 49.0005 73.2708 49.1079 73.6896 49.1079H73.9904V45.3449H73.6896C73.2708 45.3449 73.1198 45.4648 73.1198 45.939ZM112.113 41.303H37.6918V53.7079H112.113V41.303ZM45.7715 51.3954H43.8858V47.8601H42.9149V51.3954H41.0282V43.3185H42.9149V46.4352H43.8858V43.3185H45.7715V51.3954ZM61.4158 44.8445H58.8368V46.4325H61.1448V47.966H58.8368V49.869H61.4158V51.4014H56.8868V43.3106H61.4158V44.8445ZM78.52 48.5149C78.52 50.1546 77.681 50.5979 75.8252 50.5979L75.8254 51.3954H73.9904V50.5979C72.1289 50.5979 71.2855 50.1546 71.2855 48.5149V45.992C71.2855 44.343 72.0933 43.9234 73.9904 43.9234V43.3185H75.8254V43.9234C77.712 43.9234 78.52 44.343 78.52 45.992V48.5149ZM93.0327 44.8445H91.6005V51.4014H89.8098V44.8445H88.2769V43.3106H93.0327V44.8445ZM108.777 49.3141C108.777 51.083 107.969 51.3954 105.921 51.3954H104.034V43.3185H105.921V46.4352H106.234C108.088 46.4352 108.777 46.8663 108.777 48.4827V49.3141ZM19.1167 35.1016V40.9523C19.1242 40.9438 19.1307 40.9357 19.1406 40.9255C21.1846 38.8908 24.502 38.8908 26.5472 40.9255C28.5925 42.963 28.5925 46.2711 26.5472 48.3039C26.538 48.3147 26.5299 48.3225 26.5196 48.3296C26.5196 48.3318 26.5196 48.3318 26.5189 48.3318C26.5111 48.3414 26.4994 48.3503 26.4897 48.3611C24.4506 50.3754 21.7837 51.3888 19.1167 51.3888C16.4386 51.3888 13.7611 50.3656 11.716 48.3361C8.11693 44.7491 7.68936 39.1999 10.434 35.149C10.8046 34.6001 11.2296 34.0811 11.716 33.5973C13.7611 31.562 16.4386 30.549 19.1167 30.549V16.5961C8.82612 16.5961 0.482422 24.9061 0.482422 35.149C0.482422 45.3977 8.82612 53.7079 19.1167 53.7079C24.4842 53.7079 29.3167 51.4451 32.7156 47.834L32.7158 35.1016H19.1167ZM30.3944 9.9958C29.267 5.05013 26.4357 1.03083 26.0461 0.373291C25.4293 1.29692 23.1694 4.84495 22.0242 8.78599C20.7705 13.1782 20.586 17.0744 21.0188 20.9126C21.4475 24.748 23.0702 28.6867 23.0702 28.6867C23.9317 30.7556 25.2236 32.97 26.0628 34.0583C27.2946 32.4579 30.1291 27.6837 31.0103 21.445C31.5016 17.9791 31.5224 14.9406 30.3944 9.9958ZM26.0461 32.8285C25.4913 31.7834 24.6286 29.793 24.5466 26.7202C24.5258 23.7464 25.715 21.1973 26.0628 20.6661C26.3736 21.1971 27.3986 23.4173 27.5212 26.4524C27.603 29.4229 26.6199 31.761 26.0461 32.8285ZM30.0679 18.3887C30.0252 20.2743 29.7994 22.2668 29.5131 23.4553C29.6158 21.4048 29.3698 18.5119 28.896 16.2531C28.4249 13.9928 27.0905 10.2252 26.0242 8.47672C25.0412 10.1393 23.8271 13.403 23.193 16.2327C22.5548 19.0667 22.5358 22.4934 22.5358 23.5205C22.3668 22.6503 21.9428 19.5647 22.0642 16.4598C22.1627 13.8969 22.7625 11.2673 23.0909 10.0557C24.3419 6.01211 25.7585 3.42983 26.0242 3.02052C26.2914 3.42983 28.0761 6.61016 29.0006 9.9538C29.9224 13.3013 30.1073 16.5007 30.0679 18.3887ZM107.466 16.4971H112.113V35.1059H108.536V23.4356H108.411L106.57 35.1059H103.714L101.875 23.4356H101.747V35.1059H98.1715V16.4971H102.817L105.138 29.5758L107.466 16.4971ZM80.9834 26.729V18.808H81.9216C82.3076 18.808 82.5879 19.1521 82.5879 19.7331V25.8029C82.5879 26.3863 82.3076 26.729 81.9216 26.729H80.9834ZM77.409 35.1059H80.9834V28.7788H83.0257C85.5277 28.7788 85.9245 26.7574 85.9245 25.4534V19.8218C85.9245 18.5183 85.5277 16.4971 83.0254 16.4971H77.409V35.1059ZM66.5476 16.4971H74.8201V35.1059H71.4866V18.8076H69.8811V35.1059H66.5476V16.4971ZM59.4986 28.5898V32.0918C59.4986 32.5725 59.8539 32.7071 60.0599 32.7071C60.3925 32.7071 60.622 32.4127 60.622 32.0918V27.7652C60.622 27.1807 60.5196 26.5445 59.19 26.5445H57.7371V24.4978H59.2385C60.2605 24.4978 60.622 24.2554 60.622 23.1169V19.4156C60.622 19.0972 60.3925 18.8076 60.0599 18.8076C59.8539 18.8076 59.4984 18.9389 59.4984 19.4156L59.4986 22.4522H55.9229V19.8215C55.9229 18.5181 56.0773 16.4971 58.5777 16.4971H61.5422C64.0456 16.4971 64.197 18.5181 64.197 19.8217L64.1971 22.7994C64.1971 24.8186 62.8434 25.3757 61.7701 25.3219V25.509C64.1697 25.453 64.197 27.3679 64.197 28.035L64.1971 31.7798C64.1971 33.0835 64.0456 35.1059 61.5422 35.1059H58.5777C56.0773 35.1059 55.9229 33.0835 55.9229 31.7798V28.5898H59.4986ZM48.9932 28.1138L49.6086 18.805H49.8108L50.4241 28.1138H48.9932ZM45.0372 35.1059H48.5341L48.8672 30.1592H50.5534L50.8843 35.1059H54.3818L52.518 16.4971H46.9015L45.0372 35.1059ZM37.6918 16.4971H44.5089V18.8076H41.2646V35.1059H37.6918V16.4971ZM93.4038 16.4971H90.4426C87.9388 16.4971 87.7911 18.5181 87.7911 19.8217V31.7798C87.7911 33.0835 87.9388 35.1059 90.4426 35.1059H93.4038C95.9065 35.1059 96.0586 33.0835 96.0586 31.7798L96.0587 19.8215C96.0587 18.5181 95.9065 16.4971 93.4038 16.4971ZM91.9261 32.8055C91.4883 32.8055 91.1338 32.4738 91.1338 32.0667C91.1339 32.0576 91.1348 32.048 91.1348 32.0391V19.5652V19.5091L91.1377 19.4593C91.1804 19.0879 91.516 18.7986 91.9249 18.7986C92.3326 18.7986 92.669 19.0879 92.7104 19.4593L92.7143 19.5091C92.7148 19.5184 92.7148 19.5554 92.7142 19.5652L92.7143 32.0391C92.7148 32.048 92.7159 32.0576 92.7159 32.0667C92.7159 32.4738 92.3604 32.8055 91.9261 32.8055Z" fill="white"/>
</svg>
