<svg width="315" height="43" viewBox="0 0 315 43" fill="none" xmlns="http://www.w3.org/2000/svg">
    <path d="M50.1943 0.56488V41.4235H49.2821V0.56488H50.1943ZM314.665 28.9636H310.376V41.3039H308.743V28.9636H304.454V27.5048H314.665V28.9636ZM283.046 27.5048H290.542V28.9636H284.679V33.4778H290.05V34.9367H284.679V39.8451H290.641V41.3039H283.046V27.5048ZM268.839 28.9636H264.55V41.3039H262.917V28.9636H258.628V27.5048H268.839V28.9636ZM242.788 31.96L242.906 30.383H242.827L241.981 31.9993L235.331 41.3039H234.367V27.5048H236V36.9671L235.862 38.5243H235.941L236.807 36.908L243.457 27.5048H244.421V41.3039H242.788V31.96ZM219.766 40.7323C219.373 41.0344 218.874 41.2448 218.271 41.363C217.668 41.4813 217.025 41.5404 216.343 41.5404C215.517 41.5404 214.743 41.3992 214.021 41.1165C213.3 40.8341 212.67 40.4038 212.133 39.8254C211.595 39.2472 211.168 38.508 210.854 37.6076C210.539 36.7075 210.382 35.6397 210.382 34.4044C210.382 33.1165 210.555 32.0224 210.903 31.1223C211.25 30.2219 211.71 29.486 212.28 28.9142C212.851 28.3427 213.49 27.9254 214.199 27.6625C214.907 27.3998 215.628 27.2683 216.363 27.2683C217.149 27.2683 217.792 27.3111 218.291 27.3964C218.789 27.4819 219.215 27.5969 219.57 27.7414L219.176 29.1804C218.546 28.8783 217.648 28.7271 216.481 28.7271C215.943 28.7271 215.412 28.8255 214.887 29.0226C214.362 29.2199 213.893 29.5419 213.48 29.9886C213.067 30.4355 212.736 31.0202 212.487 31.7432C212.238 32.4659 212.113 33.3529 212.113 34.4044C212.113 35.3505 212.231 36.1785 212.467 36.8883C212.703 37.5979 213.028 38.1892 213.441 38.6623C213.854 39.1355 214.339 39.4903 214.897 39.727C215.454 39.9634 216.061 40.0818 216.717 40.0818C217.307 40.0818 217.822 40.0225 218.261 39.9044C218.7 39.786 219.071 39.6349 219.373 39.4509L219.766 40.7323ZM188.108 27.6428C188.606 27.5247 189.144 27.4457 189.721 27.4063C190.298 27.367 190.869 27.3471 191.433 27.3471C192.036 27.3471 192.649 27.4063 193.272 27.5247C193.895 27.6428 194.462 27.8598 194.974 28.175C195.485 28.4904 195.902 28.9242 196.223 29.4761C196.545 30.0282 196.705 30.7313 196.705 31.5855C196.705 32.4265 196.555 33.1361 196.253 33.7145C195.951 34.2927 195.551 34.7624 195.053 35.124C194.554 35.4854 193.984 35.7449 193.341 35.9026C192.698 36.0603 192.036 36.1391 191.354 36.1391C191.288 36.1391 191.18 36.1391 191.029 36.1391C190.878 36.1391 190.721 36.1359 190.557 36.1294C190.393 36.1226 190.233 36.1128 190.075 36.0997C189.918 36.0866 189.806 36.0735 189.741 36.0603V41.3039H188.108V27.6428ZM191.472 28.7665C191.131 28.7665 190.803 28.773 190.488 28.7862C190.173 28.7993 189.924 28.8321 189.741 28.8848V34.6015C189.806 34.6278 189.911 34.6443 190.055 34.6509C190.2 34.6574 190.35 34.664 190.508 34.6705C190.665 34.6771 190.816 34.6803 190.96 34.6803C191.105 34.6803 191.21 34.6803 191.275 34.6803C191.721 34.6803 192.164 34.6377 192.603 34.5522C193.043 34.4669 193.439 34.3124 193.794 34.089C194.147 33.8655 194.433 33.5502 194.649 33.1427C194.866 32.7354 194.974 32.2163 194.974 31.5855C194.974 31.0467 194.872 30.5964 194.669 30.235C194.466 29.8737 194.197 29.5845 193.862 29.3677C193.528 29.1509 193.151 28.9964 192.731 28.9045C192.311 28.8124 191.892 28.7665 191.472 28.7665ZM165.381 27.5048H172.877V28.9636H167.014V33.4778H172.385V34.9367H167.014V39.8451H172.976V41.3039H165.381V27.5048ZM150.013 30.6589C150.013 30.9874 149.961 31.3225 149.856 31.6642C149.751 32.0059 149.593 32.3247 149.383 32.6205C149.174 32.916 148.905 33.1755 148.577 33.3991C148.249 33.6224 147.862 33.7933 147.416 33.9116V33.9904C147.809 34.0562 148.187 34.1678 148.547 34.3255C148.908 34.4832 149.226 34.7 149.502 34.976C149.777 35.2521 150 35.5872 150.17 35.9814C150.341 36.3756 150.426 36.8421 150.426 37.3811C150.426 38.0907 150.279 38.7051 149.983 39.2242C149.688 39.7433 149.302 40.1671 148.823 40.4956C148.344 40.8242 147.797 41.0674 147.18 41.2251C146.563 41.3827 145.934 41.4616 145.291 41.4616C145.068 41.4616 144.806 41.4616 144.504 41.4616C144.203 41.4616 143.888 41.4517 143.56 41.432C143.232 41.4123 142.904 41.386 142.576 41.3532C142.248 41.3204 141.96 41.2711 141.71 41.2052V27.6231C142.196 27.5444 142.76 27.4785 143.402 27.426C144.045 27.3735 144.747 27.3471 145.508 27.3471C146.019 27.3471 146.54 27.3898 147.072 27.4753C147.603 27.5607 148.085 27.7249 148.518 27.9682C148.951 28.2112 149.308 28.5497 149.59 28.9833C149.872 29.417 150.013 29.9755 150.013 30.6589ZM145.448 40.0422C145.868 40.0422 146.275 39.9931 146.668 39.8944C147.062 39.7958 147.409 39.6383 147.711 39.4213C148.013 39.2045 148.252 38.9384 148.429 38.623C148.606 38.3075 148.695 37.933 148.695 37.4993C148.695 36.9605 148.587 36.5267 148.37 36.1982C148.154 35.8696 147.872 35.6135 147.524 35.4295C147.176 35.2455 146.786 35.1206 146.354 35.055C145.921 34.9892 145.488 34.9563 145.055 34.9563H143.344V39.9044C143.435 39.9306 143.566 39.9503 143.737 39.9634C143.907 39.9766 144.091 39.9897 144.288 40.0028C144.485 40.0159 144.688 40.0259 144.898 40.0324C145.108 40.039 145.291 40.0422 145.448 40.0422ZM144.366 33.5765C144.589 33.5765 144.858 33.5699 145.173 33.5568C145.488 33.5437 145.75 33.5238 145.96 33.4975C146.275 33.3925 146.57 33.2642 146.845 33.1131C147.121 32.9621 147.367 32.7847 147.583 32.5809C147.8 32.3772 147.97 32.1408 148.095 31.8713C148.22 31.6018 148.282 31.3094 148.282 30.994C148.282 30.5604 148.2 30.2022 148.036 29.9196C147.872 29.6372 147.652 29.4105 147.377 29.2396C147.101 29.0688 146.786 28.9473 146.432 28.8749C146.078 28.8027 145.717 28.7665 145.35 28.7665C144.917 28.7665 144.521 28.7764 144.16 28.7961C143.799 28.8158 143.527 28.8452 143.344 28.8848V33.5765H144.366ZM124.552 31.96L124.67 30.383H124.591L123.745 31.9993L117.095 41.3039H116.131V27.5048H117.764V36.9671L117.627 38.5243H117.705L118.571 36.908L125.221 27.5048H126.185V41.3039H124.552V31.96ZM98.9728 34.976H92.3623V41.3039H90.7293V27.5048H92.3623V33.5172H98.9728V27.5048H100.606V41.3039H98.9728V34.976ZM71.5443 34.7789L72.0558 36.5333H72.1542L72.5478 34.7199L75.184 27.5048H76.8562L73.374 36.4742C73.0198 37.4074 72.7084 38.186 72.4396 38.8103C72.1707 39.4344 71.8985 39.9403 71.6231 40.3282C71.3476 40.7158 71.0523 40.9919 70.7375 41.1561C70.4229 41.3204 70.0359 41.4025 69.5768 41.4025C69.1441 41.4025 68.7996 41.3663 68.5441 41.2939C68.2882 41.2218 68.0487 41.1134 67.8258 40.9688L68.3178 39.6086C68.5799 39.7532 68.8227 39.8451 69.0456 39.8847C69.2688 39.924 69.472 39.9437 69.6555 39.9437C70.0228 39.9437 70.3311 39.7564 70.5802 39.3819C70.8296 39.0074 71.046 38.4521 71.2295 37.7162L66.1339 27.5048H68.0227L71.5443 34.7789ZM311.678 11.5122L311.793 9.87917H311.724L310.737 11.5582L306.649 16.7558H304.766V5.25654H307.751V10.7302L307.613 12.294H307.705L308.647 10.6612L312.781 5.25654H314.664V16.7558H311.678V11.5122ZM308.486 0.56488C308.593 1.16272 308.773 1.58442 309.026 1.82978C309.278 2.07514 309.604 2.19771 310.002 2.19771C310.43 2.19771 310.771 2.07514 311.024 1.82978C311.276 1.58442 311.449 1.17055 311.541 0.587745L313.814 1.16272C313.63 2.1594 313.178 2.89928 312.459 3.38216C311.739 3.86505 310.897 4.10659 309.933 4.10659C309.458 4.10659 308.999 4.05304 308.555 3.94571C308.111 3.83838 307.713 3.66584 307.361 3.4281C307.009 3.19058 306.71 2.88763 306.465 2.5197C306.22 2.15177 306.052 1.69938 305.96 1.16272L308.486 0.56488ZM291.607 14.2488C292.066 14.3409 292.502 14.3869 292.916 14.3869C293.605 14.3869 294.087 14.2605 294.363 14.0075C294.638 13.7545 294.776 13.3597 294.776 12.8231C294.776 12.3323 294.638 11.9606 294.363 11.7076C294.087 11.4546 293.628 11.328 292.985 11.328C292.479 11.328 292.02 11.3818 291.607 11.4892V14.2488ZM291.607 9.35036C291.974 9.28897 292.345 9.24683 292.72 9.22376C293.096 9.20068 293.436 9.18925 293.742 9.18925C294.523 9.18925 295.174 9.27754 295.695 9.45367C296.215 9.63001 296.636 9.87917 296.958 10.2012C297.279 10.5232 297.509 10.9027 297.646 11.3397C297.784 11.7766 297.853 12.2481 297.853 12.7541C297.853 13.444 297.761 14.0496 297.578 14.5708C297.394 15.0922 297.095 15.5254 296.682 15.8702C296.269 16.2153 295.733 16.4759 295.074 16.6523C294.416 16.8286 293.605 16.9167 292.64 16.9167C291.768 16.9167 291.013 16.9014 290.378 16.8707C289.743 16.84 289.157 16.8017 288.621 16.7558V5.25654H291.607V9.35036ZM299.162 5.25654H302.148V16.7558H299.162V5.25654ZM283.018 12.225H279.274V16.7558H276.289V5.25654H279.274V9.58027H283.018V5.25654H286.003V16.7558H283.018V12.225ZM268.022 14.2488C268.481 14.3409 268.917 14.3869 269.331 14.3869C270.065 14.3869 270.597 14.2605 270.927 14.0075C271.256 13.7545 271.42 13.3597 271.42 12.8231C271.42 11.8264 270.747 11.328 269.399 11.328C268.894 11.328 268.435 11.3818 268.022 11.4892V14.2488ZM268.022 9.35036C268.389 9.28897 268.76 9.24683 269.135 9.22376C269.51 9.20068 269.851 9.18925 270.157 9.18925C270.953 9.18925 271.627 9.27754 272.178 9.45367C272.729 9.63001 273.177 9.87917 273.522 10.2012C273.866 10.5232 274.115 10.9027 274.268 11.3397C274.421 11.7766 274.498 12.2481 274.498 12.7541C274.498 14.1494 274.084 15.192 273.257 15.8819C272.431 16.5718 271.03 16.9167 269.055 16.9167C268.182 16.9167 267.428 16.9014 266.793 16.8707C266.158 16.84 265.572 16.8017 265.036 16.7558V5.25654H268.022V9.35036ZM259.456 7.90128H257.182C257.09 8.99005 256.983 10.071 256.861 11.1441C256.738 12.2174 256.543 13.1796 256.275 14.0304C256.007 14.8814 255.643 15.5713 255.184 16.1004C254.725 16.6292 254.128 16.8938 253.393 16.8938C252.505 16.8938 251.877 16.7789 251.509 16.5487L251.877 14.0649C252.122 14.157 252.352 14.2029 252.566 14.2029C252.872 14.2029 253.14 14.0727 253.37 13.8119C253.599 13.5513 253.795 13.0837 253.955 12.409C254.116 11.7345 254.246 10.8183 254.346 9.66072C254.445 8.50315 254.518 7.03502 254.564 5.25654H262.441V16.7558H259.456V7.90128ZM241.75 5.9236C242.362 5.64754 243.089 5.42908 243.931 5.26797C244.773 5.10708 245.654 5.02663 246.572 5.02663C247.368 5.02663 248.034 5.12232 248.57 5.31412C249.106 5.5057 249.531 5.77775 249.845 6.13044C250.159 6.48313 250.381 6.90483 250.511 7.39534C250.641 7.88605 250.706 8.43794 250.706 9.05124C250.706 9.72592 250.683 10.4044 250.637 11.0867C250.591 11.769 250.564 12.4397 250.557 13.0991C250.549 13.7583 250.568 14.3985 250.614 15.0194C250.66 15.6403 250.775 16.2268 250.958 16.7789H248.524L248.042 15.192H247.927C247.621 15.6672 247.196 16.0773 246.653 16.4223C246.109 16.7672 245.409 16.9397 244.551 16.9397C244.015 16.9397 243.533 16.8593 243.104 16.6982C242.676 16.5373 242.308 16.3074 242.002 16.0083C241.696 15.7094 241.459 15.3567 241.29 14.9504C241.122 14.5442 241.038 14.088 241.038 13.582C241.038 12.8766 241.195 12.2826 241.508 11.7997C241.822 11.3166 242.274 10.9256 242.863 10.6267C243.453 10.3278 244.157 10.1207 244.976 10.0058C245.795 9.89083 246.71 9.85633 247.721 9.90227C247.828 9.04362 247.766 8.42651 247.537 8.05096C247.307 7.6752 246.794 7.48742 245.998 7.48742C245.401 7.48742 244.769 7.5488 244.103 7.67137C243.437 7.79394 242.89 7.95506 242.462 8.15427L241.75 5.9236ZM245.539 14.479C246.136 14.479 246.61 14.3447 246.963 14.0765C247.315 13.8081 247.575 13.5206 247.743 13.2141V11.719C247.269 11.6731 246.813 11.6655 246.377 11.6962C245.941 11.7267 245.554 11.7957 245.217 11.903C244.88 12.0104 244.613 12.1638 244.413 12.363C244.215 12.5625 244.115 12.8154 244.115 13.122C244.115 13.5513 244.241 13.8847 244.494 14.1225C244.747 14.3602 245.095 14.479 245.539 14.479ZM229.417 5.25654H231.599L231.943 6.63638H232.035C232.433 6.05379 232.904 5.62447 233.448 5.34862C233.991 5.07257 234.653 4.93455 235.434 4.93455C236.873 4.93455 237.953 5.39075 238.672 6.30296C239.392 7.21517 239.752 8.6833 239.752 10.7071C239.752 11.6884 239.637 12.5739 239.407 13.3635C239.177 14.1532 238.837 14.8238 238.385 15.3759C237.933 15.9278 237.382 16.3495 236.732 16.6408C236.081 16.9321 235.335 17.0778 234.493 17.0778C234.018 17.0778 233.628 17.0433 233.321 16.9743C233.015 16.9052 232.709 16.7941 232.403 16.6408V21.3556H229.417V5.25654ZM234.538 7.46434C233.957 7.46434 233.501 7.60999 233.172 7.90128C232.843 8.19258 232.586 8.62973 232.403 9.21232V13.9959C232.617 14.1646 232.851 14.2988 233.103 14.3985C233.356 14.498 233.689 14.548 234.102 14.548C234.96 14.548 235.602 14.245 236.031 13.6396C236.46 13.0339 236.674 12.0334 236.674 10.6381C236.674 9.62621 236.506 8.84439 236.169 8.29228C235.832 7.74039 235.289 7.46434 234.538 7.46434ZM226.937 15.7669C226.478 16.1349 225.854 16.4452 225.066 16.6982C224.277 16.9512 223.439 17.0778 222.551 17.0778C220.698 17.0778 219.343 16.5373 218.486 15.4564C217.629 14.3754 217.2 12.8921 217.2 11.0063C217.2 8.98221 217.682 7.46435 218.647 6.45243C219.611 5.44051 220.966 4.93455 222.712 4.93455C223.293 4.93455 223.86 5.01117 224.411 5.16444C224.962 5.31792 225.452 5.57091 225.881 5.9236C226.309 6.27608 226.654 6.75133 226.914 7.34938C227.174 7.94743 227.305 8.69093 227.305 9.58027C227.305 9.90227 227.285 10.2471 227.247 10.6153C227.209 10.9832 227.151 11.3664 227.075 11.7652H220.185C220.231 12.731 220.48 13.4594 220.932 13.9499C221.383 14.4406 222.115 14.686 223.125 14.686C223.753 14.686 224.315 14.5901 224.813 14.3985C225.31 14.2067 225.689 14.0113 225.95 13.8119L226.937 15.7669ZM222.666 7.32631C221.885 7.32631 221.307 7.56025 220.932 8.02789C220.557 8.49553 220.331 9.12025 220.254 9.90227H224.526C224.587 9.07431 224.461 8.43795 224.147 7.99338C223.833 7.54882 223.339 7.32631 222.666 7.32631ZM216.121 19.3777H213.939L213.595 16.7558H205.878L205.534 19.3777H203.352V14.111H204.707C204.83 13.9423 204.986 13.6548 205.178 13.2486C205.369 12.8421 205.561 12.2864 205.752 11.581C205.944 10.8759 206.108 10.002 206.246 8.95936C206.384 7.91675 206.452 6.68254 206.452 5.25654H214.444V14.111H216.121V19.3777ZM211.459 14.2488V7.78634H209.047C209.017 8.33823 208.963 8.92484 208.887 9.54575C208.81 10.1667 208.714 10.7685 208.6 11.3511C208.485 11.9337 208.351 12.478 208.198 12.9839C208.045 13.4899 207.876 13.9116 207.693 14.2488H211.459ZM202.48 15.7669C202.02 16.1349 201.396 16.4452 200.608 16.6982C199.82 16.9512 198.981 17.0778 198.093 17.0778C196.241 17.0778 194.886 16.5373 194.029 15.4564C193.171 14.3754 192.742 12.8921 192.742 11.0063C192.742 8.98221 193.225 7.46435 194.189 6.45243C195.154 5.44051 196.509 4.93455 198.254 4.93455C198.836 4.93455 199.402 5.01117 199.953 5.16444C200.505 5.31792 200.994 5.57091 201.423 5.9236C201.852 6.27608 202.196 6.75133 202.457 7.34938C202.717 7.94743 202.847 8.69093 202.847 9.58027C202.847 9.90227 202.828 10.2471 202.789 10.6153C202.751 10.9832 202.694 11.3664 202.617 11.7652H195.728C195.774 12.731 196.023 13.4594 196.474 13.9499C196.926 14.4406 197.657 14.686 198.667 14.686C199.295 14.686 199.858 14.5901 200.355 14.3985C200.853 14.2067 201.232 14.0113 201.492 13.8119L202.48 15.7669ZM198.208 7.32631C197.427 7.32631 196.849 7.56025 196.474 8.02789C196.099 8.49553 195.873 9.12025 195.797 9.90227H200.068C200.129 9.07431 200.003 8.43795 199.689 7.99338C199.375 7.54882 198.882 7.32631 198.208 7.32631ZM182.477 16.8938C182.217 16.9857 181.945 17.0395 181.662 17.0547C181.378 17.0701 181.122 17.0778 180.892 17.0778C179.499 17.0778 178.427 16.5794 177.677 15.5828C176.927 14.5863 176.552 13.0606 176.552 11.0063C176.552 9.04361 176.965 7.55643 177.792 6.54451C178.619 5.53259 179.813 5.02663 181.375 5.02663C181.803 5.02663 182.171 5.05711 182.477 5.1185V0.656754H185.416V5.14158C185.692 5.09564 185.937 5.06495 186.151 5.0495C186.366 5.03425 186.572 5.02663 186.772 5.02663C188.287 5.02663 189.428 5.475 190.193 6.37197C190.959 7.26893 191.341 8.73706 191.341 10.7761C191.341 11.7421 191.238 12.6122 191.031 13.3866C190.825 14.1608 190.522 14.8238 190.124 15.3759C189.726 15.9278 189.24 16.3495 188.666 16.6408C188.092 16.9321 187.43 17.0778 186.679 17.0778C186.542 17.0778 186.339 17.0663 186.071 17.0433C185.803 17.0202 185.585 16.9781 185.416 16.9167V21.3556H182.477V16.8938ZM186.105 7.39534C185.952 7.39534 185.818 7.40698 185.703 7.42984C185.589 7.45292 185.447 7.47979 185.279 7.51049V14.6399C185.401 14.6706 185.543 14.6898 185.703 14.6974C185.864 14.7051 186.036 14.7089 186.22 14.7089C186.955 14.7089 187.495 14.4061 187.839 13.8005C188.184 13.1948 188.356 12.1867 188.356 10.7761C188.356 9.58026 188.188 8.7178 187.851 8.18877C187.514 7.65995 186.932 7.39534 186.105 7.39534ZM181.673 14.7089C181.842 14.7089 181.999 14.6974 182.144 14.6744C182.289 14.6515 182.447 14.6246 182.615 14.5939V7.48742C182.324 7.42602 182.025 7.39534 181.719 7.39534C181.015 7.39534 180.475 7.66757 180.1 8.21184C179.725 8.75612 179.538 9.68759 179.538 11.0063C179.538 12.2021 179.71 13.1182 180.054 13.7545C180.399 14.3907 180.938 14.7089 181.673 14.7089ZM165.804 11.5122L165.919 9.87917H165.85L164.863 11.5582L160.775 16.7558H158.892V5.25654H161.877V10.7302L161.739 12.294H161.832L162.773 10.6612L166.907 5.25654H168.79V16.7558H165.804V11.5122ZM162.612 0.56488C162.72 1.16272 162.899 1.58442 163.152 1.82978C163.405 2.07514 163.73 2.19771 164.128 2.19771C164.557 2.19771 164.897 2.07514 165.15 1.82978C165.402 1.58442 165.575 1.17055 165.667 0.587745L167.94 1.16272C167.757 2.1594 167.305 2.89928 166.585 3.38216C165.866 3.86505 165.024 4.10659 164.059 4.10659C163.585 4.10659 163.125 4.05304 162.681 3.94571C162.237 3.83838 161.839 3.66584 161.487 3.4281C161.135 3.19058 160.836 2.88763 160.591 2.5197C160.346 2.15177 160.178 1.69938 160.086 1.16272L162.612 0.56488ZM153.288 11.5122L153.403 9.87917H153.334L152.347 11.5582L148.259 16.7558H146.376V5.25654H149.361V10.7302L149.224 12.294H149.316L150.257 10.6612L154.391 5.25654H156.274V16.7558H153.288V11.5122ZM138.936 11.9951H138.131V16.7558H135.146V5.25654H138.131V10.1552L138.843 9.83324L141.531 5.25654H144.723L141.944 9.62621L140.773 10.5001L142.058 11.3971L145.159 16.7558H141.737L138.936 11.9951ZM133.332 16.0428C132.872 16.3802 132.318 16.637 131.667 16.8134C131.016 16.9895 130.346 17.0778 129.658 17.0778C128.739 17.0778 127.962 16.9321 127.327 16.6408C126.691 16.3495 126.175 15.9393 125.776 15.4104C125.378 14.8814 125.091 14.2412 124.915 13.4899C124.739 12.7388 124.651 11.9108 124.651 11.0063C124.651 9.05885 125.087 7.56024 125.96 6.51001C126.833 5.45977 128.104 4.93455 129.772 4.93455C130.614 4.93455 131.292 5.00355 131.805 5.14158C132.318 5.2796 132.781 5.45596 133.194 5.67041L132.482 8.10833C132.13 7.93961 131.782 7.80942 131.437 7.71733C131.093 7.62545 130.699 7.57929 130.255 7.57929C129.428 7.57929 128.8 7.85154 128.371 8.39582C127.943 8.94009 127.729 9.81017 127.729 11.0063C127.729 11.4968 127.782 11.9492 127.889 12.363C127.996 12.7771 128.157 13.1374 128.371 13.444C128.586 13.7507 128.865 13.9921 129.21 14.1684C129.554 14.3447 129.956 14.433 130.415 14.433C130.921 14.433 131.349 14.3678 131.701 14.2374C132.054 14.1072 132.367 13.9499 132.643 13.766L133.332 16.0428ZM119.599 12.225H115.856V16.7558H112.87V5.25654H115.856V9.58027H119.599V5.25654H122.584V16.7558H119.599V12.225ZM101.41 5.9236C102.023 5.64754 102.75 5.42908 103.592 5.26797C104.434 5.10708 105.315 5.02663 106.233 5.02663C107.03 5.02663 107.695 5.12232 108.231 5.31412C108.767 5.5057 109.192 5.77775 109.506 6.13044C109.82 6.48313 110.042 6.90483 110.172 7.39534C110.302 7.88605 110.367 8.43794 110.367 9.05124C110.367 9.72592 110.344 10.4044 110.298 11.0867C110.252 11.769 110.225 12.4397 110.218 13.0991C110.21 13.7583 110.229 14.3985 110.275 15.0194C110.321 15.6403 110.436 16.2268 110.62 16.7789H108.185L107.703 15.192H107.588C107.282 15.6672 106.857 16.0773 106.314 16.4223C105.77 16.7672 105.07 16.9397 104.212 16.9397C103.677 16.9397 103.194 16.8593 102.766 16.6982C102.337 16.5373 101.969 16.3074 101.663 16.0083C101.357 15.7094 101.12 15.3567 100.951 14.9504C100.783 14.5442 100.699 14.088 100.699 13.582C100.699 12.8766 100.856 12.2826 101.17 11.7997C101.483 11.3166 101.935 10.9256 102.524 10.6267C103.114 10.3278 103.818 10.1207 104.637 10.0058C105.456 9.89083 106.371 9.85633 107.381 9.90227C107.489 9.04362 107.428 8.42651 107.198 8.05096C106.968 7.6752 106.455 7.48742 105.659 7.48742C105.062 7.48742 104.431 7.5488 103.765 7.67137C103.099 7.79394 102.551 7.95506 102.122 8.15427L101.41 5.9236ZM105.2 14.479C105.797 14.479 106.272 14.3447 106.624 14.0765C106.976 13.8081 107.236 13.5206 107.405 13.2141V11.719C106.93 11.6731 106.474 11.6655 106.038 11.6962C105.602 11.7267 105.215 11.7957 104.878 11.903C104.542 12.0104 104.274 12.1638 104.075 12.363C103.876 12.5625 103.776 12.8154 103.776 13.122C103.776 13.5513 103.902 13.8847 104.155 14.1225C104.408 14.3602 104.756 14.479 105.2 14.479ZM92.7529 11.9951V9.90227H94.1535C94.6895 9.90227 95.1298 9.79494 95.4741 9.58027C95.8187 9.36561 95.9908 9.08193 95.9908 8.72924C95.9908 8.31537 95.8377 8.02026 95.5316 7.84391C95.2253 7.66757 94.7583 7.57929 94.1308 7.57929C93.5336 7.57929 93.0054 7.65614 92.546 7.80941C92.0869 7.96268 91.7194 8.12377 91.4437 8.29228L90.8006 6.01547C91.26 5.75487 91.8686 5.52878 92.6265 5.33698C93.3844 5.1454 94.192 5.0495 95.0492 5.0495C96.3659 5.0495 97.3495 5.29486 98.0003 5.78558C98.6508 6.27609 98.9762 6.98907 98.9762 7.92435C98.9762 8.18496 98.9417 8.44959 98.8731 8.71781C98.8041 8.98603 98.6931 9.24303 98.5399 9.48817C98.3868 9.73353 98.1992 9.952 97.9774 10.1438C97.7555 10.3354 97.4911 10.4849 97.185 10.5922V10.6843C97.9964 10.8682 98.5706 11.194 98.9076 11.6617C99.2442 12.1293 99.4127 12.754 99.4127 13.5361C99.4127 14.0266 99.3132 14.4828 99.114 14.9045C98.9152 15.326 98.6127 15.6901 98.2069 15.9968C97.8013 16.3034 97.2923 16.5487 96.6799 16.7327C96.0674 16.9167 95.34 17.0088 94.4981 17.0088C93.6562 17.0088 92.925 16.9207 92.3049 16.7443C91.6849 16.568 91.1683 16.3648 90.7549 16.1349L91.3978 13.8119C91.7501 14.0113 92.1747 14.1722 92.6724 14.295C93.1699 14.4176 93.725 14.479 94.3374 14.479C95.7304 14.479 96.4273 14.0344 96.4273 13.1451C96.4273 12.7464 96.2474 12.4551 95.8875 12.2712C95.5278 12.087 94.858 11.9951 93.8781 11.9951H92.7529ZM80.099 5.9236C80.7115 5.64754 81.4389 5.42908 82.2808 5.26797C83.1227 5.10708 84.0032 5.02663 84.9217 5.02663C85.7181 5.02663 86.3839 5.12232 86.9197 5.31412C87.4558 5.5057 87.8807 5.77775 88.1942 6.13044C88.5081 6.48313 88.7302 6.90483 88.8604 7.39534C88.9904 7.88605 89.0556 8.43794 89.0556 9.05124C89.0556 9.72592 89.0327 10.4044 88.9866 11.0867C88.9406 11.769 88.9137 12.4397 88.9063 13.0991C88.8987 13.7583 88.9175 14.3985 88.9637 15.0194C89.0096 15.6403 89.1244 16.2268 89.3081 16.7789H86.874L86.3916 15.192H86.2768C85.9707 15.6672 85.5458 16.0773 85.0022 16.4223C84.4588 16.7672 83.7582 16.9397 82.9009 16.9397C82.3651 16.9397 81.8828 16.8593 81.4541 16.6982C81.0254 16.5373 80.6579 16.3074 80.3518 16.0083C80.0457 15.7094 79.8082 15.3567 79.6399 14.9504C79.4716 14.5442 79.3873 14.088 79.3873 13.582C79.3873 12.8766 79.5442 12.2826 79.8581 11.7997C80.1719 11.3166 80.6236 10.9256 81.213 10.6267C81.8026 10.3278 82.5067 10.1207 83.3258 10.0058C84.1448 9.89083 85.0596 9.85633 86.07 9.90227C86.1771 9.04362 86.1161 8.42651 85.8862 8.05096C85.6568 7.6752 85.1438 7.48742 84.3476 7.48742C83.7506 7.48742 83.1189 7.5488 82.4531 7.67137C81.7871 7.79394 81.2397 7.95506 80.811 8.15427L80.099 5.9236ZM83.8884 14.479C84.4854 14.479 84.9601 14.3447 85.3121 14.0765C85.6644 13.8081 85.9246 13.5206 86.0931 13.2141V11.719C85.6184 11.6731 85.1629 11.6655 84.7266 11.6962C84.2902 11.7267 83.9037 11.7957 83.5669 11.903C83.2301 12.0104 82.9623 12.1638 82.7631 12.363C82.5641 12.5625 82.4646 12.8154 82.4646 13.122C82.4646 13.5513 82.5909 13.8847 82.8435 14.1225C83.0963 14.3602 83.4443 14.479 83.8884 14.479ZM69.9716 9.87917H69.1449V16.7558H65.9984V0.656754H69.1449V7.78634L69.8797 7.46434L74.3118 0.656754H77.8944L73.2097 7.41841L71.9694 8.29228L73.2555 9.18925L78.6066 16.7558H74.7253L69.9716 9.87917ZM0.456423 0.56488H34.7674H35.1792H35.2241V0.609763V1.02129V27.9953V28.1189L35.2243 28.1231V28.1248L35.2247 28.1515V28.1526L35.2239 28.2375H35.2241V28.407V28.4519H35.2192C35.1642 30.0813 34.6641 31.7601 33.8025 33.3688C32.9195 35.0175 31.6563 36.5928 30.1037 37.9656C28.4736 39.4069 26.5214 40.6282 24.3536 41.4781C22.3469 42.265 20.1545 42.7343 17.8612 42.7663L17.6125 42.7697H17.612C15.3354 42.7697 13.1588 42.3594 11.161 41.6384C9.02725 40.8686 7.09719 39.7441 5.46647 38.3871C3.822 37.0185 2.48005 35.4113 1.53757 33.6893C0.621126 32.0146 0.0821425 30.2306 0.00889485 28.4519H0V28.407V28.0363V27.9953V1.02129V0.609763V0.56488H0.0446706H0.456423ZM12.7025 37.7309H13.2057V36.3008L13.2599 36.0546L13.0861 36.2682L12.7639 36.4892L12.5649 36.2176L13.3904 35.5514H13.6545V37.7309H14.147V38.1291H12.7025V37.7309ZM15.331 37.51C15.331 37.4254 15.342 37.3502 15.3636 37.2838C15.3854 37.2173 15.4161 37.1569 15.4559 37.1027C15.4959 37.0483 15.5429 36.9994 15.5973 36.956C15.6515 36.9126 15.7099 36.8728 15.7728 36.8366C15.6545 36.7617 15.5615 36.6755 15.494 36.5777C15.4265 36.4801 15.3926 36.3586 15.3926 36.2138C15.3926 36.1198 15.4102 36.0318 15.4451 35.9496C15.48 35.8675 15.5308 35.7964 15.5973 35.736C15.6636 35.6757 15.7438 35.6287 15.838 35.595C15.932 35.5612 16.0383 35.5442 16.1564 35.5442C16.2652 35.5442 16.3641 35.5586 16.4534 35.5876C16.5425 35.6166 16.6192 35.6577 16.6831 35.7108C16.7473 35.764 16.7966 35.8283 16.8315 35.9045C16.8666 35.9805 16.884 36.0644 16.884 36.156C16.884 36.2985 16.8523 36.4192 16.7881 36.518C16.7242 36.6169 16.6308 36.7075 16.5076 36.7897C16.6524 36.8739 16.7616 36.967 16.8353 37.0682C16.9088 37.1696 16.9456 37.3001 16.9456 37.4593C16.9456 37.5679 16.9257 37.6663 16.8859 37.7543C16.8461 37.8424 16.79 37.9178 16.7176 37.9807C16.6452 38.0433 16.5584 38.0922 16.457 38.1272C16.3556 38.1623 16.2445 38.1796 16.1238 38.1796C16.0031 38.1796 15.8939 38.1634 15.7963 38.1308C15.6985 38.0982 15.6153 38.0531 15.5465 37.9951C15.4777 37.9373 15.4246 37.8672 15.3873 37.785C15.3498 37.7031 15.331 37.6112 15.331 37.51ZM16.4968 37.4628C16.4968 37.4074 16.4835 37.3568 16.457 37.3108C16.4303 37.2651 16.396 37.2234 16.3537 37.1859C16.3116 37.1487 16.2646 37.1142 16.2127 37.0828C16.1606 37.0515 16.1081 37.0212 16.0552 36.9922C15.9417 37.0574 15.8638 37.1279 15.8215 37.2041C15.7794 37.2801 15.7582 37.3555 15.7582 37.4302C15.7582 37.527 15.7914 37.6096 15.8579 37.6784C15.9242 37.7472 16.0165 37.7815 16.1348 37.7815C16.2434 37.7815 16.3308 37.7548 16.3973 37.7019C16.4636 37.6487 16.4968 37.5691 16.4968 37.4628ZM15.8414 36.2212C15.8414 36.2792 15.8524 36.3298 15.874 36.3732C15.8958 36.4168 15.9254 36.4547 15.9629 36.4873C16.0002 36.5199 16.0425 36.55 16.0895 36.5777C16.1365 36.6055 16.1854 36.6315 16.2362 36.6556C16.3808 36.5324 16.4534 36.3974 16.4534 36.2502C16.4534 36.1488 16.4238 36.0722 16.3647 36.0203C16.3054 35.9682 16.2337 35.9424 16.1492 35.9424C16.0429 35.9424 15.9652 35.9701 15.9157 36.0256C15.8662 36.0813 15.8414 36.1463 15.8414 36.2212ZM18.0287 36.8585C18.0287 36.4143 18.1047 36.0843 18.2567 35.8683C18.4087 35.6522 18.6271 35.5442 18.9119 35.5442C19.2159 35.5442 19.4392 35.6509 19.5817 35.8647C19.7239 36.0781 19.7951 36.4094 19.7951 36.8585C19.7951 37.3047 19.7184 37.6367 19.5652 37.8539C19.4119 38.0711 19.193 38.1796 18.908 38.1796C18.6066 38.1796 18.3845 38.0656 18.242 37.8376C18.0996 37.6096 18.0287 37.2831 18.0287 36.8585ZM18.4993 36.8585C18.4993 37.1529 18.531 37.3803 18.5949 37.5407C18.6591 37.7012 18.7647 37.7815 18.9119 37.7815C19.0543 37.7815 19.1587 37.7078 19.225 37.5607C19.2912 37.4135 19.3245 37.1794 19.3245 36.8585C19.3245 36.5663 19.2931 36.3406 19.2303 36.1814C19.1678 36.0222 19.0603 35.9424 18.908 35.9424C18.7635 35.9424 18.6591 36.0172 18.5949 36.167C18.531 36.3165 18.4993 36.547 18.4993 36.8585ZM22.6591 37.4231H22.2609V38.1291H21.8229V37.4231H20.7259V37.1552L21.8735 35.5768H22.2609V37.0464H22.6591V37.4231ZM21.8229 36.4926L21.8555 36.1886H21.8409L21.7179 36.4492L21.3413 36.938L21.1603 37.0754L21.3921 37.0464H21.8229V36.4926ZM12.3058 10.9595C11.2374 10.358 10.7807 11.234 9.73072 11.4519C8.56807 11.6928 8.25856 10.7859 7.7634 9.97677C8.58225 10.1487 8.62989 10.5338 9.69748 9.80256C10.4818 9.26527 11.4753 9.6171 12.0556 10.2782L11.4101 8.54062C13.3366 8.52495 15.5067 8.27324 17.408 8.54062L17.6487 8.58085C19.6818 8.98223 21.2162 10.7232 21.2162 12.9264C21.2162 14.5389 20.2934 16.3307 18.9436 17.2838V17.4859C20.7498 17.0716 22.8145 15.5597 22.9995 14.7101C22.7353 14.607 22.1009 14.2427 22.1087 14.1993C21.4016 13.6923 21.0985 12.6814 21.2651 11.9157C21.4319 11.15 21.7882 10.7802 22.2969 10.4715C22.6475 10.2941 22.9648 10.1864 23.3446 10.1485L32.8488 8.80799C32.8935 9.12914 32.9246 9.45621 32.9401 9.78159C33.2155 15.5946 28.7241 20.5323 22.9111 20.8075C20.9232 20.9017 18.3589 19.8015 17.4564 17.9225C17.4094 17.9303 17.362 17.9381 17.3142 17.9443C16.9687 17.9824 16.6475 18.0414 16.3488 18.1185C16.0453 19.3823 18.6314 20.3644 21.629 20.8464L21.1489 21.5416C21.716 21.3628 22.3198 21.266 22.946 21.266C26.2411 21.266 28.9136 23.9383 28.9136 27.2338C28.9136 30.5291 26.2411 33.2014 22.946 33.2014C19.6507 33.2014 16.9784 30.5291 16.9784 27.2338C16.9784 26.8951 17.0072 26.5631 17.0612 26.2403L17.2653 26.2701L20.8781 26.5155C20.6988 26.8089 20.5949 27.1536 20.5949 27.5228C20.5949 28.5906 21.4609 29.4566 22.5289 29.4566C23.597 29.4566 24.4626 28.5906 24.4626 27.5228C24.4626 26.4719 23.6241 25.6164 22.5797 25.5895L22.5734 25.5705L22.3361 25.5986C22.3126 25.6007 22.2891 25.6037 22.2658 25.6067L19.1538 25.9723C17.7949 26.1954 16.6183 26.2852 15.6145 26.2528L11.3096 32.1253L10.7712 30.6995C7.72826 30.444 8.78125 31.8518 9.46313 32.428C9.52981 32.4841 9.53045 32.7195 9.46737 32.771C8.34939 32.6855 7.37303 31.7887 7.37303 30.621C7.37303 29.4532 8.34304 28.4553 9.53871 28.4553C10.337 28.4553 11.0339 28.8872 11.4097 29.5299L13.3645 23.3652H13.0552L11.8725 25.0654C11.1749 24.3369 10.6315 23.4603 10.2947 22.4871L6.99113 18.3967C6.85119 18.7136 6.63632 18.9898 6.37064 19.2049L5.71142 17.459C4.2507 17.3864 3.3495 17.7391 4.10611 18.8493L4.42301 18.8531L4.38174 18.3046H5.29839L5.1538 20.2232L5.15486 20.2369H5.15274L5.15042 20.2715H4.52272L4.52019 20.1436L4.47383 19.5267C3.63804 19.2282 2.84713 18.5698 2.84713 17.5209C2.84713 16.713 3.39437 15.8971 4.17342 15.5413L3.75024 9.9194L2.72583 8.62042H4.45773C4.39274 7.90064 4.61524 7.12159 5.03821 6.49285C4.6544 6.55784 4.30002 6.76361 3.95728 7.3335C3.73097 6.09888 4.76661 4.51095 6.178 4.74826C7.59511 4.98684 7.46343 4.57656 8.20819 4.02106C8.15505 4.48108 8.14658 4.94344 8.04475 5.34292C9.50483 5.50148 9.43836 4.968 10.3772 4.26749C10.2096 5.7172 10.3641 7.18321 8.58543 7.59856C6.96403 7.97729 5.75248 7.02908 4.64192 8.62042H4.83921H6.95196L5.93052 9.91601L5.51602 15.4151C5.86553 15.4985 6.18244 15.6672 6.44304 15.8971L9.07932 17.4802L9.65747 19.6213H9.92866C10.2053 16.0369 13.1549 13.2009 16.7866 13.1025L16.6454 12.7485L12.9951 12.7655L12.3058 10.9595ZM12.142 10.383C12.2571 10.5312 12.3518 10.6927 12.4197 10.861C13.9748 11.1401 16.8592 12.9338 15.8966 10.383H12.142ZM14.6783 5.19175H15.6185V5.41763H15.9155V6.14822C15.7252 6.22676 15.5912 6.4141 15.5912 6.63279C15.5912 6.86481 15.7419 7.06085 15.9506 7.13007L15.9536 7.13113L15.9618 7.13388L15.9635 7.13408L15.9684 7.13557H15.9688L15.9743 7.13727H15.9745L15.9777 7.13811L15.9868 7.14066H15.987L15.99 7.1413L15.993 7.14213L15.9961 7.14277L15.9966 7.14297L15.9993 7.14361L16.0025 7.14425L16.0057 7.1449L16.0112 7.14616L16.0118 7.14636L16.0148 7.1468L16.0182 7.14764L16.0211 7.14806L16.0222 7.14827L16.0304 7.14975L16.0336 7.15019L16.0351 7.15039H16.0353L16.0393 7.15104H16.0402L16.0434 7.15145L16.0465 7.15188L16.048 7.1523H16.0497L16.0529 7.15294L16.0563 7.15314L16.0618 7.15379L16.0658 7.1542L16.069 7.15441L16.0724 7.15484L16.0787 7.15525L16.0819 7.15548H16.0821L16.088 7.15589H16.0887L16.1014 7.15633H16.1018H16.1075L16.1083 7.15653H16.1117H16.1149C16.4043 7.15653 16.6386 6.92197 16.6386 6.63279V6.62284L16.6384 6.61925L16.6382 6.60992L16.6376 6.60039C16.6372 6.59425 16.6367 6.58833 16.6361 6.58241L16.6355 6.57501V6.57436L16.6344 6.56609V6.56483C16.6327 6.55361 16.631 6.54261 16.6289 6.53182L16.6278 6.52694L16.6257 6.51784V6.5172L16.6213 6.49922L16.619 6.49033L16.6187 6.48925L16.6156 6.47867L16.6151 6.47697L16.6135 6.47232C16.5876 6.39209 16.5434 6.32053 16.4854 6.26252L16.4845 6.26167L16.478 6.25533L16.4714 6.24919V6.24898L16.467 6.24518L16.4644 6.24284L16.4576 6.2367L16.4509 6.23077L16.4479 6.22845L16.4384 6.22082L16.4382 6.22062L16.4365 6.21913C16.4308 6.21489 16.4248 6.21044 16.4189 6.20621L16.4181 6.20536L16.4142 6.20284L16.4077 6.1986L16.4066 6.19775L16.3992 6.19267L16.3971 6.19161L16.3954 6.19033C16.3888 6.1861 16.3823 6.18208 16.3755 6.17848V6.17828C16.3681 6.17425 16.3607 6.17022 16.3533 6.16641L16.3512 6.16515L16.3429 6.16091L16.3418 6.1607L16.3344 6.15711V6.0212C16.3344 5.58976 16.7138 5.02368 17.145 5.01203L17.945 4.99043L16.8014 7.98321L13.5313 7.99444L12.3905 5.00166L13.1503 5.01203C13.5817 5.01775 13.9607 5.58976 13.9607 6.0212V6.15773C13.855 6.20705 13.7687 6.29069 13.7155 6.39421L13.7151 6.39547L13.7109 6.40352L13.71 6.40565L13.7049 6.41685L13.7047 6.41729L13.7032 6.42045L13.6994 6.42893L13.696 6.4374L13.6946 6.44056V6.441L13.6903 6.45243L13.6901 6.45264L13.6893 6.45495L13.6861 6.46364L13.6859 6.46469C13.6791 6.48501 13.6734 6.50576 13.6689 6.52715C13.6656 6.54387 13.663 6.56081 13.6611 6.57796L13.6609 6.58007C13.6603 6.5879 13.6596 6.59554 13.6592 6.60337L13.659 6.60591V6.60866L13.6586 6.61925L13.6584 6.62284V6.63279C13.6584 6.92197 13.8927 7.15653 14.1819 7.15653H14.1853H14.1887L14.1895 7.15633H14.1952H14.1954L14.2083 7.15589H14.209L14.2149 7.15548L14.2181 7.15525L14.2246 7.15484L14.2278 7.15441L14.2312 7.1542L14.2352 7.15379L14.2407 7.15314L14.2441 7.15294L14.2473 7.1523H14.2488L14.2505 7.15188L14.2537 7.15145L14.2568 7.15104L14.26 7.1506L14.2619 7.15039L14.2632 7.15019L14.2664 7.14975L14.2695 7.14911L14.2748 7.14827L14.2759 7.14806L14.2788 7.14764L14.282 7.1468L14.2852 7.14636L14.2854 7.14616L14.2913 7.1449L14.2945 7.14425L14.2977 7.14361L14.3004 7.14297L14.3193 7.13811L14.3222 7.13727C14.5435 7.07609 14.7058 6.87349 14.7058 6.63279C14.7058 6.4141 14.5718 6.22676 14.3815 6.14822V5.41763H14.6783V5.19175ZM27.8076 23.2467C30.3304 22.2235 32.6731 20.5136 33.2076 16.2538C32.7099 18.3571 31.6174 19.5208 30.2477 20.1656C28.7823 20.8553 27.0004 20.9519 25.2901 20.9692C26.4456 21.468 27.2263 22.1846 27.8076 23.2467ZM34.311 1.47793H0.913058V27.5388H0.916231L0.915807 27.5839L0.912846 27.8761V27.9915H0.913058V28.0363C0.913058 29.7509 1.39424 31.4843 2.26242 33.1169C3.15176 34.7893 4.44736 36.3559 6.04801 37.6879C7.59934 38.979 9.43625 40.0485 11.4675 40.781C13.3692 41.4665 15.4421 41.8566 17.612 41.8566V41.8569L17.8506 41.8566C20.0311 41.8266 22.1165 41.3797 24.0263 40.6301C26.0895 39.8203 27.9482 38.6572 29.5008 37.2844C30.9996 35.9591 32.2118 34.4404 33.044 32.8595C33.8603 31.3096 34.3119 29.6992 34.3119 28.1521C34.3119 28.0878 34.3123 28.0708 34.3127 28.0628H34.3125V28.0412H34.3127V28.0401H34.311V27.9953V27.9267L34.3061 27.5841L34.3055 27.5388H34.311V1.47793Z" fill="white"/>
</svg>
