<svg width="317" height="55" viewBox="0 0 317 55" fill="none" xmlns="http://www.w3.org/2000/svg">
    <path d="M62.2302 5.62272H58.1535V9.51742H57.1465V1.02436H58.1535V4.72492H62.2302V1.02436H63.2372V9.51742H62.2302V5.62272ZM65.1057 3.89982C65.4131 3.71386 65.7709 3.57626 66.1795 3.48737C66.5878 3.3983 67.0145 3.35385 67.4595 3.35385C67.8802 3.35385 68.2178 3.41056 68.4725 3.52363C68.7273 3.63688 68.9214 3.78462 69.0549 3.96649C69.1885 4.14854 69.2774 4.34873 69.3218 4.56722C69.3664 4.78554 69.3886 5.00386 69.3886 5.22236C69.3886 5.7077 69.3766 6.18079 69.3522 6.64196C69.328 7.10295 69.3158 7.53976 69.3158 7.95222C69.3158 8.2516 69.328 8.53464 69.3522 8.80149C69.3766 9.06852 69.421 9.31528 69.4857 9.5416H68.7698L68.515 8.69233H68.4544C68.3815 8.80558 68.2907 8.91687 68.1813 9.02603C68.0722 9.13519 67.9408 9.23226 67.787 9.31724C67.6334 9.40222 67.4554 9.47298 67.2533 9.52951C67.051 9.58623 66.8204 9.61449 66.5615 9.61449C66.3029 9.61449 66.0621 9.57396 65.8397 9.49325C65.6173 9.41235 65.4251 9.29697 65.2634 9.14728C65.1016 8.99776 64.9743 8.81767 64.8811 8.60753C64.7881 8.39721 64.7417 8.15845 64.7417 7.8916C64.7417 7.53567 64.8145 7.23842 64.9601 6.99983C65.1057 6.76125 65.3099 6.5712 65.5727 6.4295C65.8356 6.28799 66.1512 6.18683 66.5192 6.12621C66.8872 6.06558 67.2937 6.03518 67.7385 6.03518C67.8517 6.03518 67.963 6.03518 68.0722 6.03518C68.1813 6.03518 68.2926 6.04336 68.4059 6.05954C68.43 5.81686 68.4423 5.59855 68.4423 5.40441C68.4423 4.95941 68.3532 4.64811 68.1753 4.47015C67.9973 4.29219 67.6738 4.20312 67.2048 4.20312C67.0672 4.20312 66.9196 4.21326 66.7619 4.23352C66.604 4.25575 66.4422 4.28401 66.2765 4.32241C66.1107 4.35886 65.953 4.40544 65.8033 4.46002C65.6536 4.51264 65.5222 4.57327 65.409 4.63994L65.1057 3.89982ZM66.8286 8.76522C67.0551 8.76522 67.2572 8.73482 67.4352 8.6742C67.6131 8.61357 67.7669 8.53659 67.8963 8.44361C68.0258 8.35063 68.1328 8.24752 68.2178 8.13427C68.3027 8.02102 68.3653 7.91186 68.4059 7.80661V6.79965C68.2926 6.79147 68.1774 6.78543 68.0601 6.78151C67.9427 6.77743 67.8275 6.77529 67.7143 6.77529C67.4634 6.77529 67.2188 6.78952 66.9802 6.81778C66.7416 6.84623 66.5313 6.89867 66.3493 6.97548C66.1672 7.05246 66.0218 7.15753 65.9124 7.29104C65.8033 7.42456 65.7487 7.59238 65.7487 7.79452C65.7487 8.07756 65.8499 8.31027 66.052 8.49215C66.2543 8.6742 66.5132 8.76522 66.8286 8.76522ZM73.0103 7.38207L73.35 8.54673H73.4106L73.6796 7.3698L74.8606 3.45092H75.8312L74.0355 8.89856C73.8981 9.29502 73.7625 9.67921 73.6291 10.0513C73.4956 10.4232 73.3481 10.7548 73.1863 11.046C73.0245 11.3372 72.8424 11.5698 72.6403 11.7436C72.438 11.9175 72.2035 12.0044 71.9365 12.0044C71.6454 12.0044 71.4067 11.9641 71.2207 11.8832L71.3905 11.046C71.4957 11.0864 71.5969 11.1066 71.694 11.1066C71.9203 11.1066 72.1388 10.9873 72.3491 10.7488C72.5594 10.5102 72.7333 10.0998 72.8707 9.51742L70.4321 3.45092H71.5484L73.0103 7.38207ZM77.5057 3.45092V5.10093C77.5057 5.31942 77.5178 5.51552 77.542 5.68939C77.5663 5.86344 77.6149 6.01296 77.6876 6.1383C77.7605 6.26381 77.8655 6.36088 78.0031 6.4295C78.1406 6.49831 78.3226 6.53262 78.5491 6.53262C78.913 6.53262 79.2124 6.49226 79.4469 6.41137C79.6816 6.33048 79.8594 6.24159 79.9808 6.14452V3.45092H80.9515V9.51742H79.9808V6.96943C79.8514 7.05032 79.6592 7.13939 79.4044 7.23646C79.1497 7.33353 78.7998 7.38207 78.355 7.38207C78.0558 7.38207 77.7928 7.34971 77.5663 7.285C77.3398 7.22028 77.1498 7.10704 76.996 6.94525C76.8424 6.78347 76.7272 6.56906 76.6502 6.30221C76.5734 6.03518 76.535 5.69953 76.535 5.29507V3.45092H77.5057ZM86.5327 6.8361H83.7907V9.51742H82.82V3.45092H83.7907V5.98665H86.5327V3.45092H87.5034V9.51742H86.5327V6.8361ZM90.3426 8.66815C90.6418 8.71669 90.9289 8.74086 91.2039 8.74086C91.7134 8.74086 92.0694 8.64184 92.2717 8.44361C92.4738 8.24556 92.575 7.96449 92.575 7.60039C92.575 7.27682 92.4759 7.00997 92.2777 6.79965C92.0795 6.58933 91.7337 6.48408 91.2404 6.48408C91.1028 6.48408 90.9532 6.48817 90.7915 6.49635C90.6297 6.50435 90.48 6.52871 90.3426 6.56906V8.66815ZM90.3426 5.76833C90.5367 5.73597 90.7226 5.71375 90.9006 5.70166C91.0786 5.68939 91.2484 5.68335 91.4101 5.68335C91.8228 5.68335 92.1686 5.72993 92.4475 5.82291C92.7266 5.91589 92.9512 6.04336 93.1209 6.20514C93.2907 6.36693 93.41 6.55893 93.4788 6.78151C93.5476 7.00392 93.5819 7.24055 93.5819 7.49123C93.5819 8.22725 93.3777 8.76113 92.9693 9.0927C92.5608 9.42444 91.8996 9.59014 90.9856 9.59014C90.4679 9.59014 89.9299 9.56596 89.3719 9.51742V3.45092H90.3426V5.76833ZM94.5406 3.45092H95.5111V9.51742H94.5406V3.45092ZM101.165 5.92602L101.201 5.17382H101.165L100.668 5.95038L97.9376 9.51742H97.3796V3.45092H98.3503V7.15148L98.3138 7.86742H98.3624L98.8354 7.11504L101.565 3.45092H102.136V9.51742H101.165V5.92602ZM98.7748 1C98.8557 1.3721 98.9953 1.63095 99.1935 1.77656C99.3915 1.92216 99.6202 1.99488 99.879 1.99488C100.138 1.99488 100.368 1.91807 100.571 1.76447C100.773 1.61069 100.91 1.36001 100.983 1.01227L101.711 1.24267C101.638 1.71184 101.43 2.07186 101.086 2.32253C100.742 2.57338 100.332 2.69872 99.8547 2.69872C99.6364 2.69872 99.42 2.67045 99.2056 2.61374C98.9912 2.5572 98.7992 2.47222 98.6292 2.35898C98.4594 2.24573 98.3138 2.10012 98.1924 1.92216C98.0712 1.7442 97.9903 1.53388 97.9499 1.29121L98.7748 1ZM114.305 11.0825H113.614L113.431 9.51742H107.341V1.02436H108.348V8.61962H112.17V1.02436H113.177V8.61962H114.305V11.0825ZM119.729 9.03207C119.486 9.22621 119.18 9.38 118.812 9.49325C118.444 9.60632 118.054 9.66303 117.642 9.66303C117.181 9.66303 116.78 9.58818 116.44 9.43849C116.101 9.28897 115.822 9.07456 115.603 8.79545C115.385 8.5165 115.223 8.1828 115.118 7.79452C115.013 7.40625 114.96 6.96943 114.96 6.48408C114.96 5.44885 115.191 4.6602 115.652 4.11832C116.113 3.57626 116.772 3.30532 117.629 3.30532C117.904 3.30532 118.18 3.33572 118.455 3.39634C118.73 3.45697 118.976 3.57217 119.195 3.74213C119.413 3.91191 119.591 4.15263 119.729 4.46411C119.866 4.77541 119.935 5.18591 119.935 5.69561C119.935 5.96247 119.91 6.25776 119.862 6.58115H115.967C115.967 6.93708 116.004 7.25264 116.077 7.52767C116.149 7.8027 116.262 8.03524 116.416 8.22529C116.57 8.41534 116.77 8.56095 117.017 8.66211C117.263 8.76309 117.565 8.81376 117.921 8.81376C118.196 8.81376 118.471 8.76522 118.746 8.66815C119.021 8.57108 119.227 8.45783 119.364 8.32841L119.729 9.03207ZM117.642 4.15459C117.164 4.15459 116.782 4.27992 116.495 4.53078C116.208 4.78145 116.036 5.21026 115.979 5.81686H118.988C118.988 5.20209 118.871 4.77132 118.637 4.52473C118.402 4.27797 118.07 4.15459 117.642 4.15459ZM125.176 6.8361H122.434V9.51742H121.464V3.45092H122.434V5.98665H125.176V3.45092H126.147V9.51742H125.176V6.8361ZM131.886 4.30019H129.981V9.51742H129.01V4.30019H127.105V3.45092H131.886V4.30019ZM132.844 3.45092H133.511L133.693 4.17894H133.742C133.928 3.89574 134.169 3.67937 134.464 3.52986C134.759 3.38016 135.097 3.30532 135.477 3.30532C136.286 3.30532 136.889 3.5439 137.285 4.02125C137.681 4.49842 137.879 5.27889 137.879 6.36284C137.879 6.87236 137.813 7.3314 137.679 7.73995C137.546 8.14849 137.358 8.49428 137.115 8.77731C136.872 9.06034 136.579 9.27884 136.235 9.43244C135.892 9.58622 135.509 9.66303 135.089 9.66303C134.789 9.66303 134.553 9.64489 134.379 9.60845C134.205 9.572 134.017 9.50942 133.815 9.42035V11.9438H132.844V3.45092ZM135.295 4.15459C134.882 4.15459 134.557 4.26179 134.318 4.4762C134.08 4.69043 133.912 5.01613 133.815 5.45294V8.46192C133.96 8.57517 134.126 8.66211 134.312 8.72273C134.498 8.78336 134.745 8.81376 135.052 8.81376C135.61 8.81376 136.053 8.60539 136.381 8.18885C136.708 7.7723 136.872 7.15966 136.872 6.35075C136.872 6.019 136.844 5.71784 136.787 5.44672C136.731 5.17578 136.64 4.94537 136.514 4.75514C136.389 4.56509 136.227 4.41753 136.029 4.31228C135.831 4.20721 135.586 4.15459 135.295 4.15459ZM149.272 3.81484L149.394 2.54103H149.333L148.872 3.70568L146.664 7.53976H146.36L144.019 3.69359L143.582 2.54103H143.521L143.691 3.80275V9.51742H142.745V1.02436H143.497L146.154 5.36796L146.554 6.3143H146.579L146.955 5.3436L149.491 1.02436H150.279V9.51742H149.272V3.81484ZM156.03 5.92602L156.067 5.17382H156.03L155.533 5.95038L152.803 9.51742H152.245V3.45092H153.216V7.15148L153.179 7.86742H153.228L153.701 7.11504L156.431 3.45092H157.001V9.51742H156.03V5.92602ZM158.87 3.45092H159.537L159.719 4.17894H159.767C159.953 3.89574 160.194 3.67937 160.489 3.52986C160.784 3.38016 161.122 3.30532 161.502 3.30532C162.311 3.30532 162.914 3.5439 163.31 4.02125C163.706 4.49842 163.905 5.27889 163.905 6.36284C163.905 6.87236 163.838 7.3314 163.705 7.73995C163.571 8.14849 163.383 8.49428 163.14 8.77731C162.898 9.06034 162.604 9.27884 162.261 9.43244C161.917 9.58622 161.535 9.66303 161.114 9.66303C160.815 9.66303 160.578 9.64489 160.404 9.60845C160.23 9.572 160.042 9.50942 159.84 9.42035V11.9438H158.87V3.45092ZM161.32 4.15459C160.908 4.15459 160.582 4.26179 160.344 4.4762C160.105 4.69043 159.937 5.01613 159.84 5.45294V8.46192C159.986 8.57517 160.152 8.66211 160.338 8.72273C160.524 8.78336 160.77 8.81376 161.078 8.81376C161.636 8.81376 162.079 8.60539 162.406 8.18885C162.734 7.7723 162.898 7.15966 162.898 6.35075C162.898 6.019 162.869 5.71784 162.813 5.44672C162.756 5.17578 162.665 4.94537 162.54 4.75514C162.414 4.56509 162.253 4.41753 162.054 4.31228C161.856 4.20721 161.612 4.15459 161.32 4.15459ZM165.094 6.48408C165.094 5.45685 165.322 4.67034 165.779 4.12437C166.236 3.57839 166.893 3.30532 167.751 3.30532C168.204 3.30532 168.598 3.38016 168.934 3.52986C169.269 3.67937 169.546 3.89378 169.765 4.1729C169.983 4.45184 170.145 4.7875 170.25 5.17986C170.355 5.57223 170.408 6.00691 170.408 6.48408C170.408 7.51149 170.18 8.29801 169.722 8.84398C169.265 9.38995 168.608 9.66303 167.751 9.66303C167.298 9.66303 166.904 9.58818 166.568 9.43849C166.232 9.28897 165.955 9.07456 165.737 8.79545C165.518 8.5165 165.357 8.18085 165.251 7.78848C165.146 7.39611 165.094 6.96143 165.094 6.48408ZM166.101 6.48408C166.101 6.79147 166.131 7.08677 166.192 7.3698C166.252 7.65301 166.347 7.89977 166.477 8.10991C166.606 8.32023 166.776 8.49019 166.986 8.61962C167.197 8.74904 167.452 8.81376 167.751 8.81376C168.851 8.82176 169.401 8.0452 169.401 6.48408C169.401 6.1687 169.371 5.86949 169.31 5.58628C169.249 5.30325 169.154 5.05648 169.025 4.84616C168.895 4.63585 168.725 4.46802 168.515 4.34268C168.305 4.21735 168.05 4.15459 167.751 4.15459C166.651 4.14659 166.101 4.92315 166.101 6.48408ZM171.937 3.46301C172.22 3.44683 172.517 3.42674 172.829 3.40239C173.14 3.37821 173.526 3.36594 173.987 3.36594C174.788 3.36594 175.362 3.48932 175.71 3.73609C176.058 3.98267 176.232 4.35691 176.232 4.85843C176.232 5.14146 176.149 5.41845 175.983 5.68939C175.817 5.96051 175.544 6.16069 175.164 6.29012V6.33866C175.641 6.42755 175.977 6.59342 176.171 6.8361C176.365 7.07877 176.462 7.40216 176.462 7.80661C176.462 8.43757 176.236 8.89465 175.783 9.17768C175.33 9.46089 174.65 9.6024 173.745 9.6024C173.405 9.6024 173.089 9.59227 172.798 9.572C172.507 9.55173 172.22 9.52951 171.937 9.50533V3.46301ZM172.907 8.7046C173.061 8.72078 173.213 8.73286 173.362 8.74086C173.512 8.74904 173.688 8.75313 173.89 8.75313C174.432 8.75313 174.834 8.67615 175.097 8.52255C175.36 8.36877 175.492 8.106 175.492 7.7339C175.492 7.44269 175.38 7.20606 175.158 7.02401C174.936 6.84214 174.541 6.75111 173.975 6.75111H172.907V8.7046ZM174.096 6.011C174.242 6.011 174.384 5.98665 174.521 5.93811C174.659 5.88958 174.782 5.82291 174.891 5.73793C175 5.65312 175.089 5.55392 175.158 5.44067C175.227 5.32743 175.261 5.20618 175.261 5.07675C175.261 4.75318 175.164 4.52882 174.97 4.40331C174.776 4.27797 174.436 4.21521 173.951 4.21521C173.692 4.21521 173.488 4.2193 173.338 4.22748C173.189 4.23548 173.045 4.24366 172.907 4.25166V6.011H174.096ZM177.651 6.48408C177.651 5.45685 177.88 4.67034 178.337 4.12437C178.794 3.57839 179.451 3.30532 180.309 3.30532C180.762 3.30532 181.156 3.38016 181.492 3.52986C181.827 3.67937 182.104 3.89378 182.323 4.1729C182.541 4.45184 182.703 4.7875 182.808 5.17986C182.913 5.57223 182.966 6.00691 182.966 6.48408C182.966 7.51149 182.737 8.29801 182.28 8.84398C181.823 9.38995 181.166 9.66303 180.309 9.66303C179.856 9.66303 179.461 9.58818 179.126 9.43849C178.79 9.28897 178.513 9.07456 178.294 8.79545C178.076 8.5165 177.914 8.18085 177.809 7.78848C177.704 7.39611 177.651 6.96143 177.651 6.48408ZM178.658 6.48408C178.658 6.79147 178.689 7.08677 178.749 7.3698C178.81 7.65301 178.905 7.89977 179.035 8.10991C179.164 8.32023 179.334 8.49019 179.544 8.61962C179.754 8.74904 180.009 8.81376 180.309 8.81376C181.409 8.82176 181.959 8.0452 181.959 6.48408C181.959 6.1687 181.928 5.86949 181.868 5.58628C181.807 5.30325 181.712 5.05648 181.583 4.84616C181.453 4.63585 181.283 4.46802 181.073 4.34268C180.863 4.21735 180.608 4.15459 180.309 4.15459C179.208 4.14659 178.658 4.92315 178.658 6.48408ZM188.037 4.30019H185.465V9.51742H184.494V3.45092H188.037V4.30019ZM188.438 6.48408C188.438 5.45685 188.666 4.67034 189.123 4.12437C189.58 3.57839 190.237 3.30532 191.095 3.30532C191.548 3.30532 191.942 3.38016 192.278 3.52986C192.614 3.67937 192.89 3.89378 193.109 4.1729C193.327 4.45184 193.489 4.7875 193.594 5.17986C193.699 5.57223 193.752 6.00691 193.752 6.48408C193.752 7.51149 193.524 8.29801 193.066 8.84398C192.609 9.38995 191.952 9.66303 191.095 9.66303C190.642 9.66303 190.248 9.58818 189.912 9.43849C189.576 9.28897 189.299 9.07456 189.081 8.79545C188.862 8.5165 188.701 8.18085 188.595 7.78848C188.49 7.39611 188.438 6.96143 188.438 6.48408ZM189.445 6.48408C189.445 6.79147 189.475 7.08677 189.536 7.3698C189.597 7.65301 189.691 7.89977 189.821 8.10991C189.95 8.32023 190.12 8.49019 190.33 8.61962C190.541 8.74904 190.796 8.81376 191.095 8.81376C192.195 8.82176 192.745 8.0452 192.745 6.48408C192.745 6.1687 192.715 5.86949 192.654 5.58628C192.593 5.30325 192.498 5.05648 192.369 4.84616C192.239 4.63585 192.069 4.46802 191.859 4.34268C191.649 4.21735 191.394 4.15459 191.095 4.15459C189.995 4.14659 189.445 4.92315 189.445 6.48408ZM200.656 5.50147L200.971 6.58115H201.032L201.274 5.46503L202.9 1.02436H203.932L201.784 6.54489C201.566 7.11913 201.373 7.59843 201.208 7.98262C201.042 8.36681 200.874 8.67829 200.704 8.91687C200.534 9.15546 200.352 9.32524 200.158 9.4264C199.964 9.52756 199.726 9.57805 199.443 9.57805C199.175 9.57805 198.963 9.55583 198.806 9.51138C198.648 9.46693 198.5 9.40009 198.363 9.3112L198.666 8.47401C198.828 8.56291 198.977 8.61962 199.115 8.6438C199.252 8.66815 199.378 8.68024 199.491 8.68024C199.718 8.68024 199.907 8.56504 200.061 8.33445C200.215 8.10387 200.348 7.76217 200.461 7.30918L197.319 1.02436H198.484L200.656 5.50147ZM204.247 3.45092H204.914L205.096 4.17894H205.145C205.331 3.89574 205.571 3.67937 205.867 3.52986C206.162 3.38016 206.5 3.30532 206.88 3.30532C207.689 3.30532 208.291 3.5439 208.688 4.02125C209.084 4.49842 209.282 5.27889 209.282 6.36284C209.282 6.87236 209.215 7.3314 209.082 7.73995C208.948 8.14849 208.76 8.49428 208.518 8.77731C208.275 9.06034 207.982 9.27884 207.638 9.43244C207.294 9.58622 206.912 9.66303 206.491 9.66303C206.192 9.66303 205.956 9.64489 205.782 9.60845C205.608 9.572 205.42 9.50942 205.218 9.42035V11.9438H204.247V3.45092ZM206.698 4.15459C206.285 4.15459 205.96 4.26179 205.721 4.4762C205.483 4.69043 205.315 5.01613 205.218 5.45294V8.46192C205.363 8.57517 205.529 8.66211 205.715 8.72273C205.901 8.78336 206.148 8.81376 206.455 8.81376C207.013 8.81376 207.456 8.60539 207.784 8.18885C208.111 7.7723 208.275 7.15966 208.275 6.35075C208.275 6.019 208.247 5.71784 208.19 5.44672C208.133 5.17578 208.043 4.94537 207.917 4.75514C207.792 4.56509 207.63 4.41753 207.432 4.31228C207.234 4.20721 206.989 4.15459 206.698 4.15459ZM210.471 6.48408C210.471 5.45685 210.7 4.67034 211.157 4.12437C211.614 3.57839 212.271 3.30532 213.128 3.30532C213.581 3.30532 213.976 3.38016 214.311 3.52986C214.647 3.67937 214.924 3.89378 215.142 4.1729C215.361 4.45184 215.522 4.7875 215.628 5.17986C215.733 5.57223 215.785 6.00691 215.785 6.48408C215.785 7.51149 215.557 8.29801 215.1 8.84398C214.643 9.38995 213.986 9.66303 213.128 9.66303C212.675 9.66303 212.281 9.58818 211.945 9.43849C211.61 9.28897 211.333 9.07456 211.114 8.79545C210.896 8.5165 210.734 8.18085 210.629 7.78848C210.524 7.39611 210.471 6.96143 210.471 6.48408ZM211.478 6.48408C211.478 6.79147 211.508 7.08677 211.569 7.3698C211.63 7.65301 211.725 7.89977 211.854 8.10991C211.984 8.32023 212.153 8.49019 212.364 8.61962C212.574 8.74904 212.829 8.81376 213.128 8.81376C214.228 8.82176 214.778 8.0452 214.778 6.48408C214.778 6.1687 214.748 5.86949 214.687 5.58628C214.627 5.30325 214.532 5.05648 214.402 4.84616C214.273 4.63585 214.103 4.46802 213.893 4.34268C213.682 4.21735 213.427 4.15459 213.128 4.15459C212.028 4.14659 211.478 4.92315 211.478 6.48408ZM217.314 3.46301C217.597 3.44683 217.894 3.42674 218.206 3.40239C218.517 3.37821 218.904 3.36594 219.365 3.36594C220.165 3.36594 220.74 3.48932 221.087 3.73609C221.435 3.98267 221.609 4.35691 221.609 4.85843C221.609 5.14146 221.526 5.41845 221.361 5.68939C221.195 5.96051 220.922 6.16069 220.541 6.29012V6.33866C221.019 6.42755 221.354 6.59342 221.549 6.8361C221.743 7.07877 221.84 7.40216 221.84 7.80661C221.84 8.43757 221.613 8.89465 221.16 9.17768C220.707 9.46089 220.028 9.6024 219.122 9.6024C218.782 9.6024 218.467 9.59227 218.176 9.572C217.885 9.55173 217.597 9.52951 217.314 9.50533V3.46301ZM218.285 8.7046C218.438 8.72078 218.59 8.73286 218.74 8.74086C218.89 8.74904 219.065 8.75313 219.268 8.75313C219.81 8.75313 220.212 8.67615 220.475 8.52255C220.738 8.36877 220.869 8.106 220.869 7.7339C220.869 7.44269 220.758 7.20606 220.535 7.02401C220.313 6.84214 219.919 6.75111 219.352 6.75111H218.285V8.7046ZM219.474 6.011C219.619 6.011 219.761 5.98665 219.898 5.93811C220.036 5.88958 220.159 5.82291 220.269 5.73793C220.378 5.65312 220.467 5.55392 220.535 5.44067C220.604 5.32743 220.639 5.20618 220.639 5.07675C220.639 4.75318 220.541 4.52882 220.347 4.40331C220.153 4.27797 219.814 4.21521 219.328 4.21521C219.069 4.21521 218.865 4.2193 218.715 4.22748C218.566 4.23548 218.422 4.24366 218.285 4.25166V6.011H219.474ZM227.081 6.8361H224.339V9.51742H223.369V3.45092H224.339V5.98665H227.081V3.45092H228.052V9.51742H227.081V6.8361ZM232.942 7.00588L232.007 7.15148L230.406 9.51742H229.229L230.685 7.44269L231.17 6.99379C230.749 6.92908 230.392 6.75911 230.096 6.48408C229.801 6.20923 229.654 5.83713 229.654 5.36796C229.654 5.00386 229.716 4.69256 229.842 4.43371C229.967 4.17485 230.147 3.96045 230.381 3.79067C230.616 3.6207 230.895 3.4975 231.219 3.42052C231.542 3.34372 231.906 3.30532 232.311 3.30532C232.61 3.30532 232.889 3.32558 233.148 3.36594C233.407 3.40648 233.661 3.45092 233.912 3.49946V9.51742H232.942V7.00588ZM232.942 4.27601C232.836 4.23548 232.719 4.20526 232.59 4.18499C232.46 4.16472 232.347 4.15459 232.25 4.15459C231.732 4.15459 231.338 4.24757 231.067 4.43371C230.796 4.61967 230.661 4.91497 230.661 5.31942C230.661 5.68335 230.804 5.96442 231.091 6.16265C231.378 6.36088 231.757 6.45991 232.226 6.45991C232.234 6.45991 232.246 6.45991 232.262 6.45991C232.278 6.45991 232.311 6.45991 232.359 6.45991C232.408 6.45991 232.476 6.45795 232.566 6.45386C232.654 6.44977 232.78 6.44373 232.942 6.43573V4.27601Z" fill="white"/>
    <path d="M57.1465 17.2888C57.6562 17.1917 58.2173 17.1158 58.8301 17.0612C59.4427 17.0066 60.0524 16.9794 60.6591 16.9794C61.2901 16.9794 61.9241 17.031 62.5611 17.1341C63.1981 17.2372 63.7712 17.4434 64.2809 17.7528C64.7905 18.0623 65.2061 18.4929 65.5275 19.0451C65.8492 19.5971 66.0099 20.3161 66.0099 21.2018C66.0099 22.0025 65.8703 22.679 65.5912 23.231C65.3123 23.783 64.9421 24.2349 64.4811 24.5869C64.0199 24.9388 63.4953 25.1935 62.9068 25.3512C62.3184 25.5089 61.7086 25.5879 61.0776 25.5879C61.017 25.5879 60.9199 25.5879 60.7864 25.5879C60.6531 25.5879 60.5135 25.5848 60.3679 25.5788C60.2223 25.5728 60.0797 25.5637 59.9402 25.5514C59.8006 25.5393 59.7005 25.5272 59.6399 25.5152V29.9012H57.1465V17.2888ZM60.8593 19.1269C60.6166 19.1269 60.3861 19.1361 60.1677 19.1542C59.9492 19.1724 59.7734 19.1937 59.6399 19.2179V23.3492C59.6884 23.3615 59.7613 23.3736 59.8584 23.3857C59.9555 23.3978 60.0586 23.407 60.1677 23.413C60.2769 23.4191 60.383 23.4221 60.4861 23.4221C60.5893 23.4221 60.6652 23.4221 60.7137 23.4221C61.0414 23.4221 61.3658 23.3917 61.6874 23.3311C62.0089 23.2705 62.297 23.1583 62.5518 22.9944C62.8068 22.8306 63.01 22.6031 63.1616 22.3119C63.3133 22.0206 63.3892 21.6386 63.3892 21.1653C63.3892 20.765 63.3163 20.4343 63.1707 20.1735C63.0251 19.9125 62.834 19.7032 62.5973 19.5455C62.3609 19.3879 62.0908 19.2785 61.7875 19.2179C61.4842 19.1573 61.1747 19.1269 60.8593 19.1269ZM67.0289 21.3291C67.5143 21.1108 68.0907 20.9378 68.7579 20.8105C69.4253 20.683 70.1229 20.6194 70.8509 20.6194C71.4819 20.6194 72.0097 20.6951 72.4343 20.8467C72.859 20.9986 73.1957 21.2139 73.4444 21.493C73.6931 21.7719 73.869 22.1056 73.9723 22.4939C74.0754 22.8822 74.1269 23.319 74.1269 23.8043C74.1269 24.3382 74.1086 24.8751 74.0723 25.4151C74.0359 25.955 74.0146 26.4857 74.0085 27.0075C74.0025 27.5293 74.0176 28.0358 74.054 28.5272C74.0905 29.0186 74.1815 29.4826 74.3271 29.9194H72.3978L72.0158 28.6637H71.9247C71.6821 29.0397 71.3453 29.3643 70.9146 29.6374C70.4838 29.9103 69.9288 30.0469 69.2493 30.0469C68.8247 30.0469 68.4425 29.9832 68.1027 29.8557C67.763 29.7283 67.4718 29.5464 67.2291 29.3098C66.9864 29.0731 66.7983 28.794 66.665 28.4726C66.5315 28.151 66.4648 27.7901 66.4648 27.3897C66.4648 26.8315 66.5891 26.3614 66.8378 25.9792C67.0865 25.5969 67.4446 25.2876 67.9116 25.051C68.3788 24.8143 68.9369 24.6506 69.586 24.5596C70.2351 24.4685 70.9601 24.4413 71.7608 24.4776C71.8458 23.7983 71.7973 23.3099 71.6154 23.0127C71.4333 22.7154 71.0269 22.5666 70.396 22.5666C69.9227 22.5666 69.4222 22.6152 68.8944 22.7122C68.3666 22.8093 67.9328 22.9368 67.5932 23.0945L67.0289 21.3291ZM70.0319 28.0994C70.5051 28.0994 70.8813 27.9933 71.1603 27.781C71.4394 27.5686 71.6456 27.3412 71.7791 27.0985V25.9155C71.4029 25.8791 71.042 25.873 70.6962 25.8972C70.3505 25.9216 70.044 25.9761 69.7771 26.0611C69.5103 26.1459 69.2978 26.2674 69.1401 26.425C68.9824 26.5827 68.9035 26.7829 68.9035 27.0256C68.9035 27.3653 69.0036 27.6294 69.2038 27.8174C69.4039 28.0054 69.68 28.0994 70.0319 28.0994ZM84.9922 31.9758H83.2632L82.9901 29.9012H76.1106V20.8014H78.4766V27.8082H81.2976V20.8014H83.6636V27.8082H84.9922V31.9758ZM91.7625 25.7516L91.8535 24.4595H91.799L91.0163 25.7881L87.7768 29.9012H86.2843V20.8014H88.6502V25.1329L88.5411 26.3705H88.614L89.3601 25.0783L92.6361 20.8014H94.1284V29.9012H91.7625V25.7516ZM95.7664 25.3512C95.7664 23.8104 96.1426 22.6244 96.8948 21.7933C97.6471 20.9621 98.7026 20.5465 100.061 20.5465C100.789 20.5465 101.42 20.6618 101.954 20.8923C102.488 21.1228 102.931 21.4475 103.283 21.866C103.635 22.2847 103.899 22.7912 104.075 23.3857C104.25 23.9802 104.338 24.6355 104.338 25.3512C104.338 26.8923 103.965 28.0783 103.219 28.9094C102.473 29.7405 101.42 30.156 100.061 30.156C99.3334 30.156 98.7026 30.0408 98.1688 29.8102C97.6349 29.5796 97.189 29.2552 96.8311 28.8365C96.4732 28.418 96.2062 27.9113 96.0304 27.3168C95.8544 26.7223 95.7664 26.0672 95.7664 25.3512ZM98.2052 25.3512C98.2052 25.7516 98.2416 26.1217 98.3144 26.4615C98.3872 26.8012 98.4964 27.0985 98.642 27.3533C98.7876 27.608 98.9786 27.8052 99.2152 27.9447C99.4516 28.0843 99.7338 28.154 100.061 28.154C100.68 28.154 101.141 27.9296 101.445 27.4807C101.748 27.0318 101.9 26.3219 101.9 25.3512C101.9 24.5141 101.76 23.8376 101.481 23.322C101.202 22.8063 100.729 22.5485 100.061 22.5485C99.479 22.5485 99.0241 22.767 98.6966 23.2036C98.3689 23.6404 98.2052 24.3564 98.2052 25.3512ZM111.309 26.3159H108.342V29.9012H105.976V20.8014H108.342V24.2228H111.309V20.8014H113.675V29.9012H111.309V26.3159ZM115.695 21.3291C116.18 21.1108 116.757 20.9378 117.424 20.8105C118.091 20.683 118.789 20.6194 119.517 20.6194C120.148 20.6194 120.676 20.6951 121.1 20.8467C121.525 20.9986 121.862 21.2139 122.11 21.493C122.359 21.7719 122.535 22.1056 122.638 22.4939C122.741 22.8822 122.793 23.319 122.793 23.8043C122.793 24.3382 122.775 24.8751 122.738 25.4151C122.702 25.955 122.681 26.4857 122.675 27.0075C122.669 27.5293 122.684 28.0358 122.72 28.5272C122.757 29.0186 122.848 29.4826 122.993 29.9194H121.064L120.682 28.6637H120.591C120.348 29.0397 120.011 29.3643 119.581 29.6374C119.15 29.9103 118.595 30.0469 117.915 30.0469C117.491 30.0469 117.109 29.9832 116.769 29.8557C116.429 29.7283 116.138 29.5464 115.895 29.3098C115.653 29.0731 115.464 28.794 115.331 28.4726C115.198 28.151 115.131 27.7901 115.131 27.3897C115.131 26.8315 115.255 26.3614 115.504 25.9792C115.753 25.5969 116.111 25.2876 116.578 25.051C117.045 24.8143 117.603 24.6506 118.252 24.5596C118.901 24.4685 119.626 24.4413 120.427 24.4776C120.512 23.7983 120.463 23.3099 120.281 23.0127C120.099 22.7154 119.693 22.5666 119.062 22.5666C118.589 22.5666 118.088 22.6152 117.56 22.7122C117.033 22.8093 116.599 22.9368 116.259 23.0945L115.695 21.3291ZM118.698 28.0994C119.171 28.0994 119.547 27.9933 119.826 27.781C120.105 27.5686 120.312 27.3412 120.445 27.0985V25.9155C120.069 25.8791 119.708 25.873 119.362 25.8972C119.017 25.9216 118.71 25.9761 118.443 26.0611C118.176 26.1459 117.964 26.2674 117.806 26.425C117.648 26.5827 117.57 26.7829 117.57 27.0256C117.57 27.3653 117.67 27.6294 117.87 27.8174C118.07 28.0054 118.346 28.0994 118.698 28.0994ZM129.727 22.8943H127.925C127.853 23.7558 127.768 24.6111 127.67 25.4604C127.573 26.3098 127.419 27.0711 127.206 27.7446C126.994 28.418 126.706 28.964 126.342 29.3825C125.978 29.8012 125.505 30.0104 124.922 30.0104C124.219 30.0104 123.721 29.9194 123.43 29.7405L123.721 27.8082C123.915 27.8811 124.097 27.9175 124.267 27.9175C124.51 27.9175 124.722 27.8142 124.904 27.605C125.086 27.3988 125.241 27.0286 125.368 26.4917C125.496 25.955 125.599 25.2239 125.678 24.3048C125.756 23.3826 125.814 22.2148 125.851 20.8014H132.093V29.9012H129.727V22.8943ZM136.516 27.9175C136.88 27.9903 137.225 28.0267 137.553 28.0267C138.135 28.0267 138.557 27.9266 138.818 27.7264C139.079 27.5262 139.209 27.2137 139.209 26.7891C139.209 26.0003 138.675 25.606 137.608 25.606C137.207 25.606 136.843 25.6485 136.516 25.7335V27.9175ZM136.516 24.041C136.807 23.9924 137.101 23.959 137.398 23.9407C137.696 23.9226 137.966 23.9135 138.208 23.9135C138.839 23.9135 139.373 23.9832 139.81 24.1228C140.247 24.2623 140.602 24.4595 140.874 24.7142C141.148 24.969 141.345 25.2695 141.466 25.6152C141.587 25.961 141.648 26.334 141.648 26.7344C141.648 27.8386 141.32 28.6637 140.665 29.2097C140.01 29.7556 138.9 30.0287 137.335 30.0287C136.643 30.0287 136.045 30.0165 135.542 29.9923C135.038 29.9679 134.574 29.9377 134.15 29.9012V20.8014H136.516V24.041ZM148.4 26.3159H145.434V29.9012H143.068V20.8014H145.434V24.2228H148.4V20.8014H150.766V29.9012H148.4V26.3159ZM152.404 25.3512C152.404 23.8104 152.78 22.6244 153.532 21.7933C154.285 20.9621 155.34 20.5465 156.699 20.5465C157.427 20.5465 158.058 20.6618 158.592 20.8923C159.126 21.1228 159.569 21.4475 159.921 21.866C160.273 22.2847 160.536 22.7912 160.712 23.3857C160.888 23.9802 160.976 24.6355 160.976 25.3512C160.976 26.8923 160.603 28.0783 159.857 28.9094C159.111 29.7405 158.058 30.156 156.699 30.156C155.971 30.156 155.34 30.0408 154.806 29.8102C154.273 29.5796 153.827 29.2552 153.469 28.8365C153.111 28.418 152.844 27.9113 152.668 27.3168C152.492 26.7223 152.404 26.0672 152.404 25.3512ZM154.843 25.3512C154.843 25.7516 154.879 26.1217 154.952 26.4615C155.025 26.8012 155.134 27.0985 155.28 27.3533C155.425 27.608 155.616 27.8052 155.853 27.9447C156.09 28.0843 156.372 28.154 156.699 28.154C157.318 28.154 157.779 27.9296 158.082 27.4807C158.386 27.0318 158.537 26.3219 158.537 25.3512C158.537 24.5141 158.398 23.8376 158.119 23.322C157.84 22.8063 157.367 22.5485 156.699 22.5485C156.117 22.5485 155.662 22.767 155.334 23.2036C155.007 23.6404 154.843 24.3564 154.843 25.3512ZM169.894 29.1186C169.53 29.4099 169.036 29.6556 168.411 29.8557C167.786 30.0559 167.122 30.156 166.418 30.156C164.95 30.156 163.876 29.7283 163.197 28.873C162.517 28.0176 162.177 26.8437 162.177 25.3512C162.177 23.7498 162.56 22.5485 163.324 21.7477C164.088 20.9468 165.162 20.5465 166.545 20.5465C167.006 20.5465 167.455 20.6073 167.892 20.7285C168.329 20.8498 168.717 21.0501 169.057 21.3291C169.397 21.6082 169.67 21.9844 169.876 22.4575C170.082 22.9307 170.185 23.5192 170.185 24.2228C170.185 24.4776 170.17 24.7507 170.14 25.0419C170.109 25.3331 170.064 25.6364 170.003 25.9518H164.562C164.598 26.7163 164.795 27.2926 165.15 27.6809C165.508 28.0692 166.084 28.2633 166.882 28.2633C167.379 28.2633 167.822 28.1874 168.217 28.0358C168.608 27.8841 168.908 27.7294 169.115 27.5718L169.894 29.1186ZM166.518 22.4393C165.902 22.4393 165.444 22.6244 165.15 22.9944C164.856 23.3645 164.677 23.8589 164.616 24.4776H167.983C168.032 23.8225 167.932 23.319 167.686 22.9672C167.437 22.6152 167.049 22.4393 166.518 22.4393ZM176.027 25.3512C176.027 23.8104 176.403 22.6244 177.156 21.7933C177.908 20.9621 178.963 20.5465 180.322 20.5465C181.05 20.5465 181.681 20.6618 182.215 20.8923C182.749 21.1228 183.192 21.4475 183.544 21.866C183.896 22.2847 184.16 22.7912 184.336 23.3857C184.511 23.9802 184.599 24.6355 184.599 25.3512C184.599 26.8923 184.226 28.0783 183.48 28.9094C182.734 29.7405 181.681 30.156 180.322 30.156C179.594 30.156 178.963 30.0408 178.43 29.8102C177.896 29.5796 177.45 29.2552 177.092 28.8365C176.734 28.418 176.467 27.9113 176.291 27.3168C176.115 26.7223 176.027 26.0672 176.027 25.3512ZM178.466 25.3512C178.466 25.7516 178.502 26.1217 178.575 26.4615C178.648 26.8012 178.757 27.0985 178.903 27.3533C179.048 27.608 179.24 27.8052 179.476 27.9447C179.713 28.0843 179.995 28.154 180.322 28.154C180.941 28.154 181.402 27.9296 181.706 27.4807C182.009 27.0318 182.161 26.3219 182.161 25.3512C182.161 24.5141 182.021 23.8376 181.742 23.322C181.463 22.8063 180.99 22.5485 180.322 22.5485C179.74 22.5485 179.285 22.767 178.957 23.2036C178.63 23.6404 178.466 24.3564 178.466 25.3512ZM192.68 29.337C192.316 29.604 191.876 29.8072 191.361 29.9468C190.845 30.0863 190.314 30.156 189.768 30.156C189.04 30.156 188.424 30.0408 187.921 29.8102C187.417 29.5796 187.008 29.2552 186.692 28.8365C186.377 28.418 186.149 27.9113 186.01 27.3168C185.87 26.7223 185.8 26.0672 185.8 25.3512C185.8 23.8104 186.146 22.6244 186.838 21.7933C187.529 20.9621 188.537 20.5465 189.859 20.5465C190.526 20.5465 191.063 20.601 191.47 20.7104C191.876 20.8195 192.243 20.9591 192.571 21.1289L192.007 23.0582C191.728 22.9247 191.451 22.8216 191.179 22.7487C190.906 22.676 190.593 22.6395 190.241 22.6395C189.586 22.6395 189.089 22.8548 188.749 23.2856C188.409 23.7163 188.239 24.4049 188.239 25.3512C188.239 25.7395 188.282 26.0974 188.367 26.425C188.452 26.7527 188.579 27.0379 188.749 27.2805C188.919 27.5232 189.14 27.7142 189.413 27.8537C189.686 27.9933 190.005 28.0631 190.369 28.0631C190.769 28.0631 191.109 28.0114 191.388 27.9083C191.667 27.8052 191.916 27.6809 192.134 27.5353L192.68 29.337ZM194.118 20.8195C194.543 20.7831 195.055 20.7466 195.656 20.7104C196.256 20.6739 196.903 20.6558 197.594 20.6558C198.929 20.6558 199.878 20.8467 200.442 21.229C201.007 21.6112 201.289 22.1846 201.289 22.9489C201.289 23.3736 201.167 23.786 200.925 24.1866C200.682 24.5869 200.3 24.8782 199.778 25.06V25.1329C200.433 25.2785 200.907 25.5363 201.198 25.9065C201.489 26.2764 201.634 26.7527 201.634 27.3351C201.634 28.245 201.286 28.9245 200.588 29.3734C199.89 29.8223 198.771 30.0469 197.23 30.0469C196.72 30.0469 196.181 30.0317 195.61 30.0013C195.04 29.9709 194.543 29.9316 194.118 29.8831V20.8195ZM196.429 28.0813C196.599 28.1055 196.757 28.1238 196.903 28.1359C197.048 28.1479 197.23 28.154 197.448 28.154C198.104 28.154 198.571 28.0631 198.85 27.8811C199.129 27.699 199.268 27.4199 199.268 27.0439C199.268 26.7283 199.15 26.4706 198.914 26.2704C198.677 26.0702 198.255 25.9701 197.649 25.9701H196.429V28.0813ZM197.685 24.5141C198.073 24.5141 198.392 24.42 198.641 24.2319C198.889 24.044 199.014 23.8043 199.014 23.5131C199.014 23.1976 198.908 22.9579 198.695 22.7942C198.483 22.6304 198.098 22.5485 197.54 22.5485C197.26 22.5485 197.039 22.5545 196.875 22.5666C196.711 22.5789 196.563 22.591 196.429 22.6031V24.5141H197.685ZM202.872 25.3512C202.872 23.8104 203.248 22.6244 204 21.7933C204.753 20.9621 205.808 20.5465 207.167 20.5465C207.895 20.5465 208.526 20.6618 209.06 20.8923C209.594 21.1228 210.037 21.4475 210.388 21.866C210.74 22.2847 211.004 22.7912 211.18 23.3857C211.356 23.9802 211.444 24.6355 211.444 25.3512C211.444 26.8923 211.071 28.0783 210.325 28.9094C209.579 29.7405 208.526 30.156 207.167 30.156C206.439 30.156 205.808 30.0408 205.274 29.8102C204.74 29.5796 204.295 29.2552 203.937 28.8365C203.579 28.418 203.312 27.9113 203.136 27.3168C202.96 26.7223 202.872 26.0672 202.872 25.3512ZM205.311 25.3512C205.311 25.7516 205.347 26.1217 205.42 26.4615C205.493 26.8012 205.602 27.0985 205.748 27.3533C205.893 27.608 206.084 27.8052 206.321 27.9447C206.557 28.0843 206.84 28.154 207.167 28.154C207.786 28.154 208.247 27.9296 208.55 27.4807C208.854 27.0318 209.005 26.3219 209.005 25.3512C209.005 24.5141 208.866 23.8376 208.587 23.322C208.308 22.8063 207.834 22.5485 207.167 22.5485C206.585 22.5485 206.13 22.767 205.802 23.2036C205.475 23.6404 205.311 24.3564 205.311 25.3512ZM220.362 29.1186C219.998 29.4099 219.504 29.6556 218.879 29.8557C218.254 30.0559 217.59 30.156 216.886 30.156C215.418 30.156 214.344 29.7283 213.664 28.873C212.985 28.0176 212.645 26.8437 212.645 25.3512C212.645 23.7498 213.027 22.5485 213.792 21.7477C214.556 20.9468 215.63 20.5465 217.013 20.5465C217.474 20.5465 217.923 20.6073 218.36 20.7285C218.797 20.8498 219.185 21.0501 219.525 21.3291C219.864 21.6082 220.138 21.9844 220.344 22.4575C220.55 22.9307 220.653 23.5192 220.653 24.2228C220.653 24.4776 220.638 24.7507 220.608 25.0419C220.577 25.3331 220.532 25.6364 220.471 25.9518H215.029C215.066 26.7163 215.263 27.2926 215.618 27.6809C215.976 28.0692 216.552 28.2633 217.35 28.2633C217.847 28.2633 218.29 28.1874 218.685 28.0358C219.076 27.8841 219.376 27.7294 219.583 27.5718L220.362 29.1186ZM216.986 22.4393C216.37 22.4393 215.912 22.6244 215.618 22.9944C215.324 23.3645 215.145 23.8589 215.084 24.4776H218.451C218.5 23.8225 218.4 23.319 218.154 22.9672C217.905 22.6152 217.517 22.4393 216.986 22.4393ZM227.66 26.3159H224.693V29.9012H222.327V20.8014H224.693V24.2228H227.66V20.8014H230.026V29.9012H227.66V26.3159ZM237.579 25.7516L237.67 24.4595H237.615L236.833 25.7881L233.593 29.9012H232.101V20.8014H234.467V25.1329L234.358 26.3705H234.43L235.177 25.0783L238.453 20.8014H239.945V29.9012H237.579V25.7516ZM249.3 29.1186C248.935 29.4099 248.441 29.6556 247.816 29.8557C247.192 30.0559 246.527 30.156 245.824 30.156C244.355 30.156 243.282 29.7283 242.602 28.873C241.923 28.0176 241.583 26.8437 241.583 25.3512C241.583 23.7498 241.965 22.5485 242.73 21.7477C243.494 20.9468 244.568 20.5465 245.951 20.5465C246.412 20.5465 246.861 20.6073 247.298 20.7285C247.734 20.8498 248.123 21.0501 248.462 21.3291C248.802 21.6082 249.075 21.9844 249.281 22.4575C249.487 22.9307 249.591 23.5192 249.591 24.2228C249.591 24.4776 249.575 24.7507 249.545 25.0419C249.515 25.3331 249.469 25.6364 249.409 25.9518H243.967C244.004 26.7163 244.201 27.2926 244.556 27.6809C244.913 28.0692 245.49 28.2633 246.288 28.2633C246.785 28.2633 247.228 28.1874 247.622 28.0358C248.013 27.8841 248.314 27.7294 248.52 27.5718L249.3 29.1186ZM245.924 22.4393C245.308 22.4393 244.85 22.6244 244.556 22.9944C244.261 23.3645 244.082 23.8589 244.022 24.4776H247.389C247.437 23.8225 247.337 23.319 247.091 22.9672C246.843 22.6152 246.454 22.4393 245.924 22.4393ZM256.816 26.1338V24.4776H257.926C258.351 24.4776 258.7 24.3928 258.973 24.2228C259.246 24.0531 259.382 23.8285 259.382 23.5496C259.382 23.2219 259.261 22.9883 259.018 22.8488C258.775 22.7092 258.405 22.6395 257.908 22.6395C257.435 22.6395 257.016 22.7001 256.652 22.8216C256.288 22.9428 255.997 23.0703 255.778 23.2036L255.269 21.402C255.633 21.1957 256.115 21.0167 256.716 20.8651C257.316 20.7134 257.957 20.6375 258.636 20.6375C259.679 20.6375 260.459 20.8316 260.975 21.2199C261.49 21.6082 261.748 22.1723 261.748 22.9126C261.748 23.1188 261.721 23.3281 261.666 23.5403C261.612 23.7528 261.524 23.956 261.402 24.1501C261.281 24.3443 261.132 24.5171 260.956 24.6687C260.78 24.8204 260.571 24.9388 260.328 25.0238V25.0965C260.972 25.2421 261.426 25.4999 261.694 25.87C261.96 26.24 262.094 26.7344 262.094 27.3533C262.094 27.7415 262.015 28.1024 261.857 28.4361C261.7 28.7698 261.46 29.058 261.138 29.3007C260.817 29.5434 260.413 29.7375 259.928 29.8831C259.443 30.0287 258.866 30.1014 258.199 30.1014C257.532 30.1014 256.952 30.0317 256.461 29.8922C255.97 29.7526 255.56 29.5919 255.233 29.4099L255.742 27.5718C256.021 27.7294 256.358 27.8567 256.752 27.9538C257.147 28.0509 257.586 28.0994 258.072 28.0994C259.176 28.0994 259.728 27.7476 259.728 27.0439C259.728 26.7283 259.585 26.4979 259.3 26.3523C259.015 26.2067 258.484 26.1338 257.708 26.1338H256.816ZM263.677 21.3291C264.163 21.1108 264.739 20.9378 265.406 20.8105C266.074 20.683 266.771 20.6194 267.499 20.6194C268.13 20.6194 268.658 20.6951 269.083 20.8467C269.507 20.9986 269.844 21.2139 270.093 21.493C270.341 21.7719 270.517 22.1056 270.621 22.4939C270.724 22.8822 270.775 23.319 270.775 23.8043C270.775 24.3382 270.757 24.8751 270.721 25.4151C270.684 25.955 270.663 26.4857 270.657 27.0075C270.651 27.5293 270.666 28.0358 270.702 28.5272C270.739 29.0186 270.83 29.4826 270.975 29.9194H269.046L268.664 28.6637H268.573C268.33 29.0397 267.994 29.3643 267.563 29.6374C267.132 29.9103 266.577 30.0469 265.898 30.0469C265.473 30.0469 265.091 29.9832 264.751 29.8557C264.411 29.7283 264.12 29.5464 263.877 29.3098C263.635 29.0731 263.447 28.794 263.313 28.4726C263.18 28.151 263.113 27.7901 263.113 27.3897C263.113 26.8315 263.237 26.3614 263.486 25.9792C263.735 25.5969 264.093 25.2876 264.56 25.051C265.027 24.8143 265.585 24.6506 266.234 24.5596C266.883 24.4685 267.608 24.4413 268.409 24.4776C268.494 23.7983 268.446 23.3099 268.264 23.0127C268.082 22.7154 267.675 22.5666 267.044 22.5666C266.571 22.5666 266.071 22.6152 265.543 22.7122C265.015 22.8093 264.581 22.9368 264.242 23.0945L263.677 21.3291ZM266.68 28.0994C267.153 28.0994 267.53 27.9933 267.809 27.781C268.088 27.5686 268.294 27.3412 268.427 27.0985V25.9155C268.051 25.8791 267.69 25.873 267.345 25.8972C266.999 25.9216 266.692 25.9761 266.425 26.0611C266.159 26.1459 265.946 26.2674 265.788 26.425C265.631 26.5827 265.552 26.7829 265.552 27.0256C265.552 27.3653 265.652 27.6294 265.852 27.8174C266.052 28.0054 266.328 28.0994 266.68 28.0994ZM278.001 22.8943H275.125V29.9012H272.759V20.8014H280.366V29.9012H278.001V22.8943ZM282.387 21.3291C282.872 21.1108 283.448 20.9378 284.116 20.8105C284.783 20.683 285.481 20.6194 286.209 20.6194C286.84 20.6194 287.367 20.6951 287.792 20.8467C288.217 20.9986 288.553 21.2139 288.802 21.493C289.051 21.7719 289.227 22.1056 289.33 22.4939C289.433 22.8822 289.485 23.319 289.485 23.8043C289.485 24.3382 289.466 24.8751 289.43 25.4151C289.394 25.955 289.372 26.4857 289.366 27.0075C289.36 27.5293 289.375 28.0358 289.412 28.5272C289.448 29.0186 289.539 29.4826 289.685 29.9194H287.755L287.373 28.6637H287.282C287.04 29.0397 286.703 29.3643 286.272 29.6374C285.841 29.9103 285.286 30.0469 284.607 30.0469C284.182 30.0469 283.8 29.9832 283.46 29.8557C283.121 29.7283 282.829 29.5464 282.587 29.3098C282.344 29.0731 282.156 28.794 282.023 28.4726C281.889 28.151 281.822 27.7901 281.822 27.3897C281.822 26.8315 281.947 26.3614 282.195 25.9792C282.444 25.5969 282.802 25.2876 283.269 25.051C283.737 24.8143 284.295 24.6506 284.944 24.5596C285.593 24.4685 286.318 24.4413 287.118 24.4776C287.203 23.7983 287.155 23.3099 286.973 23.0127C286.791 22.7154 286.385 22.5666 285.754 22.5666C285.28 22.5666 284.78 22.6152 284.252 22.7122C283.724 22.8093 283.29 22.9368 282.951 23.0945L282.387 21.3291ZM285.39 28.0994C285.863 28.0994 286.239 27.9933 286.518 27.781C286.797 27.5686 287.003 27.3412 287.137 27.0985V25.9155C286.761 25.8791 286.4 25.873 286.054 25.8972C285.708 25.9216 285.402 25.9761 285.135 26.0611C284.868 26.1459 284.655 26.2674 284.498 26.425C284.34 26.5827 284.261 26.7829 284.261 27.0256C284.261 27.3653 284.361 27.6294 284.561 27.8174C284.762 28.0054 285.038 28.0994 285.39 28.0994ZM297.911 29.337C297.547 29.604 297.107 29.8072 296.592 29.9468C296.076 30.0863 295.545 30.156 294.999 30.156C294.271 30.156 293.655 30.0408 293.152 29.8102C292.648 29.5796 292.239 29.2552 291.923 28.8365C291.608 28.418 291.38 27.9113 291.241 27.3168C291.101 26.7223 291.031 26.0672 291.031 25.3512C291.031 23.8104 291.377 22.6244 292.069 21.7933C292.76 20.9621 293.768 20.5465 295.09 20.5465C295.757 20.5465 296.294 20.601 296.701 20.7104C297.107 20.8195 297.474 20.9591 297.802 21.1289L297.238 23.0582C296.959 22.9247 296.683 22.8216 296.41 22.7487C296.137 22.676 295.824 22.6395 295.472 22.6395C294.817 22.6395 294.32 22.8548 293.98 23.2856C293.64 23.7163 293.47 24.4049 293.47 25.3512C293.47 25.7395 293.513 26.0974 293.598 26.425C293.683 26.7527 293.81 27.0379 293.98 27.2805C294.15 27.5232 294.371 27.7142 294.644 27.8537C294.917 27.9933 295.236 28.0631 295.6 28.0631C296 28.0631 296.34 28.0114 296.619 27.9083C296.898 27.8052 297.147 27.6809 297.365 27.5353L297.911 29.337ZM298.603 25.3512C298.603 23.8104 298.979 22.6244 299.731 21.7933C300.484 20.9621 301.539 20.5465 302.898 20.5465C303.626 20.5465 304.257 20.6618 304.791 20.8923C305.325 21.1228 305.767 21.4475 306.119 21.866C306.471 22.2847 306.735 22.7912 306.911 23.3857C307.087 23.9802 307.175 24.6355 307.175 25.3512C307.175 26.8923 306.802 28.0783 306.056 28.9094C305.309 29.7405 304.257 30.156 302.898 30.156C302.17 30.156 301.539 30.0408 301.005 29.8102C300.471 29.5796 300.025 29.2552 299.668 28.8365C299.31 28.418 299.043 27.9113 298.867 27.3168C298.691 26.7223 298.603 26.0672 298.603 25.3512ZM301.042 25.3512C301.042 25.7516 301.078 26.1217 301.151 26.4615C301.224 26.8012 301.333 27.0985 301.478 27.3533C301.624 27.608 301.815 27.8052 302.052 27.9447C302.288 28.0843 302.57 28.154 302.898 28.154C303.517 28.154 303.978 27.9296 304.281 27.4807C304.584 27.0318 304.736 26.3219 304.736 25.3512C304.736 24.5141 304.597 23.8376 304.318 23.322C304.038 22.8063 303.565 22.5485 302.898 22.5485C302.316 22.5485 301.861 22.767 301.533 23.2036C301.205 23.6404 301.042 24.3564 301.042 25.3512ZM308.813 20.8195C309.238 20.7831 309.75 20.7466 310.351 20.7104C310.951 20.6739 311.597 20.6558 312.289 20.6558C313.624 20.6558 314.573 20.8467 315.137 21.229C315.702 21.6112 315.984 22.1846 315.984 22.9489C315.984 23.3736 315.862 23.786 315.62 24.1866C315.377 24.5869 314.995 24.8782 314.473 25.06V25.1329C315.128 25.2785 315.602 25.5363 315.893 25.9065C316.184 26.2764 316.329 26.7527 316.329 27.3351C316.329 28.245 315.981 28.9245 315.283 29.3734C314.585 29.8223 313.466 30.0469 311.925 30.0469C311.415 30.0469 310.876 30.0317 310.305 30.0013C309.735 29.9709 309.238 29.9316 308.813 29.8831V20.8195ZM311.124 28.0813C311.294 28.1055 311.452 28.1238 311.598 28.1359C311.743 28.1479 311.925 28.154 312.143 28.154C312.799 28.154 313.266 28.0631 313.545 27.8811C313.824 27.699 313.963 27.4199 313.963 27.0439C313.963 26.7283 313.845 26.4706 313.609 26.2704C313.372 26.0702 312.95 25.9701 312.344 25.9701H311.124V28.0813ZM312.38 24.5141C312.768 24.5141 313.087 24.42 313.336 24.2319C313.584 24.044 313.709 23.8043 313.709 23.5131C313.709 23.1976 313.603 22.9579 313.39 22.7942C313.178 22.6304 312.793 22.5485 312.234 22.5485C311.955 22.5485 311.734 22.5545 311.57 22.5666C311.406 22.5789 311.258 22.591 311.124 22.6031V24.5141H312.38Z" fill="white"/>
    <path d="M61.6601 46.9091L59.8036 50.6036H57.1465L59.5306 46.4359L60.1494 45.8899L59.2212 45.1983L57.3467 41.5038H59.8763L61.569 45.1983H62.3516V41.5038H64.6084V45.3804L65.3 45.1254L67.0108 41.5038H69.5223L67.5386 45.1983L66.8287 45.7807L67.7569 46.5088L69.9592 50.6036H67.2474L65.391 46.8362H64.6084V50.6036H62.3516V46.6542L61.6601 46.9091ZM76.3837 46.454L76.4747 45.1619H76.4202L75.6376 46.4904L72.398 50.6036H70.9055V41.5038H73.2714V45.8353L73.1623 47.0729H73.2352L73.9813 45.7807L77.2573 41.5038H78.7497V50.6036H76.3837V46.454ZM89.8698 52.6784H88.1407L87.8678 50.6036H81.7526L81.4797 52.6784H79.7506V48.5106H80.8244C80.9215 48.3773 81.0459 48.1497 81.1976 47.8281C81.3492 47.5067 81.5008 47.0668 81.6525 46.5088C81.8041 45.9505 81.9346 45.2589 82.0438 44.4339C82.153 43.6088 82.2075 42.6322 82.2075 41.5038H88.5411V48.5106H89.8698V52.6784ZM86.1751 48.6199V43.5056H84.2641C84.24 43.9425 84.1975 44.4066 84.1368 44.898C84.076 45.3894 84.0003 45.8655 83.9093 46.3267C83.8183 46.7877 83.7121 47.2185 83.5909 47.6188C83.4694 48.0192 83.3359 48.3529 83.1903 48.6199H86.1751ZM94.1649 46.8362H93.5279V50.6036H91.162V41.5038H93.5279V45.3804L94.0922 45.1254L96.2215 41.5038H98.7514L96.5491 44.9617L95.6209 45.6533L96.6402 46.3632L99.0971 50.6036H96.3854L94.1649 46.8362ZM105.54 46.454L105.631 45.1619H105.576L104.794 46.4904L101.554 50.6036H100.062V41.5038H102.428V45.8353L102.318 47.0729H102.391L103.137 45.7807L106.413 41.5038H107.906V50.6036H105.54V46.454ZM112.037 45.9445L109.307 41.5038H112.128L113.311 43.4511L113.821 44.7251L114.367 43.4511L115.604 41.5038H118.17L115.422 45.8718L118.352 50.6036H115.604L114.203 48.4196L113.657 47.0729L113.074 48.4196L111.673 50.6036H109.089L112.037 45.9445ZM126.852 46.6179L127.179 48.0375H127.289L127.525 46.5996L128.908 41.5038H131.347L128.581 49.7119C128.35 50.3914 128.129 51.0131 127.916 51.5774C127.704 52.1415 127.47 52.6298 127.216 53.0425C126.961 53.4549 126.679 53.7735 126.369 53.9979C126.06 54.2224 125.693 54.3346 125.268 54.3346C124.637 54.3346 124.134 54.2315 123.758 54.0253L124.195 52.1324C124.377 52.2053 124.559 52.2416 124.741 52.2416C125.02 52.2416 125.29 52.1233 125.55 51.8867C125.811 51.6501 126.008 51.2225 126.142 50.6036L122.338 41.5038H125.177L126.852 46.6179ZM138.117 43.5967H134.678V50.6036H132.239V41.5038H138.117V43.5967ZM143.395 43.5967H141.593C141.521 44.4582 141.436 45.3135 141.339 46.1628C141.242 47.0122 141.087 47.7735 140.875 48.447C140.662 49.1204 140.374 49.6664 140.01 50.0849C139.646 50.5036 139.173 50.7128 138.59 50.7128C137.887 50.7128 137.389 50.6218 137.098 50.4429L137.389 48.5106C137.584 48.5835 137.765 48.6199 137.935 48.6199C138.178 48.6199 138.39 48.5166 138.572 48.3074C138.754 48.1012 138.909 47.731 139.036 47.1941C139.164 46.6574 139.267 45.9263 139.346 45.0072C139.425 44.085 139.482 42.9172 139.519 41.5038H145.761V50.6036H143.395V43.5967ZM155.098 49.821C154.734 50.1122 154.239 50.3579 153.614 50.5581C152.99 50.7583 152.325 50.8584 151.622 50.8584C150.153 50.8584 149.08 50.4307 148.4 49.5753C147.721 48.72 147.381 47.5461 147.381 46.0536C147.381 44.4522 147.763 43.2509 148.528 42.4501C149.292 41.6492 150.366 41.2489 151.749 41.2489C152.21 41.2489 152.659 41.3097 153.096 41.4309C153.533 41.5522 153.921 41.7525 154.26 42.0315C154.6 42.3106 154.873 42.6868 155.08 43.1599C155.286 43.6331 155.389 44.2216 155.389 44.9252C155.389 45.18 155.374 45.4531 155.344 45.7443C155.313 46.0355 155.268 46.3388 155.207 46.6542H149.765C149.802 47.4187 149.999 47.995 150.354 48.3833C150.712 48.7716 151.288 48.9657 152.086 48.9657C152.583 48.9657 153.026 48.8898 153.42 48.7382C153.812 48.5865 154.112 48.4318 154.318 48.2741L155.098 49.821ZM151.722 43.1417C151.106 43.1417 150.648 43.3268 150.354 43.6968C150.059 44.0669 149.88 44.5613 149.82 45.18H153.187C153.235 44.5249 153.135 44.0214 152.89 43.6696C152.641 43.3175 152.253 43.1417 151.722 43.1417ZM157.063 41.5219C157.488 41.4855 158 41.449 158.601 41.4128C159.202 41.3763 159.848 41.3582 160.539 41.3582C161.874 41.3582 162.824 41.5491 163.388 41.9314C163.952 42.3136 164.234 42.887 164.234 43.6512C164.234 44.076 164.113 44.4884 163.87 44.889C163.627 45.2893 163.245 45.5806 162.724 45.7624V45.8353C163.379 45.9809 163.852 46.2387 164.143 46.6088C164.434 46.9788 164.58 47.4551 164.58 48.0375C164.58 48.9474 164.231 49.6269 163.533 50.0758C162.836 50.5247 161.716 50.7492 160.176 50.7492C159.666 50.7492 159.126 50.7341 158.556 50.7037C157.985 50.6733 157.488 50.634 157.063 50.5855V41.5219ZM159.375 48.7837C159.545 48.8078 159.702 48.8262 159.848 48.8383C159.993 48.8503 160.176 48.8564 160.394 48.8564C161.049 48.8564 161.516 48.7655 161.795 48.5835C162.074 48.4014 162.214 48.1223 162.214 47.7463C162.214 47.4307 162.096 47.173 161.859 46.9728C161.622 46.7726 161.201 46.6725 160.594 46.6725H159.375V48.7837ZM160.63 45.2164C161.019 45.2164 161.337 45.1224 161.586 44.9343C161.835 44.7464 161.959 44.5067 161.959 44.2155C161.959 43.9 161.853 43.6603 161.64 43.4966C161.428 43.3328 161.043 43.2509 160.485 43.2509C160.206 43.2509 159.984 43.2569 159.82 43.269C159.657 43.2813 159.508 43.2934 159.375 43.3055V45.2164H160.63ZM165.817 46.0536C165.817 44.5128 166.193 43.3268 166.946 42.4957C167.698 41.6645 168.754 41.2489 170.113 41.2489C170.841 41.2489 171.471 41.3642 172.005 41.5946C172.539 41.8252 172.982 42.1499 173.334 42.5684C173.686 42.987 173.95 43.4936 174.126 44.0881C174.301 44.6826 174.389 45.3379 174.389 46.0536C174.389 47.5947 174.016 48.7807 173.27 49.6118C172.524 50.4429 171.471 50.8584 170.113 50.8584C169.384 50.8584 168.754 50.7432 168.22 50.5126C167.686 50.282 167.24 49.9576 166.882 49.5389C166.524 49.1204 166.257 48.6137 166.081 48.0192C165.905 47.4247 165.817 46.7696 165.817 46.0536ZM168.256 46.0536C168.256 46.454 168.293 46.8241 168.365 47.1639C168.438 47.5036 168.547 47.8009 168.693 48.0557C168.839 48.3104 169.03 48.5076 169.266 48.6471C169.503 48.7867 169.785 48.8564 170.113 48.8564C170.731 48.8564 171.192 48.632 171.496 48.1831C171.799 47.7342 171.951 47.0243 171.951 46.0536C171.951 45.2164 171.811 44.54 171.532 44.0244C171.253 43.5087 170.78 43.2509 170.113 43.2509C169.53 43.2509 169.075 43.4694 168.748 43.906C168.42 44.3428 168.256 45.0588 168.256 46.0536ZM185.073 52.6784H183.344L183.071 50.6036H176.956L176.683 52.6784H174.954V48.5106H176.027C176.124 48.3773 176.249 48.1497 176.401 47.8281C176.552 47.5067 176.704 47.0668 176.855 46.5088C177.007 45.9505 177.138 45.2589 177.247 44.4339C177.356 43.6088 177.411 42.6322 177.411 41.5038H183.744V48.5106H185.073V52.6784ZM181.378 48.6199V43.5056H179.467C179.443 43.9425 179.4 44.4066 179.34 44.898C179.279 45.3894 179.203 45.8655 179.112 46.3267C179.021 46.7877 178.915 47.2185 178.794 47.6188C178.672 48.0192 178.539 48.3529 178.393 48.6199H181.378ZM185.928 46.0536C185.928 44.5128 186.304 43.3268 187.057 42.4957C187.809 41.6645 188.864 41.2489 190.223 41.2489C190.951 41.2489 191.582 41.3642 192.116 41.5946C192.65 41.8252 193.093 42.1499 193.445 42.5684C193.797 42.987 194.06 43.4936 194.236 44.0881C194.412 44.6826 194.5 45.3379 194.5 46.0536C194.5 47.5947 194.127 48.7807 193.381 49.6118C192.635 50.4429 191.582 50.8584 190.223 50.8584C189.495 50.8584 188.864 50.7432 188.331 50.5126C187.797 50.282 187.351 49.9576 186.993 49.5389C186.635 49.1204 186.368 48.6137 186.192 48.0192C186.016 47.4247 185.928 46.7696 185.928 46.0536ZM188.367 46.0536C188.367 46.454 188.403 46.8241 188.476 47.1639C188.549 47.5036 188.658 47.8009 188.804 48.0557C188.949 48.3104 189.141 48.5076 189.377 48.6471C189.614 48.7867 189.896 48.8564 190.223 48.8564C190.842 48.8564 191.303 48.632 191.607 48.1831C191.91 47.7342 192.061 47.0243 192.061 46.0536C192.061 45.2164 191.922 44.54 191.643 44.0244C191.364 43.5087 190.891 43.2509 190.223 43.2509C189.641 43.2509 189.186 43.4694 188.858 43.906C188.531 44.3428 188.367 45.0588 188.367 46.0536ZM196.138 41.5038H197.867L198.14 42.5957H198.213C198.528 42.1346 198.901 41.7948 199.332 41.5765C199.763 41.3582 200.288 41.2489 200.906 41.2489C202.047 41.2489 202.902 41.6099 203.473 42.3317C204.043 43.0537 204.328 44.2155 204.328 45.817C204.328 46.5936 204.237 47.2944 204.055 47.9191C203.873 48.544 203.603 49.0749 203.245 49.5117C202.887 49.9485 202.45 50.282 201.935 50.5126C201.419 50.7432 200.828 50.8584 200.16 50.8584C199.784 50.8584 199.475 50.8312 199.232 50.7766C198.989 50.7219 198.747 50.634 198.504 50.5126V54.2436H196.138V41.5038ZM200.197 43.2509C199.736 43.2509 199.375 43.3661 199.114 43.5967C198.853 43.8273 198.65 44.173 198.504 44.634V48.4196C198.674 48.5531 198.859 48.6592 199.059 48.7382C199.259 48.8171 199.523 48.8564 199.851 48.8564C200.53 48.8564 201.04 48.6167 201.38 48.1376C201.719 47.6583 201.889 46.8666 201.889 45.7624C201.889 44.9617 201.756 44.3428 201.489 43.906C201.222 43.4694 200.791 43.2509 200.197 43.2509ZM205.529 46.0536C205.529 44.5128 205.905 43.3268 206.658 42.4957C207.41 41.6645 208.465 41.2489 209.824 41.2489C210.552 41.2489 211.183 41.3642 211.717 41.5946C212.251 41.8252 212.694 42.1499 213.046 42.5684C213.398 42.987 213.661 43.4936 213.837 44.0881C214.013 44.6826 214.101 45.3379 214.101 46.0536C214.101 47.5947 213.728 48.7807 212.982 49.6118C212.236 50.4429 211.183 50.8584 209.824 50.8584C209.096 50.8584 208.465 50.7432 207.931 50.5126C207.398 50.282 206.952 49.9576 206.594 49.5389C206.236 49.1204 205.969 48.6137 205.793 48.0192C205.617 47.4247 205.529 46.7696 205.529 46.0536ZM207.968 46.0536C207.968 46.454 208.004 46.8241 208.077 47.1639C208.15 47.5036 208.259 47.8009 208.405 48.0557C208.55 48.3104 208.741 48.5076 208.978 48.6471C209.215 48.7867 209.497 48.8564 209.824 48.8564C210.443 48.8564 210.904 48.632 211.208 48.1831C211.511 47.7342 211.662 47.0243 211.662 46.0536C211.662 45.2164 211.523 44.54 211.244 44.0244C210.965 43.5087 210.492 43.2509 209.824 43.2509C209.242 43.2509 208.787 43.4694 208.459 43.906C208.132 44.3428 207.968 45.0588 207.968 46.0536ZM224.785 52.6784H223.056L222.783 50.6036H216.667L216.395 52.6784H214.665V48.5106H215.739C215.836 48.3773 215.961 48.1497 216.112 47.8281C216.264 47.5067 216.416 47.0668 216.567 46.5088C216.719 45.9505 216.849 45.2589 216.959 44.4339C217.068 43.6088 217.122 42.6322 217.122 41.5038H223.456V48.5106H224.785V52.6784ZM221.09 48.6199V43.5056H219.179C219.155 43.9425 219.112 44.4066 219.052 44.898C218.991 45.3894 218.915 45.8655 218.824 46.3267C218.733 46.7877 218.627 47.2185 218.506 47.6188C218.384 48.0192 218.251 48.3529 218.105 48.6199H221.09ZM225.64 46.0536C225.64 44.5128 226.016 43.3268 226.768 42.4957C227.521 41.6645 228.576 41.2489 229.935 41.2489C230.663 41.2489 231.294 41.3642 231.828 41.5946C232.362 41.8252 232.805 42.1499 233.156 42.5684C233.508 42.987 233.772 43.4936 233.948 44.0881C234.124 44.6826 234.212 45.3379 234.212 46.0536C234.212 47.5947 233.839 48.7807 233.093 49.6118C232.347 50.4429 231.294 50.8584 229.935 50.8584C229.207 50.8584 228.576 50.7432 228.042 50.5126C227.508 50.282 227.063 49.9576 226.705 49.5389C226.347 49.1204 226.08 48.6137 225.904 48.0192C225.728 47.4247 225.64 46.7696 225.64 46.0536ZM228.079 46.0536C228.079 46.454 228.115 46.8241 228.188 47.1639C228.261 47.5036 228.37 47.8009 228.516 48.0557C228.661 48.3104 228.852 48.5076 229.089 48.6471C229.325 48.7867 229.608 48.8564 229.935 48.8564C230.554 48.8564 231.015 48.632 231.318 48.1831C231.622 47.7342 231.773 47.0243 231.773 46.0536C231.773 45.2164 231.634 44.54 231.355 44.0244C231.076 43.5087 230.602 43.2509 229.935 43.2509C229.353 43.2509 228.898 43.4694 228.57 43.906C228.243 44.3428 228.079 45.0588 228.079 46.0536ZM235.85 41.5219C236.275 41.4855 236.787 41.449 237.388 41.4128C237.989 41.3763 238.635 41.3582 239.326 41.3582C240.661 41.3582 241.61 41.5491 242.175 41.9314C242.739 42.3136 243.021 42.887 243.021 43.6512C243.021 44.076 242.9 44.4884 242.657 44.889C242.414 45.2893 242.032 45.5806 241.51 45.7624V45.8353C242.165 45.9809 242.639 46.2387 242.93 46.6088C243.221 46.9788 243.367 47.4551 243.367 48.0375C243.367 48.9474 243.018 49.6269 242.32 50.0758C241.623 50.5247 240.503 50.7492 238.962 50.7492C238.453 50.7492 237.913 50.7341 237.343 50.7037C236.772 50.6733 236.275 50.634 235.85 50.5855V41.5219ZM238.161 48.7837C238.331 48.8078 238.489 48.8262 238.635 48.8383C238.78 48.8503 238.962 48.8564 239.181 48.8564C239.836 48.8564 240.303 48.7655 240.582 48.5835C240.861 48.4014 241.001 48.1223 241.001 47.7463C241.001 47.4307 240.882 47.173 240.646 46.9728C240.409 46.7726 239.987 46.6725 239.381 46.6725H238.161V48.7837ZM239.417 45.2164C239.806 45.2164 240.124 45.1224 240.373 44.9343C240.621 44.7464 240.746 44.5067 240.746 44.2155C240.746 43.9 240.64 43.6603 240.427 43.4966C240.215 43.3328 239.83 43.2509 239.272 43.2509C238.993 43.2509 238.771 43.2569 238.607 43.269C238.444 43.2813 238.295 43.2934 238.161 43.3055V45.2164H239.417ZM254.887 43.5967H252.011V50.6036H249.646V41.5038H257.253V50.6036H254.887V43.5967ZM264.278 43.5967H262.476C262.404 44.4582 262.319 45.3135 262.222 46.1628C262.124 47.0122 261.97 47.7735 261.758 48.447C261.545 49.1204 261.257 49.6664 260.893 50.0849C260.529 50.5036 260.056 50.7128 259.473 50.7128C258.77 50.7128 258.272 50.6218 257.981 50.4429L258.272 48.5106C258.466 48.5835 258.648 48.6199 258.818 48.6199C259.061 48.6199 259.273 48.5166 259.455 48.3074C259.637 48.1012 259.792 47.731 259.919 47.1941C260.047 46.6574 260.15 45.9263 260.229 45.0072C260.308 44.085 260.365 42.9172 260.402 41.5038H266.644V50.6036H264.278V43.5967ZM268.646 42.0315C269.131 41.8131 269.708 41.6402 270.375 41.5129C271.042 41.3854 271.74 41.3218 272.468 41.3218C273.099 41.3218 273.627 41.3975 274.051 41.5491C274.476 41.701 274.813 41.9163 275.061 42.1954C275.31 42.4743 275.486 42.808 275.589 43.1963C275.692 43.5846 275.744 44.0214 275.744 44.5067C275.744 45.0406 275.726 45.5775 275.689 46.1175C275.653 46.6574 275.632 47.1881 275.626 47.7099C275.619 48.2317 275.635 48.7382 275.671 49.2296C275.707 49.721 275.799 50.185 275.944 50.6218H274.015L273.633 49.3661H273.542C273.299 49.7421 272.962 50.0667 272.532 50.3398C272.101 50.6127 271.546 50.7492 270.866 50.7492C270.442 50.7492 270.059 50.6856 269.72 50.5581C269.38 50.4307 269.089 50.2488 268.846 50.0122C268.604 49.7755 268.416 49.4964 268.282 49.175C268.149 48.8534 268.082 48.4925 268.082 48.0921C268.082 47.5339 268.206 47.0638 268.455 46.6816C268.704 46.2993 269.062 45.99 269.529 45.7534C269.996 45.5167 270.554 45.353 271.203 45.262C271.852 45.1709 272.577 45.1437 273.378 45.18C273.463 44.5007 273.414 44.0123 273.232 43.7151C273.05 43.4178 272.644 43.269 272.013 43.269C271.54 43.269 271.039 43.3175 270.511 43.4146C269.984 43.5117 269.55 43.6392 269.21 43.7969L268.646 42.0315ZM271.649 48.8018C272.122 48.8018 272.498 48.6957 272.777 48.4834C273.056 48.2709 273.263 48.0436 273.396 47.8009V46.6179C273.02 46.5815 272.659 46.5754 272.313 46.5996C271.967 46.624 271.661 46.6785 271.394 46.7635C271.127 46.8483 270.915 46.9697 270.757 47.1274C270.599 47.2851 270.52 47.4853 270.52 47.728C270.52 48.0677 270.621 48.3317 270.821 48.5198C271.021 48.7078 271.297 48.8018 271.649 48.8018ZM283.06 47.0183H280.094V50.6036H277.728V41.5038H280.094V44.9252H283.06V41.5038H285.426V50.6036H283.06V47.0183ZM294.781 49.821C294.417 50.1122 293.922 50.3579 293.298 50.5581C292.673 50.7583 292.008 50.8584 291.305 50.8584C289.837 50.8584 288.763 50.4307 288.083 49.5753C287.404 48.72 287.064 47.5461 287.064 46.0536C287.064 44.4522 287.446 43.2509 288.211 42.4501C288.975 41.6492 290.049 41.2489 291.432 41.2489C291.893 41.2489 292.342 41.3097 292.779 41.4309C293.216 41.5522 293.604 41.7525 293.944 42.0315C294.283 42.3106 294.556 42.6868 294.763 43.1599C294.969 43.6331 295.072 44.2216 295.072 44.9252C295.072 45.18 295.057 45.4531 295.027 45.7443C294.996 46.0355 294.951 46.3388 294.89 46.6542H289.448C289.485 47.4187 289.682 47.995 290.037 48.3833C290.395 48.7716 290.971 48.9657 291.769 48.9657C292.266 48.9657 292.709 48.8898 293.103 48.7382C293.495 48.5865 293.795 48.4318 294.001 48.2741L294.781 49.821ZM291.405 43.1417C290.789 43.1417 290.331 43.3268 290.037 43.6968C289.743 44.0669 289.564 44.5613 289.503 45.18H292.87C292.919 44.5249 292.818 44.0214 292.573 43.6696C292.324 43.3175 291.936 43.1417 291.405 43.1417ZM303.298 43.5967H300.732V50.6036H298.293V43.5967H295.727V41.5038H303.298V43.5967ZM306.72 48.6199C307.084 48.6926 307.43 48.7291 307.757 48.7291C308.303 48.7291 308.685 48.629 308.904 48.4288C309.122 48.2286 309.232 47.9161 309.232 47.4915C309.232 47.1033 309.122 46.809 308.904 46.6088C308.685 46.4085 308.321 46.3084 307.812 46.3084C307.411 46.3084 307.047 46.3509 306.72 46.4359V48.6199ZM306.72 44.7434C307.011 44.6948 307.305 44.6614 307.603 44.6431C307.9 44.625 308.17 44.6159 308.413 44.6159C309.031 44.6159 309.547 44.6856 309.959 44.8251C310.372 44.9647 310.706 45.1619 310.961 45.4166C311.215 45.6714 311.397 45.9719 311.506 46.3176C311.616 46.6634 311.67 47.0364 311.67 47.4368C311.67 47.9829 311.597 48.4621 311.452 48.8747C311.306 49.2872 311.07 49.6299 310.742 49.903C310.415 50.1759 309.99 50.3821 309.468 50.5217C308.946 50.6612 308.303 50.7311 307.539 50.7311C306.847 50.7311 306.25 50.7188 305.746 50.6947C305.243 50.6703 304.779 50.6401 304.354 50.6036V41.5038H306.72V44.7434ZM312.708 41.5038H315.074V50.6036H312.708V41.5038Z" fill="white"/>
    <path fill-rule="evenodd" clip-rule="evenodd" d="M3.34189 17.5542C6.79124 15.6892 7.94275 15.4609 11.159 16.4901C15.3855 17.8425 17.5271 14.8662 13.725 14.7802C12.5614 14.7539 11.8026 13.4456 15.98 13.3108C18.9029 13.2162 21.9206 10.8859 23.0021 12.9796C24.9507 16.7522 28.937 12.6655 32.199 12.6612C35.2005 12.6568 33.1618 9.29541 38.482 10.8402C38.8253 10.9399 41.6891 10.0535 44.2639 10.0796C46.2993 12.3963 47.8933 15.1029 48.9168 18.0708C48.5703 18.064 48.1797 18.0438 47.741 18.0084C46.1701 17.8818 43.8625 25.6211 41.7289 27.7982C39.7213 29.8459 41.0277 28.0788 37.0857 29.9489C33.8813 31.4693 40.9404 38.1009 33.2554 37.094C29.7152 32.752 32.0962 33.113 21.6806 34.8953C17.7663 35.5654 26.7963 38.3763 16.0568 37.8227C13.31 37.6808 14.8118 32.8078 12.5518 30.4033C11.4886 29.2722 16.4113 26.9372 13.2746 26.5464C12.051 26.3941 13.3954 24.3563 11.1869 25.0429C9.07754 25.6986 9.578 27.6571 8.01244 24.4052C7.70327 23.7629 2.38328 20.4428 2.26097 21.7838C2.07359 23.8365 4.62389 24.0841 2.2663 25.1699C1.88496 26.8019 7.11179 24.3106 7.04939 27.7068C7.04103 28.1666 11.2197 28.4226 11.6188 32.9022C11.9054 36.1188 13.805 39.9245 17.2488 40.6989C18.4016 40.9583 18.4437 44.4617 14.7883 44.448C13.6229 44.4439 13.1074 45.134 12.8263 46.0439C6.11247 41.7716 1.66504 34.3147 1.66504 25.8294C1.66504 22.9312 2.18399 20.1528 3.13477 17.5803C3.2562 17.5625 3.34189 17.5542 3.34189 17.5542Z" fill="white"/>
    <path d="M3.34061 17.5542C6.78996 15.6892 7.94146 15.4609 11.1577 16.4901C15.3842 17.8425 17.5258 14.8662 13.7237 14.7802C12.5601 14.7539 11.8013 13.4456 15.9787 13.3108C18.9016 13.2162 21.9193 10.8859 23.0008 12.9796C24.9495 16.7522 28.9357 12.6655 32.1977 12.6612C35.1992 12.6568 33.1606 9.29541 38.4807 10.8402C38.824 10.9399 41.6878 10.0535 44.2626 10.0796M48.9155 18.0708C48.569 18.064 48.1785 18.0438 47.7397 18.0084C46.1688 17.8818 43.8612 25.6211 41.7276 27.7982C39.7201 29.8459 41.0264 28.0788 37.0844 29.9489C33.88 31.4693 40.9391 38.1009 33.2541 37.094C29.7139 32.752 32.0949 33.113 21.6793 34.8953C17.7651 35.5654 26.795 38.3763 16.0555 37.8227C13.3087 37.6808 14.8105 32.8078 12.5505 30.4033C11.4874 29.2722 16.41 26.9372 13.2734 26.5464C12.0497 26.3941 13.3941 24.3563 11.1857 25.0429C9.07625 25.6986 9.57671 27.6571 8.01115 24.4052C7.70199 23.7629 2.382 20.4428 2.25968 21.7838C2.0723 23.8365 4.6226 24.0841 2.26502 25.1699C1.88367 26.8019 7.1105 24.3106 7.0481 27.7068C7.03974 28.1666 11.2184 28.4226 11.6175 32.9022C11.9041 36.1188 13.8037 39.9245 17.2475 40.6989C18.4003 40.9583 18.4424 44.4617 14.787 44.448C13.6216 44.4439 13.1061 45.134 12.825 46.0439M3.13349 17.5803C3.25491 17.5625 3.34007 17.5542 3.34061 17.5542" stroke="white" stroke-width="0.420881" stroke-miterlimit="22.9256"/>
    <path fill-rule="evenodd" clip-rule="evenodd" d="M4.59489 27.6672H29.0661C29.8139 27.6672 30.4257 28.2554 30.4257 28.9744C30.4257 29.6934 29.8139 30.2816 29.0661 30.2816H4.59489C3.8471 30.2816 3.23535 29.6934 3.23535 28.9744C3.23535 28.2554 3.8471 27.6672 4.59489 27.6672Z" fill="#000032" fill-opacity="0.1"/>
    <path fill-rule="evenodd" clip-rule="evenodd" d="M7.80907 13.5492H33.6921C34.483 13.5492 35.1301 14.1374 35.1301 14.8564C35.1301 15.5754 34.483 16.1636 33.6921 16.1636H7.80907C7.01814 16.1636 6.37109 15.5754 6.37109 14.8564C6.37109 14.1374 7.01814 13.5492 7.80907 13.5492Z" fill="#000032" fill-opacity="0.1"/>
    <path fill-rule="evenodd" clip-rule="evenodd" d="M19.313 20.3469H45.196C45.9869 20.3469 46.634 21.0527 46.634 21.9155C46.634 22.7784 45.9869 23.4842 45.196 23.4842H19.313C18.522 23.4842 17.875 22.7784 17.875 21.9155C17.875 21.0527 18.522 20.3469 19.313 20.3469Z" fill="#000032" fill-opacity="0.1"/>
    <path fill-rule="evenodd" clip-rule="evenodd" d="M4.67333 33.4191H30.5564C31.3473 33.4191 31.9943 34.0073 31.9943 34.7264C31.9943 35.4454 31.3473 36.0336 30.5564 36.0336H4.67333C3.8824 36.0336 3.23535 35.4454 3.23535 34.7264C3.23535 34.0073 3.8824 33.4191 4.67333 33.4191Z" fill="#000032" fill-opacity="0.1"/>
    <path fill-rule="evenodd" clip-rule="evenodd" d="M39.0691 6.27783L45.7939 23.9523C46.9331 27.3921 47.3872 30.9853 45.4339 34.2272C44.1316 36.3885 41.8359 37.8026 39.0651 37.975C36.2944 37.8026 34.0063 36.3885 32.7044 34.2272C30.7509 30.9853 31.205 27.3921 32.344 23.9523L39.0691 6.27783Z" fill="white" stroke="#000032" stroke-opacity="0.1" stroke-width="1.5783" stroke-miterlimit="22.9256"/>
    <path fill-rule="evenodd" clip-rule="evenodd" d="M39.0682 11.187L42.9812 21.4711C43.644 23.4725 43.9081 25.5635 42.7716 27.4497C42.014 28.7074 40.678 29.5302 39.0659 29.6306C37.4537 29.5302 36.1225 28.7074 35.3646 27.4497C34.2282 25.5635 34.4922 23.4725 35.1552 21.4711L39.0682 11.187Z" fill="#000032" fill-opacity="0.1"/>
    <path fill-rule="evenodd" clip-rule="evenodd" d="M25.9387 49.8463C39.3444 49.8463 50.2122 39.0937 50.2122 25.8293C50.2122 12.5652 39.3444 1.81238 25.9387 1.81238C12.5326 1.81238 1.66504 12.5652 1.66504 25.8293C1.66504 39.0937 12.5326 49.8463 25.9387 49.8463V49.8463Z" stroke="white" stroke-width="2.73572" stroke-miterlimit="22.9256"/>
</svg>
