<svg width="152" height="55" viewBox="0 0 152 55" fill="none" xmlns="http://www.w3.org/2000/svg">
    <path fill-rule="evenodd" clip-rule="evenodd" d="M14.4204 0V4.498H9.6778V9.00589H4.89501V13.6119H0.112305V28.9539C0.112305 28.9539 8.53511 36.6456 9.74307 37.7536V54.0812H30.4169V37.8409C31.6062 36.7322 39.9799 28.937 39.9799 28.937V13.6137H35.2265V9.0398H30.4169V4.50611H25.6004V0H14.4204Z" fill="white"/>
    <path fill-rule="evenodd" clip-rule="evenodd" d="M17.2389 50.5057H13.1846V30.3034H17.2389V50.5057Z" fill="#FFD100"/>
    <path fill-rule="evenodd" clip-rule="evenodd" d="M22.0406 50.5056H17.9883V26.1331H22.0406V50.5056Z" fill="#FFD100"/>
    <path fill-rule="evenodd" clip-rule="evenodd" d="M22.79 50.5057H26.8397V30.3034H22.79V50.5057Z" fill="#FFD100"/>
    <path fill-rule="evenodd" clip-rule="evenodd" d="M7.63191 31.0968L3.58105 27.4952V17.1376H7.63191V31.0968Z" fill="#262525"/>
    <path fill-rule="evenodd" clip-rule="evenodd" d="M12.4343 35.6009L8.38184 31.6234V12.5584H12.4343V35.6009Z" fill="#262525"/>
    <path fill-rule="evenodd" clip-rule="evenodd" d="M17.2389 29.6695H13.1846V8.0564H17.2389V29.6695Z" fill="#262525"/>
    <path fill-rule="evenodd" clip-rule="evenodd" d="M22.0406 25.2428H17.9883V3.54919H22.0406V25.2428Z" fill="#262525"/>
    <path fill-rule="evenodd" clip-rule="evenodd" d="M32.3955 31.0968L36.4461 27.4952V17.1376H32.3955V31.0968Z" fill="#262525"/>
    <path fill-rule="evenodd" clip-rule="evenodd" d="M27.5898 35.6009L31.6457 31.6234V12.5584H27.5898V35.6009Z" fill="#262525"/>
    <path fill-rule="evenodd" clip-rule="evenodd" d="M22.79 29.6695H26.8397V8.0564H22.79V29.6695Z" fill="#262525"/>
    <path fill-rule="evenodd" clip-rule="evenodd" d="M65.269 49.7936C64.7592 50.3097 63.8102 50.564 62.4211 50.564H57.8658C56.4901 50.564 55.5357 50.3203 55.0042 49.8212C54.4677 49.3285 54.1982 48.5775 54.1982 47.5777V43.1715C54.1982 42.167 54.4677 41.4235 55.0042 40.9244C55.5357 40.4296 56.4901 40.1814 57.8658 40.1814H62.4211C63.8102 40.1814 64.7592 40.4368 65.269 40.9502C65.7833 41.4663 66.0324 42.2055 66.0324 43.1715V47.5777C66.0324 48.5454 65.7833 49.2819 65.269 49.7936ZM62.92 44.1929C62.92 43.6225 62.8014 43.2001 62.5665 42.9395C62.3282 42.6778 61.8022 42.5456 60.9807 42.5456H59.2381C58.4783 42.5456 57.9704 42.6922 57.7158 42.9752C57.4614 43.2591 57.3347 43.6671 57.3347 44.1929V46.5563C57.3347 47.0847 57.4614 47.4865 57.7158 47.7748C57.9704 48.0616 58.4783 48.2071 59.2381 48.2071H60.9807C61.8022 48.2071 62.3201 48.0712 62.5496 47.8123C62.7728 47.5473 62.8968 47.1383 62.92 46.5749V44.1929Z" fill="white"/>
    <path fill-rule="evenodd" clip-rule="evenodd" d="M78.9142 49.7936C78.4045 50.3097 77.4572 50.564 76.0723 50.564H71.5165C70.1406 50.564 69.1861 50.3203 68.6505 49.8212C68.1131 49.3285 67.8496 48.5775 67.8496 47.5777V43.1715C67.8496 42.167 68.1131 41.4235 68.6505 40.9244C69.1861 40.4296 70.1406 40.1814 71.5165 40.1814H76.0723C77.4572 40.1814 78.4045 40.4368 78.9142 40.9502C79.4276 41.4663 79.6802 42.2055 79.6802 43.1715V44.1929H76.5696C76.5696 43.6225 76.4492 43.2001 76.2135 42.9395C75.9751 42.6778 75.4493 42.5456 74.6277 42.5456H72.8851C72.1279 42.5456 71.6199 42.6922 71.3629 42.9752C71.1084 43.2591 70.9807 43.6671 70.9807 44.1929V46.5563C70.9807 47.0847 71.1084 47.4865 71.3629 47.7748C71.6199 48.0616 72.1279 48.2071 72.8851 48.2071H74.6277C75.4493 48.2071 75.9751 48.0712 76.2135 47.8123C76.4492 47.5473 76.5696 47.1294 76.5696 46.5563H79.6802V47.5777C79.6802 48.5454 79.4276 49.2819 78.9142 49.7936Z" fill="white"/>
    <path fill-rule="evenodd" clip-rule="evenodd" d="M84.611 50.5641H81.5148L81.4951 47.5768V43.1717L81.5148 40.1818H84.611V44.1539H90.1982V40.1818H93.3287V43.1717V47.5768V50.5641H90.1982V46.5179H84.611V50.5641Z" fill="white"/>
    <path fill-rule="evenodd" clip-rule="evenodd" d="M99.1488 46.5177H98.2604C98.2711 47.0679 98.4042 47.4865 98.6585 47.775C98.9175 48.0615 99.4201 48.2071 100.183 48.2071H101.925H106.978V50.564H103.366H98.8121C97.4354 50.564 96.4775 50.3203 95.9444 49.8239C95.4123 49.3284 95.1445 48.5775 95.1445 47.5776V43.1715C95.1445 42.1673 95.4123 41.4234 95.9444 40.9244C96.4775 40.4298 97.4354 40.1816 98.8121 40.1816H103.366H106.978V42.5456H101.925H100.183C99.4201 42.5456 98.9175 42.6921 98.6585 42.9751C98.4042 43.2591 98.2711 43.6511 98.2604 44.1544H99.1488H106.978V46.5177H99.1488Z" fill="white"/>
    <path fill-rule="evenodd" clip-rule="evenodd" d="M130.913 42.5456H126.642V40.1824H130.235H134.788H138.46V42.5456H134.01V50.564H130.913V42.5456Z" fill="white"/>
    <path fill-rule="evenodd" clip-rule="evenodd" d="M123.898 42.0433H119.088V40.1444H116.019V42.0433H111.093C111.093 42.0433 108.295 42.1281 108.295 45.3012C108.295 48.4761 111.171 48.4984 111.171 48.4984H116.019V50.5555H119.088V48.4984H123.82C123.82 48.4984 126.698 48.4761 126.698 45.3012C126.698 42.1281 123.898 42.0433 123.898 42.0433ZM122.251 46.4325H119.088V44.2363H122.225C122.225 44.2363 123.306 44.096 123.306 45.3906C123.306 46.4735 122.251 46.4325 122.251 46.4325ZM111.781 45.3906C111.781 44.096 112.863 44.2363 112.863 44.2363H116.006V46.4325H112.842C112.842 46.4325 111.781 46.4735 111.781 45.3906Z" fill="white"/>
    <path fill-rule="evenodd" clip-rule="evenodd" d="M51.6202 40.9499C51.1095 40.4367 50.1623 40.1821 48.7721 40.1821H40.5664V50.5647H43.6654V46.9854H48.7721C50.1623 46.9854 51.1095 46.7318 51.6202 46.2168C52.1299 45.7015 52.3863 44.9605 52.3863 43.9962V43.1712C52.3863 42.2051 52.1299 41.4659 51.6202 40.9499ZM48.2524 44.6228H43.6654V42.5453H48.2524C48.8274 42.5453 49.2919 43.0115 49.2919 43.5855C49.2919 44.1587 48.8274 44.6228 48.2524 44.6228Z" fill="white"/>
    <path fill-rule="evenodd" clip-rule="evenodd" d="M151.664 47.577V46.7513C151.664 45.787 151.409 45.045 150.9 44.53C150.385 44.0175 149.438 43.7639 148.049 43.7639H142.944L142.942 40.1821H139.846V50.5645H148.049C149.438 50.5645 150.385 50.3101 150.9 49.7958C151.409 49.2816 151.664 48.5405 151.664 47.577ZM148.571 47.162C148.571 47.737 148.104 48.2029 147.531 48.2029H142.944V46.1244H147.531C148.104 46.1244 148.571 46.5895 148.571 47.162Z" fill="white"/>
</svg>
