<svg width="198" height="54" viewBox="0 0 198 54" fill="none" xmlns="http://www.w3.org/2000/svg">
    <path fill-rule="evenodd" clip-rule="evenodd" d="M104.099 35.5844H110.711L122.55 44.5143V35.5844H127.988V53.1899H122.275L109.419 43.4937V53.1899H104.099V35.5844ZM4.43303 42.5748C-10.3907 21.5186 20.1811 19.3508 14.0126 0.373291C29.053 22.5742 0.940717 20.6472 4.43303 42.5748ZM140.067 42.6866H150.326V46.0523H140.067V49.7887H153.901V53.1545H140.067V53.1899H131.912V35.5844H153.901V38.9501H140.067V42.6866ZM165.57 43.0094H174.275V46.3751H165.57V53.1899H157.415V35.5844H197.482V38.9501H190.751V53.1899H182.595V38.9501H165.57V43.0094Z" fill="white"/>
    <path fill-rule="evenodd" clip-rule="evenodd" d="M34.4668 35.5846H56.0854V38.9503H49.3539V53.1901H41.1986V38.9503H34.4668V35.5846ZM12.6651 53.7079C-2.15865 32.6517 28.4132 30.484 22.2447 11.5064C37.2851 33.7073 9.17279 31.7803 12.6651 53.7079ZM94.2266 38.9503V53.1901H86.0713V38.9503H79.3395V35.5846H100.958V38.9503H94.2266ZM62.0606 46.9764H69.8393L65.9567 39.7081L62.0606 46.9764ZM71.6373 50.3422H60.2563L58.7297 53.1901H53.7889L63.2263 35.5846H71.9093L81.3136 53.1901H73.1583L71.6373 50.3422Z" fill="white"/>
</svg>
