<svg width="380" height="316" viewBox="0 0 380 316" fill="none" xmlns="http://www.w3.org/2000/svg">
    <path d="M142.937 264.724L1 312.381L9.16098 295.659L11.5 272.056M142.937 264.724L157.08 256.083M142.937 264.724L149.78 267.812M142.937 264.724L134.506 276.496M157.08 256.083L162.056 243.775M157.08 256.083L126.961 258.963M157.08 256.083L137.176 232.254M157.08 256.083L169.096 244.306M157.08 256.083L164.754 263.021M157.08 256.083L149.78 267.812M162.056 243.775L162.58 229.897M162.056 243.775L137.176 232.254M162.58 229.897L157.342 215.233M162.58 229.897L137.176 232.254M162.58 229.897L168.497 218.405M162.58 229.897L180.926 232.329M162.58 229.897L169.096 244.306M162.58 229.897L167.401 240.557M157.342 215.233L146.08 203.974M157.342 215.233L161.01 204.182M157.342 215.233L168.497 218.405M146.08 203.974L132.199 199.26M146.08 203.974L137.176 232.254M146.08 203.974L118.843 213.662M146.08 203.974L136.902 186.665M146.08 203.974L152.026 189.51M146.08 203.974L161.01 204.182M132.199 199.26L1 215.495M132.199 199.26L126.869 189.061M132.199 199.26L136.902 186.665M1 215.495L15.393 223.874M1 215.495L9.16098 245.87M2.48279 311.884L16.7023 296.67M16.7023 296.67L36.8692 300.338M16.7023 296.67L11.5 272.056M16.7023 296.67L37.3922 272.841M36.8692 300.338L54.6776 288.553M36.8692 300.338L37.3922 272.841M54.6776 288.553L74.0043 287.869M54.6776 288.553L37.3922 272.841M54.6776 288.553L64.8917 267.081M74.0043 287.869L87.9387 272.056M74.0043 287.869L64.8917 267.081M74.0043 287.869L77.0051 294.312M74.0043 287.869L67.6796 289.993M87.9387 272.056L101.639 278.59L113.866 265.248M87.9387 272.056L113.866 265.248M87.9387 272.056L100.248 242.728M87.9387 272.056L65.6775 253.464M87.9387 272.056L64.8917 267.081M113.866 265.248L129.276 269.311L126.961 258.963M113.866 265.248L126.961 258.963M113.866 265.248L110.724 233.825M113.866 265.248L100.248 242.728M126.961 258.963L137.176 232.254M126.961 258.963L110.724 233.825M137.176 232.254L118.843 213.662M137.176 232.254L110.724 233.825M118.843 213.662L122.56 200.453M118.843 213.662L110.724 233.825M118.843 213.662L89.5102 212.615M122.56 200.453L89.5102 212.615M122.56 200.453L126.869 189.061M89.5102 212.615L71.1772 229.373M89.5102 212.615L90.9648 204.363M89.5102 212.615L53.3763 209.014M71.1772 229.373L110.724 233.825M71.1772 229.373L100.248 242.728M71.1772 229.373L65.6775 253.464M71.1772 229.373L35.0352 245.87M110.724 233.825L100.248 242.728M100.248 242.728L65.6775 253.464M65.6775 253.464L64.8917 267.081M65.6775 253.464L37.3922 272.841M65.6775 253.464L35.0352 245.87M64.8917 267.081L37.3922 272.841M53.3763 209.014L71.6221 228.967L40.0113 219.685M53.3763 209.014L40.0113 219.685M40.0113 219.685L17.4629 213.458L15.393 223.874M40.0113 219.685L35.0352 245.87M40.0113 219.685L15.393 223.874M15.393 223.874L11.5 272.056M15.393 223.874L35.0352 245.87M11.5 272.056L37.3922 272.841M11.5 272.056L35.0352 245.87M11.5 272.056L9.16098 245.87M37.3922 272.841L35.0352 245.87M35.0352 245.87L15.393 247.5L9.16098 245.87M88.2357 286.676L77.0051 294.312M88.2357 286.676L96.3192 295.659M88.2357 286.676L96.3192 280.725V315H48.9158M77.0051 294.312L96.3192 295.659M77.0051 294.312L68.9191 306.888M77.0051 294.312L64.8969 290.927M96.3192 295.659L84.7917 315L68.9191 306.888M96.3192 295.659L68.9191 306.888M48.9158 315V296.12M48.9158 315L68.9191 306.888M48.9158 315L64.8969 290.927M68.9191 315V306.888M68.9191 306.888L64.8969 290.927M128.234 269.661L134.506 276.496M134.506 276.496L144.838 284.73M134.506 276.496L145.587 277.544M144.838 284.73L156.219 288.173M144.838 284.73L145.587 277.544M144.838 284.73L154.571 281.586M156.219 288.173L169.246 285.628M156.219 288.173L154.571 281.586M156.219 288.173L155.146 287.849M169.246 285.628L183.921 273.95M169.246 285.628L154.571 281.586M169.246 285.628L204.435 276.496M183.921 273.95L189.461 263.171M183.921 273.95L190.864 280.018M189.461 263.171L197.248 240.863M189.461 263.171L190.864 280.018M189.461 263.171L202.684 259.266L190.864 280.018M197.248 240.863L196.199 216.908M197.248 240.863L180.926 232.329M197.248 240.863L212.462 223.4M197.248 240.863L201.479 212.758M197.248 240.863L212.349 244.684M197.248 240.863L202.724 259.401L216.265 256.883M196.199 216.908L189.761 194.75M196.199 216.908L180.926 232.329M196.199 216.908L181.675 211.967M196.199 216.908L201.479 212.758M189.761 194.75L176.134 172.891M189.761 194.75L181.675 211.967M189.761 194.75L201.479 212.758M189.761 194.75L196.288 204.782M176.134 172.891L156.219 166.753M176.134 172.891L185.418 166.304M176.134 172.891L193.326 181.739M156.219 166.753L143.94 169.597M156.219 166.753L146.036 177.982M156.219 166.753L185.418 166.304M156.219 166.753L157.716 164.507M143.94 169.597L133.907 178.431M143.94 169.597L146.036 177.982M133.907 178.431L126.869 189.061M133.907 178.431L136.902 186.665M133.907 178.431L146.036 177.982M136.902 186.665L146.036 177.982M136.902 186.665L152.026 189.51M146.036 177.982L161.609 179.778L152.026 189.51M146.036 177.982L152.026 189.51M152.026 189.51L161.01 204.182M152.026 189.51L163.556 189.21M161.01 204.182L163.556 189.21M161.01 204.182L181.675 211.967M161.01 204.182L168.497 218.405M163.556 189.21L172.54 178.73L178.231 191.007L163.556 189.21ZM181.675 211.967L168.497 218.405M180.926 232.329L169.096 244.306M169.096 244.306L182.573 254.038L164.754 263.021M169.096 244.306L164.754 263.021M169.096 244.306L161.757 244.515M164.754 263.021L172.69 272.902L154.571 281.586M164.754 263.021L154.571 281.586M164.754 263.021L149.78 267.812M154.571 281.586L145.587 277.544M154.571 281.586L149.78 267.812M149.78 267.812L145.587 277.544M204.435 276.496L213.42 265.267M204.435 276.496L237.569 286.192M213.42 265.267L216.265 256.883M213.42 265.267L217.764 280.396L229.193 273.909M213.42 265.267L226.129 265.682M216.265 256.883L223.303 232.329M216.265 256.883L212.349 244.684M216.265 256.883L227.607 253.074M216.265 256.883L226.129 265.682M223.303 232.329L222.105 210.47M223.303 232.329L212.349 244.684M223.303 232.329L232.364 223.747M223.303 232.329L238.706 228.729M223.303 232.329L227.607 253.074M222.105 210.47L215.965 189.809M222.105 210.47L206.574 198.041M222.105 210.47L212.462 223.4M222.105 210.47L232.59 202.006M222.105 210.47L232.364 223.747M222.105 210.47L236.781 209.232M215.965 189.809L205.783 176.035M215.965 189.809L238.026 186.266M215.965 189.809L235.309 175.544M215.965 189.809L232.59 202.006M205.783 176.035L193.205 167.352M205.783 176.035L193.326 181.739M205.783 176.035L206.574 198.041M205.783 176.035L259.048 175.149M205.783 176.035L217.627 162.219M193.205 167.352L185.418 166.304M193.205 167.352L193.326 181.739M193.205 167.352L193.134 148.175M193.205 167.352L217.627 162.219M193.205 167.352L215.756 148.175L217.627 162.219M185.418 166.304L193.326 181.739M193.326 181.739L206.574 198.041M206.574 198.041L212.462 223.4M206.574 198.041L201.479 212.758M212.462 223.4L201.479 212.758M212.462 223.4L212.349 244.684M237.569 286.192L258.524 278.859M237.569 286.192L229.193 274.362V273.909M237.569 286.192L238.706 272.89M258.524 278.859L274.24 186.411M258.524 278.859L238.706 272.89M258.524 278.859L250.257 265.756M274.24 186.411L259.048 175.149M274.24 186.411L265.094 200.307L264.301 194.985V194.646M274.24 186.411L264.301 194.646M259.048 175.149V148.175M259.048 148.175H193.134M259.048 148.175H263.336M193.134 148.175L192.137 148.198M229.193 273.909L238.706 272.89M229.193 273.909L226.129 265.682M238.706 272.89L246.51 264.569L239.831 252.668M238.706 272.89L226.129 265.682M238.706 272.89L239.831 252.668M250.257 265.756L264.01 246.59M250.257 265.756L253.809 246.833M250.257 265.756L241.804 243.096M264.01 246.59L253.315 234.277M264.01 246.59L253.809 246.833M253.315 234.277L268.848 218.126L256.826 200.873M253.315 234.277L236.781 209.232M253.315 234.277L256.826 200.873M253.315 234.277L249.239 202.664M253.315 234.277L238.706 228.729M253.315 234.277L241.804 243.096M256.826 200.873L264.301 194.646M256.826 200.873L262.979 178.063M256.826 200.873L238.026 186.266M256.826 200.873L249.239 202.664M264.301 194.646L262.979 178.063M262.979 178.063L238.026 186.266M262.979 178.063L235.309 175.544M238.026 186.266L235.309 175.544M238.026 186.266L228.74 190.909L232.59 202.006M238.026 186.266L232.59 202.006M238.026 186.266L236.781 209.232M238.026 186.266L249.239 202.664M232.364 223.747L236.781 209.232M238.706 228.729L227.607 253.074M238.706 228.729L236.781 209.232M238.706 228.729L239.831 252.668M227.607 253.074L226.129 265.682M227.607 253.074L239.831 252.668M236.781 209.232L249.239 202.664M239.831 252.668L226.129 265.682M239.831 252.668L247.58 244.908M247.58 244.908L241.804 243.096M247.58 244.908L238.458 228.787L241.804 243.096M247.58 244.908L253.809 246.833M253.809 246.833L266.382 232.635M217.627 162.219L226.494 175.691M217.627 162.219L237.915 148.175L248.665 159.324L259.048 168.422M215.365 175.876L225.013 168.422M225.013 168.422L226.091 148.175L259.048 160.446M225.013 168.422L259.048 160.446M225.013 168.422L235.849 175.535M259.048 160.446L235.849 175.535M259.048 160.446L235.355 157.886L235.849 175.535M263.336 148.175L267.797 143.714M263.336 148.175L258.664 140.849M267.797 143.714V104.613M267.797 143.714L261.949 129.41M267.797 143.714L258.664 140.849M267.797 104.613L263.027 99.8436M267.797 104.613L254.133 105.853M267.797 104.613L261.949 129.41M263.027 99.8436H192.35M263.027 99.8436L254.133 105.853M192.35 99.8436L186.839 105.354M192.35 99.8436L199.308 108.118M186.839 105.354V142.9M186.839 105.354L199.308 108.118M186.839 142.9L192.137 148.198M186.839 142.9L194.777 139.037M192.137 148.198L194.777 139.037M194.777 139.037L186.839 115.593M194.777 139.037L208.483 126.239M194.777 139.037L209.05 148.175M186.839 115.593L208.483 126.239M186.839 115.593L199.308 108.118M208.483 126.239L234.876 107.665M208.483 126.239L222.869 99.8436M208.483 126.239L199.308 108.118M208.483 126.239L226.721 139.15M208.483 126.239L209.05 148.175M199.308 108.118L222.869 99.8436M222.869 99.8436L234.876 107.665M222.869 99.8436L210.932 89.4681M222.869 99.8436L223.414 77.9787M222.869 99.8436L242.038 85.7043M234.876 107.665L242.126 99.8436L254.133 105.853M234.876 107.665L254.133 105.853M234.876 107.665L245.298 125.899M234.876 107.665L226.721 139.15M254.133 105.853L245.298 125.899M254.133 105.853L261.949 129.41M245.298 125.899L258.664 140.849M245.298 125.899L261.949 129.41M245.298 125.899L240.2 148.175M245.298 125.899L226.721 139.15M261.949 129.41L267.797 127.485M261.949 129.41L258.664 140.849M258.664 140.849L240.2 148.175M240.2 148.175L226.721 139.15M226.721 139.15L209.05 148.175M253.925 85.3081V99.8436L242.038 85.7043M253.925 85.3081L246.594 77.9787M253.925 85.3081V85.7043H242.038M246.594 77.9787L242.258 61.7967M246.594 77.9787H223.414M246.594 77.9787L242.038 85.7043M242.258 61.7967H213.31M242.258 61.7967L223.414 77.9787M213.31 61.7967L208.895 78.2681M213.31 61.7967L223.414 77.9787M208.895 78.2681L201.936 85.2269M208.895 78.2681L210.932 89.4681M208.895 78.2681L223.414 77.9787M201.936 85.2269V99.8436L210.932 89.4681M201.936 85.2269L210.932 89.4681M210.932 89.4681L223.414 77.9787M223.414 77.9787L242.038 85.7043M239.462 22.9094V61.7967L227.575 46.2841M239.462 22.9094L227.321 19.6568M239.462 22.9094L227.377 28.8521M239.462 22.9094L227.441 37.1719M227.321 19.6568L215.419 22.8455M227.321 19.6568L227.377 28.8521M215.419 22.8455V61.7967L223.018 54.8021M215.419 22.8455L224.008 32.2196L215.419 37.1719M215.419 22.8455L227.377 28.8521M215.419 22.8455L210.293 22.3985M223.018 54.8021L227.784 61.7967M223.018 54.8021L215.419 37.568L227.575 46.2841M223.018 54.8021L227.575 46.2841M227.575 46.2841L234.509 61.7967M227.575 46.2841L239.462 37.1719M239.462 37.1719H215.419M239.462 37.1719L246.572 37.3083M215.419 37.1719L210.179 45.5709M215.419 37.1719L208.017 38.738L210.179 45.5709M239.462 53.2965L257.927 51.5137M257.927 51.5137L265.06 48.1461M257.927 51.5137L256.738 42.7976M265.06 48.1461L272.588 44.9766M265.06 48.1461L273.183 36.6568M265.06 48.1461L256.738 42.7976M272.588 44.9766L282.296 38.0434M272.588 44.9766L256.738 42.7976M272.588 44.9766L273.183 36.6568M282.296 38.0434L287.051 29.3273M282.296 38.0434L273.183 36.6568M282.296 38.0434L278.136 31.5064M287.051 29.3273L285.268 20.2149M287.051 29.3273L278.136 31.5064M287.051 29.3273L275.56 22.196M285.268 20.2149L277.938 11.8951M285.268 20.2149L275.56 22.196M285.268 20.2149L278.136 31.5064M277.938 11.8951L264.069 6.1504M277.938 11.8951L275.56 22.196M277.938 11.8951L267.833 17.0455M277.938 11.8951L256.144 13.6779M264.069 6.1504L239.501 1M264.069 6.1504L267.833 17.0455M264.069 6.1504L256.144 13.6779M239.501 1H227.416M239.501 1L256.144 13.6779M239.501 1L235.935 10.7065M227.416 1L212.952 1.79236M227.416 1L235.935 10.7065M227.416 1L220.481 11.3008M212.952 1.79236L197.697 5.15993M212.952 1.79236L220.481 11.3008M212.952 1.79236L207.009 11.8951M212.952 1.79236L235.935 10.7065M197.697 5.15993L187.79 7.93323M197.697 5.15993L207.009 11.8951M197.697 5.15993L194.131 15.2626M187.79 7.93323L176.101 13.2817M187.79 7.93323L194.131 15.2626M187.79 7.93323L180.46 21.0073M176.101 13.2817L172.931 17.0455M176.101 13.2817L180.46 21.0073M172.931 17.0455L169.959 20.8092M172.931 17.0455L175.507 26.356M172.931 17.0455L180.46 21.0073M169.959 20.8092L168.176 28.535M169.959 20.8092L180.46 21.0073M169.959 20.8092L175.705 29.9216M168.176 28.535L171.94 38.4396M168.176 28.535L175.705 29.9216M171.94 38.4396L181.648 45.1747M171.94 38.4396L184.819 38.2415M171.94 38.4396L175.705 29.9216M181.648 45.1747L188.187 47.7499M181.648 45.1747L175.705 29.9216M181.648 45.1747L191.753 41.411M188.187 47.7499L196.31 49.9289M188.187 47.7499L191.753 41.411M188.187 47.7499L184.819 38.2415M188.187 47.7499L202.056 43.9862M196.31 49.9289L212.358 53.0984M196.31 49.9289L210.179 45.5709M196.31 49.9289L191.753 41.411M196.31 49.9289L202.056 43.9862M212.358 53.0984H215.419V46.3633L210.179 45.5709M212.358 53.0984L210.179 45.5709M210.179 45.5709L202.056 43.9862M210.179 45.5709L215.419 32.2203L202.056 43.9862M202.056 43.9862L191.753 41.411M191.753 41.411L184.819 38.2415M184.819 38.2415L175.705 29.9216M175.705 29.9216L175.507 26.356M175.507 26.356L180.46 21.0073M180.46 21.0073L194.131 15.2626M194.131 15.2626L207.009 11.8951M194.131 15.2626L214.132 18.2198L203.783 22.2273L207.009 11.8951M194.131 15.2626L215.419 29.9355L210.293 22.3985M207.009 11.8951L220.481 11.3008M207.009 11.8951L218.433 22.0382M220.481 11.3008L234.548 10.7065H235.935M235.935 10.7065L256.144 13.6779M235.935 10.7065L241.474 7.06752L256.144 13.6779M256.144 13.6779L267.239 17.0455H267.833M267.833 17.0455L275.56 22.196M275.56 22.196L278.136 31.5064M278.136 31.5064L273.183 36.6568M278.136 31.5064L261.391 30.7993M273.183 36.6568L269.22 38.6377M269.22 38.6377L256.738 42.7976M269.22 38.6377L265.176 38.4003L261.391 30.7993M269.22 38.6377L246.572 37.3083M269.22 38.6377L261.391 30.7993M256.738 42.7976L241.879 46.1652M256.738 42.7976L242.539 52.9995L241.879 46.1652M241.879 46.1652H239.462M261.391 30.7993L239.462 35.2528V29.5147L261.391 30.7993ZM261.391 30.7993L246.572 37.3083M210.293 22.3985L204.073 22.1153M264.647 242.84L271.308 241.322M264.647 242.84L280.85 232.529M264.647 242.84L271.463 232.269M271.308 241.322L288.646 235.066M271.308 241.322L280.85 232.529M288.646 235.066L297.25 227.376M288.646 235.066L292.974 224.057M288.646 235.066L280.85 232.529M297.25 227.376L303.638 215.254M297.25 227.376L292.974 224.057M303.638 215.254L305.985 199.743M303.638 215.254L300.014 209.588M303.638 215.254L292.974 224.057M305.985 199.743L303.247 184.884L295.686 170.807M305.985 199.743L297.25 187.752M305.985 199.743L294.408 199.682M305.985 199.743L300.014 209.588M295.686 170.807L285.387 163.638M295.686 170.807L288.125 173.544L285.648 163.378L285.387 163.638M295.686 170.807L297.25 187.752M295.686 170.807L372.742 159.769M295.686 170.807L306.774 172.413M285.387 163.638L271.308 160.119M285.387 163.638L280.564 170.547M271.308 160.119L259.048 162.987L271.699 165.072M271.308 160.119L271.699 165.072M271.308 160.119L280.564 170.547M271.699 165.072L280.564 170.547M271.699 165.072L277.174 177.715M271.699 165.072L259.048 174.457M280.564 170.547L277.174 177.715M297.25 187.752L303.1 184.611L300.175 186.181M297.25 187.752L290.627 182.997M297.25 187.752L294.408 199.682M277.174 177.715L259.048 174.457M277.174 177.715L271.308 181.756L259.048 174.457M277.174 177.715L290.627 182.997M277.174 177.715L276.287 186.777L290.627 182.997M290.627 182.997L294.902 171.091M290.627 182.997L286.456 195.12M290.627 182.997L294.408 199.682M294.408 199.682L300.014 209.588M294.408 199.682L292.453 216.627M294.408 199.682L285.543 212.326M294.408 199.682L286.456 195.12M294.408 199.682L277.982 205.547M300.014 209.588L292.453 216.627M292.974 224.057L292.453 216.627M292.974 224.057L280.85 232.529M292.453 216.627L285.543 212.326M292.453 216.627L280.85 232.529M280.85 232.529L271.463 232.269M280.85 232.529L273.158 220.146M280.85 232.529L285.543 212.326M271.463 232.269L267.283 227.336L273.158 220.146M271.463 232.269L273.158 220.146M273.158 220.146L285.543 212.326M273.158 220.146L270.433 208.808L277.982 205.547M273.158 220.146L277.982 205.547M285.543 212.326L277.982 205.547M277.982 205.547L275.635 193.164L286.456 195.12M277.982 205.547L286.456 195.12M304.959 206.527L369.613 182.19M369.613 182.19L374.828 175.803M369.613 182.19L362.601 174.354M369.613 182.19L355.207 182.141M374.828 175.803L379 166.939M374.828 175.803L371.178 167.46M374.828 175.803L362.601 174.354M379 166.939L376.523 161.334M379 166.939L371.178 167.46M376.523 161.334L372.742 159.769M376.523 161.334L371.178 167.46M372.742 159.769L362.573 164.853M372.742 159.769L371.178 167.46M306.774 172.413L314.978 168.044M306.774 172.413L316.683 175.281M306.774 172.413L305.997 180.761M306.774 172.413L315.776 181.152M314.978 168.044L316.683 175.281M314.978 168.044L324.635 169.806M316.683 175.281L324.635 169.806M316.683 175.281L325.294 181.934M324.635 169.806L331.076 165.738M324.635 169.806L329.659 174.139M324.635 169.806L325.294 181.934M331.076 165.738L347.581 166.548M331.076 165.738L329.659 174.139M347.581 166.548L353.597 162.512M347.581 166.548L329.659 174.139M347.581 166.548L344.021 178.795M347.581 166.548L354.658 174.58L344.021 178.795M347.581 166.548L357.059 168.699M353.597 162.512L362.573 164.853M353.597 162.512L357.059 168.699M362.573 164.853L362.601 174.354M362.573 164.853L371.178 167.46M362.573 164.853L357.059 168.699M371.178 167.46L362.601 174.354M362.601 174.354L357.059 168.699M362.601 174.354L355.207 182.141M355.207 182.141L357.012 186.933M355.207 182.141L344.021 178.795M355.207 182.141L343.243 192.116M329.659 174.139L344.021 178.795M344.021 178.795L330.64 191.32M344.021 178.795L330.509 180.239L330.64 191.32M344.021 178.795L343.243 192.116M325.294 181.934L330.64 191.32M325.294 181.934L317.471 190.277M325.294 181.934L315.776 181.152M305.997 180.761L299.467 177.846L307.822 187.018M305.997 180.761L315.776 181.152M305.997 180.761L307.822 187.018M307.822 187.018L307.301 200.837L313.298 196.796M307.822 187.018L313.298 196.796M313.298 196.796L307.225 205.674M313.298 196.796L324.748 199.078M313.298 196.796L317.471 190.277M324.748 199.078L317.471 190.277M324.748 199.078L330.64 191.32M317.471 190.277L330.64 191.32M317.471 190.277L315.776 181.152M330.64 191.32L343.243 192.116M328.686 276.42L333.38 275.507V197.679L328.887 197.52L333.38 212.149M328.686 276.42L322.166 277.593M328.686 276.42L322.036 269.38M328.686 276.42L333.38 256.995M322.166 277.593L313.039 275.638M322.166 277.593L322.036 269.38M313.039 275.638V203.562M313.039 275.638L321.514 250.347M313.039 275.638L322.036 269.38M313.039 203.562L322.036 202.633L317.994 215.93M313.039 203.562L317.994 215.93M317.994 215.93L313.039 224.273M317.994 215.93L329.729 218.146M317.994 215.93L323.731 233.66M313.039 224.273L321.514 250.347M313.039 224.273L323.731 233.66M321.514 250.347L313.039 249.304M321.514 250.347L322.036 269.38M321.514 250.347L325.273 255.152L333.38 256.995M321.514 250.347L328.946 239.005M321.514 250.347L323.731 233.66M322.036 269.38L333.38 256.995M322.036 269.38L328.946 239.005M333.38 256.995L328.946 239.005M328.946 239.005L333.38 234.833M333.38 234.833L323.731 233.66M333.38 234.833L329.729 218.146M323.731 233.66L329.729 218.146M329.729 218.146L333.38 212.149M329.729 218.146L324.774 205.892L333.38 212.149" stroke="url(#paint0_linear_83_1417)" stroke-miterlimit="22.9256"/>
    <defs>
        <linearGradient id="paint0_linear_83_1417" x1="191.518" y1="318.545" x2="191.518" y2="0.999996" gradientUnits="userSpaceOnUse">
            <stop stop-color="#00E0FF"/>
            <stop offset="1" stop-color="#00FA9C"/>
        </linearGradient>
    </defs>
</svg>
