<svg width="90" height="88" viewBox="0 0 90 88" fill="none" xmlns="http://www.w3.org/2000/svg">
    <g filter="url(#filter0_b_78_1184)">
        <ellipse cx="45" cy="43.7069" rx="45" ry="43.7069" fill="url(#paint0_linear_78_1184)"/>
    </g>
    <path fill-rule="evenodd" clip-rule="evenodd" d="M48.2633 35.2143C44.3443 35.2193 36.6538 35.5745 41.3641 41.3169C44.4111 45.0316 50.2547 46.2355 54.5478 43.8978C56.8047 42.2925 60.4704 39.9364 58.6244 36.7002C57.4074 34.5668 54.5115 35.0067 52.4031 35.0669C51.0229 35.1062 49.644 35.1724 48.2633 35.2143Z" fill="#262525"/>
    <path fill-rule="evenodd" clip-rule="evenodd" d="M47.1786 36.2307C45.1007 36.5053 41.762 37.5789 44.549 39.93C47.4989 41.9209 51.0808 41.7147 53.7602 39.3818C57.8722 35.8017 48.7726 36.1342 47.1786 36.2307ZM50.8967 31.6738L53.8268 27.1316C55.1321 24.9083 56.8684 21.4341 56.8224 18.7695C56.7825 16.4574 55.6944 14.5995 54.6106 13.4357C54.1157 12.9045 53.2774 12.2839 52.4221 11.8539C50.8136 11.0451 49.9291 11.1995 49.4403 11H48.2255C47.7325 11.1906 45.8964 11.0274 43.7327 12.7939C43.6068 12.8968 43.5096 12.9479 43.3984 13.0614C42.8468 13.6244 42.3738 14.1004 41.9416 14.8252C41.2949 15.9099 40.8234 17.2031 40.791 18.7151C40.7743 19.4955 40.8962 20.2513 41.0714 20.9629C41.1874 21.4342 41.6569 22.6291 41.6707 22.9283L42.7031 25.1323C42.9783 25.5045 43.3128 26.2904 43.5825 26.7401C44.4978 28.2663 45.0133 29.1177 46.0097 30.5866C46.1551 30.801 46.4335 31.1532 46.5383 31.3951L47.6544 32.8716C47.8884 33.1791 48.0155 33.3876 48.2551 33.7299C48.4769 33.8859 48.5203 34.0177 48.891 33.9961C49.2228 33.9769 49.206 33.8818 49.4695 33.6677C50.095 32.7961 49.4695 33.6677 50.095 32.7961C50.1203 32.7785 50.8105 31.7951 50.8967 31.6738ZM48.4617 21.5975C48.0605 21.3744 47.0002 20.6431 46.502 20.3129C46.2815 20.1668 46.0547 19.9909 45.6777 20.0254C45.1251 20.0761 44.658 20.6656 44.9018 21.289C45.0246 21.6028 45.1719 21.6731 45.4309 21.8429C45.6689 21.9988 45.8652 22.1365 46.1013 22.2887L48.0577 23.5775C48.9092 24.1109 49.4517 23.2899 50.0995 22.648L53.9365 18.8514C54.7495 18.0317 53.8274 16.9025 52.9203 17.3057C52.4486 17.5155 48.8167 21.4351 48.4617 21.5975Z" fill="#262525"/>
    <path fill-rule="evenodd" clip-rule="evenodd" d="M70.5144 30.6397C69.6712 30.4723 66.3556 30.2069 64.3247 30.0701C61.1979 29.7017 56.9499 29.7507 52.6323 30.0297C52.4059 30.385 52.178 30.7382 51.9479 31.0861C55.6087 30.7795 59.307 30.6749 62.7975 31.0425C63.567 32.7092 64.9775 34.4094 66.3832 36.1039C67.4264 37.3614 68.4673 38.616 69.2289 39.8384C70.7529 42.2843 70.9684 43.8034 70.2733 44.9075C69.5654 46.032 67.9036 46.7816 65.7099 47.6487C63.2852 48.6148 61.8059 49.677 60.4497 50.6512C58.4611 52.0798 56.7402 53.3161 52.6203 53.7452L52.0281 53.7794L50.8414 53.8251C49.139 53.8412 47.8703 53.6604 46.656 53.3001C45.4377 52.9385 44.2633 52.3919 42.7574 51.6808L42.7515 51.6791C41.9903 51.3448 41.2241 51.028 40.438 50.7884C39.6427 50.546 38.8244 50.3809 37.9659 50.3531H37.9531C34.873 50.4435 32.2903 52.2281 29.836 53.9239C29.4211 54.2106 29.0096 54.495 28.5859 54.7771C28.3597 54.927 28.184 55.0455 28.0169 55.1582C26.2551 56.3469 25.5 56.8564 23.1508 55.8723C22.8563 55.7489 22.5686 55.6442 22.2883 55.5579C20.5243 55.0142 18.9314 55.1362 17.6014 55.8048C16.2749 56.4717 15.2171 57.6803 14.5191 59.3122C14.4508 59.4717 14.3862 59.6345 14.3254 59.8004C14.1966 59.7671 14.067 59.7324 13.9362 59.6957C12.2542 59.2248 11.578 58.8626 10.4134 58.5057C10.473 58.1724 10.9001 57.2431 11.0646 56.8751C11.2876 56.3757 11.5221 55.8105 11.7469 55.2797L13.0324 52.2298C13.2222 52.0629 13.4119 51.9008 13.6018 51.7441C15.8217 49.9141 18.597 48.8827 21.2223 47.9072C24.0174 46.8685 26.6455 45.8919 28.3175 44.0737L28.326 44.0636C30.4426 41.4514 29.3308 39.7231 28.0079 37.6665C27.2406 36.4737 26.3984 35.1645 26.1298 33.5005C26.2127 33.5003 26.2932 33.499 26.3703 33.4963L32.8248 33.2608L40.2237 32.486C42.0969 32.2442 44.072 31.9704 46.1027 31.7153L46.0628 31.6625L46.0382 31.6055C45.9842 31.4809 45.8316 31.2688 45.7042 31.0918C45.6535 31.0215 45.6058 30.9552 45.5585 30.8854L45.4266 30.6903C43.5746 30.909 41.8316 31.1534 40.2978 31.4059L32.6215 32.1892L26.4107 32.2238C23.1007 32.2276 24.2771 32.2062 20.1413 31.5697C19.8974 31.8566 18.842 34.5135 18.584 35.1124C17.7414 37.0693 8.08309 59.5024 8 59.8783C8.34243 60.0586 9.49901 60.342 9.97111 60.4611C15.7153 61.9095 19.8173 62.2725 25.9715 61.8126C32.0778 61.356 38.0977 60.2584 44.2604 59.784C50.8825 59.2743 57.3532 59.3494 63.9507 59.7906C67.9595 60.0586 73.5843 60.7139 77.6333 61.3116C79.0394 61.5194 80.6416 61.8531 82 61.9957L79.4165 52.9041C79.2543 52.3445 79.0274 51.6994 78.8604 51.1007L70.5144 30.6397ZM69.2837 31.6509C69.8939 33.9718 75.3052 46.6348 76.2879 49.1046C76.3038 53.1119 71.6633 54.0838 68.1101 54.8282C67.7287 54.908 67.3593 54.9854 67.0024 55.0651C64.8645 55.5428 63.2938 56.0299 61.9087 56.4595C59.6543 57.1585 57.8954 57.7039 54.9942 57.7935C54.4305 57.7905 53.8677 57.7912 53.3049 57.7958C52.7087 57.7809 52.0678 57.75 51.3723 57.7014C49.847 57.5853 48.3273 57.4143 46.9244 57.1863C45.6399 56.9775 44.4515 56.7208 43.4448 56.4142C43.1346 56.3132 42.9533 56.2528 42.7701 56.1919C42.2446 56.017 41.7171 55.8415 41.2036 55.6895L41.1976 55.6878C35.1412 54.0675 32.5768 56.1329 28.5323 59.3904C28.1963 59.6611 27.8495 59.9403 27.4795 60.2343C27.2796 60.2562 27.0797 60.2772 26.8801 60.2975C23.8947 60.6002 20.8523 60.7713 17.9096 60.4274C16.8016 60.298 15.795 60.1505 14.7496 59.905C14.8036 59.7591 14.8602 59.617 14.9193 59.479C15.5765 57.9426 16.5641 56.8089 17.7973 56.1889C19.0272 55.5706 20.5091 55.4605 22.159 55.9691C22.4318 56.0532 22.7065 56.1528 22.9823 56.2683C25.5497 57.3438 26.3635 56.7948 28.2622 55.5138C28.4516 55.386 28.6527 55.2503 28.8277 55.1344C29.2342 54.8637 29.6575 54.5712 30.0846 54.2761C32.4852 52.6174 35.0115 50.8717 37.9589 50.783C38.771 50.81 39.5502 50.9678 40.3103 51.1995C41.08 51.4341 41.828 51.7431 42.5705 52.0692C44.0923 52.7879 45.2797 53.3413 46.5317 53.7128C47.7864 54.0852 49.0955 54.2717 50.8508 54.2547C51.397 54.2547 52.0967 54.221 52.6591 54.1737C56.9011 53.7328 58.6658 52.4651 60.7051 51.0001C62.0415 50.04 63.4986 48.9932 65.8706 48.0477C68.1423 47.1498 69.8677 46.3663 70.6429 45.135C71.4308 43.8833 71.2252 42.2233 69.5985 39.6125C68.8216 38.3656 67.7713 37.0997 66.7187 35.8309C65.327 34.1534 64.0434 32.7091 63.2992 31.0893C63.4293 30.9996 69.2226 31.6936 69.2837 31.6509ZM54.2806 49.1012C45.6541 50.817 42.9391 47.9679 38.8331 43.6587C37.665 42.4328 36.3825 41.087 34.8219 39.7021C33.2146 38.2758 32.9575 37.4273 33.569 36.7524C34.051 36.2204 35.098 35.8613 36.4454 35.3993L37.2927 35.1078C41.145 33.7821 43.0552 33.1249 46.843 32.6946L47.1457 33.0949C43.2283 33.5207 41.3366 34.1715 37.4358 35.5139L36.5867 35.8054C35.2995 36.2468 34.2994 36.5898 33.8925 37.0388C33.4728 37.5021 33.743 38.1677 35.1114 39.382C36.6926 40.7851 37.9785 42.1346 39.1498 43.3638C43.1535 47.5657 45.802 50.3448 54.1779 48.6834L54.7766 48.4692C55.4193 48.1899 55.8845 47.9617 56.3309 47.7041C56.7775 47.4463 57.2093 47.1564 57.7849 46.7536L57.7874 46.7519C58.1799 46.4871 58.6818 46.1766 59.2312 45.8366C60.8669 44.8245 62.932 43.5467 63.6331 42.5439C63.7088 42.4355 63.7765 42.3217 63.8363 42.2033C64.525 40.8382 63.9962 39.0525 62.9965 37.3994C61.9782 35.7155 60.4766 34.1783 59.255 33.342C59.0155 33.1781 58.7861 33.0411 58.5727 32.9357C57.0127 32.1648 53.5084 32.4709 50.7985 32.7439C50.9123 32.5877 51.032 32.4193 51.1318 32.2783C53.8362 32.0119 57.1747 31.7631 58.7668 32.5499C58.9945 32.6623 59.2418 32.8101 59.5019 32.9881C60.7666 33.854 62.3191 35.4421 63.3694 37.1787C64.4381 38.946 64.9925 40.8765 64.2262 42.3953C64.1594 42.5278 64.081 42.659 63.9906 42.7882C63.2374 43.8656 61.1301 45.1696 59.461 46.2023C58.9152 46.5401 58.4165 46.8487 58.0349 47.1059C57.4512 47.5144 57.0111 47.8098 56.5488 48.0765C56.0877 48.3426 55.6076 48.578 54.9439 48.8663C54.7365 48.9486 54.5103 49.0226 54.2988 49.0976L54.2806 49.1012ZM20.6733 34.1337C21.2339 35.8005 21.9148 37.8772 21.4085 38.9038C21.059 39.6125 20.2231 39.8344 18.5624 39.1426L18.4593 39.3882C18.204 39.9531 17.9559 40.5207 17.7125 41.0888L17.9038 41.1034C22.5581 41.4655 23.8894 40.9243 23.9921 39.6313C24.0451 38.9637 23.8017 38.0795 23.5098 37.019C23.2386 36.0335 22.9252 34.8991 22.7611 33.615L23.1919 33.5611C23.3509 34.8047 23.6606 35.9292 23.9295 36.9061C24.2329 38.008 24.4849 38.9269 24.4263 39.6651C24.3008 41.2455 22.8644 41.9216 17.8697 41.5331C17.7548 41.5241 17.643 41.5156 17.534 41.5077C16.9328 42.9245 16.3578 44.342 15.7725 45.7288L13.4035 51.3493C15.666 49.513 18.4425 48.481 21.0707 47.5044C23.8122 46.4856 26.3899 45.5278 27.9927 43.7871C29.907 41.4189 28.8726 39.8105 27.6418 37.8973C26.839 36.6494 25.9569 35.278 25.6886 33.4922C24.2584 33.4389 22.2921 33.1428 21.1214 33.0183C21.0343 33.3453 20.8435 33.7587 20.6733 34.1337ZM18.7292 38.7453C20.1088 39.3255 20.7734 39.2085 21.0168 38.715C21.4069 37.9243 20.9101 36.2255 20.415 34.7288L18.7292 38.7453ZM76.6456 50.0264C77.0236 51.0292 77.355 52.0184 77.5889 52.977L79.4092 59.9298C78.0525 59.7734 76.5115 59.5308 75.1446 59.3072C73.7592 59.0807 72.3972 58.9384 70.958 58.7816C66.5077 58.2968 62.3997 57.985 58.3987 57.8574C59.6471 57.612 60.7647 57.2655 62.0381 56.8707C63.4186 56.4425 64.9841 55.957 67.0978 55.4847C67.4431 55.4076 67.8151 55.3297 68.1995 55.2492C71.6253 54.5317 76.0205 53.6108 76.6456 50.0264ZM48.9881 57.9061C44.6163 58.0938 40.1492 58.5147 35.2746 59.1841C32.964 59.5015 30.6188 59.8657 28.2868 60.1422C28.4621 60.0014 28.6356 59.8617 28.8065 59.724C32.7446 56.5521 35.2417 54.5411 41.0839 56.1036C41.6091 56.2592 42.1216 56.4298 42.6322 56.5997C42.9002 56.6888 43.1696 56.7785 43.3086 56.8237L43.3128 56.8246C44.3402 57.1372 45.5496 57.3988 46.8546 57.6109C47.5436 57.7229 48.259 57.8212 48.9881 57.9061ZM48.2632 35.4287C46.3234 35.4311 43.4521 35.5193 41.6661 36.3099C39.9858 37.0536 39.3142 38.4762 41.5325 41.1807C43.0302 43.0066 45.2209 44.2131 47.5642 44.6717C49.8821 45.1255 52.3468 44.8472 54.4348 43.713L54.7598 43.4827C56.9562 41.932 60.0955 39.7156 58.4353 36.8051C57.4312 35.0449 55.1349 35.1553 53.2062 35.2481C52.9366 35.261 52.6739 35.2737 52.4089 35.2812C51.6953 35.3016 50.9682 35.3298 50.2413 35.3579C49.5897 35.3831 48.9378 35.4084 48.2691 35.4287H48.2632ZM41.4891 35.9173C43.3485 35.0942 46.2783 35.0016 48.2572 34.999C48.902 34.9795 49.5633 34.9538 50.2243 34.9282C50.9439 34.9004 51.6637 34.8725 52.3971 34.8516C52.6407 34.8446 52.9098 34.8316 53.1858 34.8184C55.236 34.7198 57.677 34.6025 58.8133 36.5944C60.6655 39.8417 57.3392 42.1901 55.0119 43.8332L54.6609 44.0814L54.6524 44.086C52.4697 45.2746 49.8968 45.5677 47.4808 45.0947C45.0418 44.6172 42.7591 43.3585 41.1954 41.452C38.7036 38.4142 39.522 36.7879 41.4891 35.9173ZM47.1968 36.4449C46.3746 36.5543 45.3545 36.7907 44.6178 37.1836C44.2589 37.375 43.972 37.6014 43.8203 37.864C43.6806 38.1059 43.6575 38.3892 43.8056 38.7185C43.9433 39.0247 44.2223 39.3698 44.6802 39.7578C46.1132 40.7223 47.6974 41.1541 49.2471 41.062C50.7966 40.9698 52.315 40.3528 53.6164 39.2198C54.1453 38.7593 54.4402 38.3759 54.5508 38.0579C54.6688 37.7188 54.5526 37.4522 54.282 37.2433C53.964 36.9979 53.4478 36.8192 52.8344 36.6904C50.8882 36.2817 48.0308 36.3947 47.1968 36.4449ZM44.4117 36.8044C45.2024 36.3828 46.2845 36.1317 47.1505 36.0172L47.1658 36.0156C48.007 35.9648 50.9229 35.8488 52.9246 36.2692C53.597 36.4104 54.1735 36.6144 54.5494 36.9046C54.9726 37.2312 55.1522 37.6537 54.9629 38.1978C54.8283 38.5847 54.4932 39.0304 53.9041 39.5433C52.5283 40.7412 50.9187 41.3937 49.2727 41.4916C47.625 41.5897 45.9433 41.1313 44.4263 40.1075L44.4175 40.1016L44.4076 40.0932C43.8923 39.6584 43.5731 39.2589 43.4089 38.8937C43.197 38.4227 43.2347 38.0093 43.4423 37.65C43.6378 37.3117 43.9849 37.032 44.4117 36.8044ZM51.4651 38.0407C50.9115 37.3975 49.0798 37.3188 47.7148 37.5223C47.1888 37.6008 46.7383 37.7218 46.4638 37.8692C46.3073 37.9532 46.2293 38.0339 46.2801 38.096C46.424 38.2723 46.865 38.4703 47.7196 38.6783C48.4354 38.8526 49.3976 38.984 50.2109 38.8121C50.7271 38.7031 51.1822 38.4696 51.4651 38.0407ZM47.6501 37.096C49.213 36.8629 51.3661 37.0177 51.9108 37.92L51.9744 38.0254L51.9159 38.1323C51.5709 38.7621 50.9768 39.0907 50.3011 39.2334C49.4121 39.4212 48.3796 39.2821 47.6157 39.0962C46.6603 38.8637 46.1419 38.6112 45.9413 38.3656C45.6614 38.0228 45.8192 37.7246 46.2561 37.49C46.575 37.3189 47.0761 37.1816 47.6501 37.096Z" fill="#262525"/>
    <defs>
        <filter id="filter0_b_78_1184" x="-6" y="-6" width="102" height="99.4138" filterUnits="userSpaceOnUse" color-interpolation-filters="sRGB">
            <feFlood flood-opacity="0" result="BackgroundImageFix"/>
            <feGaussianBlur in="BackgroundImageFix" stdDeviation="3"/>
            <feComposite in2="SourceAlpha" operator="in" result="effect1_backgroundBlur_78_1184"/>
            <feBlend mode="normal" in="SourceGraphic" in2="effect1_backgroundBlur_78_1184" result="shape"/>
        </filter>
        <linearGradient id="paint0_linear_78_1184" x1="44.6386" y1="88.4007" x2="44.6386" y2="-1.21047e-06" gradientUnits="userSpaceOnUse">
            <stop stop-color="#00E0FF"/>
            <stop offset="1" stop-color="#00FA9C"/>
        </linearGradient>
    </defs>
</svg>
