<svg width="484" height="678" viewBox="0 0 484 678" fill="none" xmlns="http://www.w3.org/2000/svg">
    <g filter="url(#filter0_d_84_1423)">
        <path d="M230.242 510.965C221.393 510.965 212.595 510.274 203.926 508.917V542.96H261.134V508.141C251.113 509.99 240.79 510.965 230.242 510.965ZM230.242 510.965C200.969 510.965 172.256 503.418 146.909 489.134H107.826C102.642 489.134 98.4399 484.932 98.4399 479.748V465.198H230.242H293.03M230.242 510.965C309.968 510.965 377.033 455.765 395.256 381.58M297.907 445.084C331.882 422.91 354.386 384.563 354.386 341.054C354.386 311.623 344.224 283.968 326.145 262.098C341.674 256.009 352.669 240.89 352.669 223.203M297.907 445.084C320.792 439.821 361.402 424.71 395.256 381.58M297.907 445.084L297.891 445.095C299.01 446.287 299.696 447.891 299.696 449.656M395.256 381.58C397.166 374.453 400.154 363.777 400.154 341.053C400.154 296.198 382.911 254.358 352.668 223.116L352.669 223.203M352.669 223.203C352.669 246.267 333.972 264.966 310.907 264.966C287.842 264.966 269.144 246.267 269.144 223.203M352.669 223.203C352.669 200.138 333.972 181.44 310.907 181.44M299.696 449.656V458.531M299.696 449.656C299.696 445.974 296.711 442.989 293.03 442.989H90.6667C86.9847 442.989 84 445.974 84 449.656C84 452.851 84.0003 453.559 84.0003 454.093M299.696 449.656V454.093M299.696 458.531C299.696 462.213 296.711 465.198 293.03 465.198M299.696 458.531V454.093M293.03 465.198H90.667C86.985 465.198 84.0003 462.213 84.0003 458.531V454.093M344.008 101.652L304.931 84L295.745 104.333L334.823 121.986M344.008 101.652L333.907 97.0896L324.721 117.422L334.823 121.986M344.008 101.652L334.823 121.986M349.032 128.405L281.536 97.9135L194.863 289.775L262.36 320.266M349.032 128.405L324.111 183.573C319.96 182.191 315.521 181.44 310.907 181.44M349.032 128.405L321.933 116.163L289.882 187.114C296.057 183.508 303.24 181.44 310.907 181.44M310.907 181.44C287.842 181.44 269.144 200.138 269.144 223.203M269.144 223.203C269.144 238.608 277.487 252.064 289.899 259.303M289.899 259.303L262.36 320.266M289.899 259.303C279.715 253.363 272.272 243.238 269.928 231.284L235.261 308.024L262.36 320.266M182.315 373.876L171.397 368.944L180.994 347.7L191.912 352.632M182.315 373.876L191.912 352.632M182.315 373.876L187.384 376.165L196.98 354.922L191.912 352.632M212.953 387.716L202.481 382.986L212.077 361.742L222.55 366.473M212.953 387.716L222.55 366.473M212.953 387.716L218.467 390.207L228.064 368.964L222.55 366.473M210.911 361.215L170.78 343.086L181.203 320.014L221.334 338.143M210.911 361.215L218.873 343.591L221.334 338.143M210.911 361.215L238.277 373.578L248.7 350.505M210.911 361.215L221.334 338.143M221.334 338.143L208.569 332.376L222.229 302.137L217.424 299.967M221.334 338.143L248.7 350.505M221.334 338.143L234.994 307.904L275.903 326.384L262.243 356.624L248.7 350.505M193.904 325.751L203.764 330.205L217.424 299.967M193.904 325.751L207.564 295.512M193.904 325.751L167.66 313.896L181.32 283.657L207.564 295.512M217.424 299.967L207.564 295.512M84.0003 454.093H299.696M168.17 564.742V551.502C168.17 546.784 172.303 542.96 177.402 542.96H287.658C292.757 542.96 296.891 546.784 296.891 551.502V564.742H168.17ZM123.833 593.919V576.184C123.833 569.865 128.956 564.742 135.275 564.742H329.786C336.105 564.742 341.228 569.865 341.228 576.184V593.919H123.833ZM336.561 223.203C336.561 237.372 325.075 248.857 310.907 248.857C296.738 248.857 285.252 237.372 285.252 223.203C285.252 209.035 296.738 197.549 310.907 197.549C325.075 197.549 336.561 209.035 336.561 223.203ZM333.01 223.203C333.01 235.41 323.114 245.306 310.907 245.306C298.699 245.306 288.803 235.41 288.803 223.203C288.803 210.996 298.699 201.1 310.907 201.1C323.114 201.1 333.01 210.996 333.01 223.203Z" stroke="url(#paint0_linear_84_1423)" stroke-miterlimit="22.9256" shape-rendering="crispEdges"/>
    </g>
    <defs>
        <filter id="filter0_d_84_1423" x="0.800003" y="0.638508" width="482.553" height="676.481" filterUnits="userSpaceOnUse" color-interpolation-filters="sRGB">
            <feFlood flood-opacity="0" result="BackgroundImageFix"/>
            <feColorMatrix in="SourceAlpha" type="matrix" values="0 0 0 0 0 0 0 0 0 0 0 0 0 0 0 0 0 0 127 0" result="hardAlpha"/>
            <feOffset/>
            <feGaussianBlur stdDeviation="41.35"/>
            <feComposite in2="hardAlpha" operator="out"/>
            <feColorMatrix type="matrix" values="0 0 0 0 0 0 0 0 0 0.980392 0 0 0 0 0.611765 0 0 0 1 0"/>
            <feBlend mode="normal" in2="BackgroundImageFix" result="effect1_dropShadow_84_1423"/>
            <feBlend mode="normal" in="SourceGraphic" in2="effect1_dropShadow_84_1423" result="shape"/>
        </filter>
        <linearGradient id="paint0_linear_84_1423" x1="240.807" y1="599.676" x2="240.807" y2="84" gradientUnits="userSpaceOnUse">
            <stop stop-color="#00E0FF"/>
            <stop offset="1" stop-color="#00FA9C"/>
        </linearGradient>
    </defs>
</svg>
