<svg width="90" height="88" viewBox="0 0 90 88" fill="none" xmlns="http://www.w3.org/2000/svg">
    <g filter="url(#filter0_b_78_1192)">
        <ellipse cx="45" cy="43.7069" rx="45" ry="43.7069" fill="url(#paint0_linear_78_1192)"/>
    </g>
    <path d="M66.1505 45.7891H48.8107C48.5854 45.7892 48.3694 45.8778 48.2101 46.0354C48.0508 46.1931 47.9613 46.4068 47.9612 46.6297V50.1605C47.7942 50.3075 47.621 50.4474 47.4417 50.5803C47.3139 50.4286 47.1795 50.2824 47.0388 50.1422C45.7096 48.8313 43.9106 48.0936 42.034 48.0901C40.2009 48.09 38.4399 48.7964 37.1243 50.0596C36.0755 49.1074 35.2998 47.8978 34.8757 46.5534C34.4516 45.2089 34.3941 43.7774 34.7093 42.404C35.0244 41.0305 35.7008 39.7638 36.67 38.7324C37.6392 37.701 38.8667 36.9415 40.2282 36.5308L43.9728 39.4894L43.5456 40.0178C43.259 40.3656 43.0449 40.7661 42.9158 41.1962C42.7866 41.6263 42.7449 42.0775 42.7931 42.5237C42.8413 42.9699 42.9784 43.4022 43.1965 43.7955C43.4147 44.1889 43.7094 44.5356 44.0638 44.8155C44.4182 45.0954 44.8252 45.303 45.2612 45.4263C45.6972 45.5496 46.1536 45.586 46.6039 45.5336C47.0543 45.4812 47.4896 45.3409 47.8848 45.1209C48.28 44.9009 48.6272 44.6055 48.9063 44.2519L59.533 31.0757C59.8138 30.7272 60.0225 30.3274 60.1472 29.8991C60.2719 29.4708 60.3101 29.0224 60.2596 28.5795C60.2092 28.1366 60.0711 27.7079 59.8532 27.3178C59.6353 26.9277 59.3419 26.5839 58.9898 26.306C58.6377 26.0281 58.2336 25.8216 57.8008 25.6982C57.368 25.5748 56.9149 25.537 56.4674 25.587C56.0198 25.6369 55.5865 25.7735 55.1923 25.9891C54.7981 26.2047 54.4507 26.4951 54.1699 26.8436L52.7767 28.5729L41.7549 19.8704C41.5106 19.6771 41.2302 19.5334 40.9298 19.4475C40.6293 19.3615 40.3147 19.3351 40.0039 19.3696C39.6931 19.4041 39.3922 19.499 39.1185 19.6487C38.8448 19.7985 38.6036 20.0001 38.4087 20.2422L38.1908 20.5122L33.9714 17.1837C33.8614 17.0968 33.7313 17.0383 33.5929 17.0135C33.4544 16.9886 33.3119 16.9983 33.1781 17.0415C33.0443 17.0847 32.9235 17.1601 32.8265 17.261C32.7295 17.3619 32.6593 17.485 32.6223 17.6194L30.7971 24.2342C30.7534 24.3927 30.7577 24.5605 30.8095 24.7167C30.8613 24.8729 30.9582 25.0106 31.0883 25.1128L33.1655 26.7499L32.583 27.4752C32.2363 27.9029 32.0516 28.4371 32.061 28.9854C32.0704 29.5336 32.2733 30.0613 32.6345 30.4771C30.1874 32.1202 28.2242 34.3759 26.9451 37.0144C25.666 39.6529 25.1166 42.5798 25.3529 45.4968C25.5893 48.4139 26.6029 51.2168 28.2905 53.6199C29.9781 56.023 32.2793 57.9404 34.9597 59.1767V61.017H29.3922C29.167 61.0171 28.951 61.1057 28.7917 61.2633C28.6324 61.421 28.5428 61.6347 28.5427 61.8576V64.6678H23.8495C23.6242 64.668 23.4082 64.7566 23.249 64.9142C23.0897 65.0718 23.0001 65.2856 23 65.5085V69.1593C23 69.3823 23.0895 69.5961 23.2488 69.7538C23.4081 69.9114 23.6242 70 23.8495 70H60.217C60.3286 70.0001 60.4391 69.9784 60.5422 69.9361C60.6453 69.8939 60.7389 69.832 60.8178 69.7539C60.8967 69.6758 60.9593 69.5831 61.002 69.4811C61.0446 69.3791 61.0666 69.2698 61.0665 69.1593V65.5085C61.0665 65.2855 60.977 65.0717 60.8177 64.9141C60.6584 64.7564 60.4423 64.6678 60.217 64.6678H55.5238V61.8567C55.5238 61.6337 55.4343 61.4199 55.275 61.2622C55.1157 61.1046 54.8996 61.016 54.6743 61.016H49.1117V59.1839C52.7181 57.5011 55.6078 54.6115 57.2704 51.0252H66.1505C66.3758 51.025 66.5918 50.9364 66.751 50.7788C66.9103 50.6212 66.9999 50.4074 67 50.1845V46.6297C66.9999 46.4068 66.9103 46.1931 66.751 46.0354C66.5918 45.8778 66.3758 45.7892 66.1505 45.7891ZM55.4995 27.8903C55.7886 27.5436 56.2039 27.3233 56.6557 27.2768C57.1075 27.2304 57.5596 27.3615 57.9146 27.6419C58.2696 27.9224 58.499 28.3296 58.5532 28.7759C58.6076 29.2222 58.4824 29.6717 58.2049 30.0275L47.5777 43.2051C47.2874 43.554 46.8712 43.7773 46.4174 43.8277C45.9636 43.8781 45.5078 43.7516 45.1466 43.4751C44.7887 43.191 44.559 42.7783 44.5077 42.3272C44.4564 41.876 44.5877 41.4231 44.8728 41.0675L45.7806 39.9415C45.799 39.9223 45.817 39.9021 45.834 39.8809L53.5641 30.2912C53.568 30.2864 53.5728 30.283 53.5767 30.2782C53.5802 30.2735 53.5835 30.2685 53.5864 30.2633L55.4995 27.8903ZM40.1937 21.0401C40.2825 21.0296 40.3726 21.037 40.4585 21.0617C40.5445 21.0865 40.6244 21.1282 40.6937 21.1842L51.7175 29.8887L50.8233 30.9935C50.8194 30.9978 50.815 31.0007 50.8116 31.005L45.0311 38.1751L40.985 34.9806C40.9777 34.9739 40.9694 34.9686 40.9617 34.9624L34.5854 29.9252L34.0112 29.4683C33.9415 29.4144 33.8835 29.3472 33.8405 29.2707C33.7975 29.1942 33.7703 29.11 33.7607 29.023C33.7501 28.9346 33.7576 28.8449 33.7826 28.7594C33.8076 28.6738 33.8497 28.5941 33.9063 28.5249L35.016 27.1476L35.0228 27.1409L35.0291 27.1318L39.7379 21.2899C39.7932 21.2204 39.8621 21.1625 39.9403 21.1196C40.0186 21.0767 40.1047 21.0497 40.1937 21.0401ZM32.5835 24.1429L33.9214 19.294L37.1316 21.8265L34.2233 25.4356L32.5835 24.1429ZM26.9951 44.175C27.0024 41.6671 27.6475 39.2014 28.871 37.0052C30.0945 34.8089 31.857 32.9528 33.9961 31.6079L38.6718 35.3025C37.1732 35.9516 35.863 36.9622 34.861 38.2419C33.859 39.5215 33.1972 41.0293 32.9361 42.6274C32.675 44.2255 32.8229 45.8628 33.3664 47.3897C33.9099 48.9166 34.8315 50.2843 36.0471 51.3677C35.3379 52.4841 34.96 53.7753 34.9563 55.094V57.3037C32.5504 56.0362 30.5383 54.1447 29.1359 51.8319C27.7334 49.5191 26.9934 46.8722 26.9951 44.175ZM59.3675 68.3187H24.699V66.3491H59.3675V68.3187ZM53.8248 64.6678H30.2417V62.6983H53.8238L53.8248 64.6678ZM36.6553 61.017V55.094C36.6566 53.8795 37.0753 52.7016 37.8427 51.7539C37.967 51.6059 38.0951 51.4657 38.2311 51.3316C38.7305 50.8367 39.3237 50.444 39.9767 50.1763C40.6298 49.9086 41.3297 49.771 42.0366 49.7714C42.7434 49.7718 43.4433 49.9102 44.096 50.1786C44.7487 50.4471 45.3414 50.8404 45.8403 51.336C46.1034 51.5935 46.3376 51.8784 46.5388 52.1858C47.1097 53.0504 47.4134 54.0611 47.4126 55.094V61.017H36.6553ZM49.1117 57.3051V55.0954C49.1114 54.0184 48.8595 52.956 48.3757 51.9912C48.7786 51.6989 49.1577 51.3759 49.5097 51.0252H55.3835C53.9732 53.691 51.7888 55.8782 49.1117 57.3051ZM65.301 49.3439H49.6602V47.4704H65.301V49.3439Z" fill="#262525"/>
    <path d="M42.0335 52.1348C41.3821 52.1346 40.7452 52.3254 40.2035 52.6834C39.6617 53.0413 39.2394 53.5501 38.9899 54.1456C38.7405 54.7411 38.675 55.3963 38.8019 56.0286C38.9288 56.6609 39.2424 57.2417 39.7029 57.6976C40.1634 58.1535 40.7502 58.464 41.389 58.5899C42.0279 58.7157 42.6901 58.6513 43.292 58.4046C43.8938 58.158 44.4082 57.7403 44.7701 57.2044C45.1321 56.6684 45.3252 56.0383 45.3252 55.3937C45.3243 54.5299 44.9773 53.7018 44.3602 53.0908C43.7431 52.4799 42.9064 52.1361 42.0335 52.1348ZM42.0335 56.9708C41.7181 56.9711 41.4097 56.8788 41.1474 56.7056C40.885 56.5324 40.6805 56.2861 40.5596 55.9978C40.4387 55.7096 40.407 55.3923 40.4684 55.0862C40.5297 54.78 40.6815 54.4988 40.9044 54.2781C41.1274 54.0573 41.4115 53.907 41.7208 53.846C42.0301 53.7851 42.3507 53.8163 42.6421 53.9358C42.9335 54.0552 43.1825 54.2575 43.3577 54.517C43.5329 54.7765 43.6263 55.0816 43.6262 55.3937C43.6258 55.8117 43.4579 56.2125 43.1593 56.5081C42.8608 56.8038 42.4559 56.9701 42.0335 56.9708Z" fill="#262525"/>
    <defs>
        <filter id="filter0_b_78_1192" x="-6" y="-6" width="102" height="99.4138" filterUnits="userSpaceOnUse" color-interpolation-filters="sRGB">
            <feFlood flood-opacity="0" result="BackgroundImageFix"/>
            <feGaussianBlur in="BackgroundImageFix" stdDeviation="3"/>
            <feComposite in2="SourceAlpha" operator="in" result="effect1_backgroundBlur_78_1192"/>
            <feBlend mode="normal" in="SourceGraphic" in2="effect1_backgroundBlur_78_1192" result="shape"/>
        </filter>
        <linearGradient id="paint0_linear_78_1192" x1="44.6386" y1="88.4007" x2="44.6386" y2="-1.21047e-06" gradientUnits="userSpaceOnUse">
            <stop stop-color="#00E0FF"/>
            <stop offset="1" stop-color="#00FA9C"/>
        </linearGradient>
    </defs>
</svg>
