<svg width="90" height="88" viewBox="0 0 90 88" fill="none" xmlns="http://www.w3.org/2000/svg">
    <g filter="url(#filter0_b_78_1176)">
        <ellipse cx="45" cy="43.7069" rx="45" ry="43.7069" fill="url(#paint0_linear_78_1176)"/>
    </g>
    <path d="M51.8138 37.0587C51.7614 36.9816 51.694 36.9153 51.6155 36.8637C51.537 36.8121 51.4489 36.7762 51.3562 36.758C51.2636 36.7399 51.1682 36.7398 51.0755 36.7578C50.9829 36.7758 50.8947 36.8116 50.8161 36.8631C50.7375 36.9146 50.67 36.9807 50.6175 37.0578C50.5649 37.1349 50.5284 37.2214 50.5099 37.3124C50.4914 37.4033 50.4913 37.497 50.5097 37.588C50.528 37.679 50.5645 37.7655 50.6169 37.8427L52.0555 39.9614C52.1079 40.0386 52.1753 40.1049 52.2538 40.1565C52.3323 40.2081 52.4204 40.244 52.513 40.2622C52.6057 40.2803 52.7011 40.2804 52.7937 40.2624C52.8864 40.2443 52.9745 40.2086 53.0531 40.1571C53.1317 40.1056 53.1992 40.0394 53.2518 39.9624C53.3043 39.8853 53.3409 39.7988 53.3594 39.7078C53.3779 39.6168 53.378 39.5232 53.3596 39.4322C53.3413 39.3412 53.3048 39.2547 53.2524 39.1775L51.8138 37.0587Z" fill="#262525"/>
    <path d="M59.6361 32.3L61.0746 30.8875C61.2057 30.7543 61.2782 30.5759 61.2765 30.3907C61.2749 30.2056 61.1992 30.0284 61.0659 29.8975C60.9325 29.7665 60.7521 29.6923 60.5635 29.6906C60.3749 29.689 60.1932 29.7602 60.0576 29.8889L58.619 31.3014C58.488 31.4346 58.4155 31.613 58.4171 31.7982C58.4187 31.9833 58.4944 32.1605 58.6278 32.2914C58.7611 32.4224 58.9415 32.4966 59.1301 32.4982C59.3187 32.4999 59.5004 32.4287 59.6361 32.3Z" fill="#262525"/>
    <path d="M61.4961 41.4813C61.631 41.6137 61.814 41.6881 62.0047 41.6881C62.1954 41.6881 62.3783 41.6137 62.5132 41.4813L63.9518 40.0688C64.0828 39.9356 64.1553 39.7572 64.1537 39.572C64.152 39.3868 64.0764 39.2097 63.943 39.0788C63.8097 38.9478 63.6293 38.8735 63.4407 38.8719C63.2521 38.8703 63.0704 38.9415 62.9347 39.0702L61.4961 40.4827C61.3613 40.6151 61.2855 40.7947 61.2855 40.982C61.2855 41.1693 61.3613 41.3489 61.4961 41.4813Z" fill="#262525"/>
    <path d="M54.0926 33.9194C54.4899 33.9194 54.8119 33.6032 54.8119 33.2132C54.8119 32.8231 54.4899 32.5069 54.0926 32.5069C53.6954 32.5069 53.3733 32.8231 53.3733 33.2132C53.3733 33.6032 53.6954 33.9194 54.0926 33.9194Z" fill="#262525"/>
    <path d="M46.8997 38.8632C46.8997 39.2533 46.5777 39.5695 46.1804 39.5695C45.7832 39.5695 45.4611 39.2533 45.4611 38.8632C45.4611 38.4732 45.7832 38.157 46.1804 38.157C46.5777 38.157 46.8997 38.4732 46.8997 38.8632Z" fill="#262525"/>
    <path d="M35.3911 39.5695C35.3911 39.9595 35.0691 40.2757 34.6718 40.2757C34.2746 40.2757 33.9525 39.9595 33.9525 39.5695C33.9525 39.1794 34.2746 38.8632 34.6718 38.8632C35.0691 38.8632 35.3911 39.1794 35.3911 39.5695Z" fill="#262525"/>
    <path d="M28.9175 40.2757C28.9175 40.6658 28.5955 40.982 28.1982 40.982C27.801 40.982 27.4789 40.6658 27.4789 40.2757C27.4789 39.8857 27.801 39.5695 28.1982 39.5695C28.5955 39.5695 28.9175 39.8857 28.9175 40.2757Z" fill="#262525"/>
    <path d="M38.9875 42.3945C39.3848 42.3945 39.7068 42.0783 39.7068 41.6882C39.7068 41.2982 39.3848 40.982 38.9875 40.982C38.5903 40.982 38.2683 41.2982 38.2683 41.6882C38.2683 42.0783 38.5903 42.3945 38.9875 42.3945Z" fill="#262525"/>
    <path d="M62.7241 34.6257C62.7241 35.0158 62.402 35.332 62.0048 35.332C61.6075 35.332 61.2855 35.0158 61.2855 34.6257C61.2855 34.2357 61.6075 33.9194 62.0048 33.9194C62.402 33.9194 62.7241 34.2357 62.7241 34.6257Z" fill="#262525"/>
    <path fill-rule="evenodd" clip-rule="evenodd" d="M51.5283 21.2069H67.0398C67.2306 21.2069 67.4135 21.2813 67.5484 21.4138C67.6833 21.5462 67.7591 21.7259 67.7591 21.9132V55.8133C67.7591 56.0006 67.6833 56.1802 67.5484 56.3127C67.4135 56.4451 67.2306 56.5195 67.0398 56.5195H51.0802C50.7313 57.4638 50.1807 58.3239 49.4653 59.0421C48.7499 59.7602 47.8863 60.3197 46.9325 60.6831C45.9787 61.0464 44.9567 61.2052 43.9353 61.1488C42.9138 61.0924 41.9165 60.822 41.0102 60.3559L36.1974 65.0814C35.7916 65.4734 35.2444 65.692 34.6752 65.6896C34.1059 65.6873 33.5607 65.4642 33.1582 65.0689C32.7557 64.6736 32.5286 64.1382 32.5264 63.5793C32.5241 63.0204 32.7469 62.4832 33.1462 62.0848L37.9582 57.36C37.8159 57.0881 37.692 56.8073 37.5871 56.5195H22.4439C22.2531 56.5195 22.0702 56.4451 21.9353 56.3127C21.8004 56.1802 21.7246 56.0006 21.7246 55.8133V31.0944C21.7246 30.9071 21.8004 30.7275 21.9353 30.5951C22.0702 30.4626 22.2531 30.3882 22.4439 30.3882H44.9058L48.9777 22.7254C49.22 22.2668 49.5861 21.8825 50.036 21.6147C50.4859 21.3469 51.0022 21.2058 51.5283 21.2069ZM45.3417 31.8007H23.1632V34.6257H46.6494C46.9124 34.6261 47.1705 34.5556 47.3955 34.4217C47.6204 34.2877 47.8035 34.0957 47.9247 33.8665L52.198 25.8244C52.2588 25.7098 52.3504 25.6138 52.4629 25.5468C52.5754 25.4798 52.7044 25.4444 52.836 25.4444H66.3205V22.6194H51.5283C51.2653 22.619 51.0072 22.6896 50.7823 22.8235C50.5574 22.9574 50.3743 23.1494 50.253 23.3786L45.9797 31.4207C45.919 31.5353 45.8273 31.6313 45.7148 31.6983C45.6024 31.7653 45.4733 31.8007 45.3417 31.8007ZM49.6532 49.3494C49.6762 49.3752 49.6991 49.401 49.7222 49.4266C49.9172 49.4465 50.1131 49.4566 50.3091 49.457C51.1735 49.4807 52.027 49.2632 52.7706 48.8299C53.7258 48.3153 54.7977 48.0456 55.8872 48.0456C56.9767 48.0456 58.0487 48.3153 59.0039 48.8299C59.7552 49.2413 60.6011 49.4573 61.4614 49.4573C62.3216 49.4573 63.1676 49.2413 63.9188 48.8299C64.6566 48.4165 65.4751 48.1611 66.3205 48.0805V45.2619C65.706 45.3415 65.1137 45.5405 64.5784 45.8473C63.6232 46.3619 62.5512 46.6316 61.4617 46.6316C60.3722 46.6316 59.3003 46.3619 58.345 45.8473C57.5938 45.4359 56.7478 45.2199 55.8876 45.2199C55.0274 45.2199 54.1814 45.4359 53.4301 45.8473C52.4748 46.3624 51.4026 46.6324 50.3127 46.6324C49.2229 46.6324 48.1507 46.3624 47.1953 45.8473C46.4545 45.4143 45.6037 45.1966 44.7419 45.2195C43.88 45.1966 43.0292 45.4143 42.2884 45.8473C41.343 46.3835 40.266 46.6549 39.1746 46.632C38.0807 46.6553 37.0012 46.3837 36.0536 45.8466C35.3126 45.414 34.4618 45.1965 33.6001 45.2195C32.7357 45.1965 31.8823 45.4142 31.1387 45.8473C30.1912 46.384 29.112 46.6554 28.0184 46.632C26.9272 46.655 25.8505 46.3839 24.9053 45.8481C24.37 45.541 23.7778 45.3417 23.1632 45.2619V48.0805C24.0086 48.1611 24.8271 48.4165 25.5649 48.8299C26.3059 49.2625 27.1566 49.48 28.0184 49.457C28.8828 49.4799 29.7361 49.2622 30.4798 48.8291C31.4273 48.2925 32.5065 48.0211 33.6001 48.0445C34.6912 48.0215 35.7679 48.2926 36.7131 48.8284C37.3834 49.2171 38.1439 49.4308 38.9221 49.4492C39.0278 49.3306 39.1343 49.2133 39.2494 49.1003C40.5993 47.7778 42.4284 47.035 44.3355 47.035C46.2425 47.035 48.0716 47.7778 49.4215 49.1003C49.5036 49.1809 49.5784 49.2652 49.6532 49.3494ZM63.9188 44.5923C64.6566 44.179 65.4751 43.9236 66.3205 43.843V26.8569H53.2719L49.2014 34.5198C48.959 34.9785 48.5926 35.3628 48.1425 35.6307C47.6923 35.8985 47.1758 36.0395 46.6494 36.0382H23.1632V43.843C24.0086 43.9236 24.8271 44.179 25.5649 44.5923C26.3059 45.025 27.1566 45.2425 28.0184 45.2195C28.8828 45.2424 29.7361 45.0247 30.4798 44.5916C31.4273 44.055 32.5065 43.7836 33.6001 43.807C34.6912 43.784 35.7679 44.0551 36.7131 44.5909C37.4566 45.0248 38.3101 45.2428 39.1746 45.2195C40.0364 45.2424 40.8872 45.0246 41.628 44.5916C42.5734 44.0555 43.6504 43.7841 44.7419 43.807C45.8334 43.7843 46.9104 44.0559 47.8557 44.5923C48.6068 45.0043 49.4528 45.2205 50.3131 45.2205C51.1734 45.2205 52.0194 45.0043 52.7706 44.5923C53.7258 44.0778 54.7977 43.8081 55.8872 43.8081C56.9767 43.8081 58.0487 44.0778 59.0039 44.5923C59.7552 45.0038 60.6011 45.2198 61.4614 45.2198C62.3216 45.2198 63.1676 45.0038 63.9188 44.5923ZM23.1632 49.4966V55.107H37.2253C37.0067 53.6191 37.2765 52.1014 37.9956 50.7742C37.3138 50.6516 36.6574 50.4184 36.0536 50.0842C35.3126 49.6515 34.4618 49.434 33.6001 49.457C32.7357 49.434 31.8823 49.6517 31.1387 50.0849C30.1912 50.6215 29.112 50.8929 28.0184 50.8695C26.9272 50.8925 25.8505 50.6214 24.9053 50.0856C24.3702 49.7776 23.778 49.5774 23.1632 49.4966ZM34.6744 64.2803C34.863 64.2819 35.0447 64.2107 35.1803 64.0821L35.6889 63.582L34.6718 62.5841L34.1633 63.0834C34.0322 63.2166 33.9597 63.395 33.9614 63.5802C33.963 63.7654 34.0387 63.9425 34.172 64.0735C34.3054 64.2044 34.4858 64.2787 34.6744 64.2803ZM35.6889 61.5855L36.7067 62.5841L39.7838 59.5628C39.5997 59.4145 39.4213 59.257 39.2494 59.0882C39.0794 58.9215 38.9183 58.7463 38.7667 58.5634L35.6889 61.5855ZM45.4582 59.6357C46.5744 59.4177 47.5997 58.8797 48.4045 58.0895C49.4819 57.029 50.087 55.5922 50.087 54.0943C50.087 52.5963 49.4819 51.1595 48.4045 50.099C47.5997 49.3088 46.5744 48.7708 45.4582 48.5528C44.3419 48.3348 43.185 48.4467 42.1335 48.8743C41.0821 49.302 40.1834 50.0262 39.5511 50.9553C38.9188 51.8844 38.5814 52.9768 38.5814 54.0943C38.5814 55.2117 38.9188 56.3041 39.5511 57.2332C40.1834 58.1623 41.0821 58.8865 42.1335 59.3142C43.185 59.7418 44.3419 59.8537 45.4582 59.6357ZM51.4427 55.107H66.3205V49.4966C65.7051 49.5767 65.1121 49.7764 64.5762 50.0842C63.621 50.5987 62.5491 50.8684 61.4596 50.8684C60.37 50.8684 59.2981 50.5987 58.3429 50.0842C57.5916 49.6727 56.7457 49.4567 55.8854 49.4567C55.0252 49.4567 54.1792 49.6727 53.428 50.0842C52.602 50.5493 51.6747 50.8138 50.7235 50.8554C51.4069 52.1649 51.6583 53.6509 51.4427 55.107Z" fill="#262525"/>
    <defs>
        <filter id="filter0_b_78_1176" x="-6" y="-6" width="102" height="99.4138" filterUnits="userSpaceOnUse" color-interpolation-filters="sRGB">
            <feFlood flood-opacity="0" result="BackgroundImageFix"/>
            <feGaussianBlur in="BackgroundImageFix" stdDeviation="3"/>
            <feComposite in2="SourceAlpha" operator="in" result="effect1_backgroundBlur_78_1176"/>
            <feBlend mode="normal" in="SourceGraphic" in2="effect1_backgroundBlur_78_1176" result="shape"/>
        </filter>
        <linearGradient id="paint0_linear_78_1176" x1="44.6386" y1="88.4007" x2="44.6386" y2="-1.21047e-06" gradientUnits="userSpaceOnUse">
            <stop stop-color="#00E0FF"/>
            <stop offset="1" stop-color="#00FA9C"/>
        </linearGradient>
    </defs>
</svg>
