<svg width="488" height="468" viewBox="0 0 488 468" fill="none" xmlns="http://www.w3.org/2000/svg">
    <g filter="url(#filter0_d_78_1237)">
        <path d="M327.137 250.89C323.936 252.01 320.111 248.826 320.629 245.476C321.148 242.125 325.758 240.249 328.47 242.285C332.941 245.64 331.333 254.684 324.746 257.138C315.102 260.73 305.699 249.155 311.992 238.933C317.477 230.022 329.957 230.39 334.926 243.659C341.205 260.424 329.306 281.336 306.294 276.464C274.012 269.628 278.596 212.92 312.251 214.39C344.38 215.794 361.754 286.43 315.218 307.524C298.298 315.194 273.39 308.76 255.917 296.417C229.143 277.504 220.895 230.291 240.664 198.804C289.698 120.699 400.766 217.028 354.211 309.052C338.718 339.678 313.678 357.547 285.019 376.436M322.271 282.001C300.363 298.027 268.001 282.023 264.712 250.988C261.91 224.546 282.935 194.857 306.444 195.705C320.487 196.212 331.673 207.15 341.122 217.55M349.241 235.642C364.164 272.629 332.56 317.63 302.055 326.379C264.206 337.233 214.941 296.997 212.93 241.812M212.478 219.229C212.603 166.839 287.01 128.734 332.906 158.468C377.171 187.145 405.755 282.642 353.053 354.575M313.594 295.008C282.826 306.645 269.881 296.746 254.937 269.935M247.592 251.682C238.618 217.915 255.823 189.109 281.19 183.762C291.059 181.682 301.291 183.446 311.191 185.379M342.096 319.69C317.029 347.624 258.262 343.841 234 335.091C190.284 319.326 166.009 264.431 169.793 219.862C179.848 101.444 379.82 67.8316 403.511 243.835M303.462 356.69C281.497 374.097 238.642 368.112 212.753 357.253M193.072 338.307C142.248 301.44 125.058 233.117 152.462 176.571M176.73 139.675C209.157 104.207 267.728 90.5946 313.085 106.483M225.81 377.69C182.77 367.195 145.634 334.942 129.215 293.8M124.361 264.331C105.948 193.927 145.465 120.896 214.537 97.8254M146.284 347.942C87.585 299.498 79.1278 212.189 127.479 153.382M113.202 328.305C27.1326 211.817 147.87 67.0791 260.953 85.6152C290.9 90.5233 347.979 121.607 374.38 157.587C407.454 202.661 408.244 260.837 398.74 315.457C389.088 370.929 360.065 348.505 341.719 356.645C333.201 360.425 328.077 369.629 319.603 373.51C311.586 377.182 302.285 375.398 293.47 375.648C268.93 376.345 250.363 391.749 196.365 378.904C164.294 371.275 133.128 355.275 113.202 328.305Z" stroke="url(#paint0_linear_78_1237)" stroke-miterlimit="22.9256" shape-rendering="crispEdges"/>
    </g>
    <defs>
        <filter id="filter0_d_78_1237" x="0.800003" y="0.799698" width="486.4" height="466.4" filterUnits="userSpaceOnUse" color-interpolation-filters="sRGB">
            <feFlood flood-opacity="0" result="BackgroundImageFix"/>
            <feColorMatrix in="SourceAlpha" type="matrix" values="0 0 0 0 0 0 0 0 0 0 0 0 0 0 0 0 0 0 127 0" result="hardAlpha"/>
            <feOffset/>
            <feGaussianBlur stdDeviation="41.35"/>
            <feComposite in2="hardAlpha" operator="out"/>
            <feColorMatrix type="matrix" values="0 0 0 0 0 0 0 0 0 0.980392 0 0 0 0 0.611765 0 0 0 1 0"/>
            <feBlend mode="normal" in2="BackgroundImageFix" result="effect1_dropShadow_78_1237"/>
            <feBlend mode="normal" in="SourceGraphic" in2="effect1_dropShadow_78_1237" result="shape"/>
        </filter>
        <linearGradient id="paint0_linear_78_1237" x1="242.715" y1="387.387" x2="242.715" y2="84" gradientUnits="userSpaceOnUse">
            <stop stop-color="#00E0FF"/>
            <stop offset="1" stop-color="#00FA9C"/>
        </linearGradient>
    </defs>
</svg>
