<svg width="200" height="200" viewBox="0 0 200 200" fill="none" xmlns="http://www.w3.org/2000/svg">
    <mask id="path-1-inside-1_91_2393" fill="white">
        <path d="M200 100C200 123.722 191.567 146.672 176.207 164.75C160.847 182.828 139.56 194.856 116.15 198.687C92.7389 202.518 68.7286 197.902 48.4075 185.663C28.0863 173.424 12.7778 154.36 5.21624 131.875L6.12663 131.569C13.6155 153.838 28.777 172.719 48.903 184.841C69.029 196.962 92.8087 201.534 115.995 197.739C139.18 193.945 160.262 182.032 175.475 164.128C190.687 146.223 199.04 123.494 199.04 100H200Z"/>
    </mask>
    <path d="M200 100C200 123.722 191.567 146.672 176.207 164.75C160.847 182.828 139.56 194.856 116.15 198.687C92.7389 202.518 68.7286 197.902 48.4075 185.663C28.0863 173.424 12.7778 154.36 5.21624 131.875L6.12663 131.569C13.6155 153.838 28.777 172.719 48.903 184.841C69.029 196.962 92.8087 201.534 115.995 197.739C139.18 193.945 160.262 182.032 175.475 164.128C190.687 146.223 199.04 123.494 199.04 100H200Z" stroke="url(#paint0_linear_91_2393)" stroke-width="2" stroke-linejoin="round" mask="url(#path-1-inside-1_91_2393)"/>
    <mask id="path-2-inside-2_91_2393" fill="white">
        <path d="M0.0830589 95.9251C0.798355 78.386 6.11784 61.3442 15.5069 46.5125L16.3184 47.0263C7.01957 61.7155 1.75118 78.5936 1.04276 95.9642L0.0830589 95.9251Z"/>
    </mask>
    <path d="M0.0830589 95.9251C0.798355 78.386 6.11784 61.3442 15.5069 46.5125L16.3184 47.0263C7.01957 61.7155 1.75118 78.5936 1.04276 95.9642L0.0830589 95.9251Z" stroke="url(#paint1_linear_91_2393)" stroke-width="2" stroke-linejoin="round" mask="url(#path-2-inside-2_91_2393)"/>
    <mask id="path-3-inside-3_91_2393" fill="white">
        <path d="M45.9072 15.8931C66.4631 2.67274 91.1488 -2.56206 115.301 1.17755C139.453 4.91717 161.4 17.3723 176.995 36.1901L176.256 36.8029C160.81 18.1659 139.075 5.83043 115.154 2.12674C91.2338 -1.57696 66.7852 3.60757 46.4268 16.7009L45.9072 15.8931Z"/>
    </mask>
    <path d="M45.9072 15.8931C66.4631 2.67274 91.1488 -2.56206 115.301 1.17755C139.453 4.91717 161.4 17.3723 176.995 36.1901L176.256 36.8029C160.81 18.1659 139.075 5.83043 115.154 2.12674C91.2338 -1.57696 66.7852 3.60757 46.4268 16.7009L45.9072 15.8931Z" stroke="url(#paint2_linear_91_2393)" stroke-width="2" stroke-linejoin="round" mask="url(#path-3-inside-3_91_2393)"/>
    <defs>
        <linearGradient id="paint0_linear_91_2393" x1="99.1969" y1="202.258" x2="99.1969" y2="-2.76953e-06" gradientUnits="userSpaceOnUse">
            <stop stop-color="#00E0FF"/>
            <stop offset="1" stop-color="#00FA9C"/>
        </linearGradient>
        <linearGradient id="paint1_linear_91_2393" x1="99.1969" y1="202.258" x2="99.1969" y2="-2.76953e-06" gradientUnits="userSpaceOnUse">
            <stop stop-color="#00E0FF"/>
            <stop offset="1" stop-color="#00FA9C"/>
        </linearGradient>
        <linearGradient id="paint2_linear_91_2393" x1="99.1969" y1="202.258" x2="99.1969" y2="-2.76953e-06" gradientUnits="userSpaceOnUse">
            <stop stop-color="#00E0FF"/>
            <stop offset="1" stop-color="#00FA9C"/>
        </linearGradient>
    </defs>
</svg>
