<svg width="21" height="18" viewBox="0 0 21 18" fill="none" xmlns="http://www.w3.org/2000/svg">
    <path fill-rule="evenodd" clip-rule="evenodd" d="M1.87433 7.80469C7.26744 5.45497 10.8637 3.90588 12.6631 3.1575C17.8007 1.02061 18.8683 0.649377 19.5641 0.637092C19.7171 0.634418 20.0593 0.672357 20.281 0.852227C20.6098 1.11903 20.6117 1.69817 20.5752 2.08146C20.2967 5.00678 19.0921 12.1056 18.4792 15.382C18.2198 16.7684 17.7092 17.2333 17.2149 17.2787C16.1406 17.3776 15.3248 16.5687 14.2842 15.8867C12.656 14.8193 11.7361 14.1549 10.1556 13.1134C8.3291 11.9097 9.51317 11.2482 10.5541 10.167C10.8265 9.88413 15.56 5.57862 15.6516 5.18802C15.6631 5.13917 15.6737 4.95706 15.5656 4.86095C15.4574 4.76483 15.2977 4.79764 15.1826 4.8238C15.0192 4.86087 12.4181 6.58014 7.37917 9.98154C6.64083 10.4886 5.97208 10.7356 5.37293 10.7226C4.71235 10.7084 3.44178 10.3492 2.49719 10.0421C1.33863 9.66553 0.41782 9.46636 0.498035 8.82681C0.539805 8.49359 0.998547 8.15293 1.87433 7.80469Z" fill="#262525"/>
</svg>
