<svg width="478" height="489" viewBox="0 0 478 489" fill="none" xmlns="http://www.w3.org/2000/svg">
    <path d="M151.526 75.4164C129.767 69.8486 106.465 92.6024 86.0531 80.9395C68.082 70.6719 99.6892 48.1561 98.5443 37.459C97.0436 23.4565 51.9074 27.6052 27.7777 54.0024C15.8373 67.0654 6.8603 64.6836 6.58431 72.6833C6.4615 76.2288 9.28643 79.1907 10.0494 82.6577C11.5675 89.5512 4.72974 96.1117 5.8811 103.075C7.32048 111.772 19.8201 115.125 9.48931 130.961C6.77486 135.12 3.47026 139.083 2.29001 143.908C1.10975 148.733 2.99317 154.821 7.74914 156.273C24.3944 161.353 20.2414 184.335 29.8952 195.007C33.8686 199.4 39.7994 201.713 43.5484 206.299C47.7911 211.49 48.5041 218.601 50.6763 224.941C56.3483 241.498 92.3517 276.938 73.9248 310.483C70.811 316.152 57.0483 331.923 67.3818 340.878C75.6052 348.004 82.0026 337.669 110.508 370.563C140.522 405.199 155.049 418.523 153.329 436.369C152.377 446.236 145.895 454.658 143.194 464.195C140.492 473.732 144.342 486.955 154.236 487.672C163.459 488.341 169.59 477.788 178.513 475.377C184.423 473.78 192.52 475.046 195.051 469.473C196.142 467.073 194.108 453.05 209.494 455.567C226.348 458.325 216.589 465.3 255.351 457.874C291.571 450.936 287.174 476.959 300.79 475.895C305.324 475.541 309.117 471.165 313.617 471.835C317.657 472.437 320.383 476.944 324.458 477.214C328.52 477.482 331.987 473.37 336.024 473.898C340.125 474.434 353.563 494.122 365.761 462.811C373.756 442.289 375.257 439.578 374.641 435.45C372.984 424.359 354.445 419.565 375.55 405.953C388.007 397.919 374.279 393.445 379.373 384.438C383.521 377.102 389.95 371.375 395.315 364.876C400.292 358.847 403.574 349.958 409.63 345.387C437.665 324.233 448.73 346.022 454.529 334.732C455.78 332.296 455.06 329.162 456.447 326.801C458.626 323.088 464.042 323.678 468.161 322.423C474.226 320.574 477.934 313.2 475.803 307.225C474.298 303.003 470.499 299.893 469.056 295.65C467.091 289.875 470.481 278.343 462.769 275.757C459.353 274.61 454.797 276.464 452.456 273.723C450.367 271.279 451.994 267.036 449.862 264.627C445.77 260.001 442.06 268.532 428.611 265.471C414.752 262.317 435.29 247.353 422.688 243.516C418.745 242.316 411.657 247.277 410.935 233.317C407.818 173.133 373.561 165.349 399.623 159.453C405.96 158.02 415.264 161.241 418.501 158.26C424.09 153.114 411.426 147.414 411.783 141.718C412.614 128.472 448.258 145.786 431.372 112.682C409.917 70.6229 396.568 95.8049 380.073 88.7281C367.6 83.3776 362.302 80.5431 356.517 81.0836C345.054 82.1544 348.07 92.3137 347.088 93.9302C345.693 96.2274 341.932 94.7411 340.572 92.4183C339.211 90.0955 338.77 87.1204 336.665 85.4409C332.829 82.3779 327.195 86.1017 324.649 90.29C314.052 107.732 316.696 105.774 272.537 82.8037C245.174 68.57 247.522 53.515 253.755 47.2935C259.204 41.8555 268.82 42.0709 272.854 35.2386C274.796 31.9497 274.141 26.8864 270.647 25.3322C269.187 24.6822 267.459 24.7143 266.1 23.8756C260.616 20.4911 267.746 5.17914 241.336 1.98365C198.577 -3.19037 184.999 22.2493 171.582 20.294C166.344 19.5311 161.088 24.5209 161.581 29.7893C162.055 34.8481 166.614 40.4951 163.185 44.2402C160.774 46.8718 156.319 45.8353 153.176 47.5279C142.92 53.051 156.399 68.3413 151.526 75.4164ZM151.526 75.4164C147.892 80.189 147.254 91.0836 150.223 95.1472C151.157 96.4251 170.034 103.819 154.535 106.688C147.98 107.901 143.638 115.834 146.144 122.015C149.636 130.62 164.997 120.782 158.117 134.83C156.082 138.984 159.997 144.881 163.636 147.747M254.203 271.38C248.201 276.745 251.886 285.102 257.726 284.276C264 283.388 267.322 272.748 261.294 266.558C252.953 257.992 237.351 264.419 236.81 278.791C236.305 292.227 249.112 302.025 262.377 299.818C296.93 294.072 287.621 238.173 250.377 240.873C242.965 241.41 235.895 244.556 228.466 244.778C215.588 245.167 218.696 249.504 217.915 261.101C217.345 269.57 210.13 276.556 209.836 285.038C209.524 293.997 217.006 301.754 217.065 310.718C217.121 319.275 215.538 324.426 225.157 322.925C241.349 320.397 258.36 349.19 270.494 328.578C279.131 313.907 310.534 312.849 306.028 286.471C303.219 270.038 324.338 255.489 303.447 241.92C276.948 224.708 285.899 221.089 281.38 213.239C273.031 198.737 240.868 219.638 218.082 211.064C195.81 202.682 199.936 211.368 194.668 223.606C190.141 234.123 172.438 239.591 174.45 252.407C176.265 263.962 157.378 259.479 153.448 267.53C148.647 277.365 167.436 282.969 167.215 303.405C166.943 328.717 167.966 320.125 177.233 330.666C186.096 340.747 178.794 359.04 185.511 366.609C192.23 374.179 203.694 367.261 212.33 368.329C223.867 369.756 231.331 383.226 242.929 384.02M242.929 384.02C248.664 384.414 254.099 381.536 259.807 380.873C274.051 379.219 294.577 394.346 302.927 385.191C307.056 380.665 306.586 369.405 309.068 363.965C311.338 358.988 317.106 356.882 320.93 353.332C324.702 349.829 326.796 344.937 329.603 340.624C341.413 322.476 355.809 324.667 365.848 315.267C368.718 312.58 370.736 308.972 370.87 305.041C371.219 294.888 359.514 292.656 356.252 284.817C351.311 272.946 367.309 266.435 358.687 246.1C354.015 235.082 341.698 220.308 356.921 196.021C359.745 191.517 363.028 186.581 360.621 181.106C359.879 179.417 358.586 177.997 357.09 176.914C343.534 167.105 326.561 185.263 313.086 176.585C305.025 171.395 304.548 158.861 288.422 155.64C275.141 152.988 265.831 156.639 255.209 146.618C246.655 138.549 242.31 124.336 231.056 119.455C222.634 115.802 211.654 120.178 208.07 128.617C206.366 132.631 206.132 137.342 203.44 140.773C196.453 149.684 182.239 143.358 173.071 144.453C158.462 146.199 150.118 162.013 137.172 168.987C119.818 178.335 74.8316 171.004 84.9155 208.251C85.5 210.411 86.6149 212.396 87.9511 214.192C97.7298 227.334 77.0125 245.234 76.8645 275.341M242.929 384.02C245.167 393.695 231.005 402.78 233.93 412.271C235.125 416.145 243.794 424.423 229.581 428.588C212.05 433.724 223.864 441.706 218.844 447.963C215.393 452.263 206.409 448.807 199.299 457.394M206.077 368.583C221.846 365.386 245.044 341.238 240.189 327.151M209.838 285.04C191.601 286.63 174.47 277.764 166.993 261.029M220.729 246.247C205.181 243.731 194.422 230.166 196.408 218.762M262.143 242.127C258.946 231.788 259.526 214.299 273.244 208.19M283.42 278.924C289.958 277.534 300.468 279.741 305.797 284.42M270.862 297.019C276.262 307.241 276.218 317.652 271.538 327.024M308.552 365.33C314.514 348.241 311.46 320.284 298.91 307.641M356.859 286.052C347.557 271.602 327.093 263.121 309.761 268.021M325.55 178.698C307.432 182.17 278.491 201.225 282.35 215.44M205.339 137.263C193.479 161.552 201.399 191 209.223 208.288M89.8645 217.789C112.51 221.856 121.665 277.551 156.528 278.837M96.2028 355.833C121.761 366.378 158.568 360.59 182.072 346.095M378.66 391.551C375.687 379.888 363.714 384.768 359.93 381.144C355.179 376.595 362.987 361.763 349.659 360.609C344.071 360.126 333.952 365.832 334.336 354.126C334.472 349.971 328.413 347.153 322.877 351.218M414.869 242.928C408.632 241.408 402.352 250.041 396.694 245.816C393.393 243.353 392.472 234.24 383.025 241.772C376.679 246.832 374.811 244.53 372.151 242.435C367.864 239.058 361.293 239.026 357.317 242.857M318.049 99.8923C313.965 103.782 319.947 115.064 313.54 116.815C309.618 117.886 307.327 112.512 304.66 110.761C298.896 106.976 290.992 113.523 294.183 121.424C296.528 127.23 301.186 129.939 295.318 135.151C288.75 140.985 285.977 148.455 290.286 156.078M155.623 474.186C166.742 459.078 169.294 438.072 162.116 420.718M176.521 463.326C182.069 450.312 181.555 434.852 175.156 422.217M198.582 449.715C200.404 442.424 198.869 434.36 194.495 428.24M340.549 468.547C318.648 445.355 311.13 442.521 288.159 438.54M353.443 453.384C344.344 433.744 322.446 420.804 300.86 422.312M359.327 412.76C344.465 403.069 326.012 404.652 309.015 409.158M319.163 391.787C327.658 385.383 339.323 383.412 349.467 386.668M411.003 335.075C423.129 324.617 437.555 315.146 452.383 321.294M410.023 320.541C421.81 305.988 441.758 298.529 460.225 301.77M410.576 300.976C419.06 291.2 428.608 280.538 442.165 279.622M402.691 290.955C415.378 272.302 416.018 270.651 419.072 269.468M385.762 158.434C392.491 128.231 409.843 119.431 423.117 121.982M375.249 157.457C373.541 131.851 384.112 112.463 399.303 103.005M359.723 149.671C356.388 132.276 370.323 110.171 357.482 95.3541M337.567 153.263C344.866 133.549 339.464 116.567 328.503 108.012M324.51 153.259C324.268 142.23 318.183 131.486 308.84 125.599M250.134 76.8626C216.402 53.6058 231.127 30.597 244.603 21.9661M234.047 76.8421C203.656 56.9726 206.499 37.6551 221.911 17.3298M214.129 72.2825C186.996 53.3607 187.218 42.9054 192.918 25.4562M211.641 90.4931C204.201 85.2236 189.453 67.0976 159.272 64.8934M208.632 110.844C198.522 101.366 184.529 96.1556 170.69 96.7163M201.462 124.56C190.909 119.434 178.46 118.345 167.188 121.56M130.649 97.8217C60.7616 120.301 51.1406 71.4234 73.7097 49.2909M129.374 112.494C115.384 114.174 102.191 120.289 88.1655 121.652C62.9549 124.101 36.9471 109.254 26.2303 86.2929M134.426 122.953C114.327 124.637 95.7388 137.13 75.6137 135.713C65.0763 134.971 47.3851 127.597 24.3051 138.512M135.456 137.089C115.913 139.902 98.2554 151.117 78.6262 153.253C60.7066 155.203 58.2815 151.339 33.2644 166.144M132.387 156.863C102.655 166.009 73.1627 166.191 47.4011 190.67M158.673 171.06C140.956 185.052 117.213 204.931 100.938 195.955M150.915 193.882C140.729 205.291 128.166 217.682 112.997 212.297M250.529 152.71C239.701 149.631 230.797 140.526 227.963 129.636M238.32 157.997C229.559 156.31 222.097 149.143 220.062 140.459M80.2239 332.116C91.3392 322.847 97.5073 307.965 96.2123 293.54M98.1717 334.766C106.513 327.131 109.421 314.136 105.13 303.66" stroke="url(#paint0_linear_91_2296)" stroke-opacity="0.5" stroke-width="2" stroke-miterlimit="10" stroke-linecap="round" stroke-linejoin="round"/>
    <defs>
        <linearGradient id="paint0_linear_91_2296" x1="65.0063" y1="427.061" x2="360.747" y2="48.5298" gradientUnits="userSpaceOnUse">
            <stop stop-color="#00E0FF"/>
            <stop offset="1" stop-color="#00FA9C"/>
        </linearGradient>
    </defs>
</svg>
