<svg width="444" height="520" viewBox="0 0 444 520" fill="none" xmlns="http://www.w3.org/2000/svg">
    <path d="M435.12 220.358C445.606 221.677 443.177 227.231 436.53 235.45C423.906 251.063 434.747 273.244 432.76 291.37M435.12 220.358C396.205 215.462 422.194 165.503 427.76 144.861C434.702 119.116 451.296 49.7144 424.82 48.156M435.12 220.358C434.338 225.147 429.895 229.132 425.919 231.916C409.761 243.228 395.968 257.648 386.066 274.701M432.76 291.37C429.373 322.26 393.501 342.084 396.378 365.602C397.582 375.447 412.839 395.265 384.963 404.903C368.738 410.514 366.022 407.048 350.616 421.486C293.622 474.9 275.446 489.685 263.148 513.28C259.533 520.215 256.333 519.895 252.114 513.89M432.76 291.37C431.001 293.673 417.166 294.642 401.419 307.041C393.717 313.105 386.837 321.6 378.507 326.768M252.114 513.89C236.985 492.364 213.14 510.109 204.537 513.381C189.025 519.282 174.951 508.471 160.825 514.07C129.583 526.453 145.208 503.866 124.699 485.245C47.4456 415.104 56.5807 440.167 43.4064 414.199C15.0409 358.284 3.02507 297.422 1.49885 273.383C-1.31216 229.11 23.78 117.951 103.776 71.4447C128.06 57.3269 158.725 46.832 170.031 21.9276C170.923 19.9621 173.418 19.4968 175.036 20.9288C203.008 45.6833 255.078 1.45192 262.086 1.19497C269.799 0.911929 278.279 10.809 299.082 6.82867C311.955 4.36493 312.155 3.29673 323.217 10.4208C361.68 35.1889 423.712 23.211 424.82 48.156M252.114 513.89C250.912 503.369 261.274 489.799 263.621 479.471C269.474 453.715 243.43 424.424 247.506 398.328M424.82 48.156C404.525 83.112 427.364 120.992 392.271 176.181M415.753 207.078C401.684 172.373 371.295 166.865 367.049 157.963C363.124 149.738 370.828 135.753 344.606 145.124M344.606 145.124C328.986 150.706 316.781 143.34 301.433 141.855C289.323 140.682 265.272 144.164 240.401 144.378C231.962 144.45 232.424 147.49 230.332 152.447M344.606 145.124C327.334 184.009 346.755 187.814 347.193 217.954M230.332 152.447C225.206 164.598 205.839 163.559 198.693 174.644C191.436 185.9 191.73 175.859 184.019 187.964M230.332 152.447C265.678 209.095 245.26 172.031 281.478 212.435M184.019 187.964C139.81 257.358 159.73 263.745 151.413 279.897C147.781 286.95 143.385 288.441 155.424 304.582C168.814 322.532 173.522 346.371 189.255 362.308C193.087 366.19 197.732 369.902 198.868 375.235M184.019 187.964C161.571 164.497 120.217 170.047 93.4788 166.892M198.868 375.235C199.16 376.607 198.815 389.877 209.272 388.03C235.311 383.431 258.043 409.789 270.118 407.457C280.434 405.464 277.825 396.735 299.674 407.585C311.261 413.339 310.316 400.373 314.837 394.776C320.708 387.505 333.092 392.953 341.422 388.714C353.758 382.438 348.535 361.269 359.386 352.681C362.689 350.066 366.969 349.113 370.799 347.359C386.41 340.21 371.465 306.715 382.864 292.735C397.356 274.965 385.507 277.833 382.493 270.428C380.802 266.276 384.21 261.662 383.605 257.221C382.551 249.488 371.754 248.432 365.87 243.304C358.162 236.59 358.662 222.152 349.115 218.496C344.192 216.611 338.764 218.656 333.58 219.609C318.32 222.413 320.621 211.515 317.428 208.942C309.707 202.721 305.542 210.584 301.74 212.583C295.662 215.776 288.1 210.618 281.478 212.435M198.868 375.235C223.284 363.256 232.898 348.273 243.589 324.104M281.478 212.435C276.811 210.697 275.963 216.712 272.181 219.951C266.193 225.081 256.565 225.667 252.399 232.361C249.916 236.35 250.132 241.502 248.01 245.693C244.268 253.081 233.701 256.952 233.66 265.231C233.639 269.298 236.395 272.902 236.851 276.942C237.753 284.927 229.695 293.11 233.488 300.196C235.536 304.022 240.4 305.699 242.405 309.548C244.964 314.459 241.883 320.823 244.176 325.863C246.721 331.461 254.199 332.45 258.992 336.306C264.121 340.432 266.606 348.206 273.016 349.711M281.478 212.435C282.729 224.677 288.585 237.843 298.915 244.536M273.016 349.711C278.138 350.915 283.482 347.339 288.61 348.519C292.762 349.474 296.452 353.455 300.542 352.263C302.07 351.818 303.381 350.667 304.967 350.535C307.778 350.301 309.937 353.29 312.747 353.534M273.016 349.711C278.537 365.049 284.726 392.954 274.224 406.077M312.747 353.534C317.597 353.956 319.017 347.14 322.202 343.459C326.448 338.552 330.709 341.722 348.274 321.85C360.245 308.307 353.233 306.18 355.28 299.466C356.091 296.806 358.499 294.835 359.186 292.14C360.527 286.874 355.012 282.635 352.679 277.725M312.747 353.534C329.534 358.753 340.131 369.28 338.35 389.835C353.66 390.815 370.808 395.817 382.529 405.711M352.679 277.725C349.74 271.545 351.939 258.376 343.114 256.354C340.349 255.72 337.389 256.874 334.644 256.155C329.549 254.819 327.941 248.098 323.399 245.432M352.679 277.725C356.548 265.655 368.889 254.537 381.444 252.749M323.399 245.432C318.822 242.746 313.073 244.98 307.767 245.112C300.058 245.304 290.076 241.829 286.166 248.474C283.831 252.445 285.57 258.104 282.617 261.639C281.173 263.366 278.848 264.22 277.543 266.055C274.763 269.961 278.079 275.377 277.333 280.113C276.689 284.207 272.986 287.709 273.611 291.806M323.399 245.432C317.522 236.488 317.162 225.343 320.355 215.129M273.611 291.806C274.182 295.552 278.096 297.813 279.755 301.221C280.959 303.702 280.883 306.616 281.825 309.207C285.238 318.603 306.657 323.192 313.291 323.3C346.125 323.842 353.557 276.696 322.062 267.177C305.929 262.301 294.598 274.526 295.531 286.694C296.711 302.108 315.823 310.852 326.923 300.878C337.648 291.241 328.848 275.248 316.446 278.265C304.394 281.194 307.934 296.131 316.461 294.529C320.585 293.754 322.487 287.412 319.079 284.963M273.611 291.806C261.801 295.578 254.663 311.281 241.299 307.814M320.577 8.75434C338.799 50.2021 350.341 97.3971 353.304 142.572M365.811 47.9384C377.429 83.8292 383.957 143.412 374.315 164.414M269.402 2.9817C279.856 51.489 316.145 95.4119 317.695 145.007M187.096 27.3505C201.6 72.7978 250.161 99.8044 270.486 142.965M241.07 54.8466C263.95 78.8522 281.596 109.993 291.34 141.687M365.646 151.855C364.69 170.614 350.85 176.726 360.973 236.342M296.424 141.619C304.468 148.857 296.812 172.344 321.377 204.105C325.002 208.792 330.308 214.346 332.736 219.752M243.309 144.339C261.83 187.576 291.321 196.485 297.549 213.637M284.91 141.989C285.598 174.96 305.655 191.946 313.001 206.294M402.954 186.185C376.407 211.32 384.845 233.267 376.604 249.254M395.742 179.034C373.63 198.931 380.498 227.541 371.109 246.622M434.865 237.754C422.612 252.855 397.487 261.719 389.909 280.22M430.789 300.477C429.033 308.101 417.114 310.869 411.676 312.635C399.342 316.64 387.453 326.368 378.096 335.344M400.813 391.962C385.01 382.018 367.722 376.511 349.153 378.467M340.998 430.48C343.033 426.507 331.568 404.564 312.442 399.299M330.755 440.025C333.087 426.848 322.197 410.467 309.607 405.912M268.851 407.592C277.577 437.293 289.396 468.877 272.584 498.332M232.324 147.545C197.04 107.38 162.059 107.212 137.676 94.3464C109.274 79.3627 106.97 61.2541 99.7349 78.9839C97.9379 83.3878 97.4446 88.5382 94.175 91.9932C90.4205 95.9602 84.0425 96.5135 80.2891 100.482C73.9094 107.227 76.8482 140.745 42.0069 165.119C-5.94374 198.665 51.6558 196.881 38.5027 238.142C28.2477 270.314 -13.0081 278.129 34.6725 325.048C104.337 393.601 15.566 424.436 82.4378 432.995C117.866 437.529 138.547 464.677 132.356 494.784C139.823 465.476 179.331 443.864 188.038 361.089M216.969 163.231C192.755 140.83 155.842 147.046 92.5047 100.927C83.7658 94.5627 77.6318 100.003 84.1259 107.488C113.507 141.353 166.02 143.661 200.289 172.576M166.672 28.0849C169.037 49.2684 247.938 106.81 255.741 143.89M252.596 5.9799C256.595 46.8986 295.552 71.4931 302.71 141.992M177.448 198.593C161.128 181.209 76.4571 209.258 28.6298 176.194M169.688 212.25C124.847 204.674 69.9367 227.116 29.5462 201.699M12.7935 281.846C127.16 282.203 121.945 249.193 155.753 245.994M16.3937 302.273C78.1123 316.712 124.334 270.461 153.731 263.684M57.4807 411.779C74.6292 402.173 95.5286 399.859 111.266 388.084C133.935 371.123 141.478 335.739 163.895 318.447M66.784 429.891C159.129 395.206 134.61 350.941 168.843 328.616M157.837 515.198C157.174 445.384 195.54 431.275 198.919 376.505M172.969 361.475C166.865 385.383 160.025 411.083 140.362 427.233M155.126 304.181C124.687 313.139 129.513 357.774 87.969 367.307M160.1 232.623C134.205 239.921 139.011 228.153 107.714 246.995C97.7931 252.968 86.3941 256.468 74.8285 257.094M204.99 480.689C207.854 451.407 200.496 412.321 223.188 388.252M357.115 227.376C347.22 232.15 342.889 247.225 346.103 257.728M353.332 221.342C338.99 238.076 338.282 242.653 341.032 256.156M309.381 207.074C302.691 225.684 313.628 238.892 315.664 244.235M290.633 212.797C290.316 224.967 296.535 240.112 307.661 245.065M290.049 245.197C279.271 240.227 271.362 234.645 266.91 223.226C242.731 201.358 231.505 218.28 193.726 180.383M285.669 249.519C272.486 245.86 259.063 241.644 258.381 227.129C230.806 214.698 203.776 229.841 181.955 191.232M284.568 255.747C270.592 259.666 259.069 255.35 246.54 248.021M237.471 257.103C255.142 267.712 260.196 266.058 277.142 266.708M276.449 272.834C264.671 279.657 250.198 286.243 236.588 281.251M234.614 287.478C248.594 292.369 266.156 290.11 277.233 280.282M277.768 298.356C268.384 307.566 257.403 316.745 243.456 313.989M281.353 307.545C276.146 316.267 274.281 336.531 261.457 338.735M284.551 313.187C286.827 324.449 276.325 339.432 266.142 344.763M291.686 317.837C298.753 326.109 300.317 341.807 297.055 352.185C300.377 361.643 322.573 378.016 313.126 397.695M301.359 321.481C308.464 329.864 309.751 340.695 308.419 351.601M326.274 339.353C326.481 332.417 321.587 326.318 315.353 323.265M328.932 319.171C333.822 319.652 338.114 323.755 340.341 328.131M335.723 313.077C341.421 309.309 350.011 307.274 354.705 312.236M341.659 299.83C344.177 294.981 352.132 291.038 357.758 295.093M339.227 280.692C340.339 275.128 344.749 270.354 350.21 268.804M324.048 267.846C318.963 261.452 318.481 251.45 318.817 244.151M315.934 266.109C307.146 262.533 305.533 252.378 306.657 245.11M382.843 263.15C371.703 265.861 362.426 273.882 356.609 283.758M358.998 292.708C366.156 287.405 382.142 279.291 388.801 284.048M355.044 304.146C361.879 294.46 374.064 287.604 385.859 288.844M352.989 315.658C361.454 309.896 368.043 302.252 378.389 305.922M349.262 320.708C357.548 318.185 368.35 308.64 378.148 313.805M336.575 333.619C358.305 327.247 373.989 334.711 376.2 342.046M327.093 340.014C341.705 336.056 358.179 337.271 368.249 348.413M318.999 348.532C341.534 349.858 349.34 367.04 349.593 375.951M283.302 348.614C296.45 363.747 301.543 386.325 294.31 405.099M265.594 344.078C267.08 358.836 264.855 392.163 253.756 401.872M250.228 331.466C249.787 353.398 234.352 374.619 216.594 387.508M237.116 304.231C226.982 329.634 191.309 352.442 181.013 351.959M232.76 298.325C220.297 318.764 189.003 344.05 171.67 334.642M234.035 262.642C213.457 282.898 178.043 289.762 150.212 282.045M151.043 298.214C180.437 307.261 211.808 291.079 234.974 270.827M162.226 227.512C184.22 250.806 230.951 232.068 248.335 244.983M156.55 242.995C178.974 268.561 213.829 242.945 243.032 251.832" stroke="url(#paint0_linear_266_61)" stroke-opacity="0.5" stroke-width="2" stroke-miterlimit="10" stroke-linecap="round" stroke-linejoin="round"/>
    <defs>
        <linearGradient id="paint0_linear_266_61" x1="442.6" y1="277.877" x2="3.0632" y2="239.423" gradientUnits="userSpaceOnUse">
            <stop stop-color="#00E0FF"/>
            <stop offset="1" stop-color="#00FA9C"/>
        </linearGradient>
    </defs>
</svg>
